<?xml version="1.0" encoding="iso-8859-1"?>
<!-- Generator: Adobe Illustrator 19.0.0, SVG Export Plug-In . SVG Version: 6.00 Build 0)  -->
<svg version="1.1" id="Capa_1" xmlns="http://www.w3.org/2000/svg" xmlns:xlink="http://www.w3.org/1999/xlink" x="0px" y="0px"
	 viewBox="0 0 512 512" style="enable-background:new 0 0 512 512;" xml:space="preserve">
<path style="fill:#2196F3;" d="M497.798,263.392c-2.912-4.608-8.032-7.392-13.472-7.392h-192c-6.208,0-11.872,3.584-14.496,9.248
	l-104.64,224c-2.304,4.96-1.952,10.752,0.992,15.36S182.214,512,187.686,512h192c6.208,0,11.872-3.584,14.496-9.216l104.64-224
	C501.126,273.824,500.742,268,497.798,263.392z"/>
<path style="fill:#FFC107;" d="M425.19,7.392C422.246,2.784,417.158,0,411.686,0h-160c-6.208,0-11.872,3.584-14.496,9.248l-224,480
	c-2.304,4.96-1.952,10.752,0.992,15.36S22.214,512,27.686,512h160c6.208,0,11.872-3.584,14.496-9.216l224-480
	C428.486,17.824,428.134,12,425.19,7.392z"/>
<g>
</g>
<g>
</g>
<g>
</g>
<g>
</g>
<g>
</g>
<g>
</g>
<g>
</g>
<g>
</g>
<g>
</g>
<g>
</g>
<g>
</g>
<g>
</g>
<g>
</g>
<g>
</g>
<g>
</g>
</svg>
