<?xml version="1.0" encoding="iso-8859-1"?>
<!-- Generator: Adobe Illustrator 19.0.0, SVG Export Plug-In . SVG Version: 6.00 Build 0)  -->
<svg version="1.1" id="Capa_1" xmlns="http://www.w3.org/2000/svg" xmlns:xlink="http://www.w3.org/1999/xlink" x="0px" y="0px"
	 viewBox="0 0 508.1 508.1" style="enable-background:new 0 0 508.1 508.1;" xml:space="preserve">
<path style="fill:#F2705B;" d="M47.15,0c-11.6,0-21.1,9.5-21.1,21.2v465.7c0,11.7,9.5,21.2,21.2,21.2h93.6V0H47.15z"/>
<path style="fill:#F2F2F2;" d="M140.75,0v508h287.5c11.7,0,21.2-9.5,21.2-21.2V21.2c0-11.7-9.5-21.2-21.2-21.2H140.75z"/>
<path style="fill:#89D6F7;" d="M470.75,45.7h-21.4v81.7h21.4c6.3,0,11.3-5,11.3-11.3V57C482.05,50.8,477.05,45.7,470.75,45.7z"/>
<path style="fill:#CDD5DF;" d="M470.75,134.4h-21.4v81.7h21.4c6.3,0,11.3-5.1,11.3-11.3v-59.2
	C482.05,139.4,477.05,134.4,470.75,134.4z"/>
<path style="fill:#FFD05C;" d="M470.75,223h-21.4v81.7h21.4c6.3,0,11.3-5,11.3-11.3v-59.2C482.05,228.1,477.05,223,470.75,223z"/>
<rect x="449.35" y="45.7" style="fill:#55BFE9;" width="11.3" height="81.7"/>
<rect x="449.35" y="134.4" style="fill:#ABB2B9;" width="11.3" height="81.7"/>
<rect x="449.35" y="223" style="fill:#F6B44B;" width="11.3" height="81.7"/>
<g>
	<rect x="184.55" y="412.8" style="fill:#89D6F7;" width="221.1" height="26.4"/>
	<rect x="184.55" y="346.3" style="fill:#89D6F7;" width="221.1" height="26.4"/>
	<rect x="184.55" y="279.9" style="fill:#89D6F7;" width="221.1" height="26.4"/>
</g>
<g>
</g>
<g>
</g>
<g>
</g>
<g>
</g>
<g>
</g>
<g>
</g>
<g>
</g>
<g>
</g>
<g>
</g>
<g>
</g>
<g>
</g>
<g>
</g>
<g>
</g>
<g>
</g>
<g>
</g>
</svg>
