<?xml version="1.0" encoding="iso-8859-1"?>
<!-- Generator: Adobe Illustrator 19.0.0, SVG Export Plug-In . SVG Version: 6.00 Build 0)  -->
<svg version="1.1" id="Capa_1" xmlns="http://www.w3.org/2000/svg" xmlns:xlink="http://www.w3.org/1999/xlink" x="0px" y="0px"
	 viewBox="0 0 508 508" style="enable-background:new 0 0 508 508;" xml:space="preserve">
<circle style="fill:#89D6F7;" cx="254.2" cy="255.7" r="212"/>
<path style="fill:#FFFFFF;" d="M253.3,104.3c-82,0-148.6,66.7-148.6,148.6c0,82,66.7,148.6,148.6,148.6c82,0,148.6-66.7,148.6-148.6
	C402,171,335.3,104.3,253.3,104.3z"/>
<path style="fill:#F2705B;" d="M253.3,167.7c-47,0-85.3,38.3-85.3,85.3s38.3,85.3,85.3,85.3s85.3-38.3,85.3-85.3
	C338.6,205.9,300.3,167.7,253.3,167.7z"/>
<g>
	<path style="fill:#89D6F7;" d="M254,0c-7,0-12.7,5.7-12.7,12.7v60.7c0,7,5.7,12.7,12.7,12.7c7,0,12.7-5.7,12.7-12.7V12.7
		C266.7,5.7,261,0,254,0z"/>
	<path style="fill:#89D6F7;" d="M254,421.9c-7,0-12.7,5.7-12.7,12.7v60.7c0,7,5.7,12.7,12.7,12.7c7,0,12.7-5.7,12.7-12.7v-60.7
		C266.7,427.6,261,421.9,254,421.9z"/>
	<path style="fill:#89D6F7;" d="M495.3,241.3h-60.7c-7,0-12.7,5.7-12.7,12.7s5.7,12.7,12.7,12.7h60.7c7,0,12.7-5.7,12.7-12.7
		S502.3,241.3,495.3,241.3z"/>
	<path style="fill:#89D6F7;" d="M73.4,241.3H12.7C5.7,241.3,0,247,0,254s5.7,12.7,12.7,12.7h60.7c7,0,12.7-5.7,12.7-12.7
		S80.4,241.3,73.4,241.3z"/>
</g>
<g>
</g>
<g>
</g>
<g>
</g>
<g>
</g>
<g>
</g>
<g>
</g>
<g>
</g>
<g>
</g>
<g>
</g>
<g>
</g>
<g>
</g>
<g>
</g>
<g>
</g>
<g>
</g>
<g>
</g>
</svg>
