<?xml version="1.0" encoding="iso-8859-1"?>
<!-- Generator: Adobe Illustrator 19.0.0, SVG Export Plug-In . SVG Version: 6.00 Build 0)  -->
<svg version="1.1" id="Capa_1" xmlns="http://www.w3.org/2000/svg" xmlns:xlink="http://www.w3.org/1999/xlink" x="0px" y="0px"
	 viewBox="0 0 512 512" style="enable-background:new 0 0 512 512;" xml:space="preserve">
<g>
	<path style="fill:#FFC107;" d="M327.936,145.632c39.84,0,73.696-32.608,73.696-72.8C401.632,32.608,367.776,0,327.936,0
		c-39.872,0-73.184,32.608-73.184,72.832C254.752,113.024,288.064,145.632,327.936,145.632z"/>
	<path style="fill:#FFC107;" d="M318.688,328.672c0.512-12.96,0.896-16.192,1.408-26.368C398.112,322.848,464,257.408,464,257.408
		s-16.704-31.36-37.824-63.84c-34.432,31.232-70.112,26.016-85.28,22.688c-20-4.384-25.408-12.928-23.776-20.48
		c-11.616-3.712-52.576-28.128-77.344-36.256c-47.616,29.216-66.688,102.24-64.416,176.512
		C143.392,397.216,113.248,417.856,48,432.96c12.288,29.024,23.616,39.904,41.792,78.4c81.6-22.272,133.76-70.496,165.824-111.808
		c54.592,14.016,94.528,48.96,127.488,112.448c34.24-28.768,38.016-31.712,67.136-55.328
		C427.52,401.888,371.776,354.464,318.688,328.672z"/>
</g>
<g>
</g>
<g>
</g>
<g>
</g>
<g>
</g>
<g>
</g>
<g>
</g>
<g>
</g>
<g>
</g>
<g>
</g>
<g>
</g>
<g>
</g>
<g>
</g>
<g>
</g>
<g>
</g>
<g>
</g>
</svg>
