<?xml version="1.0" encoding="iso-8859-1"?>
<!-- Generator: Adobe Illustrator 19.0.0, SVG Export Plug-In . SVG Version: 6.00 Build 0)  -->
<svg version="1.1" id="Capa_1" xmlns="http://www.w3.org/2000/svg" xmlns:xlink="http://www.w3.org/1999/xlink" x="0px" y="0px"
	 viewBox="0 0 512 512" style="enable-background:new 0 0 512 512;" xml:space="preserve">
<path style="fill:#F06292;" d="M480.624,355.616c-17.952-38.08-44.96-95.136-72-152.16S354.608,89.408,336.656,51.392
	C322.064,20.192,290.416,0,255.984,0c-34.208,0-65.792,20-80.448,50.944C154.864,95.104,122,164.288,91.056,229.568
	c-22.752,47.968-44.512,93.792-59.68,126.016c-6.88,14.496-10.496,30.592-10.496,46.528C20.848,462.688,70.16,512,130.768,512
	c39.04,0,85.536-27.168,125.216-65.856C295.664,484.832,342.16,512,381.2,512c60.608,0,109.92-49.312,109.92-109.92
	C491.12,386.176,487.472,370.08,480.624,355.616z M198.96,276.864c0-31.456,25.6-57.056,57.024-57.056s57.024,25.6,57.024,57.056
	c0,38.08-24.384,83.52-57.024,121.792C223.312,360.416,198.96,314.944,198.96,276.864z M381.2,480
	c-28.736,0-68.128-23.808-102.944-57.6c38.784-45.216,66.752-100,66.752-145.536c0-49.088-39.936-89.024-89.024-89.024
	s-89.024,39.936-89.024,89.024c0,45.504,27.968,100.32,66.752,145.536c-34.816,33.792-74.208,57.6-102.944,57.6
	c-42.976,0-77.92-34.944-77.92-77.92c0-11.232,2.56-22.56,7.424-32.832c15.2-32.256,36.928-78.048,59.68-125.984
	c30.976-65.344,63.84-134.592,84.544-178.72C213.872,44.8,234.064,32,255.984,32c22.048,0,42.304,12.928,51.68,32.992
	c17.952,38.08,44.96,95.136,72,152.16s54.016,114.016,72,152.128c4.864,10.24,7.424,21.568,7.424,32.8
	C459.12,445.056,424.176,480,381.2,480z"/>
<g>
</g>
<g>
</g>
<g>
</g>
<g>
</g>
<g>
</g>
<g>
</g>
<g>
</g>
<g>
</g>
<g>
</g>
<g>
</g>
<g>
</g>
<g>
</g>
<g>
</g>
<g>
</g>
<g>
</g>
</svg>
