<?xml version="1.0" encoding="iso-8859-1"?>
<!-- Generator: Adobe Illustrator 19.0.0, SVG Export Plug-In . SVG Version: 6.00 Build 0)  -->
<svg version="1.1" id="Capa_1" xmlns="http://www.w3.org/2000/svg" xmlns:xlink="http://www.w3.org/1999/xlink" x="0px" y="0px"
	 viewBox="0 0 508.062 508.062" style="enable-background:new 0 0 508.062 508.062;" xml:space="preserve">
<g>
	<path style="fill:#4FBFA8;" d="M163.631,143.062l-54.3-68.8c-7.7-9.8-21.9-11.4-31.6-3.7c-9.8,7.7-11.4,21.9-3.7,31.6l32.3,40.9
		H163.631z"/>
	<path style="fill:#4FBFA8;" d="M394.831,151.962l39.3-49.8c7.7-9.8,6-23.9-3.7-31.6c-9.8-7.7-23.9-6-31.6,3.7l-61.4,77.7H394.831z"
		/>
	<path style="fill:#4FBFA8;" d="M422.931,471.462l-33.6-42.5h-57.4l55.6,70.5c4.4,5.6,11,8.6,17.7,8.6c4.9,0,9.8-1.6,13.9-4.8
		C428.931,495.362,430.631,481.262,422.931,471.462z"/>
	<path style="fill:#4FBFA8;" d="M85.131,471.462c-7.7,9.8-6,23.9,3.7,31.6c4.1,3.3,9.1,4.8,13.9,4.8c6.7,0,13.2-2.9,17.7-8.6l60-76
		h-57.4L85.131,471.462z"/>
</g>
<g>
	<path style="fill:#334A5E;" d="M41.131,20.862L41.131,20.862c-42.7,33.4-50.2,95.2-16.8,137.9l154.7-121.1
		C145.631-5.038,83.831-12.538,41.131,20.862z"/>
	<path style="fill:#334A5E;" d="M466.931,20.862L466.931,20.862c-42.7-33.4-104.5-25.9-137.9,16.8l154.7,121.1
		C517.131,116.062,509.631,54.262,466.931,20.862z"/>
</g>
<circle style="fill:#41596B;" cx="254.031" cy="277.562" r="219.6"/>
<path style="fill:#F2F2F2;" d="M254.031,433.162c-85.8,0-155.6-69.8-155.6-155.6s69.8-155.6,155.6-155.6s155.6,69.8,155.6,155.6
	S339.831,433.162,254.031,433.162z"/>
<g>
	<path style="fill:#F2705B;" d="M254.031,131.462c-2.3,0-4.2,1.9-4.2,4.2v11.4c0,2.3,1.9,4.2,4.2,4.2c2.3,0,4.2-1.9,4.2-4.2v-11.4
		C258.231,133.362,256.331,131.462,254.031,131.462z"/>
	<path style="fill:#F2705B;" d="M254.031,403.862c-2.3,0-4.2,1.9-4.2,4.2v11.4c0,2.3,1.9,4.2,4.2,4.2c2.3,0,4.2-1.9,4.2-4.2v-11.4
		C258.231,405.762,256.331,403.862,254.031,403.862z"/>
	<path style="fill:#F2705B;" d="M186.731,152.562c-1.2-2-3.8-2.7-5.8-1.5s-2.7,3.8-1.5,5.8l5.7,9.8c0.8,1.4,2.2,2.1,3.7,2.1
		c0.7,0,1.4-0.2,2.1-0.6c2-1.2,2.7-3.8,1.5-5.8L186.731,152.562z"/>
	<path style="fill:#F2705B;" d="M322.931,388.462c-1.2-2-3.7-2.7-5.8-1.5c-2,1.2-2.7,3.8-1.5,5.8l5.7,9.8c0.8,1.4,2.2,2.1,3.7,2.1
		c0.7,0,1.4-0.2,2.1-0.6c2-1.2,2.7-3.8,1.5-5.8L322.931,388.462z"/>
	<path style="fill:#F2705B;" d="M143.131,208.662l-9.8-5.7c-2-1.2-4.6-0.5-5.8,1.5c-1.2,2-0.5,4.6,1.5,5.8l9.8,5.7
		c0.7,0.4,1.4,0.6,2.1,0.6c1.5,0,2.9-0.8,3.7-2.1C145.831,212.362,145.131,209.762,143.131,208.662z"/>
	<path style="fill:#F2705B;" d="M379.031,344.862l-9.8-5.7c-2-1.2-4.6-0.5-5.8,1.5c-1.2,2-0.5,4.6,1.5,5.8l9.8,5.7
		c0.7,0.4,1.4,0.6,2.1,0.6c1.5,0,2.9-0.8,3.7-2.1C381.731,348.662,381.031,346.062,379.031,344.862z"/>
	<path style="fill:#F2705B;" d="M123.531,273.362h-11.4c-2.3,0-4.2,1.9-4.2,4.2c0,2.3,1.9,4.2,4.2,4.2h11.4c2.3,0,4.2-1.9,4.2-4.2
		S125.831,273.362,123.531,273.362z"/>
	<path style="fill:#F2705B;" d="M395.931,273.362h-11.4c-2.3,0-4.2,1.9-4.2,4.2c0,2.3,1.9,4.2,4.2,4.2h11.4c2.3,0,4.2-1.9,4.2-4.2
		S398.231,273.362,395.931,273.362z"/>
	<path style="fill:#F2705B;" d="M138.831,339.162l-9.8,5.7c-2,1.2-2.7,3.8-1.5,5.8c0.8,1.4,2.2,2.1,3.7,2.1c0.7,0,1.4-0.2,2.1-0.6
		l9.8-5.7c2-1.2,2.7-3.8,1.5-5.8C143.431,338.662,140.831,337.962,138.831,339.162z"/>
	<path style="fill:#F2705B;" d="M367.131,216.562c0.7,0,1.4-0.2,2.1-0.6l9.8-5.7c2-1.2,2.7-3.8,1.5-5.8s-3.7-2.7-5.8-1.5l-9.8,5.7
		c-2,1.2-2.7,3.8-1.5,5.8C364.231,215.762,365.631,216.562,367.131,216.562z"/>
	<path style="fill:#F2705B;" d="M190.831,386.962c-2-1.2-4.6-0.5-5.8,1.5l-5.7,9.8c-1.2,2-0.5,4.6,1.5,5.8c0.7,0.4,1.4,0.6,2.1,0.6
		c1.5,0,2.9-0.8,3.7-2.1l5.7-9.8C193.531,390.762,192.931,388.162,190.831,386.962z"/>
	<path style="fill:#F2705B;" d="M327.131,150.962c-2-1.2-4.6-0.5-5.8,1.5l-5.7,9.8c-1.2,2-0.5,4.6,1.5,5.8c0.7,0.4,1.4,0.6,2.1,0.6
		c1.5,0,2.9-0.8,3.7-2.1l5.7-9.8C329.831,154.762,329.131,152.162,327.131,150.962z"/>
</g>
<path style="opacity:0.5;fill:#CDD5DF;enable-background:new    ;" d="M109.731,288.862c0-85.8,69.8-155.6,155.6-155.6
	c40,0,76.6,15.2,104.2,40.1c-28.5-31.5-69.7-51.4-115.5-51.4c-85.8,0-155.6,69.8-155.6,155.6c0,45.8,19.9,87,51.4,115.4
	C124.931,365.362,109.731,328.862,109.731,288.862z"/>
<g>
	<path style="fill:#FFD05C;" d="M254.031,172.162c-4.7,0-8.4,3.8-8.4,8.4v70.5c0,4.7,3.8,8.4,8.4,8.4c4.7,0,8.4-3.8,8.4-8.4v-70.5
		C262.431,175.862,258.731,172.162,254.031,172.162z"/>
	<path style="fill:#FFD05C;" d="M228.231,269.162h-52.7c-4.7,0-8.4,3.8-8.4,8.4c0,4.7,3.8,8.4,8.4,8.4h52.7c4.7,0,8.4-3.8,8.4-8.4
		C236.731,272.862,232.931,269.162,228.231,269.162z"/>
</g>
<path style="fill:#F6B44B;" d="M254.031,246.562c-17.1,0-31,13.9-31,31s13.9,31,31,31s31-13.9,31-31
	S271.131,246.562,254.031,246.562z M254.031,293.162c-8.6,0-15.6-7-15.6-15.6s7-15.6,15.6-15.6s15.6,7,15.6,15.6
	S262.631,293.162,254.031,293.162z"/>
<g>
</g>
<g>
</g>
<g>
</g>
<g>
</g>
<g>
</g>
<g>
</g>
<g>
</g>
<g>
</g>
<g>
</g>
<g>
</g>
<g>
</g>
<g>
</g>
<g>
</g>
<g>
</g>
<g>
</g>
</svg>
