<?xml version="1.0" encoding="iso-8859-1"?>
<!-- Generator: Adobe Illustrator 19.0.0, SVG Export Plug-In . SVG Version: 6.00 Build 0)  -->
<svg version="1.1" id="Capa_1" xmlns="http://www.w3.org/2000/svg" xmlns:xlink="http://www.w3.org/1999/xlink" x="0px" y="0px"
	 viewBox="0 0 512.039 512.039" style="enable-background:new 0 0 512.039 512.039;" xml:space="preserve">
<g>
	<polygon style="fill:#4CAF50;" points="192.035,96 96.035,146.08 96.035,320 274.115,320 320.035,224 192.035,224 	"/>
	<polygon style="fill:#4CAF50;" points="96.035,0 192.035,96 320.035,96 320.035,224 416.035,320 416.035,0 	"/>
</g>
<g>
	<path style="fill:#455A64;" d="M432.035,352h-64c-8.832,0-16,7.168-16,16v128c0,8.832,7.168,16,16,16h64c44.128,0,80-35.872,80-80
		S476.163,352,432.035,352z M432.035,480h-48v-96h48c26.464,0,48,21.536,48,48S458.499,480,432.035,480z"/>
	<path style="fill:#455A64;" d="M310.147,353.216c-5.92-2.464-12.832-1.12-17.44,3.456l-52.672,52.704l-52.672-52.672
		c-4.608-4.576-11.424-5.92-17.44-3.456c-5.984,2.432-9.888,8.288-9.888,14.752v128c0,8.832,7.168,16,16,16s16-7.168,16-16v-89.376
		l36.672,36.672c6.24,6.24,16.384,6.24,22.624,0l36.704-36.672V496c0,8.832,7.168,16,16,16s16-7.168,16-16V368
		C320.035,361.536,316.131,355.68,310.147,353.216z"/>
	<path style="fill:#455A64;" d="M79.011,362.368c-4.672-12.512-25.28-12.512-29.984,0l-48,128
		c-3.104,8.288,1.088,17.504,9.344,20.608c8.256,3.2,17.504-1.088,20.608-9.344L39.139,480h49.824l8.096,21.632
		c2.4,6.4,8.512,10.368,14.976,10.368c1.888,0,3.776-0.32,5.632-1.024c8.256-3.104,12.448-12.32,9.344-20.608L79.011,362.368z
		 M51.139,448l12.896-34.432L76.931,448H51.139z"/>
</g>
<g>
</g>
<g>
</g>
<g>
</g>
<g>
</g>
<g>
</g>
<g>
</g>
<g>
</g>
<g>
</g>
<g>
</g>
<g>
</g>
<g>
</g>
<g>
</g>
<g>
</g>
<g>
</g>
<g>
</g>
</svg>
