<?xml version="1.0" encoding="iso-8859-1"?>
<!-- Generator: Adobe Illustrator 19.0.0, SVG Export Plug-In . SVG Version: 6.00 Build 0)  -->
<svg version="1.1" id="Capa_1" xmlns="http://www.w3.org/2000/svg" xmlns:xlink="http://www.w3.org/1999/xlink" x="0px" y="0px"
	 viewBox="0 0 511.99 511.99" style="enable-background:new 0 0 511.99 511.99;" xml:space="preserve">
<g>
	<path style="fill:#F44336;" d="M235.094,113.995c-12.576-4.704-26.688-0.992-35.392,9.184l-192,224
		c-11.488,13.408-9.952,33.6,3.456,45.088c6.048,5.216,13.44,7.744,20.832,7.744c9.024,0,17.984-3.776,24.32-11.2l135.68-158.304
		v89.504v48c0,17.696,14.336,32,32,32s32-14.304,32-32v-224C255.99,130.635,247.638,118.667,235.094,113.995z"/>
	<path style="fill:#F44336;" d="M479.99,112.011c-17.696,0-32,14.336-32,32v208c0,17.696,14.304,32,32,32s32-14.304,32-32v-208
		C511.99,126.347,497.686,112.011,479.99,112.011z"/>
	<path style="fill:#F44336;" d="M415.99,112.011h-128c-17.664,0-32,14.336-32,32s14.336,32,32,32h32v192c0,17.696,14.304,32,32,32
		s32-14.304,32-32v-192h32c17.696,0,32-14.336,32-32S433.686,112.011,415.99,112.011z"/>
	<circle style="fill:#F44336;" cx="159.99" cy="320.011" r="32"/>
</g>
<circle style="fill:#FAFAFA;" cx="479.99" cy="144.011" r="16"/>
<g>
</g>
<g>
</g>
<g>
</g>
<g>
</g>
<g>
</g>
<g>
</g>
<g>
</g>
<g>
</g>
<g>
</g>
<g>
</g>
<g>
</g>
<g>
</g>
<g>
</g>
<g>
</g>
<g>
</g>
</svg>
