<?xml version="1.0" encoding="iso-8859-1"?>
<!-- Generator: Adobe Illustrator 19.0.0, SVG Export Plug-In . SVG Version: 6.00 Build 0)  -->
<svg version="1.1" id="Capa_1" xmlns="http://www.w3.org/2000/svg" xmlns:xlink="http://www.w3.org/1999/xlink" x="0px" y="0px"
	 viewBox="0 0 508.1 508.1" style="enable-background:new 0 0 508.1 508.1;" xml:space="preserve">
<path style="fill:#FFCF5C;" d="M0,0.05v112.1v374.7c0,11.7,9.5,21.2,21.2,21.2h465.7c11.7,0,21.2-9.5,21.2-21.2V0.05H0z"/>
<g>
	<polygon style="fill:#41596B;" points="508,99.05 0,99.05 56.4,49.55 0,0.05 508,0.05 451.6,49.55 	"/>
	<circle style="fill:#41596B;" cx="93.2" cy="167.65" r="25.3"/>
	<circle style="fill:#41596B;" cx="414.8" cy="167.65" r="25.3"/>
</g>
<path style="fill:#F6F7F7;" d="M254,348.15c-94.9,0-172.1-77.2-172.1-172.1v-8.4h22.6v8.4c0,82.5,67.1,149.5,149.5,149.5
	c82.5,0,149.5-67.1,149.5-149.5v-8.4h22.6v8.4C426.1,270.95,348.9,348.15,254,348.15z"/>
<g>
	<polygon style="fill:#334A5E;" points="451.6,49.55 451.6,99.05 508,99.05 	"/>
	<polygon style="fill:#334A5E;" points="56.4,49.55 56.4,99.05 0,99.05 	"/>
</g>
<g>
</g>
<g>
</g>
<g>
</g>
<g>
</g>
<g>
</g>
<g>
</g>
<g>
</g>
<g>
</g>
<g>
</g>
<g>
</g>
<g>
</g>
<g>
</g>
<g>
</g>
<g>
</g>
<g>
</g>
</svg>
