<?xml version="1.0" encoding="iso-8859-1"?>
<!-- Generator: Adobe Illustrator 19.0.0, SVG Export Plug-In . SVG Version: 6.00 Build 0)  -->
<svg version="1.1" id="Capa_1" xmlns="http://www.w3.org/2000/svg" xmlns:xlink="http://www.w3.org/1999/xlink" x="0px" y="0px"
	 viewBox="0 0 512 512" style="enable-background:new 0 0 512 512;" xml:space="preserve">
<g>
	<path style="fill:#1976D2;" d="M319.102,163.8c31.2,8,65.3-19.8,76-62.1c14-55-17.6-88.4-37.1-91c-32-4.2-65.3,19.8-76,62.1
		S287.802,155.8,319.102,163.8z"/>
	<ellipse style="fill:#1976D2;" cx="193.202" cy="78.2" rx="56.6" ry="78.2"/>
	<path style="fill:#1976D2;" d="M431.302,153.2L431.302,153.2c-32.9,0.5-58.9,31.7-58.2,80.2c0.7,48.4,27.9,70.5,60.8,70
		c32.8-0.5,58.9-23.3,58.2-71.7C491.102,168.5,439.202,153.1,431.302,153.2z"/>
	
		<ellipse transform="matrix(-0.0698 -0.9976 0.9976 -0.0698 -110.8513 287.0501)" style="fill:#1976D2;" cx="78.408" cy="195.208" rx="79.003" ry="58.402"/>
	<path style="fill:#1976D2;" d="M401.202,334.9c-28.1-24.7-52-44.9-89.3-96.7c-18.5-25.6-39.8-28.9-62-28.9
		c-22.3,0-45.8,7.8-63.8,33.8l0,0c-18,25.9-38.5,51.3-78.3,84.4c-39.7,33.2-56.6,56.1-56.6,89.9s19.3,89.9,74.1,89.9
		s81.3-12.1,124.7-12.1s72.1,16.8,126.9,16.8s77.7-51.9,77.7-85.6C454.602,392.6,445.102,373.5,401.202,334.9z"/>
</g>
<g>
</g>
<g>
</g>
<g>
</g>
<g>
</g>
<g>
</g>
<g>
</g>
<g>
</g>
<g>
</g>
<g>
</g>
<g>
</g>
<g>
</g>
<g>
</g>
<g>
</g>
<g>
</g>
<g>
</g>
</svg>
