<?xml version="1.0" encoding="iso-8859-1"?>
<!-- Generator: Adobe Illustrator 19.0.0, SVG Export Plug-In . SVG Version: 6.00 Build 0)  -->
<svg version="1.1" id="Capa_1" xmlns="http://www.w3.org/2000/svg" xmlns:xlink="http://www.w3.org/1999/xlink" x="0px" y="0px"
	 viewBox="0 0 508.1 508.1" style="enable-background:new 0 0 508.1 508.1;" xml:space="preserve">
<g>
	<path style="fill:#41596B;" d="M412.1,478.327l-55.9-102.5l-2.5-4.5l-6.2-11.3l-21.8-40H280l21.8,40.1l6.2,11.3l2.5,4.5l66.4,121.7
		c5.3,9.7,17.5,13.3,27.2,8c6.7-3.7,10.4-10.6,10.4-17.7C414.5,484.727,413.7,481.427,412.1,478.327z"/>
	<path style="fill:#41596B;" d="M160.4,360.027l-6.2,11.3l-2.5,4.5l-55.8,102.5c-1.7,3-2.5,6.3-2.5,9.6c0,7.1,3.8,14,10.5,17.6
		c9.7,5.3,21.9,1.7,27.2-8l66.4-121.7l2.5-4.5l6.2-11.3l21.8-40h-45.7L160.4,360.027z"/>
</g>
<rect x="30.9" y="40.127" style="fill:#F2F2F2;" width="446.2" height="279.8"/>
<g>
	<path style="fill:#55BFE9;" d="M487.9,0.027H20.1c-11.1,0-20.1,9-20.1,20.1s9,20.1,20.1,20.1H488c11.1,0,20.1-9,20.1-20.1
		S499,0.027,487.9,0.027z"/>
	<path style="fill:#55BFE9;" d="M502.1,325.827c-3.6-3.6-8.7-5.9-14.2-5.9H20.1c-11.1,0-20,9-20,20c0,5.5,2.3,10.6,5.9,14.2
		s8.6,5.9,14.2,5.9H488c11.1,0,20.1-9,20.1-20C508,334.527,505.7,329.427,502.1,325.827z"/>
</g>
<rect x="99.9" y="195.127" style="fill:#65C5B8;" width="49.7" height="89.3"/>
<rect x="186.1" y="115.427" style="fill:#F2705B;" width="49.7" height="169.6"/>
<rect x="272.2" y="160.527" style="fill:#FFD05C;" width="49.7" height="124.5"/>
<rect x="358.4" y="75.027" style="fill:#89D6F7;" width="49.7" height="210"/>
<rect x="30.9" y="40.127" style="fill:#CDD5DF;" width="446.2" height="15.8"/>
<g>
	<polygon style="fill:#334A5E;" points="160.4,360.027 206.1,360.027 200,371.327 197.5,375.827 151.8,375.827 154.3,371.327 	"/>
	<polygon style="fill:#334A5E;" points="356.2,375.827 310.5,375.827 308,371.327 301.9,360.027 347.5,360.027 353.7,371.327 	"/>
</g>
<g>
</g>
<g>
</g>
<g>
</g>
<g>
</g>
<g>
</g>
<g>
</g>
<g>
</g>
<g>
</g>
<g>
</g>
<g>
</g>
<g>
</g>
<g>
</g>
<g>
</g>
<g>
</g>
<g>
</g>
</svg>
