<?xml version="1.0" encoding="iso-8859-1"?>
<!-- Generator: Adobe Illustrator 19.0.0, SVG Export Plug-In . SVG Version: 6.00 Build 0)  -->
<svg version="1.1" id="Capa_1" xmlns="http://www.w3.org/2000/svg" xmlns:xlink="http://www.w3.org/1999/xlink" x="0px" y="0px"
	 viewBox="0 0 512 512" style="enable-background:new 0 0 512 512;" xml:space="preserve">
<path style="fill:#C8E6C9;" d="M256,40C118.176,40,10.208,217.504,0,367.456C43.232,443.424,147.552,472,256,472
	s212.768-28.576,256-104.544C501.792,217.504,393.824,40,256,40z"/>
<path style="fill:#66BB6A;" d="M415.552,226.368c-30.24-39.488-68.832-81.28-91.2-81.28S239.488,257.12,210.816,257.12
	s-43.584-51.008-78.848-50.784c-48.032,0.288-95.104,143.232-95.104,143.232S56.32,436.96,260.032,436.96S480,351.008,480,351.008
	S459.04,283.136,415.552,226.368z"/>
<g>
	<path style="fill:#37474F;" d="M146.848,337.376c0-14.432,11.552-26.112,25.792-26.112s25.792,11.712,25.792,26.112
		c0,14.432-11.552,26.112-25.792,26.112C158.4,363.488,146.848,351.808,146.848,337.376"/>
	<path style="fill:#37474F;" d="M313.568,337.376c0,14.432,11.552,26.112,25.792,26.112s25.792-11.712,25.792-26.112
		c0-14.432-11.552-26.112-25.792-26.112S313.568,322.944,313.568,337.376"/>
	<path style="fill:#37474F;" d="M308.928,375.296c2.016-3.904,0.512-8.704-3.36-10.784c-3.84-2.08-8.64-0.576-10.72,3.328
		c-0.416,0.832-10.784,19.68-38.208,19.68c-26.944,0-39.168-19.232-39.744-20.128c-2.272-3.776-7.136-4.96-10.88-2.656
		s-4.928,7.264-2.656,11.04c0.672,1.152,17.12,27.84,53.28,27.84C293.984,403.616,308.32,376.48,308.928,375.296z"/>
</g>
<path style="fill:#43A047;" d="M214.016,304.96c-31.648,0-47.84-31.584-56.64-51.104c-7.904-17.568-9.28-45.312-31.712-46.08
	c2.208-0.896,4.32-1.408,6.304-1.408c35.264,0,50.176,50.784,78.848,50.784S301.984,145.12,324.352,145.12
	c4.224,0,8.96,1.504,14.112,4.192c-3.808-0.512-8.704-0.16-12.448,3.68C318.784,160.256,253.184,304.96,214.016,304.96z"/>
<g>
</g>
<g>
</g>
<g>
</g>
<g>
</g>
<g>
</g>
<g>
</g>
<g>
</g>
<g>
</g>
<g>
</g>
<g>
</g>
<g>
</g>
<g>
</g>
<g>
</g>
<g>
</g>
<g>
</g>
</svg>
