<?xml version="1.0" encoding="iso-8859-1"?>
<!-- Generator: Adobe Illustrator 19.0.0, SVG Export Plug-In . SVG Version: 6.00 Build 0)  -->
<svg version="1.1" id="Capa_1" xmlns="http://www.w3.org/2000/svg" xmlns:xlink="http://www.w3.org/1999/xlink" x="0px" y="0px"
	 viewBox="0 0 508.1 508.1" style="enable-background:new 0 0 508.1 508.1;" xml:space="preserve">
<path style="fill:#F2705B;" d="M486.8,170.561H21.2c-11.7,0-21.2,9.5-21.2,21.2v59.3c0,11.7,9.5,21.2,21.2,21.2h465.7
	c11.7,0,21.2-9.5,21.2-21.2v-59.3C508,180.061,498.5,170.561,486.8,170.561z"/>
<g>
	<path style="fill:#334A5E;" d="M213.3,7.061c-14.7-10.7-35.2-7.5-45.9,7.2l-102.5,140.8l-11.3,15.6h81.2l11.3-15.6l74.3-102.1
		c4.2-5.8,6.3-12.6,6.3-19.3C226.8,23.461,222.1,13.461,213.3,7.061z"/>
	<path style="fill:#334A5E;" d="M443.1,155.061l-102.5-140.8c-10.7-14.7-31.2-17.9-45.9-7.2c-8.8,6.4-13.5,16.4-13.5,26.6
		c0,6.7,2,13.4,6.3,19.3l74.3,102.1l11.3,15.6h81.2L443.1,155.061z"/>
</g>
<path style="fill:#FFD05C;" d="M479.8,272.161H28.2c-0.2,0-0.4-0.1-0.6-0.1v0.1l2.6,11.5l1,4.1l45.3,197.7
	c2.9,12.8,14.3,21.9,27.5,21.9h300.1c13.2,0,24.6-9.1,27.5-21.9l45.3-197.7l1-4.1l2.6-11.5v-0.1
	C480.2,272.161,480,272.161,479.8,272.161z"/>
<g>
	<path style="fill:#FFFFFF;" d="M135.9,468.861L135.9,468.861c-8.8,0-15.9-7.1-15.9-15.9v-126.5c0-8.8,7.1-15.9,15.9-15.9l0,0
		c8.8,0,15.9,7.1,15.9,15.9v126.5C151.8,461.761,144.7,468.861,135.9,468.861z"/>
	<path style="fill:#FFFFFF;" d="M214.6,468.861L214.6,468.861c-8.8,0-15.9-7.1-15.9-15.9v-126.5c0-8.8,7.1-15.9,15.9-15.9l0,0
		c8.8,0,15.9,7.1,15.9,15.9v126.5C230.5,461.761,223.4,468.861,214.6,468.861z"/>
	<path style="fill:#FFFFFF;" d="M293.4,468.861L293.4,468.861c-8.8,0-15.9-7.1-15.9-15.9v-126.5c0-8.8,7.1-15.9,15.9-15.9l0,0
		c8.8,0,15.9,7.1,15.9,15.9v126.5C309.3,461.761,302.2,468.861,293.4,468.861z"/>
	<path style="fill:#FFFFFF;" d="M372.1,468.861L372.1,468.861c-8.8,0-15.9-7.1-15.9-15.9v-126.5c0-8.8,7.1-15.9,15.9-15.9l0,0
		c8.8,0,15.9,7.1,15.9,15.9v126.5C388,461.761,380.9,468.861,372.1,468.861z"/>
</g>
<g>
	<circle style="fill:#F2F2F2;" cx="76.6" cy="221.361" r="22.9"/>
	<circle style="fill:#F2F2F2;" cx="431.4" cy="221.361" r="22.9"/>
</g>
<polygon style="fill:#F6B44B;" points="480.4,272.161 480.4,272.161 477.8,283.661 30.2,283.661 27.6,272.161 27.6,272.161 "/>
<g>
</g>
<g>
</g>
<g>
</g>
<g>
</g>
<g>
</g>
<g>
</g>
<g>
</g>
<g>
</g>
<g>
</g>
<g>
</g>
<g>
</g>
<g>
</g>
<g>
</g>
<g>
</g>
<g>
</g>
</svg>
