<?xml version="1.0" encoding="iso-8859-1"?>
<!-- Generator: Adobe Illustrator 19.0.0, SVG Export Plug-In . SVG Version: 6.00 Build 0)  -->
<svg version="1.1" id="Capa_1" xmlns="http://www.w3.org/2000/svg" xmlns:xlink="http://www.w3.org/1999/xlink" x="0px" y="0px"
	 viewBox="0 0 508 508" style="enable-background:new 0 0 508 508;" xml:space="preserve">
<path style="fill:#334A5E;" d="M422.7,106.35H21.2c-11.7,0-21.2,9.5-21.2,21.2v252.9c0,11.7,9.5,21.2,21.2,21.2h401.5
	c11.7,0,21.2-9.5,21.2-21.2v-252.9C443.9,115.85,434.4,106.35,422.7,106.35z"/>
<rect x="45.3" y="151.65" style="fill:#FFFFFF;" width="353.3" height="204.8"/>
<g>
	<rect x="68" y="174.25" style="fill:#FFD05C;" width="58.4" height="159.5"/>
	<rect x="151.2" y="174.25" style="fill:#FFD05C;" width="58.4" height="159.5"/>
	<rect x="234.4" y="174.25" style="fill:#FFD05C;" width="58.4" height="159.5"/>
	<rect x="317.6" y="174.25" style="fill:#FFD05C;" width="58.4" height="159.5"/>
</g>
<path style="fill:#41596B;" d="M496.7,159.45H444v189.2h52.7c6.3,0,11.3-5.1,11.3-11.3v-166.6C508,164.55,502.9,159.45,496.7,159.45
	z"/>
<g>
</g>
<g>
</g>
<g>
</g>
<g>
</g>
<g>
</g>
<g>
</g>
<g>
</g>
<g>
</g>
<g>
</g>
<g>
</g>
<g>
</g>
<g>
</g>
<g>
</g>
<g>
</g>
<g>
</g>
</svg>
