<?xml version="1.0" encoding="iso-8859-1"?>
<!-- Generator: Adobe Illustrator 19.0.0, SVG Export Plug-In . SVG Version: 6.00 Build 0)  -->
<svg version="1.1" id="Capa_1" xmlns="http://www.w3.org/2000/svg" xmlns:xlink="http://www.w3.org/1999/xlink" x="0px" y="0px"
	 viewBox="0 0 508.1 508.1" style="enable-background:new 0 0 508.1 508.1;" xml:space="preserve">
<path style="fill:#F2F2F2;" d="M466.65,0v508h-364.2c-33.6,0-61-27.3-61-61V28.2c0-15.6,12.6-28.2,28.2-28.2H466.65z"/>
<path style="fill:#4FBFA8;" d="M62.65,0c-11.7,0-21.2,9.5-21.2,21.2v465.7c0,11.7,9.5,21.2,21.2,21.2h56.2V0H62.65z"/>
<g>
	<rect x="204.05" y="288.5" style="fill:#CDD5DF;" width="208.8" height="20.4"/>
	<rect x="204.05" y="334.5" style="fill:#CDD5DF;" width="208.8" height="20.4"/>
	<rect x="204.05" y="380.5" style="fill:#CDD5DF;" width="208.8" height="20.4"/>
</g>
<polygon style="fill:#F2705B;" points="422.45,148.1 383.35,117.9 344.25,148.1 344.25,0 422.45,0 "/>
<g>
</g>
<g>
</g>
<g>
</g>
<g>
</g>
<g>
</g>
<g>
</g>
<g>
</g>
<g>
</g>
<g>
</g>
<g>
</g>
<g>
</g>
<g>
</g>
<g>
</g>
<g>
</g>
<g>
</g>
</svg>
