<?xml version="1.0" encoding="iso-8859-1"?>
<!-- Generator: Adobe Illustrator 19.0.0, SVG Export Plug-In . SVG Version: 6.00 Build 0)  -->
<svg version="1.1" id="Capa_1" xmlns="http://www.w3.org/2000/svg" xmlns:xlink="http://www.w3.org/1999/xlink" x="0px" y="0px"
	 viewBox="0 0 508.1 508.1" style="enable-background:new 0 0 508.1 508.1;" xml:space="preserve">
<path style="fill:#FFD05C;" d="M318.1,0.2H189.9c-30.5,0-55.3,24.8-55.3,55.3V99h33.9V55.6c0-11.8,9.6-21.4,21.4-21.4h128.2
	c11.8,0,21.4,9.7,21.4,21.4v43.5h33.9V55.6C373.4,25.1,348.6,0.2,318.1,0.2z"/>
<path style="fill:#334A5E;" d="M0,246v240.7c0,11.7,9.5,21.2,21.2,21.2h465.7c11.7,0,21.2-9.5,21.2-21.2V246H0z"/>
<path style="fill:#41596B;" d="M486.8,96H21.2C9.5,96,0,105.5,0,117.2v190c0,11.7,9.5,21.2,21.2,21.2h465.7
	c11.7,0,21.2-9.5,21.2-21.2v-190C508,105.5,498.5,96,486.8,96z"/>
<rect x="89.2" y="96" style="fill:#65C5B8;" width="38.3" height="411.9"/>
<polygon style="fill:#F2F2F2;" points="144.4,368.1 144.4,416.4 72.3,416.4 72.3,368.1 89.2,368.1 89.2,399.6 127.5,399.6 
	127.5,368.1 "/>
<rect x="379.7" y="96" style="fill:#65C5B8;" width="38.3" height="411.9"/>
<polygon style="fill:#F2F2F2;" points="434.9,368.1 434.9,416.4 362.8,416.4 362.8,368.1 379.7,368.1 379.7,399.6 418,399.6 
	418,368.1 "/>
<g>
	<rect x="134.6" y="78.5" style="fill:#F6B44B;" width="33.9" height="17.6"/>
	<rect x="339.6" y="78.5" style="fill:#F6B44B;" width="33.9" height="17.6"/>
</g>
<g>
	<rect x="379.7" y="416.4" style="fill:#4FBFA8;" width="38.3" height="17.6"/>
	<rect x="89.2" y="416.4" style="fill:#4FBFA8;" width="38.3" height="17.6"/>
</g>
<g>
</g>
<g>
</g>
<g>
</g>
<g>
</g>
<g>
</g>
<g>
</g>
<g>
</g>
<g>
</g>
<g>
</g>
<g>
</g>
<g>
</g>
<g>
</g>
<g>
</g>
<g>
</g>
<g>
</g>
</svg>
