<?xml version="1.0" encoding="iso-8859-1"?>
<!-- Generator: Adobe Illustrator 19.0.0, SVG Export Plug-In . SVG Version: 6.00 Build 0)  -->
<svg version="1.1" id="Capa_1" xmlns="http://www.w3.org/2000/svg" xmlns:xlink="http://www.w3.org/1999/xlink" x="0px" y="0px"
	 viewBox="0 0 508 508" style="enable-background:new 0 0 508 508;" xml:space="preserve">
<path style="fill:#F6B44B;" d="M333.7,0H174.3C146.6,0,124,22.6,124,50.3v47.8h33.7V51.2c0-9.7,7.8-17.5,17.5-17.5h157.6
	c9.7,0,17.5,7.8,17.5,17.5v46.9H384V50.3C384,22.6,361.5,0,333.7,0z"/>
<g>
	<path style="fill:#FFD05C;" d="M485.8,98.1H22.2C10.5,98.1,1,107.6,1,119.3v127h506v-127C507,107.6,497.5,98.1,485.8,98.1z"/>
	<path style="fill:#FFD05C;" d="M16,266.8v220c0,11.7,9.5,21.2,21.2,21.2h433.7c11.7,0,21.2-9.5,21.2-21.2v-220H16z"/>
</g>
<rect x="16" y="246.2" style="fill:#F6B44B;" width="476.1" height="20.6"/>
<g>
	<path style="fill:#FFFFFF;" d="M120.6,209.8c-12.9,0-23.4,10.5-23.4,23.4v39c0,12.9,10.5,23.4,23.4,23.4s23.4-10.5,23.4-23.4v-39
		C143.9,220.3,133.5,209.8,120.6,209.8z"/>
	<path style="fill:#FFFFFF;" d="M387.4,209.8c-12.9,0-23.4,10.5-23.4,23.4v39c0,12.9,10.5,23.4,23.4,23.4s23.4-10.5,23.4-23.4v-39
		C410.8,220.3,400.4,209.8,387.4,209.8z"/>
</g>
<g>
</g>
<g>
</g>
<g>
</g>
<g>
</g>
<g>
</g>
<g>
</g>
<g>
</g>
<g>
</g>
<g>
</g>
<g>
</g>
<g>
</g>
<g>
</g>
<g>
</g>
<g>
</g>
<g>
</g>
</svg>
