<?xml version="1.0" encoding="iso-8859-1"?>
<!-- Generator: Adobe Illustrator 19.0.0, SVG Export Plug-In . SVG Version: 6.00 Build 0)  -->
<svg version="1.1" id="Capa_1" xmlns="http://www.w3.org/2000/svg" xmlns:xlink="http://www.w3.org/1999/xlink" x="0px" y="0px"
	 viewBox="0 0 508.1 508.1" style="enable-background:new 0 0 508.1 508.1;" xml:space="preserve">
<path style="fill:#41596B;" d="M333.8,0.35H174.2c-28,0-50.8,22.8-50.8,50.8v45.2h33.9v-45.2c0-9.3,7.6-16.9,16.9-16.9h159.6
	c9.3,0,16.9,7.6,16.9,16.9v45.2h33.9v-45.2C384.6,23.15,361.8,0.35,333.8,0.35z"/>
<path style="fill:#F05540;" d="M264.7,334.15c-94.5,0-184.2-7.3-264.7-20.4v172.8c0,11.7,9.5,21.2,21.2,21.2h465.7
	c11.7,0,21.2-9.5,21.2-21.2v-169.4C433.1,328.05,351,334.15,264.7,334.15z"/>
<path style="fill:#F2705B;" d="M486.8,96.35H21.2c-11.7,0-21.2,9.4-21.2,21.1v196.3c80.5,13.1,170.2,20.4,264.7,20.4
	c86.2,0,168.4-6.1,243.3-17v-199.7C508,105.75,498.5,96.35,486.8,96.35z"/>
<path style="fill:#E44C3B;" d="M508,322.75v11.3c-74.9,11-157,17-243.3,17c-94.5,0-184.2-7.3-264.7-20.4v-11.3
	c80.5,13.1,170.2,20.4,264.7,20.4C351,339.85,433.1,333.75,508,322.75z"/>
<g>
	<rect x="123.4" y="88.15" style="fill:#334A5E;" width="33.9" height="8.1"/>
	<rect x="350.7" y="88.15" style="fill:#334A5E;" width="33.9" height="8.1"/>
</g>
<path style="fill:#F2F2F2;" d="M508,317.15v11.3c-74.9,10.9-157,17-243.3,17c-94.5,0-184.2-7.3-264.7-20.4v-11.3
	c80.5,13.1,170.2,20.4,264.7,20.4C351,334.15,433.1,328.05,508,317.15z"/>
<path style="fill:#DB4736;" d="M260.3,296.45h-12.6c-13.6,0-24.7,11-24.7,24.7v37.4c0,13.6,11,24.7,24.7,24.7h12.6
	c13.6,0,24.7-11,24.7-24.7v-37.4C285,307.55,273.9,296.45,260.3,296.45z"/>
<path style="fill:#FFD05C;" d="M258.5,290.85h-8.9c-14.6,0-26.5,11.9-26.5,26.5v33.7c0,14.6,11.9,26.5,26.5,26.5h8.9
	c14.6,0,26.5-11.9,26.5-26.5v-33.7C285,302.65,273.1,290.85,258.5,290.85z"/>
<g>
</g>
<g>
</g>
<g>
</g>
<g>
</g>
<g>
</g>
<g>
</g>
<g>
</g>
<g>
</g>
<g>
</g>
<g>
</g>
<g>
</g>
<g>
</g>
<g>
</g>
<g>
</g>
<g>
</g>
</svg>
