<?xml version="1.0" encoding="iso-8859-1"?>
<!-- Generator: Adobe Illustrator 19.0.0, SVG Export Plug-In . SVG Version: 6.00 Build 0)  -->
<svg version="1.1" id="Capa_1" xmlns="http://www.w3.org/2000/svg" xmlns:xlink="http://www.w3.org/1999/xlink" x="0px" y="0px"
	 viewBox="0 0 508.1 508.1" style="enable-background:new 0 0 508.1 508.1;" xml:space="preserve">
<path style="fill:#41596B;" d="M486.8,90.55H21.2c-11.7,0-21.2,9.5-21.2,21.2v160.3l254,79.1l254-79.1v-160.3
	C508,100.05,498.5,90.55,486.8,90.55z"/>
<g>
	<path style="fill:#334A5E;" d="M254,351.15L0,272.05v214.8c0,11.7,9.5,21.2,21.2,21.2h465.7c11.7,0,21.2-9.5,21.2-21.2v-214.8
		L254,351.15z"/>
	<path style="fill:#334A5E;" d="M150.9,90.55v-39.6c0-9.3,7.6-17,16.9-17h172.4c9.3,0,16.9,7.6,16.9,17v39.6H391v-39.6
		c0-28-22.8-50.9-50.8-50.9H167.8c-28,0-50.8,22.8-50.8,50.9v39.6H150.9z"/>
</g>
<path style="fill:#FFD05C;" d="M281.6,306.65h-55.1c-12.5,0-22.6,10.1-22.6,22.6v43.6c0,12.5,10.1,22.6,22.6,22.6h55.1
	c12.5,0,22.6-10.1,22.6-22.6v-43.6C304.1,316.85,294,306.65,281.6,306.65z"/>
<path style="fill:#F05540;" d="M254,373.35L254,373.35c-6.1,0-11.1-4.9-11.1-11.1v-22.3c0-6.1,4.9-11.1,11.1-11.1l0,0
	c6.1,0,11.1,4.9,11.1,11.1v22.3C265.1,368.35,260.1,373.35,254,373.35z"/>
<g>
</g>
<g>
</g>
<g>
</g>
<g>
</g>
<g>
</g>
<g>
</g>
<g>
</g>
<g>
</g>
<g>
</g>
<g>
</g>
<g>
</g>
<g>
</g>
<g>
</g>
<g>
</g>
<g>
</g>
</svg>
