<?xml version="1.0" encoding="iso-8859-1"?>
<!-- Generator: Adobe Illustrator 19.0.0, SVG Export Plug-In . SVG Version: 6.00 Build 0)  -->
<svg version="1.1" id="Capa_1" xmlns="http://www.w3.org/2000/svg" xmlns:xlink="http://www.w3.org/1999/xlink" x="0px" y="0px"
	 viewBox="0 0 508.1 508.1" style="enable-background:new 0 0 508.1 508.1;" xml:space="preserve">
<path style="fill:#F2705B;" d="M486.8,0H21.2C9.5,0,0,9.5,0,21.2v101.2h508V21.2C508,9.5,498.5,0,486.8,0z"/>
<path style="fill:#F2F2F2;" d="M0,122.4v364.5c0,11.7,9.5,21.2,21.2,21.2h465.7c11.7,0,21.2-9.5,21.2-21.2V122.4H0z"/>
<rect x="35" y="157.3" style="fill:#89D6F7;" width="189.2" height="147.5"/>
<g>
	<rect x="35" y="423.9" style="fill:#65C5B8;" width="154.2" height="49.1"/>
	<rect x="35" y="339.8" style="fill:#65C5B8;" width="154.2" height="49.1"/>
</g>
<g>
	<rect x="283.9" y="157.3" style="fill:#89D6F7;" width="189.2" height="147.5"/>
	<rect x="224.1" y="339.8" style="fill:#89D6F7;" width="248.9" height="133.2"/>
</g>
<circle style="fill:#FFD05C;" cx="56" cy="61.2" r="21.1"/>
<path style="fill:#FFFFFF;" d="M455.5,43.7H318.7c-9.7,0-17.5,7.8-17.5,17.5s7.8,17.5,17.5,17.5h136.9c9.7,0,17.5-7.8,17.5-17.5
	C473,51.5,465.2,43.7,455.5,43.7z"/>
<circle style="fill:#F2F2F2;" cx="133.1" cy="61.2" r="21.1"/>
<circle style="fill:#65C5B8;" cx="210.2" cy="61.2" r="21.1"/>
<g>
</g>
<g>
</g>
<g>
</g>
<g>
</g>
<g>
</g>
<g>
</g>
<g>
</g>
<g>
</g>
<g>
</g>
<g>
</g>
<g>
</g>
<g>
</g>
<g>
</g>
<g>
</g>
<g>
</g>
</svg>
