<?xml version="1.0" encoding="iso-8859-1"?>
<!-- Generator: Adobe Illustrator 19.0.0, SVG Export Plug-In . SVG Version: 6.00 Build 0)  -->
<svg version="1.1" id="Capa_1" xmlns="http://www.w3.org/2000/svg" xmlns:xlink="http://www.w3.org/1999/xlink" x="0px" y="0px"
	 viewBox="0 0 508 508" style="enable-background:new 0 0 508 508;" xml:space="preserve">
<path style="fill:#41596B;" d="M486.8,0.75H21.2C9.5,0.75,0,10.35,0,22.05v139.2h508V22.05C508,10.35,498.5,0.75,486.8,0.75z"/>
<path style="fill:#F2F2F2;" d="M0,161.25v324.8c0,11.7,9.5,21.2,21.2,21.2h465.5c11.7,0,21.2-9.5,21.2-21.2v-324.8H0z"/>
<circle style="fill:#F2705B;" cx="62.1" cy="81.05" r="30"/>
<circle style="fill:#FFD05C;" cx="155.7" cy="81.05" r="30"/>
<circle style="fill:#89D6F7;" cx="249.2" cy="81.05" r="30"/>
<g>
	<polygon style="fill:#65C5B8;" points="142.9,430.55 46.6,334.25 142.9,238.05 174.8,269.95 110.5,334.25 174.8,398.65 	"/>
	<polygon style="fill:#65C5B8;" points="365.1,430.55 333.2,398.65 397.5,334.25 333.2,269.95 365.1,238.05 461.4,334.25 	"/>
</g>
<polygon style="fill:#4FBFA8;" points="237,447.05 191.8,447.05 271,221.55 316.2,221.55 "/>
<rect y="161.25" style="fill:#CDD5DF;" width="508" height="11.5"/>
<g>
</g>
<g>
</g>
<g>
</g>
<g>
</g>
<g>
</g>
<g>
</g>
<g>
</g>
<g>
</g>
<g>
</g>
<g>
</g>
<g>
</g>
<g>
</g>
<g>
</g>
<g>
</g>
<g>
</g>
</svg>
