<?xml version="1.0" encoding="iso-8859-1"?>
<!-- Generator: Adobe Illustrator 19.0.0, SVG Export Plug-In . SVG Version: 6.00 Build 0)  -->
<svg version="1.1" id="Capa_1" xmlns="http://www.w3.org/2000/svg" xmlns:xlink="http://www.w3.org/1999/xlink" x="0px" y="0px"
	 viewBox="0 0 508.1 508.1" style="enable-background:new 0 0 508.1 508.1;" xml:space="preserve">
<path style="fill:#F2F2F2;" d="M486.8,0H21.2C9.5,0,0,9.5,0,21.2v465.7c0,11.7,9.5,21.2,21.2,21.2h465.7c11.7,0,21.2-9.5,21.2-21.2
	V21.2C508,9.5,498.5,0,486.8,0z"/>
<g>
	<rect x="56.4" y="112.9" style="fill:#FFFFFF;" width="395.1" height="338.7"/>
	<circle style="fill:#FFFFFF;" cx="332.5" cy="56.4" r="20.2"/>
</g>
<circle style="fill:#89D6F7;" cx="389.8" cy="56.4" r="20.2"/>
<circle style="fill:#FFD05C;" cx="447" cy="56.4" r="20.2"/>
<path style="fill:#F2705B;" d="M378.9,184.1v60.2c0,82.5-49.1,157.1-124.9,189.7c-75.8-32.6-124.9-107.1-124.9-189.7v-60.2
	c45.2-7.7,88-26.1,124.8-53.5l0.2-0.1l0.2,0.1C290.9,158,333.7,176.4,378.9,184.1z"/>
<path style="fill:#FFFFFF;" d="M350.7,207v37.3c0,12.2-1.2,24.1-3.6,35.7c-10.7,52.5-44.7,97.9-93.1,122.7l0,0
	c-48.4-24.9-82.4-70.3-93.1-122.8c-2.4-11.6-3.6-23.6-3.6-35.7V207c34.3-8.6,67.1-22.9,96.7-42.2C283.6,184.1,316.4,198.4,350.7,207
	z"/>
<path style="fill:#41596B;" d="M275,268.2c0-13.1-12-23.4-25.6-20.6c-7.8,1.6-14.2,7.9-15.9,15.7c-2,9,1.7,17.3,8.3,22v19.8
	c0,6.7,5.5,12.2,12.2,12.2l0,0c6.7,0,12.2-5.5,12.2-12.2v-19.8C271.5,281.5,275,275.3,275,268.2z"/>
<g>
</g>
<g>
</g>
<g>
</g>
<g>
</g>
<g>
</g>
<g>
</g>
<g>
</g>
<g>
</g>
<g>
</g>
<g>
</g>
<g>
</g>
<g>
</g>
<g>
</g>
<g>
</g>
<g>
</g>
</svg>
