<?xml version="1.0" encoding="iso-8859-1"?>
<!-- Generator: Adobe Illustrator 19.0.0, SVG Export Plug-In . SVG Version: 6.00 Build 0)  -->
<svg version="1.1" id="Capa_1" xmlns="http://www.w3.org/2000/svg" xmlns:xlink="http://www.w3.org/1999/xlink" x="0px" y="0px"
	 viewBox="0 0 508.1 508.1" style="enable-background:new 0 0 508.1 508.1;" xml:space="preserve">
<path style="fill:#F2F2F2;" d="M486.8,0H21.2C9.5,0,0,9.5,0,21.2v465.7c0,11.7,9.5,21.2,21.2,21.2h465.7c11.7,0,21.2-9.5,21.2-21.2
	V21.2C508,9.5,498.5,0,486.8,0z"/>
<rect x="33.9" y="130.6" style="fill:#FFFFFF;" width="440.3" height="343.5"/>
<circle style="fill:#FFD05C;" cx="56.4" cy="65.3" r="22.5"/>
<circle style="fill:#F2705B;" cx="127.3" cy="65.3" r="22.5"/>
<circle style="fill:#65C5B8;" cx="198.3" cy="65.3" r="22.5"/>
<path style="fill:#F2705B;" d="M254,186.4c-38.8,0-70.3,31.6-70.3,70.3v30.8h24v-30.8c0-25.6,20.8-46.3,46.3-46.3
	s46.3,20.8,46.3,46.3v30.8h24v-30.8C324.4,217.9,292.8,186.4,254,186.4z"/>
<path style="fill:#41596B;" d="M320.1,287.5H187.9c-15.9,0-28.8,12.9-28.8,28.8v73.2c0,15.9,12.9,28.8,28.8,28.8h132.2
	c15.9,0,28.8-12.9,28.8-28.8v-73.2C348.9,300.4,336,287.5,320.1,287.5z M262.7,357.3v12.8c0,4.8-3.9,8.7-8.7,8.7
	c-4.8,0-8.7-3.9-8.7-8.7v-12.8c-4.6-2.9-7.7-8-7.7-13.9c0-9.1,7.4-16.5,16.5-16.5s16.5,7.4,16.5,16.5
	C270.5,349.3,267.4,354.4,262.7,357.3z"/>
<g>
</g>
<g>
</g>
<g>
</g>
<g>
</g>
<g>
</g>
<g>
</g>
<g>
</g>
<g>
</g>
<g>
</g>
<g>
</g>
<g>
</g>
<g>
</g>
<g>
</g>
<g>
</g>
<g>
</g>
</svg>
