<?xml version="1.0" encoding="iso-8859-1"?>
<!-- Generator: Adobe Illustrator 19.0.0, SVG Export Plug-In . SVG Version: 6.00 Build 0)  -->
<svg version="1.1" id="Capa_1" xmlns="http://www.w3.org/2000/svg" xmlns:xlink="http://www.w3.org/1999/xlink" x="0px" y="0px"
	 viewBox="0 0 508.1 508.1" style="enable-background:new 0 0 508.1 508.1;" xml:space="preserve">
<path style="fill:#F2F2F2;" d="M486.8,0H21.2C9.5,0,0,9.5,0,21.2v465.7c0,11.7,9.5,21.2,21.2,21.2h465.7c11.7,0,21.2-9.5,21.2-21.2
	V21.2C508,9.5,498.5,0,486.8,0z"/>
<rect x="56.4" y="119.6" style="fill:#FFFFFF;" width="395.1" height="331.9"/>
<g>
	<circle style="fill:#65C5B8;" cx="186.3" cy="59.8" r="17.5"/>
	<circle style="fill:#65C5B8;" cx="130.1" cy="59.8" r="17.5"/>
	<circle style="fill:#65C5B8;" cx="74" cy="59.8" r="17.5"/>
</g>
<g>
	<rect x="79" y="142.2" style="fill:#89D6F7;" width="150.8" height="159.5"/>
	<rect x="79" y="346.1" style="fill:#89D6F7;" width="350" height="82.9"/>
</g>
<rect x="254" y="275.3" style="fill:#FFD05C;" width="175" height="26.4"/>
<rect x="254" y="208.8" style="fill:#65C5B8;" width="175" height="26.4"/>
<rect x="254" y="142.3" style="fill:#F2705B;" width="175" height="26.4"/>
<g>
</g>
<g>
</g>
<g>
</g>
<g>
</g>
<g>
</g>
<g>
</g>
<g>
</g>
<g>
</g>
<g>
</g>
<g>
</g>
<g>
</g>
<g>
</g>
<g>
</g>
<g>
</g>
<g>
</g>
</svg>
