<?xml version="1.0" encoding="iso-8859-1"?>
<!-- Generator: Adobe Illustrator 19.0.0, SVG Export Plug-In . SVG Version: 6.00 Build 0)  -->
<svg version="1.1" id="Capa_1" xmlns="http://www.w3.org/2000/svg" xmlns:xlink="http://www.w3.org/1999/xlink" x="0px" y="0px"
	 viewBox="0 0 508.1 508.1" style="enable-background:new 0 0 508.1 508.1;" xml:space="preserve">
<path style="fill:#55BFE9;" d="M485.8,0h-464C10.1,0,0.7,9.5,0.7,21.2v72.4H507V21.2C507,9.5,497.5,0,485.8,0z"/>
<path style="fill:#F2F2F2;" d="M1,109v272.8c0,11.7,9.5,21.2,21.2,21.2h464c11.7,0,21.2-9.5,21.2-21.2V109H1z"/>
<rect x="1" y="93.6" style="fill:#CDD5DF;" width="506.3" height="15.4"/>
<circle style="fill:#F2705B;" cx="42.6" cy="46.8" r="12"/>
<circle style="fill:#FFD05C;" cx="86" cy="46.8" r="12"/>
<circle style="fill:#FFFFFF;" cx="129.3" cy="46.8" r="12"/>
<path style="fill:#324A5E;" d="M451.1,34.8h-259c-6.6,0-12,5.4-12,12s5.4,12,12,12h259c6.6,0,12-5.4,12-12S457.7,34.8,451.1,34.8z"
	/>
<path style="fill:#F4826A;" d="M297.2,232.9c-54.5,0-98.6,44.1-98.6,98.6s44.1,98.6,98.6,98.6s98.6-44.1,98.6-98.6
	C395.7,277,351.6,232.9,297.2,232.9z M297.2,395.5c-35.3,0-64-28.7-64-64s28.7-64,64-64s64,28.7,64,64S332.5,395.5,297.2,395.5z"/>
<path style="fill:#FFD05C;" d="M440.9,303.2c-3.8-19.4-11.4-37.5-22.1-53.3l17.7-28.7l-29.1-29.1l-28.7,17.7
	c-15.8-10.7-33.9-18.3-53.3-22.1l-7.8-32.8h-41.1l-7.8,32.8c-19.4,3.8-37.5,11.4-53.3,22.1l-28.7-17.7l-29.1,29.1l17.7,28.7
	c-10.7,15.8-18.3,33.9-22.1,53.3l-32.8,7.8v41l32.8,7.8c3.8,19.4,11.4,37.5,22.1,53.3l-17.7,28.7l29.1,29.1l28.7-17.7
	c15.8,10.6,33.9,18.3,53.3,22.1l7.8,32.8h41.1l7.8-32.8c19.4-3.8,37.5-11.4,53.3-22.1l28.7,17.7l29.1-29.1l-17.7-28.7
	c10.6-15.8,18.3-33.9,22.1-53.3l32.8-7.8v-41L440.9,303.2z M297.2,430.1c-54.5,0-98.6-44.1-98.6-98.6s44.1-98.6,98.6-98.6
	s98.6,44.1,98.6,98.6C395.7,386,351.6,430.1,297.2,430.1z"/>
<g>
</g>
<g>
</g>
<g>
</g>
<g>
</g>
<g>
</g>
<g>
</g>
<g>
</g>
<g>
</g>
<g>
</g>
<g>
</g>
<g>
</g>
<g>
</g>
<g>
</g>
<g>
</g>
<g>
</g>
</svg>
