<?xml version="1.0" encoding="iso-8859-1"?>
<!-- Generator: Adobe Illustrator 19.0.0, SVG Export Plug-In . SVG Version: 6.00 Build 0)  -->
<svg version="1.1" id="Capa_1" xmlns="http://www.w3.org/2000/svg" xmlns:xlink="http://www.w3.org/1999/xlink" x="0px" y="0px"
	 viewBox="0 0 508.1 508.1" style="enable-background:new 0 0 508.1 508.1;" xml:space="preserve">
<path style="fill:#F2F2F2;" d="M486.8,0H21.2C9.5,0,0,9.5,0,21.2v465.7c0,11.7,9.5,21.2,21.2,21.2h465.7c11.7,0,21.2-9.5,21.2-21.2
	V21.2C508,9.5,498.5,0,486.8,0z"/>
<rect x="33.9" y="33.9" style="fill:#89D6F7;" width="203.2" height="203.2"/>
<polygon style="fill:#FFFFFF;" points="201,121.7 149.2,121.7 149.2,69.9 121.7,69.9 121.7,121.7 69.9,121.7 69.9,149.2 
	121.7,149.2 121.7,201 149.2,201 149.2,149.2 201,149.2 "/>
<rect x="270.9" y="33.9" style="fill:#F2705B;" width="203.2" height="203.2"/>
<rect x="307" y="121.7" style="fill:#FFFFFF;" width="131.1" height="27.4"/>
<rect x="270.9" y="270.9" style="fill:#334A5E;" width="203.2" height="203.2"/>
<g>
	<rect x="307" y="332.6" style="fill:#FFFFFF;" width="131.1" height="27.4"/>
	<rect x="307" y="385.1" style="fill:#FFFFFF;" width="131.1" height="27.4"/>
</g>
<rect x="33.9" y="270.9" style="fill:#65C5B8;" width="203.2" height="203.2"/>
<polygon style="fill:#FFFFFF;" points="191.5,409.2 154.9,372.5 191.5,335.9 172.1,316.5 135.5,353.1 98.8,316.5 79.4,335.9 
	116.1,372.5 79.4,409.2 98.8,428.6 135.5,391.9 172.1,428.6 "/>
<g>
</g>
<g>
</g>
<g>
</g>
<g>
</g>
<g>
</g>
<g>
</g>
<g>
</g>
<g>
</g>
<g>
</g>
<g>
</g>
<g>
</g>
<g>
</g>
<g>
</g>
<g>
</g>
<g>
</g>
</svg>
