<?xml version="1.0" encoding="iso-8859-1"?>
<!-- Generator: Adobe Illustrator 19.0.0, SVG Export Plug-In . SVG Version: 6.00 Build 0)  -->
<svg version="1.1" id="Capa_1" xmlns="http://www.w3.org/2000/svg" xmlns:xlink="http://www.w3.org/1999/xlink" x="0px" y="0px"
	 viewBox="0 0 508.1 508.1" style="enable-background:new 0 0 508.1 508.1;" xml:space="preserve">
<path style="fill:#CDD5DF;" d="M486.8,0.05H21.2C9.5,0.05,0,9.55,0,21.25v129.8h508V21.25C508,9.55,498.5,0.05,486.8,0.05z"/>
<path style="fill:#F2F2F2;" d="M0,151.05v335.8c0,11.7,9.5,21.2,21.2,21.2h465.7c11.7,0,21.2-9.5,21.2-21.2v-335.8H0z"/>
<rect x="41.1" y="36.45" style="fill:#55BFE9;" width="425.7" height="78.1"/>
<g>
	<rect x="41.1" y="192.15" style="fill:#ABB2B9;" width="72.3" height="72.3"/>
	<rect x="158.9" y="192.15" style="fill:#ABB2B9;" width="72.3" height="72.3"/>
</g>
<g>
	<rect x="276.7" y="192.15" style="fill:#CDD5DF;" width="72.3" height="72.3"/>
	<rect x="394.5" y="192.15" style="fill:#CDD5DF;" width="72.3" height="72.3"/>
	<rect x="41.1" y="293.75" style="fill:#CDD5DF;" width="72.3" height="72.3"/>
	<rect x="158.9" y="293.75" style="fill:#CDD5DF;" width="72.3" height="72.3"/>
	<rect x="276.7" y="293.75" style="fill:#CDD5DF;" width="72.3" height="72.3"/>
	<rect x="394.5" y="293.75" style="fill:#CDD5DF;" width="72.3" height="72.3"/>
	<rect x="41.1" y="395.25" style="fill:#CDD5DF;" width="72.3" height="72.3"/>
	<rect x="158.9" y="395.25" style="fill:#CDD5DF;" width="72.3" height="72.3"/>
	<rect x="276.7" y="395.25" style="fill:#CDD5DF;" width="72.3" height="72.3"/>
</g>
<rect x="394.5" y="395.25" style="fill:#F2705B;" width="72.3" height="72.3"/>
<g>
</g>
<g>
</g>
<g>
</g>
<g>
</g>
<g>
</g>
<g>
</g>
<g>
</g>
<g>
</g>
<g>
</g>
<g>
</g>
<g>
</g>
<g>
</g>
<g>
</g>
<g>
</g>
<g>
</g>
</svg>
