<?xml version="1.0" encoding="iso-8859-1"?>
<!-- Generator: Adobe Illustrator 19.0.0, SVG Export Plug-In . SVG Version: 6.00 Build 0)  -->
<svg version="1.1" id="Capa_1" xmlns="http://www.w3.org/2000/svg" xmlns:xlink="http://www.w3.org/1999/xlink" x="0px" y="0px"
	 viewBox="0 0 508.1 508.1" style="enable-background:new 0 0 508.1 508.1;" xml:space="preserve">
<path style="fill:#F2705B;" d="M486.8,0H21.2C9.5,0,0,9.5,0,21.2v465.7c0,11.7,9.5,21.2,21.2,21.2h465.7c11.7,0,21.2-9.5,21.2-21.2
	V21.2C508,9.5,498.5,0,486.8,0z M128.9,86c-1.4,2.4-3.5,4.5-5.9,5.9c-23.5,13.9-47.9-10.5-34-34c1.4-2.4,3.5-4.5,5.9-5.9
	C118.4,38.1,142.7,62.5,128.9,86z M419.1,86c-1.4,2.4-3.5,4.5-5.9,5.9c-23.5,13.9-47.9-10.5-34-34c1.4-2.4,3.5-4.5,5.9-5.9
	C408.6,38.1,432.9,62.5,419.1,86z"/>
<polygon style="fill:#FFFFFF;" points="474.1,130.6 33.9,130.6 33.9,464.3 372.9,464.3 474.1,363.1 "/>
<polygon style="fill:#F2F2F2;" points="372.9,464.3 474.1,363.1 372.9,363.1 "/>
<g>
	<path style="fill:#41596B;" d="M220.2,360.9h-24.8v-93.4c-9.1,8.5-19.7,14.7-32,18.8v-22.5c6.5-2.1,13.5-6.1,21.1-12
		s12.8-12.8,15.6-20.7h20.1L220.2,360.9L220.2,360.9z"/>
	<path style="fill:#41596B;" d="M257.6,327.7l24.7-2.6c0.7,5.6,2.8,10,6.3,13.3s7.5,4.9,12,4.9c5.2,0,9.6-2.1,13.1-6.3
		c3.6-4.2,5.4-10.5,5.4-19c0-7.9-1.8-13.9-5.3-17.9c-3.6-4-8.2-6-13.9-6c-7.1,0-13.5,3.1-19.1,9.4l-20.1-2.9l12.7-67.3h65.5v23.2
		h-46.7l-3.9,22c5.5-2.8,11.2-4.1,16.9-4.1c11,0,20.3,4,27.9,12s11.5,18.4,11.5,31.1c0,10.6-3.1,20.1-9.3,28.5
		c-8.4,11.4-20.1,17.1-35,17.1c-11.9,0-21.7-3.2-29.2-9.6S259.1,338.5,257.6,327.7z"/>
</g>
<path style="fill:#F05540;" d="M132.3,66.8c0.4,1.7,0.6,3.4,0.6,5.2c0,6.1-2.3,11.5-6,15.8h254.2c-3.7-4.2-6-9.7-6-15.8
	c0-1.8,0.2-3.5,0.6-5.2H132.3z"/>
<path style="fill:#FFD05C;" d="M393.1,61.5H110.7c-5.8,0-10.5,4.7-10.5,10.5s4.7,10.5,10.5,10.5h282.4c5.8,0,10.5-4.7,10.5-10.5
	C403.6,66.2,398.9,61.5,393.1,61.5z"/>
<g>
</g>
<g>
</g>
<g>
</g>
<g>
</g>
<g>
</g>
<g>
</g>
<g>
</g>
<g>
</g>
<g>
</g>
<g>
</g>
<g>
</g>
<g>
</g>
<g>
</g>
<g>
</g>
<g>
</g>
</svg>
