<?xml version="1.0" encoding="iso-8859-1"?>
<!-- Generator: Adobe Illustrator 19.0.0, SVG Export Plug-In . SVG Version: 6.00 Build 0)  -->
<svg version="1.1" id="Capa_1" xmlns="http://www.w3.org/2000/svg" xmlns:xlink="http://www.w3.org/1999/xlink" x="0px" y="0px"
	 viewBox="0 0 508 508" style="enable-background:new 0 0 508 508;" xml:space="preserve">
<path style="fill:#F2705B;" d="M486.8,62.5H21.2C9.5,62.5,0,71.9,0,83.6v88.1h508V83.6C508,71.9,498.5,62.5,486.8,62.5z"/>
<path style="fill:#F6F7F7;" d="M508,171.7v235L406.8,508H21.2C9.5,508,0,498.5,0,486.8V171.7H508z"/>
<g>
	<path style="fill:#334A5E;" d="M136.1,0c-15.8,0-28.6,12.8-28.6,28.6v67.8c0,15.8,12.8,28.6,28.6,28.6s28.6-12.8,28.6-28.6V28.6
		C164.7,12.8,151.9,0,136.1,0z"/>
	<path style="fill:#334A5E;" d="M371.9,0c-15.8,0-28.6,12.8-28.6,28.6v67.8c0,15.8,12.8,28.6,28.6,28.6c15.8,0,28.6-12.8,28.6-28.6
		V28.6C400.5,12.8,387.7,0,371.9,0z"/>
</g>
<path style="fill:#CED4DF;" d="M428,406.8c-11.7,0-21.2,9.5-21.2,21.2v80L508,406.8H428z"/>
<rect x="160.2" y="235.2" style="fill:#FFCF5C;" width="78.7" height="78.7"/>
<g>
	<rect x="269.2" y="235.2" style="fill:#89D6F7;" width="78.7" height="78.7"/>
	<rect x="378.1" y="235.2" style="fill:#89D6F7;" width="78.7" height="78.7"/>
	<rect x="51.2" y="365.9" style="fill:#89D6F7;" width="78.7" height="78.7"/>
	<rect x="160.2" y="365.9" style="fill:#89D6F7;" width="78.7" height="78.7"/>
</g>
<rect x="269.2" y="365.9" style="fill:#FFCF5C;" width="78.7" height="78.7"/>
<rect y="171.7" style="fill:#E5E8EC;" width="508" height="15.8"/>
<g>
</g>
<g>
</g>
<g>
</g>
<g>
</g>
<g>
</g>
<g>
</g>
<g>
</g>
<g>
</g>
<g>
</g>
<g>
</g>
<g>
</g>
<g>
</g>
<g>
</g>
<g>
</g>
<g>
</g>
</svg>
