<?xml version="1.0" encoding="iso-8859-1"?>
<!-- Generator: Adobe Illustrator 19.0.0, SVG Export Plug-In . SVG Version: 6.00 Build 0)  -->
<svg version="1.1" id="Capa_1" xmlns="http://www.w3.org/2000/svg" xmlns:xlink="http://www.w3.org/1999/xlink" x="0px" y="0px"
	 viewBox="0 0 508 508" style="enable-background:new 0 0 508 508;" xml:space="preserve">
<path style="fill:#F2F2F2;" d="M508,71.75v415c0,11.7-9.5,21.2-21.2,21.2H21.2c-11.7,0.1-21.2-9.4-21.2-21.2v-415
	c0-11.7,9.5-21.2,21.2-21.2h465.5C498.5,50.55,508,60.05,508,71.75z"/>
<rect y="173.15" style="fill:#65C5B8;" width="508" height="106.2"/>
<rect y="279.25" style="fill:#4FBFA8;" width="508" height="106.2"/>
<path style="fill:#FFD05C;" d="M208.7,21.45v29.1H93.5v-29.1c0-11.8,9.6-21.4,21.4-21.4h72.4C199.1,0.05,208.7,9.65,208.7,21.45z"/>
<circle style="fill:#41596B;" cx="254" cy="279.25" r="158.2"/>
<path style="fill:#FFFFFF;" d="M254,158.95c-66.4,0-120.4,54-120.4,120.4s54,120.4,120.4,120.4s120.4-54,120.4-120.4
	S320.4,158.95,254,158.95z"/>
<path style="fill:#89D6F7;" d="M254,208.15c-39.2,0-71.1,31.9-71.1,71.1s31.9,71.1,71.1,71.1s71.1-31.9,71.1-71.1
	S293.2,208.15,254,208.15z"/>
<g>
	<path style="fill:#FFFFFF;" d="M214.8,228.75c-9.9,0-18,8.1-18,18c0,9.9,8.1,18,18,18s18-8.1,18-18
		C232.9,236.85,224.8,228.75,214.8,228.75z"/>
	<path style="fill:#FFFFFF;" d="M236.3,259.05c-4.8,0-8.7,3.9-8.7,8.7s3.9,8.7,8.7,8.7s8.7-3.9,8.7-8.7S241.1,259.05,236.3,259.05z"
		/>
</g>
<path style="opacity:0.2;fill:#ABB2B9;enable-background:new    ;" d="M254,437.45c-85.5,0-155.1-67.8-158-152.5
	c-0.1,1.9-0.1,3.8-0.1,5.6c0,87.4,70.8,158.2,158.2,158.2s158.2-70.8,158.2-158.2c0-1.9-0.1-3.8-0.1-5.6
	C409.1,369.65,339.5,437.45,254,437.45z"/>
<circle style="fill:#F05540;" cx="428.6" cy="112.75" r="30.2"/>
<circle style="fill:#FFFFFF;" cx="417.7" cy="105.85" r="10.3"/>
<g>
</g>
<g>
</g>
<g>
</g>
<g>
</g>
<g>
</g>
<g>
</g>
<g>
</g>
<g>
</g>
<g>
</g>
<g>
</g>
<g>
</g>
<g>
</g>
<g>
</g>
<g>
</g>
<g>
</g>
</svg>
