<?xml version="1.0" encoding="iso-8859-1"?>
<!-- Generator: Adobe Illustrator 19.0.0, SVG Export Plug-In . SVG Version: 6.00 Build 0)  -->
<svg version="1.1" id="Capa_1" xmlns="http://www.w3.org/2000/svg" xmlns:xlink="http://www.w3.org/1999/xlink" x="0px" y="0px"
	 viewBox="0 0 508.1 508.1" style="enable-background:new 0 0 508.1 508.1;" xml:space="preserve">
<path style="fill:#F2705B;" d="M486.8,0.05H21.2C9.5,0.05,0,9.55,0,21.25v146.3h508V21.25C508,9.55,498.5,0.05,486.8,0.05z"/>
<path style="fill:#F2F2F2;" d="M0,167.55v319.3c0,11.7,9.5,21.2,21.2,21.2h465.7c11.7,0,21.2-9.5,21.2-21.2v-319.3H0z"/>
<circle style="fill:#FFFFFF;" cx="254" cy="276.95" r="176.7"/>
<path style="fill:#89D6F7;" d="M254,134.15c-78.7,0-142.8,64.1-142.8,142.8s64.1,142.8,142.8,142.8s142.8-64.1,142.8-142.8
	S332.7,134.15,254,134.15z"/>
<path style="fill:#4BBEA8;" d="M254,363.25c-47.6,0-86.4-38.7-86.4-86.4c0-47.6,38.7-86.4,86.4-86.4c47.6,0,86.4,38.7,86.4,86.4
	S301.6,363.25,254,363.25z"/>
<path style="fill:#41596B;" d="M254,190.55c-47.6,0-86.4,38.7-86.4,86.4c0,47.6,38.7,86.4,86.4,86.4c47.6,0,86.4-38.7,86.4-86.4
	S301.6,190.55,254,190.55z"/>
<path style="fill:#FFFFFF;" d="M307.2,220.75c-12.9,0-23.3,10.5-23.3,23.3c0,12.9,10.5,23.3,23.3,23.3c12.9,0,23.3-10.5,23.3-23.3
	C330.5,231.15,320,220.75,307.2,220.75z"/>
<path style="fill:#FFD05C;" d="M98.5,83.75H52.3c-9.1,0-16.4-7.3-16.4-16.4l0,0c0-9.1,7.3-16.4,16.4-16.4h46.2
	c9.1,0,16.4,7.3,16.4,16.4l0,0C114.9,76.45,107.6,83.75,98.5,83.75z"/>
<g>
</g>
<g>
</g>
<g>
</g>
<g>
</g>
<g>
</g>
<g>
</g>
<g>
</g>
<g>
</g>
<g>
</g>
<g>
</g>
<g>
</g>
<g>
</g>
<g>
</g>
<g>
</g>
<g>
</g>
</svg>
