<?xml version="1.0" encoding="iso-8859-1"?>
<!-- Generator: Adobe Illustrator 19.0.0, SVG Export Plug-In . SVG Version: 6.00 Build 0)  -->
<svg version="1.1" id="Capa_1" xmlns="http://www.w3.org/2000/svg" xmlns:xlink="http://www.w3.org/1999/xlink" x="0px" y="0px"
	 viewBox="0 0 508 508" style="enable-background:new 0 0 508 508;" xml:space="preserve">
<path style="fill:#ABB2B9;" d="M131,22v257.6c0,5,0.8,9.8,2.3,14.3c0.2,0.6,0.5,1.2,0.7,1.9c6.5,17,22.9,29,42.2,29H368l89.7,69.1
	v-69.1h29.1c11.7,0,21.2-9.5,21.2-21.2V22c0-11.7-9.5-21.2-21.2-21.2H152.2C140.5,0.8,131,10.3,131,22z"/>
<g>
	<rect x="186.3" y="56.2" style="fill:#334A5E;" width="266.4" height="33.9"/>
	<rect x="186.3" y="139.6" style="fill:#334A5E;" width="266.4" height="33.9"/>
	<rect x="186.3" y="223.1" style="fill:#334A5E;" width="266.4" height="33.9"/>
</g>
<path style="fill:#F2F2F2;" d="M355.8,114.2H21.2C9.5,114.2,0,123.7,0,135.4v281.5c0,11.7,9.5,21.2,21.2,21.2h29.1v69.1l89.7-69.1
	h215.8c11.7,0,21.2-9.5,21.2-21.2V135.4C377,123.7,367.5,114.2,355.8,114.2z"/>
<circle style="fill:#F2705B;" cx="80.8" cy="277.9" r="37.4"/>
<circle style="fill:#89D6F7;" cx="188.5" cy="277.9" r="37.4"/>
<circle style="fill:#FFD05C;" cx="296.2" cy="277.9" r="37.4"/>
<g>
</g>
<g>
</g>
<g>
</g>
<g>
</g>
<g>
</g>
<g>
</g>
<g>
</g>
<g>
</g>
<g>
</g>
<g>
</g>
<g>
</g>
<g>
</g>
<g>
</g>
<g>
</g>
<g>
</g>
</svg>
