<?xml version="1.0" encoding="iso-8859-1"?>
<!-- Generator: Adobe Illustrator 19.0.0, SVG Export Plug-In . SVG Version: 6.00 Build 0)  -->
<svg version="1.1" id="Capa_1" xmlns="http://www.w3.org/2000/svg" xmlns:xlink="http://www.w3.org/1999/xlink" x="0px" y="0px"
	 viewBox="0 0 508 508" style="enable-background:new 0 0 508 508;" xml:space="preserve">
<path style="fill:#F2705B;" d="M254,0C114.2,0,0.9,93.8,0.9,209.5c0,78.2,51.7,146.3,128.3,182.3c-17,31.3-46.9,54.6-82.7,62.5
	c20,11.1,43.1,17.4,67.6,17.4c34.4,0,65.9-12.5,90.3-33.2c7.4-6.3,14.1-13.3,20-20.9c9.7,1,19.6,1.5,29.6,1.5
	c118.5,0,218-67.4,245.5-158.4c4.9-16.4,7.6-33.5,7.6-51.1C507.1,93.8,393.8,0,254,0z"/>
<path style="fill:#FFD05C;" d="M419.3,453.3c52.4-24.6,87.8-71.2,87.8-124.7c0-79.1-77.5-143.3-173.1-143.3s-173.1,64.2-173.1,143.3
	S238.4,471.9,334,471.9c6.9,0,13.6-0.4,20.3-1c17.4,22.5,44.7,37.1,75.4,37.1c16.8,0,32.5-4.3,46.2-11.9
	C451.4,490.6,431,474.7,419.3,453.3z"/>
<g>
	<path style="fill:#F6B44B;" d="M242.7,288.3h182.6c7.3,0,13.2-5.9,13.2-13.2c0-7.3-5.9-13.2-13.2-13.2H242.7
		c-7.3,0-13.2,5.9-13.2,13.2S235.4,288.3,242.7,288.3z"/>
	<path style="fill:#F6B44B;" d="M220.1,341.8h227.8c7.3,0,13.2-5.9,13.2-13.2c0-7.3-5.9-13.2-13.2-13.2H220.1
		c-7.3,0-13.2,5.9-13.2,13.2C206.9,335.9,212.8,341.8,220.1,341.8z"/>
	<path style="fill:#F6B44B;" d="M242.7,395.4h182.6c7.3,0,13.2-5.9,13.2-13.2s-5.9-13.2-13.2-13.2H242.7c-7.3,0-13.2,5.9-13.2,13.2
		S235.4,395.4,242.7,395.4z"/>
</g>
<g>
</g>
<g>
</g>
<g>
</g>
<g>
</g>
<g>
</g>
<g>
</g>
<g>
</g>
<g>
</g>
<g>
</g>
<g>
</g>
<g>
</g>
<g>
</g>
<g>
</g>
<g>
</g>
<g>
</g>
</svg>
