<?xml version="1.0" encoding="iso-8859-1"?>
<!-- Generator: Adobe Illustrator 19.0.0, SVG Export Plug-In . SVG Version: 6.00 Build 0)  -->
<svg version="1.1" id="Capa_1" xmlns="http://www.w3.org/2000/svg" xmlns:xlink="http://www.w3.org/1999/xlink" x="0px" y="0px"
	 viewBox="0 0 508.053 508.053" style="enable-background:new 0 0 508.053 508.053;" xml:space="preserve">
<path style="fill:#89D6F7;" d="M33.847,247.652v239.3c0,11.7,9.5,21.1,21.1,21.1h402.9c11.7,0,21.1-9.5,21.1-21.1v-239.3H33.847z"/>
<rect x="33.847" y="232.452" style="fill:#55BFE9;" width="445.2" height="15.2"/>
<rect x="20.047" y="141.752" style="fill:#41596B;" width="472.6" height="90.8"/>
<g>
	<polygon style="fill:#F2F2F2;" points="167.947,141.752 96.047,141.752 36.047,232.452 107.947,232.452 	"/>
	<polygon style="fill:#F2F2F2;" points="322.347,141.752 250.447,141.752 190.547,232.452 262.347,232.452 	"/>
	<polygon style="fill:#F2F2F2;" points="476.747,141.752 404.847,141.752 344.947,232.452 416.847,232.452 	"/>
</g>
<path style="fill:#41596B;" d="M481.747,18.752c-1.3-11.6-11.7-20-23.4-18.6l-54.4,6.2l-71.4,8.1l-82,9.4l-71.5,8.3l-82,9.4l-34.8,4
	c-11.2,1.4-21.2,6-29.1,13.1c-12.5,11-19.4,27.7-17.4,45.4l0.4,3.5l3.9,34.1l43.8-5l31.7-3.7l71.4-8.1l82-9.4l71.3-8.2h0.1l81.9-9.3
	l71.4-8.2l15.9-1.8L481.747,18.752z"/>
<g>
	<polygon style="fill:#F2F2F2;" points="332.447,14.552 403.847,6.452 473.747,89.752 402.347,97.952 	"/>
	<polygon style="fill:#F2F2F2;" points="179.047,32.152 250.447,23.952 320.347,107.353 248.947,115.452 	"/>
	<path style="fill:#F2F2F2;" d="M166.947,124.952l-71.4,8.1l-62.4-74.4c7.9-7.1,17.9-11.7,29.1-13.1l34.8-4L166.947,124.952z"/>
</g>
<path style="fill:#334A5E;" d="M63.847,136.752c-2.3-17.6-17.4-31.2-35.7-31.2c-4.2,0-8.2,0.7-11.9,2l3.9,34.1v35.2
	c2.5,0.6,5.3,1,8,1c20,0,36.1-16.2,36.1-36.1C64.247,140.052,64.147,138.352,63.847,136.752z"/>
<path style="fill:#F2705B;" d="M256.447,293.253c-43.1,0-77.9,34.9-77.9,77.9c0,3.5,0.2,6.9,0.7,10.3c4,30.1,25.1,54.7,53.3,63.8
	c7.6,2.5,15.6,3.8,24,3.8c43,0,77.8-34.9,77.8-77.9C334.247,328.152,299.447,293.253,256.447,293.253z"/>
<path style="fill:#FFFFFF;" d="M229.547,328.852v84.5c0,4,5.5,6.3,9.2,3.7l60.1-42.2c2.7-1.9,2.7-5.5,0-7.4l-60.1-42.2
	C235.147,322.652,229.547,324.852,229.547,328.852z"/>
<g>
</g>
<g>
</g>
<g>
</g>
<g>
</g>
<g>
</g>
<g>
</g>
<g>
</g>
<g>
</g>
<g>
</g>
<g>
</g>
<g>
</g>
<g>
</g>
<g>
</g>
<g>
</g>
<g>
</g>
</svg>
