<?xml version="1.0" encoding="iso-8859-1"?>
<!-- Generator: Adobe Illustrator 19.0.0, SVG Export Plug-In . SVG Version: 6.00 Build 0)  -->
<svg version="1.1" id="Capa_1" xmlns="http://www.w3.org/2000/svg" xmlns:xlink="http://www.w3.org/1999/xlink" x="0px" y="0px"
	 viewBox="0 0 508 508" style="enable-background:new 0 0 508 508;" xml:space="preserve">
<path style="fill:#FFD05C;" d="M454,65.7H54c-11.7,0-21.2,9.5-21.2,21.2v399.9c0,11.7,9.5,21.2,21.2,21.2h400
	c11.7,0,21.2-9.5,21.2-21.2V86.9C475.1,75.2,465.7,65.7,454,65.7z"/>
<polygon style="fill:#FFFFFF;" points="430,84.6 78,84.6 78,462.8 336.2,462.8 430,369 "/>
<polygon style="fill:#65C5B8;" points="336.2,462.8 430,369 336.2,369 "/>
<path style="fill:#41596B;" d="M317.7,32.9h-30.9C286.9,14.7,272.2,0,254,0c-18.1,0-32.9,14.7-32.9,32.9h-30.8
	c-18.7,0-33.9,15.1-33.9,33.9V105h195.1V66.7C351.6,48,336.4,32.9,317.7,32.9z M254,15c9.9,0,17.8,8,17.8,17.8s-8,17.8-17.8,17.8
	s-17.8-8-17.8-17.8C236.2,23,244.2,15,254,15z"/>
<rect x="127.5" y="141.5" style="fill:#65C5B8;" width="58.9" height="59"/>
<rect x="207.8" y="160.6" style="fill:#E5E8EC;" width="172.8" height="20.7"/>
<g>
	<rect x="207.8" y="242.7" style="fill:#F2F2F2;" width="172.8" height="20.7"/>
	<rect x="207.8" y="324.8" style="fill:#F2F2F2;" width="172.8" height="20.7"/>
</g>
<rect x="127.4" y="223.6" style="fill:#F2705B;" width="58.9" height="58.9"/>
<rect x="127.4" y="305.7" style="fill:#89D6F7;" width="58.9" height="58.9"/>
<g>
	<polygon style="fill:#334A5E;" points="149,191.3 132.1,174.4 140,166.4 149,175.4 173.8,150.6 181.8,158.5 	"/>
	<path style="fill:#334A5E;" d="M317.7,32.9h-30.9C286.9,14.7,272.2,0,254,0c-18.1,0-32.9,14.7-32.9,32.9h-30.8
		c-18.7,0-33.9,15.1-33.9,33.9v5.6c0-18.7,15.2-33.9,33.9-33.9h30.8c0-18.2,14.7-32.9,32.9-32.9s32.9,14.7,32.9,32.9h30.9
		c18.7,0,33.9,15.1,33.9,33.9v-5.6C351.6,48,336.4,32.9,317.7,32.9z"/>
</g>
<g>
</g>
<g>
</g>
<g>
</g>
<g>
</g>
<g>
</g>
<g>
</g>
<g>
</g>
<g>
</g>
<g>
</g>
<g>
</g>
<g>
</g>
<g>
</g>
<g>
</g>
<g>
</g>
<g>
</g>
</svg>
