<?xml version="1.0" encoding="iso-8859-1"?>
<!-- Generator: Adobe Illustrator 19.0.0, SVG Export Plug-In . SVG Version: 6.00 Build 0)  -->
<svg version="1.1" id="Capa_1" xmlns="http://www.w3.org/2000/svg" xmlns:xlink="http://www.w3.org/1999/xlink" x="0px" y="0px"
	 viewBox="0 0 508 508" style="enable-background:new 0 0 508 508;" xml:space="preserve">
<path style="fill:#89D6F7;" d="M453.9,69.9H54.1c-11.7,0-21.2,9.5-21.2,21.2v395.7c0,11.7,9.6,21.2,21.2,21.2h399.8
	c11.7,0,21.2-9.5,21.2-21.2V91.1C475.1,79.4,465.6,69.9,453.9,69.9z"/>
<polygon style="fill:#FFFFFF;" points="430,94.4 78,94.4 78,468.5 336.2,468.5 430,374.7 "/>
<g>
	<polygon style="fill:#F2F2F2;" points="336.2,468.5 430,374.7 336.2,374.7 	"/>
	<path style="fill:#F2F2F2;" d="M330.3,32.9h-43.5C286.9,14.7,272.2,0,254,0c-18.1,0-32.9,14.7-32.9,32.9h-43.4
		c-11.7,0-21.2,9.5-21.2,21.2V105h195.1V54.1C351.6,42.4,342.1,32.9,330.3,32.9z M254,15c9.9,0,17.8,8,17.8,17.8s-8,17.8-17.8,17.8
		c-9.8,0-17.8-8-17.8-17.8C236.2,23,244.2,15,254,15z"/>
</g>
<rect x="156.5" y="69.9" style="fill:#CDD5DF;" width="195.1" height="44.2"/>
<rect x="127.5" y="147.1" style="fill:#65C5B8;" width="58.9" height="59"/>
<g>
	<rect x="207.8" y="166.2" style="fill:#CDD5DF;" width="172.8" height="20.7"/>
	<rect x="207.8" y="248.3" style="fill:#CDD5DF;" width="172.8" height="20.7"/>
	<rect x="207.8" y="330.5" style="fill:#CDD5DF;" width="172.8" height="20.7"/>
</g>
<rect x="127.4" y="229.2" style="fill:#FFD05C;" width="58.9" height="58.9"/>
<rect x="127.4" y="311.4" style="fill:#89D6F7;" width="58.9" height="58.9"/>
<polygon style="fill:#41596B;" points="149,197 132.1,180.1 140,172.1 149,181 173.8,156.2 181.8,164.2 "/>
<g>
</g>
<g>
</g>
<g>
</g>
<g>
</g>
<g>
</g>
<g>
</g>
<g>
</g>
<g>
</g>
<g>
</g>
<g>
</g>
<g>
</g>
<g>
</g>
<g>
</g>
<g>
</g>
<g>
</g>
</svg>
