<?xml version="1.0" encoding="iso-8859-1"?>
<!-- Generator: Adobe Illustrator 19.0.0, SVG Export Plug-In . SVG Version: 6.00 Build 0)  -->
<svg version="1.1" id="Capa_1" xmlns="http://www.w3.org/2000/svg" xmlns:xlink="http://www.w3.org/1999/xlink" x="0px" y="0px"
	 viewBox="0 0 507.975 507.975" style="enable-background:new 0 0 507.975 507.975;" xml:space="preserve">
<path style="fill:#F2705B;" d="M403.2,67.837h-382c-11.7,0-21.2,9.5-21.2,21.2v397.7c0,11.7,9.5,21.2,21.2,21.2h382
	c11.7,0,21.2-9.5,21.2-21.2v-397.7C424.4,77.337,414.9,67.837,403.2,67.837z"/>
<path style="fill:#F2F2F2;" d="M390.5,104.637v355.1c0,7.9-6.4,14.3-14.2,14.3H120.4l-86.6-86.6v-282.8c0-7.9,6.4-14.3,14.3-14.3
	h328.2C384.1,90.337,390.5,96.737,390.5,104.637z"/>
<path style="fill:#41596B;" d="M308,35.937h-59.9c0-19.8-16.1-35.9-35.9-35.9s-35.9,16.1-35.9,35.9h-59.9c-8.8,0-16,7.2-16,16v69.9
	H324v-69.9C324,43.037,316.8,35.937,308,35.937z M212.2,55.137c-10.6,0-19.2-8.6-19.2-19.2s8.6-19.2,19.2-19.2
	c10.6,0,19.2,8.6,19.2,19.2S222.8,55.137,212.2,55.137z"/>
<path style="opacity:0.5;fill:#334A5E;enable-background:new    ;" d="M308,35.937h-59.9c0-19.8-16.1-35.9-35.9-35.9
	s-35.9,16.1-35.9,35.9h-59.9c-8.8,0-16,7.2-16,16v11.3c0-8.8,7.2-16,16-16h59.9c0-19.8,16.1-35.9,35.9-35.9s35.9,16.1,35.9,35.9H308
	c8.8,0,16,7.2,16,16v-11.3C324,43.037,316.8,35.937,308,35.937z"/>
<path style="fill:#65C5B8;" d="M109.8,387.437H33.9l86.6,86.6v-75.9C120.4,392.137,115.7,387.437,109.8,387.437z"/>
<rect x="64.3" y="153.137" style="fill:#FFD05C;" width="128.7" height="20.4"/>
<g>
	<rect x="64.3" y="217.337" style="fill:#89D6F7;" width="300" height="20.4"/>
	<rect x="64.3" y="281.437" style="fill:#89D6F7;" width="259.7" height="20.4"/>
	<rect x="64.3" y="345.637" style="fill:#89D6F7;" width="257.4" height="20.4"/>
</g>
<path style="fill:#ABB2B9;" d="M500.4,160.637l-38.9-38.9c-10.1-10.1-26.4-10.1-36.4-0.1l-215.7,215.8l-10,57.5l-5.8,33.5l33.5-5.8
	l57.6-9.9l215.7-215.7C510.5,187.037,510.5,170.737,500.4,160.637z"/>
<g>
	
		<rect x="370.482" y="152.235" transform="matrix(-0.7071 0.7071 -0.7071 -0.7071 856.5687 56.2657)" style="fill:#CDD5DF;" width="92.299" height="106.599"/>
	
		<rect x="239.427" y="300.129" transform="matrix(-0.7071 0.7071 -0.7071 -0.7071 708.8279 413.2516)" style="fill:#CDD5DF;" width="58.799" height="106.599"/>
</g>
<path style="fill:#FFFFFF;" d="M429.7,153.337l-12,12l12.5,12.5l-70.8,70.8c-3.6,0-7.2,1.4-9.9,4.1c-5.5,5.5-5.5,14.4,0,19.9
	s14.4,5.5,19.9,0c2.7-2.7,4.1-6.3,4.1-9.9l70.8-70.8l12.5,12.5l12-12L429.7,153.337z"/>
<polygon style="fill:#334A5E;" points="227.2,422.637 193.7,428.437 199.5,394.937 "/>
<g>
</g>
<g>
</g>
<g>
</g>
<g>
</g>
<g>
</g>
<g>
</g>
<g>
</g>
<g>
</g>
<g>
</g>
<g>
</g>
<g>
</g>
<g>
</g>
<g>
</g>
<g>
</g>
<g>
</g>
</svg>
