<?xml version="1.0" encoding="iso-8859-1"?>
<!-- Generator: Adobe Illustrator 19.0.0, SVG Export Plug-In . SVG Version: 6.00 Build 0)  -->
<svg version="1.1" id="Capa_1" xmlns="http://www.w3.org/2000/svg" xmlns:xlink="http://www.w3.org/1999/xlink" x="0px" y="0px"
	 viewBox="0 0 508 508" style="enable-background:new 0 0 508 508;" xml:space="preserve">
<path style="fill:#FFD05C;" d="M447.3,61.4H60.7c-12.2,0-22.1,9.9-22.1,22.1v402.4c0,12.2,9.9,22.1,22.1,22.1h386.6
	c12.2,0,22.1-9.9,22.1-22.1V83.5C469.4,71.3,459.5,61.4,447.3,61.4z"/>
<path style="fill:#FFFFFF;" d="M435,98.7v360.5c0,8-6.5,14.5-14.4,14.5H160.8L73,385.8V98.7c0-8,6.5-14.5,14.5-14.5h333.1
	C428.5,84.2,435,90.7,435,98.7z"/>
<rect x="140.6" y="32.3" style="fill:#65C5B8;" width="226.9" height="83.8"/>
<rect x="181.9" style="fill:#CDD5DF;" width="144.2" height="53.2"/>
<path style="fill:#F2F2F2;" d="M138.8,385.8H73l87.9,87.9v-65.8C160.9,395.7,151,385.8,138.8,385.8z"/>
<circle style="fill:#F2705B;" cx="254" cy="278.9" r="90.2"/>
<polygon style="fill:#FFFFFF;" points="321.7,240 307.1,225.4 229.3,303.2 200.9,274.8 186.3,289.5 229.3,332.4 229.3,332.4 
	229.3,332.4 "/>
<g>
</g>
<g>
</g>
<g>
</g>
<g>
</g>
<g>
</g>
<g>
</g>
<g>
</g>
<g>
</g>
<g>
</g>
<g>
</g>
<g>
</g>
<g>
</g>
<g>
</g>
<g>
</g>
<g>
</g>
</svg>
