<?xml version="1.0" encoding="iso-8859-1"?>
<!-- Generator: Adobe Illustrator 19.0.0, SVG Export Plug-In . SVG Version: 6.00 Build 0)  -->
<svg version="1.1" id="Capa_1" xmlns="http://www.w3.org/2000/svg" xmlns:xlink="http://www.w3.org/1999/xlink" x="0px" y="0px"
	 viewBox="0 0 508 508" style="enable-background:new 0 0 508 508;" xml:space="preserve">
<circle style="fill:#334A5E;" cx="254" cy="254" r="254"/>
<circle style="fill:#F2F2F2;" cx="254" cy="254" r="200.9"/>
<path style="fill:#CDD5DF;" d="M384.4,101.1c30,35.1,48.1,80.6,48.1,130.4c0,111-90,200.9-200.9,200.9c-49.8,0-95.3-18.1-130.4-48.1
	c36.9,43.2,91.6,70.6,152.9,70.6c111,0,200.9-90,200.9-200.9C454.9,192.8,427.5,138,384.4,101.1z"/>
<g>
	<path style="fill:#F2705B;" d="M254,91.1c-6.1,0-11,4.9-11,11v188.5c0,6.1,4.9,11,11,11s11-4.9,11-11V102.1
		C265,96,260.1,91.1,254,91.1z"/>
	<path style="fill:#F2705B;" d="M123.7,254c0,6.1,4.9,11,11,11h158.1c6.1,0,11-4.9,11-11s-4.9-11-11-11H134.7
		C128.6,243,123.7,247.9,123.7,254z"/>
</g>
<circle style="fill:#334A5E;" cx="254" cy="254" r="31.3"/>
<circle style="fill:#E5E8EC;" cx="254" cy="254" r="15"/>
<g>
	<rect x="243" y="48.3" style="fill:#324A5E;" width="22" height="32.6"/>
	<rect x="243" y="427.2" style="fill:#324A5E;" width="22" height="32.6"/>
	<rect x="427.2" y="243" style="fill:#324A5E;" width="32.6" height="22"/>
	<rect x="48.3" y="243" style="fill:#324A5E;" width="32.6" height="22"/>
</g>
<g>
</g>
<g>
</g>
<g>
</g>
<g>
</g>
<g>
</g>
<g>
</g>
<g>
</g>
<g>
</g>
<g>
</g>
<g>
</g>
<g>
</g>
<g>
</g>
<g>
</g>
<g>
</g>
<g>
</g>
</svg>
