<?xml version="1.0" encoding="iso-8859-1"?>
<!-- Generator: Adobe Illustrator 19.0.0, SVG Export Plug-In . SVG Version: 6.00 Build 0)  -->
<svg version="1.1" id="Capa_1" xmlns="http://www.w3.org/2000/svg" xmlns:xlink="http://www.w3.org/1999/xlink" x="0px" y="0px"
	 viewBox="0 0 508.1 508.1" style="enable-background:new 0 0 508.1 508.1;" xml:space="preserve">
<path style="fill:#F2F2F2;" d="M449.7,170.65c1.9-9.1,2.8-18.6,2.8-28.3c0-78.6-63.7-142.3-142.3-142.3c-49.4,0-93,25.2-118.5,63.5
	c-7.7-1.9-15.6-2.9-23.9-2.9c-57.1,0-103.3,46.3-103.3,103.3c0,1.5,0.2,2.9,0.2,4.3c-37.5,12-64.7,47-64.7,88.5
	c0,48.9,38,89,86.1,92.5c2.2,0.2,4.4,0.2,6.7,0.2h322.6c51.2,0,92.7-41.5,92.7-92.7C508,217.75,483.8,184.35,449.7,170.65z"/>
<polygon style="fill:#89D6F7;" points="118.4,372.45 254,508.05 389.6,372.45 324.5,372.45 324.5,188.15 183.5,188.15 183.5,372.45 
	"/>
<g>
</g>
<g>
</g>
<g>
</g>
<g>
</g>
<g>
</g>
<g>
</g>
<g>
</g>
<g>
</g>
<g>
</g>
<g>
</g>
<g>
</g>
<g>
</g>
<g>
</g>
<g>
</g>
<g>
</g>
</svg>
