<?xml version="1.0" encoding="iso-8859-1"?>
<!-- Generator: Adobe Illustrator 19.0.0, SVG Export Plug-In . SVG Version: 6.00 Build 0)  -->
<svg version="1.1" id="Capa_1" xmlns="http://www.w3.org/2000/svg" xmlns:xlink="http://www.w3.org/1999/xlink" x="0px" y="0px"
	 viewBox="0 0 508.1 508.1" style="enable-background:new 0 0 508.1 508.1;" xml:space="preserve">
<path style="fill:#89D6F7;" d="M449.7,170.65c1.9-9.1,2.8-18.6,2.8-28.3c0-78.6-63.7-142.3-142.3-142.3c-49.4,0-93,25.2-118.5,63.5
	c-7.7-1.9-15.6-2.9-23.9-2.9c-57.1,0-103.4,46.3-103.4,103.4c0,1.5,0.2,2.9,0.2,4.3C27.2,180.25,0,215.25,0,256.75
	c0,48.9,38,89,86.1,92.5c2.2,0.2,4.4,0.2,6.7,0.2h322.6c51.2,0,92.7-41.5,92.7-92.7C508,217.75,483.8,184.35,449.7,170.65z"/>
<g>
	<polygon style="fill:#F2F2F2;" points="82.6,415.15 175.5,508.05 268.5,415.15 223.9,415.15 223.9,288.85 127.2,288.85 
		127.2,415.15 	"/>
	<polygon style="fill:#F2F2F2;" points="425.4,260.25 332.5,167.35 239.6,260.25 284.1,260.25 284.1,386.55 380.8,386.55 
		380.8,260.25 	"/>
</g>
<g>
</g>
<g>
</g>
<g>
</g>
<g>
</g>
<g>
</g>
<g>
</g>
<g>
</g>
<g>
</g>
<g>
</g>
<g>
</g>
<g>
</g>
<g>
</g>
<g>
</g>
<g>
</g>
<g>
</g>
</svg>
