<?xml version="1.0" encoding="iso-8859-1"?>
<!-- Generator: Adobe Illustrator 19.0.0, SVG Export Plug-In . SVG Version: 6.00 Build 0)  -->
<svg version="1.1" id="Capa_1" xmlns="http://www.w3.org/2000/svg" xmlns:xlink="http://www.w3.org/1999/xlink" x="0px" y="0px"
	 viewBox="0 0 507.9 507.9" style="enable-background:new 0 0 507.9 507.9;" xml:space="preserve">
<path style="fill:#F2F2F2;" d="M80.05,82.2l2,15.2l51.1,392.1c1.4,10.5,10.4,18.4,21,18.4h199.8c10.6,0,19.6-7.9,21-18.4l51-392.1
	l2-15.2H80.05z"/>
<g>
	<path style="fill:#F2705B;" d="M433.25,0H74.65c-10.2,0-18.4,8.2-18.4,18.4v63.8h395.4V18.4C451.65,8.2,443.35,0,433.25,0z"/>
	<path style="fill:#F2705B;" d="M408.45,191.8h-309c-5.7,0-10.2,5.1-9.4,10.7l23.8,183.5c0.6,4.7,4.7,8.3,9.4,8.3h261.3
		c4.8,0,8.8-3.5,9.4-8.3l24-183.4C418.65,196.9,414.25,191.8,408.45,191.8z"/>
</g>
<ellipse style="fill:#FFFFFF;" cx="253.95" cy="286.9" rx="62.2" ry="76.5"/>
<g>
</g>
<g>
</g>
<g>
</g>
<g>
</g>
<g>
</g>
<g>
</g>
<g>
</g>
<g>
</g>
<g>
</g>
<g>
</g>
<g>
</g>
<g>
</g>
<g>
</g>
<g>
</g>
<g>
</g>
</svg>
