<?xml version="1.0" encoding="iso-8859-1"?>
<!-- Generator: Adobe Illustrator 19.0.0, SVG Export Plug-In . SVG Version: 6.00 Build 0)  -->
<svg version="1.1" id="Capa_1" xmlns="http://www.w3.org/2000/svg" xmlns:xlink="http://www.w3.org/1999/xlink" x="0px" y="0px"
	 viewBox="0 0 508.1 508.1" style="enable-background:new 0 0 508.1 508.1;" xml:space="preserve">
<polygon style="fill:#CDD5DF;" points="336.1,416.35 335.5,415.35 172.5,415.35 171.9,416.35 160.8,434.95 141.3,467.85 
	366.7,467.85 347.2,434.95 "/>
<polygon style="fill:#ABB2B9;" points="347.2,434.95 160.8,434.95 171.9,416.35 336.1,416.35 "/>
<path style="fill:#F2F2F2;" d="M0,335.35v59.9c0,11.7,9.5,21.2,21.2,21.2h465.7c11.7,0,21.2-9.5,21.2-21.2v-59.9H0z"/>
<path style="fill:#334A5E;" d="M474.1,0.05h-453C9.5,0.05,0,9.55,0,21.25v314.1h508V33.95C508,15.25,492.8,0.05,474.1,0.05z"/>
<rect x="40.7" y="36.15" style="fill:#FFFFFF;" width="426.6" height="263"/>
<path style="fill:#F2F2F2;" d="M372.6,467.85H135.4c-22.2,0-40.2,18-40.2,40.2h317.6C412.8,485.85,394.8,467.85,372.6,467.85z"/>
<circle style="fill:#CDD5DF;" cx="254" cy="375.85" r="13.2"/>
<path style="fill:#FFD05C;" d="M254,74.65c-31.1,0-56.4,25.3-56.4,56.4v24.7h19.3v-24.7c0-20.5,16.7-37.2,37.2-37.2
	s37.2,16.7,37.2,37.2v24.7h19.3v-24.7C310.4,99.95,285.1,74.65,254,74.65z"/>
<path style="fill:#F2705B;" d="M307,155.75H201c-12.8,0-23.1,10.3-23.1,23.1v58.7c0,12.8,10.3,23.1,23.1,23.1h106
	c12.8,0,23.1-10.3,23.1-23.1v-58.7C330.1,166.15,319.8,155.75,307,155.75z M261,211.75v10.3c0,3.9-3.1,7-7,7s-7-3.1-7-7v-10.3
	c-3.7-2.3-6.2-6.4-6.2-11.2c0-7.3,5.9-13.2,13.2-13.2c7.3,0,13.2,5.9,13.2,13.2C267.2,205.35,264.7,209.45,261,211.75z"/>
<g>
</g>
<g>
</g>
<g>
</g>
<g>
</g>
<g>
</g>
<g>
</g>
<g>
</g>
<g>
</g>
<g>
</g>
<g>
</g>
<g>
</g>
<g>
</g>
<g>
</g>
<g>
</g>
<g>
</g>
</svg>
