<?xml version="1.0" encoding="iso-8859-1"?>
<!-- Generator: Adobe Illustrator 19.0.0, SVG Export Plug-In . SVG Version: 6.00 Build 0)  -->
<svg version="1.1" id="Capa_1" xmlns="http://www.w3.org/2000/svg" xmlns:xlink="http://www.w3.org/1999/xlink" x="0px" y="0px"
	 viewBox="0 0 508 508" style="enable-background:new 0 0 508 508;" xml:space="preserve">
<g>
	<rect x="232.3" y="30" style="fill:#65C5B8;" width="43.4" height="70.4"/>
	<path style="fill:#65C5B8;" d="M324.3,0H183.7c-12,0-21.7,9.7-21.7,21.7s9.7,21.7,21.7,21.7h140.6c12,0,21.7-9.7,21.7-21.7
		S336.3,0,324.3,0z"/>
</g>
<circle style="fill:#334A5E;" cx="254" cy="286.6" r="221.4"/>
<path style="fill:#F2F2F2;" d="M254,122.8c-90.3,0-163.7,73.5-163.7,163.7c0,2.6,0.1,5.2,0.2,7.8v0.6c0,0.2,0,0.4,0.1,0.6
	c4.7,86.2,76.2,154.8,163.5,154.8c87.5,0,159.2-68.9,163.6-155.3c0-0.1,0-0.1,0-0.1v-0.6c0.2-2.6,0.2-5.2,0.2-7.8
	C417.8,196.3,344.3,122.8,254,122.8z"/>
<path style="fill:#CDD5DF;" d="M254,122.8c-90.3,0-163.7,73.5-163.7,163.7c0,2.6,0.1,5.2,0.2,7.8v0.6c0,0.2,0,0.4,0.1,0.6
	c4.1-86.6,75.9-155.8,163.5-155.8c87.4,0,159.1,68.9,163.6,155.2v-0.6c0.2-2.6,0.2-5.2,0.2-7.8C417.8,196.3,344.3,122.8,254,122.8z"
	/>
<path style="fill:#F2705B;" d="M342.6,198l-92.7,55c1.9-0.4,3.9-0.6,5.9-0.6c17.8,0,32.4,14.5,32.4,32.4c0,2-0.2,4-0.6,5.9
	L342.6,198z"/>
<path style="fill:#FFD05C;" d="M255.8,317.1c-17.8,0-32.3-14.5-32.3-32.3c0-2,0.2-4,0.6-5.9L169,371.6l92.7-55.1
	C259.7,316.9,257.8,317.1,255.8,317.1z"/>
<path style="fill:#334A5E;" d="M255.8,321.7c-20.3,0-36.9-16.5-36.9-36.9c0-20.3,16.5-36.9,36.9-36.9c20.3,0,36.9,16.5,36.9,36.9
	C292.7,305.1,276.1,321.7,255.8,321.7z"/>
<path style="fill:#F6F7F7;" d="M255.8,305.9c-11.6,0-21.1-9.5-21.1-21.1s9.5-21.1,21.1-21.1s21.1,9.5,21.1,21.1
	S267.4,305.9,255.8,305.9z"/>
<rect x="232.3" y="43.4" style="fill:#4FBFA8;" width="43.4" height="11.5"/>
<g>
</g>
<g>
</g>
<g>
</g>
<g>
</g>
<g>
</g>
<g>
</g>
<g>
</g>
<g>
</g>
<g>
</g>
<g>
</g>
<g>
</g>
<g>
</g>
<g>
</g>
<g>
</g>
<g>
</g>
</svg>
