<?xml version="1.0" encoding="iso-8859-1"?>
<!-- Generator: Adobe Illustrator 19.0.0, SVG Export Plug-In . SVG Version: 6.00 Build 0)  -->
<svg version="1.1" id="Capa_1" xmlns="http://www.w3.org/2000/svg" xmlns:xlink="http://www.w3.org/1999/xlink" x="0px" y="0px"
	 viewBox="0 0 508 508" style="enable-background:new 0 0 508 508;" xml:space="preserve">
<path style="fill:#334A5E;" d="M491.1,53H21.2C9.5,53,0,62.5,0,74.2v283.4h508V69.9C508,60.6,500.4,53,491.1,53z"/>
<path style="fill:#F2F2F2;" d="M0,357.7V398c0,11.7,9.5,21.2,21.2,21.2h465.6c11.7,0,21.2-9.5,21.2-21.2v-40.3H0z"/>
<g>
	<circle style="fill:#CDD5DF;" cx="254" cy="388.4" r="12.1"/>
	<rect x="156.7" y="419.2" style="fill:#CDD5DF;" width="194.7" height="56.7"/>
</g>
<rect x="156.7" y="419.2" style="fill:#ABB2B9;" width="194.7" height="15.8"/>
<g>
	<path style="fill:#F2F2F2;" d="M402.7,508H105.3v-29.1c0-1.7,1.4-3,3-3h291.4c1.7,0,3,1.4,3,3V508z"/>
	<polygon style="fill:#F2F2F2;" points="349.7,0 93.2,0 93.2,333.3 414.8,333.3 414.8,65 	"/>
</g>
<polygon style="fill:#CDD5DF;" points="349.7,65 414.8,65 349.7,0 "/>
<rect x="140.9" y="84.9" style="fill:#FFD05C;" width="70.8" height="70.8"/>
<rect x="154.9" y="98.9" style="fill:#F6F7F7;" width="42.7" height="42.7"/>
<rect x="140.9" y="209.8" style="fill:#F2705B;" width="70.8" height="70.8"/>
<rect x="154.9" y="223.8" style="fill:#F6F7F7;" width="42.7" height="42.7"/>
<g>
	<rect x="237" y="85.7" style="fill:#CDD5DF;" width="130.1" height="18.7"/>
	<rect x="237" y="136.1" style="fill:#CDD5DF;" width="130.1" height="18.7"/>
	<rect x="237" y="210.7" style="fill:#CDD5DF;" width="130.1" height="18.7"/>
	<rect x="237" y="261" style="fill:#CDD5DF;" width="130.1" height="18.7"/>
</g>
<g>
	<polygon style="fill:#89D6F7;" points="446.3,84.9 414.8,333.3 474.3,333.3 474.3,84.9 	"/>
	<polygon style="fill:#89D6F7;" points="33.7,84.9 33.7,333.3 93.2,333.3 61.7,84.9 	"/>
</g>
<polygon style="fill:#334A5E;" points="450.4,53 414.8,53 414.8,84.9 446.3,84.9 "/>
<polygon style="fill:#89D6F7;" points="414.8,84.9 414.8,333.3 446.3,84.9 "/>
<polygon style="fill:#55BFE9;" points="414.8,84.9 414.8,333.3 446.3,84.9 "/>
<polygon style="fill:#334A5E;" points="93.2,53 57.6,53 61.7,84.9 93.2,84.9 "/>
<polygon style="fill:#89D6F7;" points="61.7,84.9 93.2,333.3 93.2,84.9 "/>
<polygon style="fill:#55BFE9;" points="61.7,84.9 93.2,333.3 93.2,84.9 "/>
<g>
</g>
<g>
</g>
<g>
</g>
<g>
</g>
<g>
</g>
<g>
</g>
<g>
</g>
<g>
</g>
<g>
</g>
<g>
</g>
<g>
</g>
<g>
</g>
<g>
</g>
<g>
</g>
<g>
</g>
</svg>
