<?xml version="1.0" encoding="iso-8859-1"?>
<!-- Generator: Adobe Illustrator 19.0.0, SVG Export Plug-In . SVG Version: 6.00 Build 0)  -->
<svg version="1.1" id="Capa_1" xmlns="http://www.w3.org/2000/svg" xmlns:xlink="http://www.w3.org/1999/xlink" x="0px" y="0px"
	 viewBox="0 0 508.1 508.1" style="enable-background:new 0 0 508.1 508.1;" xml:space="preserve">
<path style="fill:#41596B;" d="M486.8,0.05H21.2C9.5,0.05,0,9.55,0,21.25v359.9c0,11.7,9.5,21.2,21.2,21.2h465.7
	c11.7,0,21.2-9.5,21.2-21.2V21.25C508,9.55,498.5,0.05,486.8,0.05z"/>
<rect x="33.9" y="33.95" style="fill:#FFFFFF;" width="440.3" height="300.7"/>
<rect x="169.5" y="402.35" style="fill:#ABB2B9;" width="168.9" height="60.7"/>
<path style="fill:#CDD5DF;" d="M393.3,463.05H114.7c-11.7,0-21.2,9.5-21.2,21.2v23.8h320.9v-23.9
	C414.5,472.45,405,463.05,393.3,463.05z"/>
<circle style="fill:#FFFFFF;" cx="254" cy="368.45" r="15"/>
<rect x="169.5" y="402.35" style="fill:#99A0A3;" width="168.9" height="14.1"/>
<rect x="65.6" y="65.65" style="fill:#CDD5DF;" width="216.9" height="237.1"/>
<rect x="314.3" y="200.15" style="fill:#FFD05C;" width="128.1" height="102.7"/>
<rect x="314.3" y="65.65" style="fill:#F2705B;" width="128.1" height="102.7"/>
<g>
</g>
<g>
</g>
<g>
</g>
<g>
</g>
<g>
</g>
<g>
</g>
<g>
</g>
<g>
</g>
<g>
</g>
<g>
</g>
<g>
</g>
<g>
</g>
<g>
</g>
<g>
</g>
<g>
</g>
</svg>
