<?xml version="1.0" encoding="iso-8859-1"?>
<!-- Generator: Adobe Illustrator 19.0.0, SVG Export Plug-In . SVG Version: 6.00 Build 0)  -->
<svg version="1.1" id="Capa_1" xmlns="http://www.w3.org/2000/svg" xmlns:xlink="http://www.w3.org/1999/xlink" x="0px" y="0px"
	 viewBox="0 0 508.1 508.1" style="enable-background:new 0 0 508.1 508.1;" xml:space="preserve">
<polygon style="fill:#334A5E;" points="336.1,416.35 335.5,415.35 172.5,415.35 171.9,416.35 160.8,434.95 141.3,467.85 
	366.7,467.85 347.2,434.95 "/>
<path style="fill:#41596B;" d="M0,335.35v59.9c0,11.7,9.5,21.2,21.2,21.2h465.7c11.7,0,21.2-9.5,21.2-21.2v-59.9H0z"/>
<path style="fill:#F2F2F2;" d="M486.8,0.05H21.2C9.5,0.05,0,9.55,0,21.25v314.1h508V21.25C508,9.55,498.5,0.05,486.8,0.05z"/>
<rect x="40.7" y="36.15" style="fill:#55BFE9;" width="426.6" height="263"/>
<path style="fill:#41596B;" d="M372.6,467.85H135.4c-22.2,0-40.2,18-40.2,40.2h317.6C412.8,485.85,394.8,467.85,372.6,467.85z"/>
<circle style="fill:#334A5E;" cx="254" cy="375.85" r="22.4"/>
<polygon style="fill:#FFFFFF;" points="138.6,95.55 326.2,283.15 369.4,239.85 181.8,52.25 "/>
<g>
	<polygon style="fill:#F2F2F2;" points="151.9,82.15 138.6,95.55 326.2,283.15 339.6,269.75 	"/>
	
		<rect x="204.138" y="85.761" transform="matrix(0.7071 0.7071 -0.7071 0.7071 132.4214 -118.5708)" style="fill:#F2F2F2;" width="10.4" height="29.6"/>
	
		<rect x="229.578" y="109.469" transform="matrix(0.7071 0.7071 -0.7071 0.7071 153.49 -130.919)" style="fill:#F2F2F2;" width="10.4" height="20.7"/>
	
		<rect x="184.892" y="64.766" transform="matrix(-0.7071 -0.7071 0.7071 -0.7071 271.3921 262.6462)" style="fill:#F2F2F2;" width="10.4" height="20.7"/>
	
		<rect x="248.848" y="130.487" transform="matrix(0.7071 0.7071 -0.7071 0.7071 177.1421 -137.0858)" style="fill:#F2F2F2;" width="10.4" height="29.6"/>
	
		<rect x="274.298" y="154.205" transform="matrix(0.7071 0.7071 -0.7071 0.7071 198.2208 -149.4381)" style="fill:#F2F2F2;" width="10.4" height="20.7"/>
	
		<rect x="293.568" y="175.222" transform="matrix(0.7071 0.7071 -0.7071 0.7071 221.8729 -155.6049)" style="fill:#F2F2F2;" width="10.4" height="29.6"/>
	
		<rect x="319.008" y="198.94" transform="matrix(0.7071 0.7071 -0.7071 0.7071 242.9487 -167.9502)" style="fill:#F2F2F2;" width="10.4" height="20.7"/>
	
		<rect x="338.208" y="219.887" transform="matrix(0.7071 0.7071 -0.7071 0.7071 266.5301 -174.0877)" style="fill:#F2F2F2;" width="10.4" height="29.6"/>
</g>
<path style="fill:#41596B;" d="M358.9,106.05l-166,166l-43.3-43.3l152.6-152.6l13.4-13.4c5.9-5.9,13.8-8.9,21.6-8.9
	c7.8,0,15.6,3,21.6,8.9C370.8,74.75,370.8,94.15,358.9,106.05z"/>
<polygon style="fill:#FFD05C;" points="149.6,228.75 143.9,260.55 140.2,281.55 161.1,277.75 192.9,272.05 "/>
<polygon style="fill:#41596B;" points="161.1,277.75 140.2,281.55 143.9,260.55 "/>
<path style="fill:#F2705B;" d="M358.9,62.75c-6-6-13.8-8.9-21.6-8.9c-7.8,0-15.7,3-21.6,8.9l-13.4,13.4l43.3,43.3l13.4-13.4
	C370.8,94.15,370.8,74.75,358.9,62.75z"/>
<rect x="288.777" y="95.947" transform="matrix(-0.7071 -0.7071 0.7071 -0.7071 472.8752 400.4656)" style="fill:#65C5B8;" width="61.199" height="12.7"/>
<g>
</g>
<g>
</g>
<g>
</g>
<g>
</g>
<g>
</g>
<g>
</g>
<g>
</g>
<g>
</g>
<g>
</g>
<g>
</g>
<g>
</g>
<g>
</g>
<g>
</g>
<g>
</g>
<g>
</g>
</svg>
