<?xml version="1.0" encoding="iso-8859-1"?>
<!-- Generator: Adobe Illustrator 19.0.0, SVG Export Plug-In . SVG Version: 6.00 Build 0)  -->
<svg version="1.1" id="Capa_1" xmlns="http://www.w3.org/2000/svg" xmlns:xlink="http://www.w3.org/1999/xlink" x="0px" y="0px"
	 viewBox="0 0 508 508" style="enable-background:new 0 0 508 508;" xml:space="preserve">
<path style="fill:#65C5B8;" d="M440,442H68c-0.8-0.8-1.2-1.2-2-2V68c0.8-0.8,1.2-1.2,2-2h372c0.8,0.8,1.2,1.2,2,2v372
	C441.2,440.8,440.8,441.2,440,442z"/>
<g>
	<rect x="100.8" style="fill:#4FBFA8;" width="24.2" height="66"/>
	<rect x="171.4" style="fill:#4FBFA8;" width="24.2" height="66"/>
	<rect x="241.9" style="fill:#4FBFA8;" width="24.2" height="66"/>
	<rect x="312.4" style="fill:#4FBFA8;" width="24.2" height="66"/>
	<rect x="382.9" style="fill:#4FBFA8;" width="24.2" height="66"/>
	<rect x="100.8" y="442" style="fill:#4FBFA8;" width="24.2" height="66"/>
	<rect x="171.4" y="442" style="fill:#4FBFA8;" width="24.2" height="66"/>
	<rect x="241.9" y="442" style="fill:#4FBFA8;" width="24.2" height="66"/>
	<rect x="312.4" y="442" style="fill:#4FBFA8;" width="24.2" height="66"/>
	<rect x="382.9" y="442" style="fill:#4FBFA8;" width="24.2" height="66"/>
	<rect x="442" y="100.8" style="fill:#4FBFA8;" width="66" height="24.2"/>
	<rect x="442" y="171.4" style="fill:#4FBFA8;" width="66" height="24.2"/>
	<rect x="442" y="241.9" style="fill:#4FBFA8;" width="66" height="24.2"/>
	<rect x="442" y="312.4" style="fill:#4FBFA8;" width="66" height="24.2"/>
	<rect x="442" y="382.9" style="fill:#4FBFA8;" width="66" height="24.2"/>
	<rect y="100.8" style="fill:#4FBFA8;" width="66" height="24.2"/>
	<rect y="171.4" style="fill:#4FBFA8;" width="66" height="24.2"/>
	<rect y="241.9" style="fill:#4FBFA8;" width="66" height="24.2"/>
	<rect y="312.4" style="fill:#4FBFA8;" width="66" height="24.2"/>
	<rect y="382.9" style="fill:#4FBFA8;" width="66" height="24.2"/>
</g>
<rect x="122.4" y="122.4" style="fill:#F2F2F2;" width="263.1" height="263.1"/>
<g>
</g>
<g>
</g>
<g>
</g>
<g>
</g>
<g>
</g>
<g>
</g>
<g>
</g>
<g>
</g>
<g>
</g>
<g>
</g>
<g>
</g>
<g>
</g>
<g>
</g>
<g>
</g>
<g>
</g>
</svg>
