<?xml version="1.0" encoding="iso-8859-1"?>
<!-- Generator: Adobe Illustrator 19.0.0, SVG Export Plug-In . SVG Version: 6.00 Build 0)  -->
<svg version="1.1" id="Capa_1" xmlns="http://www.w3.org/2000/svg" xmlns:xlink="http://www.w3.org/1999/xlink" x="0px" y="0px"
	 viewBox="0 0 512 512" style="enable-background:new 0 0 512 512;" xml:space="preserve">
<path style="fill:#F44336;" d="M320,64c-57.568,0-109.088,25.472-144.256,65.6c-5.248-0.544-10.368-1.6-15.744-1.6
	C71.648,128,0,199.648,0,288s71.648,160,160,160c27.488,0,129.664,0,160,0c106.048,0,192-85.952,192-192S426.048,64,320,64z"/>
<g>
	<path style="fill:#FAFAFA;" d="M320,96c-40.64,0-78.208,15.072-107.04,41.376c10.048,3.168,20.192,7.776,30.304,14.016
		c0.512,0.288,1.024,0.608,1.536,0.928l0.096,0.064C266.272,136.768,292.256,128,320,128c70.592,0,128,57.408,128,128
		s-57.408,128-128,128c-27.648,0-54.016-8.736-76.288-25.344c-9.024-6.656-16.384-13.664-22.528-21.408
		c-0.352-0.448-0.704-0.864-1.12-1.28l-47.68-58.112c-5.632-6.848-15.712-7.872-22.528-2.24c-6.848,5.6-7.84,15.68-2.24,22.528
		l48.608,59.264c0.256,0.32,0.544,0.64,0.832,0.928c7.744,9.536,16.8,18.048,27.616,26.016C252.416,405.056,285.376,416,320,416
		c88.224,0,160-71.776,160-160S408.224,96,320,96z"/>
	<path style="fill:#FAFAFA;" d="M175.968,382.56c-5.216,0.864-10.56,1.44-15.968,1.44c-52.928,0-96-43.072-96-96
		c0-63.52,61.344-114.016,128.192-90.176c5.696,1.6,11.904,4.512,18.464,8.672c0.288,0.192,0.608,0.352,0.928,0.544l99.936,62.56
		c7.52,4.672,17.376,2.4,22.048-5.12c4.672-7.488,2.4-17.344-5.056-22.048L227.84,179.424c-0.256-0.16-0.544-0.32-0.832-0.48
		c-8.928-5.568-17.696-9.568-25.088-11.584C188.416,162.464,174.336,160,160,160c-70.592,0-128,57.408-128,128s57.408,128,128,128
		c15.072,0,29.696-2.784,43.456-7.744C193.088,400.416,184.064,391.872,175.968,382.56z"/>
</g>
<g>
</g>
<g>
</g>
<g>
</g>
<g>
</g>
<g>
</g>
<g>
</g>
<g>
</g>
<g>
</g>
<g>
</g>
<g>
</g>
<g>
</g>
<g>
</g>
<g>
</g>
<g>
</g>
<g>
</g>
</svg>
