<?xml version="1.0" encoding="iso-8859-1"?>
<!-- Generator: Adobe Illustrator 19.0.0, SVG Export Plug-In . SVG Version: 6.00 Build 0)  -->
<svg version="1.1" id="Capa_1" xmlns="http://www.w3.org/2000/svg" xmlns:xlink="http://www.w3.org/1999/xlink" x="0px" y="0px"
	 viewBox="0 0 508.1 508.1" style="enable-background:new 0 0 508.1 508.1;" xml:space="preserve">
<g>
	<rect x="233" y="400.05" style="fill:#41596B;" width="42" height="39"/>
	<rect x="78.4" y="452.55" style="fill:#41596B;" width="141.1" height="42"/>
	<rect x="288.5" y="452.55" style="fill:#41596B;" width="141.1" height="42"/>
</g>
<g>
	<rect x="78.4" y="259.65" style="fill:#CDD5DF;" width="351.2" height="21"/>
	<rect x="78.4" y="119.35" style="fill:#CDD5DF;" width="351.2" height="21"/>
</g>
<g>
	<path style="fill:#F2F2F2;" d="M448.4,0.05H59.6C26.7,0.05,0,26.75,0,59.65v0.2c0,32.9,26.7,59.6,59.6,59.6h388.8
		c32.9,0,59.6-26.7,59.6-59.6v-0.2C508,26.75,481.3,0.05,448.4,0.05z"/>
	<path style="fill:#F2F2F2;" d="M448.4,140.35H59.6c-32.9,0-59.6,26.7-59.6,59.6v0.2c0,32.9,26.7,59.6,59.6,59.6h388.8
		c32.9,0,59.6-26.7,59.6-59.6v-0.2C508,167.05,481.3,140.35,448.4,140.35z"/>
	<path style="fill:#F2F2F2;" d="M448.3,280.65H59.7c-16.5,0-31.4,6.7-42.2,17.4C6.7,308.95,0,323.85,0,340.35
		c0,33,26.7,59.7,59.7,59.7h388.7c16.5,0,31.4-6.7,42.2-17.4c5.3-5.3,9.6-11.6,12.6-18.6c3.2-7.2,4.9-15.2,4.9-23.6
		C508,307.35,481.3,280.65,448.3,280.65z"/>
</g>
<rect x="219.5" y="438.95" style="fill:#F2705B;" width="69.1" height="69.1"/>
<polygon style="fill:#F05540;" points="288.5,466.05 288.5,508.05 246.6,508.05 233,494.55 275,452.55 "/>
<rect x="233" y="452.55" style="fill:#FFD05C;" width="42" height="42"/>
<g>
	<path style="fill:#CDD5DF;" d="M440.1,313.35h-63.3c-0.2,0-0.3,0.1-0.3,0.3v53.4c0,0.2,0.1,0.3,0.3,0.3h64.7
		c15.7,0,28.3-13.4,26.9-29.4C467.1,323.75,454.3,313.35,440.1,313.35z"/>
	<path style="fill:#CDD5DF;" d="M440.1,32.75h-63.3c-0.2,0-0.3,0.1-0.3,0.3v53.5c0,0.2,0.1,0.3,0.3,0.3h64.7
		c15.7,0,28.3-13.4,26.9-29.4C467.1,43.15,454.3,32.75,440.1,32.75z"/>
	<path style="fill:#CDD5DF;" d="M441.5,173.05h-64.7c-0.2,0-0.3,0.1-0.3,0.3v53.5c0,0.2,0.1,0.3,0.3,0.3h64.7c14.9,0,27-12.1,27-27
		C468.5,185.15,456.4,173.05,441.5,173.05z"/>
</g>
<g>
	<circle style="fill:#89D6F7;" cx="66.5" cy="59.75" r="27"/>
	<circle style="fill:#89D6F7;" cx="66.5" cy="200.05" r="27"/>
	<circle style="fill:#89D6F7;" cx="66.5" cy="340.35" r="27"/>
</g>
<g>
	<circle style="fill:#65C5B8;" cx="140.4" cy="59.75" r="27"/>
	<circle style="fill:#65C5B8;" cx="140.4" cy="200.05" r="27"/>
	<circle style="fill:#65C5B8;" cx="140.4" cy="340.35" r="27"/>
</g>
<g>
	<circle style="fill:#FFD05C;" cx="214.4" cy="59.75" r="27"/>
	<circle style="fill:#FFD05C;" cx="214.4" cy="200.05" r="27"/>
	<circle style="fill:#FFD05C;" cx="214.4" cy="340.35" r="27"/>
</g>
<g>
</g>
<g>
</g>
<g>
</g>
<g>
</g>
<g>
</g>
<g>
</g>
<g>
</g>
<g>
</g>
<g>
</g>
<g>
</g>
<g>
</g>
<g>
</g>
<g>
</g>
<g>
</g>
<g>
</g>
</svg>
