<?xml version="1.0" encoding="iso-8859-1"?>
<!-- Generator: Adobe Illustrator 19.0.0, SVG Export Plug-In . SVG Version: 6.00 Build 0)  -->
<svg version="1.1" id="Capa_1" xmlns="http://www.w3.org/2000/svg" xmlns:xlink="http://www.w3.org/1999/xlink" x="0px" y="0px"
	 viewBox="0 0 508.1 508.1" style="enable-background:new 0 0 508.1 508.1;" xml:space="preserve">
<polygon style="fill:#F2F2F2;" points="448.2,278.3 448.2,278.3 267.2,278.3 267.2,221 240.8,221 240.8,278.3 59.8,278.3 
	59.8,304.7 59.8,304.7 59.8,362.1 86.1,362.1 86.1,304.7 240.8,304.7 240.8,362.1 267.2,362.1 267.2,304.7 421.9,304.7 421.9,362.1 
	448.2,362.1 "/>
<path style="fill:#F2705B;" d="M343.3,0H164.7c-11.7,0-21.2,9.5-21.2,21.2v178.6c0,11.7,9.5,21.2,21.2,21.2h178.6
	c11.7,0,21.2-9.5,21.2-21.2V21.2C364.5,9.5,355,0,343.3,0z"/>
<path style="fill:#65C5B8;" d="M124.7,362.1H21.2C9.5,362.1,0,371.6,0,383.3v103.6c0,11.7,9.5,21.2,21.2,21.2h103.6
	c11.7,0,21.2-9.5,21.2-21.2V383.3C145.9,371.6,136.4,362.1,124.7,362.1z"/>
<path style="fill:#FFD05C;" d="M486.8,362.1H383.3c-11.7,0-21.2,9.5-21.2,21.2v103.6c0,11.7,9.5,21.2,21.2,21.2h103.6
	c11.7,0,21.2-9.5,21.2-21.2V383.3C508,371.6,498.5,362.1,486.8,362.1z"/>
<path style="fill:#89D6F7;" d="M305.8,362.1H202.2c-11.7,0-21.2,9.5-21.2,21.2v103.6c0,11.7,9.5,21.2,21.2,21.2h103.6
	c11.7,0,21.2-9.5,21.2-21.2V383.3C327,371.6,317.5,362.1,305.8,362.1z"/>
<g>
</g>
<g>
</g>
<g>
</g>
<g>
</g>
<g>
</g>
<g>
</g>
<g>
</g>
<g>
</g>
<g>
</g>
<g>
</g>
<g>
</g>
<g>
</g>
<g>
</g>
<g>
</g>
<g>
</g>
</svg>
