<?xml version="1.0" encoding="iso-8859-1"?>
<!-- Generator: Adobe Illustrator 19.0.0, SVG Export Plug-In . SVG Version: 6.00 Build 0)  -->
<svg version="1.1" id="Capa_1" xmlns="http://www.w3.org/2000/svg" xmlns:xlink="http://www.w3.org/1999/xlink" x="0px" y="0px"
	 viewBox="0 0 508.1 508.1" style="enable-background:new 0 0 508.1 508.1;" xml:space="preserve">
<path style="fill:#F2F2F2;" d="M364.05,0h-220c-11.7,0-21.2,9.5-21.2,21.2v220c0,11.7,9.5,21.2,21.2,21.2h220
	c11.7,0,21.2-9.5,21.2-21.2v-220C385.25,9.5,375.75,0,364.05,0z"/>
<rect x="151.15" y="28.2" style="fill:#FFFFFF;" width="205.9" height="205.9"/>
<g>
	<path style="fill:#65C5B8;" d="M301.55,370.6h-95.1c-11.7,0-21.2,9.5-21.2,21.2v95.1c0,11.7,9.5,21.2,21.2,21.2h95.1
		c11.7,0,21.2-9.5,21.2-21.2v-95.1C322.75,380,313.25,370.6,301.55,370.6z"/>
	<path style="fill:#65C5B8;" d="M116.35,370.6h-95.1c-11.7,0-21.2,9.4-21.2,21.1v95.1c0,11.7,9.5,21.2,21.2,21.2h95.1
		c11.7,0,21.2-9.5,21.2-21.2v-95.1C137.45,380,128.05,370.6,116.35,370.6z"/>
	<path style="fill:#65C5B8;" d="M486.85,370.6h-95.1c-11.7,0-21.2,9.5-21.2,21.2v95.1c0,11.7,9.5,21.2,21.2,21.2h95.1
		c11.7,0,21.2-9.5,21.2-21.2v-95.1C508.05,380,498.55,370.6,486.85,370.6z"/>
</g>
<g>
	<rect x="224.75" y="262.3" style="fill:#4FBFA8;" width="58.6" height="108.3"/>
	<rect x="322.75" y="410" style="fill:#4FBFA8;" width="47.9" height="58.6"/>
	<rect x="137.45" y="410" style="fill:#4FBFA8;" width="47.9" height="58.6"/>
</g>
<rect x="190.65" y="67.7" style="fill:#F2705B;" width="126.9" height="126.9"/>
<g>
</g>
<g>
</g>
<g>
</g>
<g>
</g>
<g>
</g>
<g>
</g>
<g>
</g>
<g>
</g>
<g>
</g>
<g>
</g>
<g>
</g>
<g>
</g>
<g>
</g>
<g>
</g>
<g>
</g>
</svg>
