<?xml version="1.0" encoding="iso-8859-1"?>
<!-- Generator: Adobe Illustrator 19.0.0, SVG Export Plug-In . SVG Version: 6.00 Build 0)  -->
<svg version="1.1" id="Capa_1" xmlns="http://www.w3.org/2000/svg" xmlns:xlink="http://www.w3.org/1999/xlink" x="0px" y="0px"
	 viewBox="0 0 508.1 508.1" style="enable-background:new 0 0 508.1 508.1;" xml:space="preserve">
<path style="fill:#41596B;" d="M453.3,270.3l-73.5-73.5L210.1,366.5l-95.9-95.9L0,384.9v102c0,11.7,9.5,21.2,21.2,21.2h465.7
	c11.7,0,21.2-9.5,21.2-21.2V215.6L453.3,270.3z"/>
<path style="fill:#89D6F7;" d="M210.1,326.6L379.7,157l73.5,73.5l54.7-54.7V21.2C508,9.5,498.5,0,486.8,0H21.2C9.5,0,0,9.5,0,21.2
	V345l114.3-114.3L210.1,326.6z"/>
<polygon style="fill:#334A5E;" points="453.3,247.4 379.8,173.8 210.1,343.5 114.3,247.6 0,361.9 0,401.8 114.3,287.5 210.1,383.4 
	379.8,213.7 453.3,287.3 508,232.6 508,192.7 "/>
<path style="fill:#F2F2F2;" d="M453.3,230.4l-73.5-73.5L250.6,286.1c-10.4-10.4-24.7-16.8-40.5-16.8s-30.2,6.4-40.5,16.8l-55.4-55.4
	L0,345v39.9l114.3-114.3l40.9,40.9c-1.3,4.8-2.3,9.8-2.3,15.1c0,1.5,0.1,3,0.2,4.6c2.2,28,24.6,50.3,52.6,52.5
	c1.5,0.1,3,0.2,4.5,0.2c31.6,0,57.2-25.6,57.2-57.2c0-5.3-0.9-10.2-2.3-15.1L379.7,197l73.5,73.5l54.7-54.7v-39.9L453.3,230.4z"/>
<circle style="fill:#F2705B;" cx="210.1" cy="326.6" r="37.2"/>
<g>
</g>
<g>
</g>
<g>
</g>
<g>
</g>
<g>
</g>
<g>
</g>
<g>
</g>
<g>
</g>
<g>
</g>
<g>
</g>
<g>
</g>
<g>
</g>
<g>
</g>
<g>
</g>
<g>
</g>
</svg>
