<?xml version="1.0" encoding="iso-8859-1"?>
<!-- Generator: Adobe Illustrator 19.0.0, SVG Export Plug-In . SVG Version: 6.00 Build 0)  -->
<svg version="1.1" id="Capa_1" xmlns="http://www.w3.org/2000/svg" xmlns:xlink="http://www.w3.org/1999/xlink" x="0px" y="0px"
	 viewBox="0 0 512 512" style="enable-background:new 0 0 512 512;" xml:space="preserve">
<path style="fill:#2196F3;" d="M265.344,496c-60.832,0-116.512-21.44-159.488-56.928L0,452.928l40.832-97.408
	C26.496,325.184,18.656,291.488,18.656,256c0-132.576,110.496-240,246.656-240C401.664,16,512,123.424,512,256
	S401.664,496,265.344,496z"/>
<path style="fill:#FAFAFA;" d="M266.912,128H176v256h89.632C350.432,384,400,329.12,400,255.296v-0.672
	C400,180.832,351.072,128,266.912,128z M332.896,256.16c0,41.472-25.92,64.864-65.024,64.864h-26.56v-130.24h26.56
	c39.104,0,65.024,23.744,65.024,64.704V256.16z"/>
<g>
</g>
<g>
</g>
<g>
</g>
<g>
</g>
<g>
</g>
<g>
</g>
<g>
</g>
<g>
</g>
<g>
</g>
<g>
</g>
<g>
</g>
<g>
</g>
<g>
</g>
<g>
</g>
<g>
</g>
</svg>
