<?xml version="1.0" encoding="iso-8859-1"?>
<!-- Generator: Adobe Illustrator 19.0.0, SVG Export Plug-In . SVG Version: 6.00 Build 0)  -->
<svg version="1.1" id="Capa_1" xmlns="http://www.w3.org/2000/svg" xmlns:xlink="http://www.w3.org/1999/xlink" x="0px" y="0px"
	 viewBox="0 0 508 508" style="enable-background:new 0 0 508 508;" xml:space="preserve">
<path style="fill:#CDD5DF;" d="M395.45,0H64.15c-11.7,0-21.2,9.5-21.2,21.2v417.2c0,11.7,9.5,21.2,21.2,21.2h266.9l85.5-85.5V21.2
	C416.65,9.5,407.15,0,395.45,0z"/>
<path style="fill:#F2F2F2;" d="M443.95,48.4h-331.3c-11.7,0-21.2,9.5-21.2,21.2v417.2c0,11.7,9.5,21.2,21.2,21.2h237.3l115.1-115.1
	V69.6C465.15,57.9,455.65,48.4,443.95,48.4z"/>
<path style="fill:#65C5B8;" d="M371.15,392.9c-11.7,0-21.2,9.5-21.2,21.2V508l115.1-115.1H371.15z"/>
<rect x="157.05" y="100.9" style="fill:#FFD05C;" width="145.6" height="26.4"/>
<rect x="157.05" y="181.3" style="fill:#CED4DF;" width="242.5" height="26.4"/>
<rect x="157.05" y="261.7" style="fill:#CDD5DF;" width="242.5" height="26.4"/>
<rect x="157.05" y="342.1" style="fill:#ABB2B9;" width="242.5" height="26.4"/>
<g>
</g>
<g>
</g>
<g>
</g>
<g>
</g>
<g>
</g>
<g>
</g>
<g>
</g>
<g>
</g>
<g>
</g>
<g>
</g>
<g>
</g>
<g>
</g>
<g>
</g>
<g>
</g>
<g>
</g>
</svg>
