<?xml version="1.0" encoding="iso-8859-1"?>
<!-- Generator: Adobe Illustrator 19.0.0, SVG Export Plug-In . SVG Version: 6.00 Build 0)  -->
<svg version="1.1" id="Capa_1" xmlns="http://www.w3.org/2000/svg" xmlns:xlink="http://www.w3.org/1999/xlink" x="0px" y="0px"
	 viewBox="0 0 508.1 508.1" style="enable-background:new 0 0 508.1 508.1;" xml:space="preserve">
<path style="fill:#F2F2F2;" d="M387.15,41.8L345.35,0H70.25c-11.7,0-21.2,9.5-21.2,21.2v465.7c0,11.7,9.5,21.2,21.2,21.2h367.5
	c11.7,0,21.2-9.5,21.2-21.2V113.7L387.15,41.8z"/>
<path style="fill:#ABB2B9;" d="M345.35,0v92.5c0,11.7,9.5,21.2,21.2,21.2h92.5L345.35,0z"/>
<path style="fill:#41596B;" d="M176.75,130l11.4,71.8c-23.8,3.8-45.7-3.4-62.8-20.4L176.75,130z"/>
<path style="fill:#ABB2B9;" d="M176.75,130l64.7,33c-10.9,21.5-29.6,35-53.4,38.8L176.75,130z"/>
<path style="fill:#F2705B;" d="M176.75,130l64.7-33c10.9,21.5,10.9,44.5,0,66L176.75,130z"/>
<path style="fill:#FFD05C;" d="M176.75,130l-51.4,51.4c-28.4-28.4-28.4-74.4,0-102.8s74.4-28.4,102.8,0c5.7,5.7,9.7,11.2,13.4,18.4
	L176.75,130z"/>
<rect x="275.55" y="151.6" style="fill:#65C5B8;" width="128.5" height="26.4"/>
<g>
	<rect x="107.75" y="242.5" style="fill:#CDD5DF;" width="296.2" height="26.4"/>
	<rect x="107.75" y="333.4" style="fill:#CDD5DF;" width="296.2" height="26.4"/>
	<rect x="107.75" y="424.3" style="fill:#CDD5DF;" width="296.2" height="26.4"/>
</g>
<g>
</g>
<g>
</g>
<g>
</g>
<g>
</g>
<g>
</g>
<g>
</g>
<g>
</g>
<g>
</g>
<g>
</g>
<g>
</g>
<g>
</g>
<g>
</g>
<g>
</g>
<g>
</g>
<g>
</g>
</svg>
