<?xml version="1.0" encoding="iso-8859-1"?>
<!-- Generator: Adobe Illustrator 19.0.0, SVG Export Plug-In . SVG Version: 6.00 Build 0)  -->
<svg version="1.1" id="Capa_1" xmlns="http://www.w3.org/2000/svg" xmlns:xlink="http://www.w3.org/1999/xlink" x="0px" y="0px"
	 viewBox="0 0 508.1 508.1" style="enable-background:new 0 0 508.1 508.1;" xml:space="preserve">
<path style="fill:#F2F2F2;" d="M373.75,75.6V0h96.7H58.75c-11.7,0-21.1,9.5-21.1,21.2v465.7c0,11.7,9.5,21.2,21.2,21.2h390.5
	c11.7,0,21.2-9.5,21.2-21.2V96.7h-75.6C383.25,96.7,373.75,87.3,373.75,75.6z"/>
<polygon style="fill:#CDD5DF;" points="373.75,0 373.75,96.7 470.45,96.7 "/>
<path style="fill:#F05540;" d="M493.95,231.6h-23.5v44.6h23.5c7.8,0,14.1-6.3,14.1-14.1v-16.5
	C508.05,237.9,501.75,231.6,493.95,231.6z"/>
<polygon style="fill:#334A5E;" points="19.15,264 0.15,254.1 19.15,244.1 "/>
<path style="fill:#FFD05C;" d="M42.85,276.4l-27.2-14.2l-15.6-8.1l15.6-8.2l27.1-14.2h0.4c2.6,1.6,4.3,4.2,4.3,7.1c0,3.2-2,6-5,7.6
	c3,1.6,5,4.4,5,7.6s-2,6-5,7.6c3,1.6,5,4.3,5,7.6C47.45,272.1,45.55,274.8,42.85,276.4z"/>
<path style="fill:#41596B;" d="M47.45,238.8c0,3.2-2,6-5,7.6c3,1.6,5,4.4,5,7.6c0,3.2-2,6-5,7.6c3,1.6,5,4.4,5,7.6
	c0,3-1.8,5.7-4.6,7.3h413.6v-44.6H43.15C45.75,233.3,47.45,235.9,47.45,238.8z"/>
<path style="fill:#89D6F7;" d="M42.85,276.4L42.85,276.4L42.85,276.4z"/>
<polygon style="fill:#334A5E;" points="15.65,262.2 0.05,254.1 15.65,245.9 "/>
<rect x="74.05" y="33.9" style="fill:#89D6F7;" width="97.6" height="128.4"/>
<g>
	<rect x="74.05" y="353.2" style="fill:#CDD5DF;" width="360.1" height="20.8"/>
	<rect x="74.05" y="440.4" style="fill:#CDD5DF;" width="155.1" height="20.8"/>
	<rect x="74.05" y="396.8" style="fill:#CDD5DF;" width="360.1" height="20.8"/>
</g>
<polygon style="fill:#FFD05C;" points="422.15,276.3 422.15,231.7 470.35,231.6 470.35,276.3 "/>
<g>
</g>
<g>
</g>
<g>
</g>
<g>
</g>
<g>
</g>
<g>
</g>
<g>
</g>
<g>
</g>
<g>
</g>
<g>
</g>
<g>
</g>
<g>
</g>
<g>
</g>
<g>
</g>
<g>
</g>
</svg>
