<?xml version="1.0" encoding="iso-8859-1"?>
<!-- Generator: Adobe Illustrator 19.0.0, SVG Export Plug-In . SVG Version: 6.00 Build 0)  -->
<svg version="1.1" id="Capa_1" xmlns="http://www.w3.org/2000/svg" xmlns:xlink="http://www.w3.org/1999/xlink" x="0px" y="0px"
	 viewBox="0 0 512 512" style="enable-background:new 0 0 512 512;" xml:space="preserve">
<g>
	<path style="fill:#03A9F4;" d="M242.723,317.024c-44.064,0-79.776,36.192-79.776,80.8s35.712,80.8,79.776,80.8
		s79.776-36.192,79.776-80.8S286.787,317.024,242.723,317.024z"/>
	<path style="fill:#03A9F4;" d="M342.051,301.536c23.616,24.992,38.144,58.88,38.144,96.256c0,47.36-23.296,89.056-58.88,114.208
		c65.856-20.544,120.352-70.656,144.704-131.36c33.76-84,2.272-147.168-50.4-204.48c1.664,7.36,2.56,15.168,2.56,23.008
		C418.019,247.872,385.955,288.8,342.051,301.536z"/>
	<path style="fill:#03A9F4;" d="M251.811,199.296c0,34.176,27.392,61.792,60.992,61.792s61.152-27.744,61.152-61.792
		c0-34.176-27.392-61.792-60.992-61.792S251.811,165.088,251.811,199.296z"/>
	<path style="fill:#03A9F4;" d="M137.539,487.488c-20.128-24.224-32.256-55.488-32.256-89.664
		c0-71.296,52.832-129.984,121.088-138.112c-11.648-17.216-18.592-38.048-18.592-60.416c0-58.88,47.072-106.4,105.216-106.4
		c4.832,0,9.536,0.32,14.08,0.928C292.707,63.776,258.339,33.28,231.235,0c13.76,145.92-131.232,92.896-184.992,227.488
		C10.371,317.632,42.755,429.056,137.539,487.488z"/>
</g>
<g>
</g>
<g>
</g>
<g>
</g>
<g>
</g>
<g>
</g>
<g>
</g>
<g>
</g>
<g>
</g>
<g>
</g>
<g>
</g>
<g>
</g>
<g>
</g>
<g>
</g>
<g>
</g>
<g>
</g>
</svg>
