<?xml version="1.0" encoding="iso-8859-1"?>
<!-- Generator: Adobe Illustrator 19.0.0, SVG Export Plug-In . SVG Version: 6.00 Build 0)  -->
<svg version="1.1" id="Capa_1" xmlns="http://www.w3.org/2000/svg" xmlns:xlink="http://www.w3.org/1999/xlink" x="0px" y="0px"
	 viewBox="0 0 508 508" style="enable-background:new 0 0 508 508;" xml:space="preserve">
<g>
	<polygon style="fill:#41596B;" points="285.2,456.8 285.2,389.8 222.8,389.8 222.8,456.8 144,456.8 144,508 364,508 364,456.8 	"/>
	<circle style="fill:#41596B;" cx="254" cy="45" r="45"/>
</g>
<path style="fill:#F2F2F2;" d="M42.2,105.1v221.3c0,35.1,28.4,63.5,63.5,63.5h296.7c35.1,0,63.5-28.4,63.5-63.5V105.1H42.2z"/>
<rect y="45" style="fill:#F2705B;" width="508" height="60.1"/>
<rect x="42.2" y="105.1" style="fill:#CDD5DF;" width="423.7" height="15.2"/>
<polygon style="fill:#F6B44B;" points="167.6,223.2 70.7,359.4 264.6,359.4 "/>
<polygon style="fill:#FFD05C;" points="306.8,176.1 176.4,359.4 437.3,359.4 "/>
<circle style="fill:#89D6F7;" cx="103.8" cy="173.4" r="32.4"/>
<g>
</g>
<g>
</g>
<g>
</g>
<g>
</g>
<g>
</g>
<g>
</g>
<g>
</g>
<g>
</g>
<g>
</g>
<g>
</g>
<g>
</g>
<g>
</g>
<g>
</g>
<g>
</g>
<g>
</g>
</svg>
