<?xml version="1.0" encoding="iso-8859-1"?>
<!-- Generator: Adobe Illustrator 19.0.0, SVG Export Plug-In . SVG Version: 6.00 Build 0)  -->
<svg version="1.1" id="Capa_1" xmlns="http://www.w3.org/2000/svg" xmlns:xlink="http://www.w3.org/1999/xlink" x="0px" y="0px"
	 viewBox="0 0 512.037 512.037" style="enable-background:new 0 0 512.037 512.037;" xml:space="preserve">
<path style="fill:#4CAF50;" d="M460.262,89.125c-3.84-20.448-16.096-30.528-27.168-34.464c-11.968-4.288-36.192-8.736-66.624-12.288
	c-24.48-2.88-53.28-2.624-70.688-2.112c-2.08-14.176-12.128-27.136-23.328-31.616c-29.888-11.936-76.096-9.056-87.936-5.76
	c-9.408,2.624-19.84,7.968-25.664,16.224c-3.904,5.504-6.4,12.576-6.432,22.432c0,5.568,0.16,18.72,0.288,30.4
	c0.16,11.712,0.288,22.208,0.288,22.272c0,10.432-8.544,18.912-19.104,18.944h-48.48c-10.336,0-18.24,1.728-24.256,4.448
	c-6.048,2.72-10.336,6.4-13.568,10.72c-6.464,8.608-7.584,19.264-7.584,30.112c0,0,0.096,8.864,2.24,26.016
	c1.792,13.28,16.32,106.048,30.112,134.272c5.344,10.976,8.896,15.552,19.424,20.384c23.424,9.952,76.896,20.992,101.952,24.16
	c25.024,3.168,40.736,9.856,50.08-9.6c0.096-0.032,1.92-4.832,4.48-11.872c8.128-24.416,9.248-46.08,9.248-61.76
	c0-1.6,2.368-1.664,2.368,0c0,11.072-2.112,50.24,27.712,60.736c11.776,4.128,36.224,7.84,61.024,10.72
	c22.432,2.56,38.72,11.328,38.72,68.416c0,34.752-7.36,39.52-45.824,39.52c-31.2,0-43.072,0.8-43.072-23.776
	c0-19.84,19.808-17.76,34.496-17.76c6.56,0,1.792-4.832,1.792-17.088c0-12.192,7.68-19.232,0.416-19.424
	c-50.752-1.376-80.608-0.064-80.608,62.88c-0.032,57.184,22.016,67.776,94.048,67.776c56.48,0,76.384-1.824,99.712-73.6
	c4.608-14.176,15.776-57.408,22.528-129.952C475.142,262.565,466.822,124.069,460.262,89.125L460.262,89.125z M361.798,242.213
	c-6.976-0.256-13.696,0.192-19.936,1.184c1.76-14.08,7.616-31.392,28.416-30.688c23.04,0.8,26.24,22.368,26.336,36.992
	C386.918,245.413,374.886,242.661,361.798,242.213L361.798,242.213z M83.174,99.205h0.032h48.448c2.784,0,5.024-2.24,5.024-4.96
	c0,0-0.576-41.216-0.576-52.64v-0.128c0-9.408,1.984-17.6,5.472-24.48l1.664-3.072c-0.192,0.032-0.384,0.128-0.544,0.288
	L48.55,106.789c-0.192,0.16-0.288,0.352-0.352,0.544c1.952-0.96,4.608-2.272,4.992-2.432C61.35,101.189,71.27,99.205,83.174,99.205
	L83.174,99.205z"/>
<g>
</g>
<g>
</g>
<g>
</g>
<g>
</g>
<g>
</g>
<g>
</g>
<g>
</g>
<g>
</g>
<g>
</g>
<g>
</g>
<g>
</g>
<g>
</g>
<g>
</g>
<g>
</g>
<g>
</g>
</svg>
