<?xml version="1.0" encoding="iso-8859-1"?>
<!-- Generator: Adobe Illustrator 19.0.0, SVG Export Plug-In . SVG Version: 6.00 Build 0)  -->
<svg version="1.1" id="Capa_1" xmlns="http://www.w3.org/2000/svg" xmlns:xlink="http://www.w3.org/1999/xlink" x="0px" y="0px"
	 viewBox="0 0 508.1 508.1" style="enable-background:new 0 0 508.1 508.1;" xml:space="preserve">
<path style="fill:#ABB2B9;" d="M62.95,0c-11.7,0-21.2,9.5-21.2,21.2v465.7c0,11.7,9.5,21.2,21.2,21.2h87.1V0H62.95z"/>
<path style="fill:#F2F2F2;" d="M367.25,0h-217.2v508h295c11.7,0,21.2-9.5,21.2-21.2V99.1L367.25,0z"/>
<rect x="187.85" y="81.6" style="fill:#F2705B;" width="109.5" height="26.4"/>
<rect x="187.85" y="161.2" style="fill:#FFD05C;" width="240.6" height="26.4"/>
<g>
	<rect x="187.85" y="240.8" style="fill:#CDD5DF;" width="240.6" height="26.4"/>
	<rect x="187.85" y="320.4" style="fill:#CDD5DF;" width="240.6" height="26.4"/>
	<rect x="187.85" y="400" style="fill:#CDD5DF;" width="240.6" height="26.4"/>
	<path style="fill:#CDD5DF;" d="M367.25,0v77.9c0,11.7,9.5,21.2,21.2,21.2h77.9L367.25,0z"/>
</g>
<g>
	<circle style="fill:#FFFFFF;" cx="95.95" cy="153.5" r="14.5"/>
	<circle style="fill:#FFFFFF;" cx="95.95" cy="254" r="14.5"/>
	<circle style="fill:#FFFFFF;" cx="95.95" cy="354.5" r="14.5"/>
</g>
<g>
</g>
<g>
</g>
<g>
</g>
<g>
</g>
<g>
</g>
<g>
</g>
<g>
</g>
<g>
</g>
<g>
</g>
<g>
</g>
<g>
</g>
<g>
</g>
<g>
</g>
<g>
</g>
<g>
</g>
</svg>
