<?xml version="1.0" encoding="iso-8859-1"?>
<!-- Generator: Adobe Illustrator 19.0.0, SVG Export Plug-In . SVG Version: 6.00 Build 0)  -->
<svg version="1.1" id="Capa_1" xmlns="http://www.w3.org/2000/svg" xmlns:xlink="http://www.w3.org/1999/xlink" x="0px" y="0px"
	 viewBox="0 0 512 512" style="enable-background:new 0 0 512 512;" xml:space="preserve">
<path style="fill:#CFD8DC;" d="M512,80.084v352c0,8.96-7.04,16-16,16H290.24c-6.08-56.96-0.64-145.6,13.76-176c0,0-65.92,0-96,0
	c0-66.88,31.04-152,62.4-208H496C504.96,64.084,512,71.124,512,80.084z"/>
<path style="fill:#2196F3;" d="M290.24,448.084H16c-8.96,0-16-7.04-16-16v-352c0-8.96,7.04-16,16-16h254.4
	c-31.36,56-62.4,141.12-62.4,208c30.08,0,96,0,96,0C289.6,302.484,284.16,391.124,290.24,448.084z"/>
<g>
	<path style="fill:#455A64;" d="M303.584,511.924c-3.936,0-7.84-1.472-10.912-4.544c-26.752-26.752-25.6-156.256-10.56-219.296H208
		c-8.832,0-16-7.168-16-16c0-96.672,60.128-226.752,100.672-267.328c6.24-6.24,16.384-6.24,22.624,0s6.24,16.384,0,22.624
		c-30.208,30.24-84.512,140.672-90.72,228.704H304c5.472,0,10.56,2.784,13.504,7.392c2.944,4.64,3.328,10.432,0.992,15.36
		c-19.616,41.952-18.848,188.544-3.168,205.952c5.824,6.432,5.696,16.64-0.608,22.592
		C311.584,510.388,307.552,511.924,303.584,511.924z"/>
	<path style="fill:#455A64;" d="M256,384.084c-30.464,0-85.792-8.672-149.696-33.056c-8.256-3.136-12.384-12.384-9.248-20.64
		c3.136-8.288,12.384-12.48,20.672-9.248c59.904,22.848,111.936,30.944,138.272,30.944s78.368-8.096,138.304-30.944
		c8.192-3.2,17.504,0.928,20.64,9.248c3.168,8.256-0.96,17.504-9.248,20.64C341.792,375.412,286.464,384.084,256,384.084z"/>
	<path style="fill:#455A64;" d="M144,192.084c-8.832,0-16-7.168-16-16v-32c0-8.832,7.168-16,16-16s16,7.168,16,16v32
		C160,184.916,152.832,192.084,144,192.084z"/>
	<path style="fill:#455A64;" d="M336,192.084c-8.832,0-16-7.168-16-16v-32c0-8.832,7.168-16,16-16s16,7.168,16,16v32
		C352,184.916,344.832,192.084,336,192.084z"/>
</g>
<g>
</g>
<g>
</g>
<g>
</g>
<g>
</g>
<g>
</g>
<g>
</g>
<g>
</g>
<g>
</g>
<g>
</g>
<g>
</g>
<g>
</g>
<g>
</g>
<g>
</g>
<g>
</g>
<g>
</g>
</svg>
