<?xml version="1.0" encoding="iso-8859-1"?>
<!-- Generator: Adobe Illustrator 19.0.0, SVG Export Plug-In . SVG Version: 6.00 Build 0)  -->
<svg version="1.1" id="Capa_1" xmlns="http://www.w3.org/2000/svg" xmlns:xlink="http://www.w3.org/1999/xlink" x="0px" y="0px"
	 viewBox="0 0 508 508" style="enable-background:new 0 0 508 508;" xml:space="preserve">
<path style="fill:#425A6D;" d="M506,508H2c-1.1,0-2-0.9-2-2V2c0-1.1,0.9-2,2-2h504c1.1,0,2,0.9,2,2v504C508,507.1,507.1,508,506,508
	z"/>
<path style="fill:#F2F2F2;" d="M391.9,137.4H116.1c-1.1,0-2-0.9-2-2V0h279.8v135.4C393.9,136.5,393,137.4,391.9,137.4z"/>
<path style="fill:#65C5B8;" d="M433.5,247.4V230c0-15.6-12.6-28.2-28.2-28.2H102.7c-15.6,0-28.2,12.6-28.2,28.2v17.4H433.5z"/>
<path style="fill:#F2F2F2;" d="M74.5,436.3c0,15.6,12.6,28.2,28.2,28.2h302.6c15.6,0,28.2-12.6,28.2-28.2V247.4h-359V436.3z"/>
<rect x="313" y="24.8" style="fill:#425A6D;" width="47" height="87.8"/>
<g>
	<rect x="100.5" y="398" style="fill:#89D6F7;" width="307" height="26.4"/>
	<rect x="100.5" y="342.7" style="fill:#89D6F7;" width="307" height="26.4"/>
	<rect x="100.5" y="287.6" style="fill:#89D6F7;" width="307" height="26.4"/>
</g>
<g>
</g>
<g>
</g>
<g>
</g>
<g>
</g>
<g>
</g>
<g>
</g>
<g>
</g>
<g>
</g>
<g>
</g>
<g>
</g>
<g>
</g>
<g>
</g>
<g>
</g>
<g>
</g>
<g>
</g>
</svg>
