<?xml version="1.0" encoding="iso-8859-1"?>
<!-- Generator: Adobe Illustrator 19.0.0, SVG Export Plug-In . SVG Version: 6.00 Build 0)  -->
<svg version="1.1" id="Capa_1" xmlns="http://www.w3.org/2000/svg" xmlns:xlink="http://www.w3.org/1999/xlink" x="0px" y="0px"
	 viewBox="0 0 508.1 508.1" style="enable-background:new 0 0 508.1 508.1;" xml:space="preserve">
<path style="fill:#CDD5DF;" d="M92.7,218.35V33.95H428c11.7,0,21.2,9.5,21.2,21.2v163.3H92.7V218.35z"/>
<path style="fill:#F2F2F2;" d="M123.7,0.05l-64.8,64.8v153.5h356.4V21.25c0-11.7-9.5-21.2-21.2-21.2H123.7z"/>
<path style="fill:#65C5B8;" d="M58.9,64.85h43.6c11.7,0,21.2-9.5,21.2-21.2V0.05L58.9,64.85z"/>
<g>
	<rect x="112" y="129.15" style="fill:#89D6F7;" width="250" height="25.8"/>
	<rect x="112" y="183.15" style="fill:#89D6F7;" width="250" height="25.8"/>
	<rect x="112" y="75.15" style="fill:#89D6F7;" width="250" height="25.8"/>
</g>
<path style="fill:#FFD05C;" d="M486.8,208.75H250c-18.4,0-33.4-14.9-33.4-33.4v-12.2c0-11.7-9.5-21.2-21.2-21.2H21.2
	c-11.7,0.1-21.2,9.5-21.2,21.2v323.7c0,11.7,9.5,21.2,21.2,21.2h465.7c11.7,0,21.2-9.5,21.2-21.2v-257
	C508,218.25,498.5,208.75,486.8,208.75z"/>
<g>
</g>
<g>
</g>
<g>
</g>
<g>
</g>
<g>
</g>
<g>
</g>
<g>
</g>
<g>
</g>
<g>
</g>
<g>
</g>
<g>
</g>
<g>
</g>
<g>
</g>
<g>
</g>
<g>
</g>
</svg>
