<?xml version="1.0" encoding="iso-8859-1"?>
<!-- Generator: Adobe Illustrator 19.0.0, SVG Export Plug-In . SVG Version: 6.00 Build 0)  -->
<svg version="1.1" id="Layer_1" xmlns="http://www.w3.org/2000/svg" xmlns:xlink="http://www.w3.org/1999/xlink" x="0px" y="0px"
	 viewBox="0 0 511.996 511.996" style="enable-background:new 0 0 511.996 511.996;" xml:space="preserve">
<path style="fill:#E6E9ED;" d="M74.671,0v511.996h287.998c41.234,0,74.656-33.421,74.656-74.655V0H74.671z"/>
<rect x="127.998" y="53.338" style="fill:#A0D468;" width="256" height="192.01"/>
<path style="fill:#8CC153;" d="M117.327,42.671v213.327h277.342V42.671H117.327z M373.325,234.67H138.671V63.999h234.654
	L373.325,234.67L373.325,234.67z"/>
<g>
	<path style="fill:#AAB2BC;" d="M234.67,426.669h-21.344c-5.891,0-10.656,4.781-10.656,10.672s4.766,10.656,10.656,10.656h21.344
		c5.891,0,10.656-4.766,10.656-10.656S240.56,426.669,234.67,426.669z"/>
	<path style="fill:#AAB2BC;" d="M298.67,426.669h-21.344c-5.891,0-10.656,4.781-10.656,10.672s4.766,10.656,10.656,10.656h21.344
		c5.891,0,10.656-4.766,10.656-10.656S304.56,426.669,298.67,426.669z"/>
</g>
<path style="fill:#ED5564;" d="M362.669,330.67c-11.766,0-21.343-9.578-21.343-21.328c0-11.766,9.577-21.344,21.343-21.344
	c11.75,0,21.328,9.578,21.328,21.344C383.997,321.092,374.419,330.67,362.669,330.67z"/>
<path style="fill:#DA4453;" d="M362.669,277.342c-17.671,0-31.999,14.328-31.999,32s14.328,32,31.999,32c17.672,0,32-14.328,32-32
	S380.341,277.342,362.669,277.342z M362.669,319.998c-5.891,0-10.672-4.781-10.672-10.656c0-5.891,4.781-10.672,10.672-10.672
	c5.875,0,10.656,4.781,10.656,10.672C373.325,315.217,368.544,319.998,362.669,319.998z"/>
<path style="fill:#ED5564;" d="M298.67,373.342c-11.766,0-21.344-9.578-21.344-21.344s9.578-21.328,21.344-21.328
	c11.75,0,21.328,9.562,21.328,21.328S310.42,373.342,298.67,373.342z"/>
<path style="fill:#DA4453;" d="M298.67,319.998c-17.672,0-32,14.328-32,32s14.328,32,32,32s32-14.328,32-32
	S316.342,319.998,298.67,319.998z M298.67,362.67c-5.891,0-10.672-4.781-10.672-10.672c0-5.875,4.781-10.656,10.672-10.656
	c5.875,0,10.656,4.781,10.656,10.656C309.326,357.889,304.545,362.67,298.67,362.67z"/>
<g>
	<path style="fill:#CCD1D9;" d="M373.325,458.669c0,5.891-4.766,10.672-10.656,10.672s-10.672-4.781-10.672-10.672
		s4.781-10.672,10.672-10.672S373.325,452.778,373.325,458.669z"/>
	<path style="fill:#CCD1D9;" d="M394.669,437.341c0,5.891-4.781,10.656-10.672,10.656s-10.672-4.766-10.672-10.656
		s4.781-10.672,10.672-10.672S394.669,431.45,394.669,437.341z"/>
	<path style="fill:#CCD1D9;" d="M415.997,415.997c0,5.891-4.781,10.672-10.672,10.672s-10.656-4.781-10.656-10.672
		s4.766-10.656,10.656-10.656S415.997,410.106,415.997,415.997z"/>
	<path style="fill:#CCD1D9;" d="M415.997,458.669c0,5.891-4.781,10.672-10.672,10.672s-10.656-4.781-10.656-10.672
		s4.766-10.672,10.656-10.672S415.997,452.778,415.997,458.669z"/>
	<path style="fill:#CCD1D9;" d="M394.669,479.997c0,5.89-4.781,10.671-10.672,10.671s-10.672-4.781-10.672-10.671
		c0-5.891,4.781-10.656,10.672-10.656S394.669,474.106,394.669,479.997z"/>
	<path style="fill:#CCD1D9;" d="M351.997,479.997c0,5.89-4.78,10.671-10.671,10.671s-10.656-4.781-10.656-10.671
		c0-5.891,4.766-10.656,10.656-10.656S351.997,474.106,351.997,479.997z"/>
</g>
<polygon style="opacity:0.1;fill:#FFFFFF;enable-background:new    ;" points="263.998,234.67 202.67,234.67 266.67,63.999 
	327.998,63.999 "/>
<rect x="117.328" y="309.338" style="fill:#434A54;" width="106.67" height="42.656"/>
<rect x="149.328" y="277.338" style="fill:#656D78;" width="42.671" height="106.66"/>
<g>
</g>
<g>
</g>
<g>
</g>
<g>
</g>
<g>
</g>
<g>
</g>
<g>
</g>
<g>
</g>
<g>
</g>
<g>
</g>
<g>
</g>
<g>
</g>
<g>
</g>
<g>
</g>
<g>
</g>
</svg>
