<?xml version="1.0" encoding="iso-8859-1"?>
<!-- Generator: Adobe Illustrator 19.0.0, SVG Export Plug-In . SVG Version: 6.00 Build 0)  -->
<svg version="1.1" id="Layer_1" xmlns="http://www.w3.org/2000/svg" xmlns:xlink="http://www.w3.org/1999/xlink" x="0px" y="0px"
	 viewBox="0 0 511.998 511.998" style="enable-background:new 0 0 511.998 511.998;" xml:space="preserve">
<path style="fill:#656D78;" d="M479.997,138.656h-60.438l-14.218-10.657H106.664l-14.219,10.656H32c0,0-32,21.953-32,117.343
	c0,95.375,32,117.313,32,117.313h60.445l14.219,10.688h298.677l14.219-10.688h60.438c0,0,32-21.938,32-117.313
	C511.997,160.608,479.997,138.656,479.997,138.656z"/>
<g>
	<path style="fill:#AAB2BC;" d="M447.997,234.67c0,5.891-4.781,10.656-10.656,10.656c-5.906,0-10.688-4.766-10.688-10.656
		s4.782-10.671,10.688-10.671C443.216,223.999,447.997,228.78,447.997,234.67z"/>
	<path style="fill:#AAB2BC;" d="M447.997,277.327c0,5.875-4.781,10.656-10.656,10.656c-5.906,0-10.688-4.781-10.688-10.656
		c0-5.891,4.781-10.656,10.688-10.656C443.216,266.671,447.997,271.437,447.997,277.327z"/>
	<path style="fill:#AAB2BC;" d="M469.341,255.999c0,5.891-4.781,10.672-10.688,10.672c-5.875,0-10.656-4.781-10.656-10.672
		c0-5.891,4.781-10.672,10.656-10.672C464.56,245.327,469.341,250.108,469.341,255.999z"/>
	<path style="fill:#AAB2BC;" d="M426.653,255.999c0,5.891-4.766,10.672-10.656,10.672s-10.656-4.781-10.656-10.672
		c0-5.891,4.766-10.672,10.656-10.672S426.653,250.108,426.653,255.999z"/>
</g>
<rect x="127.999" y="170.659" style="fill:#5D9CEC;" width="256" height="170.66"/>
<path style="fill:#AAB2BC;" d="M95.999,245.327H85.336v-10.656c0-5.891-4.781-10.672-10.672-10.672S64,228.78,64,234.671v10.656
	H53.336c-5.891,0-10.672,4.781-10.672,10.672s4.781,10.672,10.672,10.672H64v10.656c0,5.875,4.773,10.656,10.664,10.656
	s10.672-4.781,10.672-10.656v-10.656h10.663c5.891,0,10.664-4.781,10.664-10.672C106.664,250.108,101.89,245.327,95.999,245.327z"/>
<g>
	<path style="fill:#434A54;" d="M223.999,351.999c-5.891,0-10.664,4.781-10.664,10.656c0,5.906,4.773,10.656,10.664,10.656
		c5.891,0,10.664-4.75,10.664-10.656C234.663,356.78,229.89,351.999,223.999,351.999z"/>
	<path style="fill:#434A54;" d="M191.999,351.999c-5.891,0-10.664,4.781-10.664,10.656c0,5.906,4.773,10.656,10.664,10.656
		c5.891,0,10.664-4.75,10.664-10.656C202.663,356.78,197.89,351.999,191.999,351.999z"/>
	<path style="fill:#434A54;" d="M159.999,351.999h-21.336c-5.891,0-10.664,4.781-10.664,10.656c0,5.906,4.773,10.656,10.664,10.656
		h21.336c5.891,0,10.664-4.75,10.664-10.656C170.664,356.78,165.89,351.999,159.999,351.999z"/>
	<path style="fill:#434A54;" d="M373.341,351.999h-21.344c-5.889,0-10.654,4.781-10.654,10.656c0,5.906,4.766,10.656,10.654,10.656
		h21.344c5.875,0,10.656-4.75,10.656-10.656C383.997,356.78,379.216,351.999,373.341,351.999z"/>
	<path style="fill:#434A54;" d="M319.999,351.999h-21.344c-5.875,0-10.656,4.781-10.656,10.656c0,5.906,4.781,10.656,10.656,10.656
		h21.344c5.891,0,10.656-4.75,10.656-10.656C330.655,356.78,325.89,351.999,319.999,351.999z"/>
</g>
<polygon style="opacity:0.1;fill:#FFFFFF;enable-background:new    ;" points="254.663,341.311 193.335,341.311 257.335,170.655 
	318.655,170.655 "/>
<g>
</g>
<g>
</g>
<g>
</g>
<g>
</g>
<g>
</g>
<g>
</g>
<g>
</g>
<g>
</g>
<g>
</g>
<g>
</g>
<g>
</g>
<g>
</g>
<g>
</g>
<g>
</g>
<g>
</g>
</svg>
