<?xml version="1.0" encoding="iso-8859-1"?>
<!-- Generator: Adobe Illustrator 19.0.0, SVG Export Plug-In . SVG Version: 6.00 Build 0)  -->
<svg version="1.1" id="Capa_1" xmlns="http://www.w3.org/2000/svg" xmlns:xlink="http://www.w3.org/1999/xlink" x="0px" y="0px"
	 viewBox="0 0 508.1 508.1" style="enable-background:new 0 0 508.1 508.1;" xml:space="preserve">
<path style="fill:#41596B;" d="M508.05,311.8V196.3l-51.3-12.5c-2.8-8.1-6-15.9-9.7-23.5l27.4-45l-81.7-81.7l-45,27.4
	c-7.6-3.7-15.5-6.9-23.5-9.7L311.75,0h-115.5l-12.5,51.3c-8.1,2.8-15.9,6-23.5,9.7l-45-27.4l-81.7,81.7l27.4,45
	c-3.7,7.6-6.9,15.5-9.7,23.5l-51.2,12.5v115.5l51.3,12.5c2.8,8.1,6,15.9,9.7,23.5l-27.4,45l81.7,81.7l45-27.4
	c7.6,3.7,15.5,6.9,23.5,9.7l12.5,51.3h115.5l12.5-51.3c8.1-2.8,15.9-6,23.5-9.7l45,27.4l81.7-81.7l-27.4-45
	c3.7-7.6,6.9-15.5,9.7-23.5L508.05,311.8z"/>
<path style="fill:#89D6F7;" d="M408.25,227.2c-0.3-1.6-0.6-3.2-0.9-4.7c-12.8-63-63.5-112.1-127.3-122.8c-4.7-0.8-9.4-1.3-14.2-1.7
	c-3.9-0.3-7.8-0.4-11.8-0.4c-9.8,0-19.4,0.9-28.7,2.6c-0.5,0.1-0.9,0.2-1.4,0.3c-38.9,7.6-72.6,29.5-95.3,60c-1.8,2.3-3.4,4.6-5,7
	c-16.5,24.7-26.1,54.5-26.1,86.5c0,86.4,70.1,156.5,156.5,156.5c86.5,0,156.5-70.1,156.5-156.5
	C410.55,244.8,409.75,235.9,408.25,227.2z"/>
<g>
	<path style="fill:#55BFE9;" d="M245.65,127.1c-0.2,5-7.3,5.3-12,7.1c-3.3,1.3-5.9,4-8.5,6.5c-5.9,5.6-12.6,10.4-19.8,14.3
		c-7.4,4-17.8,6.6-23.3,0.2c17.7-7.3,31.2-23.3,37.3-41.4c-8.5,4.7-15,12.2-22.5,18.5c-8.4,7.1-18.1,12.5-26.2,19.9
		c-8.1,7.4-14.7,17.6-14.3,28.5c-0.1-6.3-3.9-12.2-9.2-15.6c-5.3-3.5-11.7-4.8-18-4.7c-0.2,0-0.4,0-0.5,0
		c22.7-30.6,56.4-52.5,95.3-60c0.5-0.1,0.9-0.2,1.4-0.3c1.9,8,7,15.2,14,19.6C242.15,121.6,245.85,123.7,245.65,127.1z"/>
	<path style="fill:#55BFE9;" d="M279.95,99.7c3.8,2.2,7.6,4.5,10.2,7.9c0.7,0.9,1.4,2.1,1.2,3.2c-0.5,2.8-4.8,2.2-7.4,3.4
		c-4.4,2-2.9,9,1,11.8c4,2.8,9.1,3.2,13.4,5.4c1.7,0.8,3.3,2.4,3.1,4.2c-0.1,1-0.8,1.8-1.5,2.6c-5.1,5.8-10.3,11.6-15.4,17.4
		c-1.3,1.4-2.7,3-4.5,3.8c-2.3,1.2-5,1.1-7.7,1c-10-0.3-22.5,1.9-25.1,11.5c-0.6,2.4-0.6,5.1-2.3,6.9c-1.5,1.7-4.1,2.1-5.4,4.1
		c-1.9,3,0.8,6.7,1.3,10.3c0.8,5.6-5.8,10.8-11,8.7c-0.2-6.1-0.4-12.2-0.5-18.2c0-1-0.1-2.1-0.6-2.9c-0.6-1-1.8-1.4-3-1.7
		c-5.8-1.8-13-3-16.9,1.5c-4,4.5-2,11.6,1.2,16.7c3.2,5,7.5,10,7.7,16c0.1,3-1.4,6.3-4.2,6.9c-4.2,0.9-7-4.5-7.2-8.9
		c-5.5,11.3-7.4,24.3-5.1,36.8c-8.8,2.2-17.5,4.5-26.3,6.6c-3.2,0.8-6.6,1.8-8.7,4.4c-2,2.5-2.2,5.9-2.1,9c0.1,10.8,2.9,21.5,7.9,31
		c1.8,3.2,3.8,6.5,6.8,8.7c8.2,6.2,20,3,29.9,5.7c8.5,2.4,15.2,9.1,19.5,16.8c4.2,7.7,6.4,16.4,8.4,25c0.9,4,1.9,8.2,4.8,11.1
		c3.3,3.4,8.3,4.3,12.9,5c7.9,1.3,16.5,2.4,23.5-1.5c6-3.4,9.8-10,16.2-12.4c4.3-1.6,9.2-1.1,13.7-2.1s9.2-4.9,8.2-9.5
		c-0.9-4.3-6.7-7.4-5.4-11.6c0.9-2.9,4.5-3.7,7.3-4.7c12.9-4.4,19.8-21.4,13.5-33.5c-1-1.9-2.3-3.8-2.4-6
		c-0.5-6.6,8.7-8.8,13.2-13.7c4.1-4.4,4.2-11.1,4.8-17c0.6-6,2.9-12.8,8.7-14.5c5.6-1.7,11.3,2.7,14.7,7.4c3.4,4.8,6,10.4,10.9,13.6
		c0.1-10.3,0.3-20.8,0.4-31.1c0-3.7,0.2-7.7,2.6-10.6c4-4.8,11.5-3.6,17.7-2.3c2,0.5,4.2,0.8,6.1,0.6
		C394.45,159.5,343.75,110.3,279.95,99.7z M310.75,201.3l0.6-0.2c1.8,0,3.4,0.1,5.2,0.2c-0.9,3.7,0.2,7.8,2.7,10.7
		c1.1,1.3,2.5,2.3,3.6,3.6c2.7,3.1,3.6,7.8,2.1,11.6c-3.3,0.3-6.8,0.5-10.1-0.3c-3.2-0.8-6.4-2.9-7.8-5.9c-0.8-1.9-0.9-4-1-6.1
		C305.85,209.8,306.35,203.8,310.75,201.3z M264.55,255c-5.1-0.9-9.5-4.1-14-6.6c-6.6-3.5-14.1-5.4-21.6-5.5
		c-2.6-0.1-5.3,0.2-7.9-0.5c-2.6-0.7-5-2.4-5.8-4.9c-0.9-3.2,1.3-6.6,4.1-8.5c2.7-1.9,6-2.9,8.7-4.8l0.5-5
		c6,6.1,13.4,10.8,21.4,13.9c3.8,1.5,7.9,2.5,11.9,2.9c4.3,0.4,8.6,0.1,12.8-0.2c1.4-0.2,2.8-0.3,4.2-0.3c2.9-0.2,5.8-0.5,8.7-0.7
		c3.4-0.2,7.1-0.6,9.9-2.7c1.1,4.3-0.9,8.8-4,11.9c-3.1,3-7.1,5-11.1,6.8C276.75,253.3,270.65,256,264.55,255z M324.95,285.6
		c-0.3,1-0.7,1.9-1.6,2.4c-0.6,0.4-1.3,0.5-2.1,0.5c-6.6,0.9-14.1,1.6-19.3-2.6c-2.4-1.9-4-4.7-5.6-7.3c-2.1-3.5-4-7-6.1-10.4
		c-2.1-3.5-4.2-7.4-3.2-11.4c3.1-0.4,6.4-0.2,9.5,0.5l0.9,1c-1.1,2.5,0.1,5.5,2,7.4c1.9,1.9,4.5,3,7,4c2.1,0.9,4.3,1.7,6.4,2.6
		c3,1.2,6.1,2.5,8.6,4.7C324.05,279.1,325.75,282.4,324.95,285.6z M336.45,252.7c-0.6,0.6-1.3,1-2.2,1.2c-6.2,2.1-13.8-2.9-14.4-9.5
		l1-0.8c4.6,0,9.2,0,13.8,0c0.8,0,1.7,0,2.4,0.5c0.6,0.6,0.8,1.5,0.8,2.4C337.95,248.7,338.05,251.2,336.45,252.7z"/>
</g>
<g>
</g>
<g>
</g>
<g>
</g>
<g>
</g>
<g>
</g>
<g>
</g>
<g>
</g>
<g>
</g>
<g>
</g>
<g>
</g>
<g>
</g>
<g>
</g>
<g>
</g>
<g>
</g>
<g>
</g>
</svg>
