<?xml version="1.0" encoding="iso-8859-1"?>
<!-- Generator: Adobe Illustrator 19.0.0, SVG Export Plug-In . SVG Version: 6.00 Build 0)  -->
<svg version="1.1" id="Capa_1" xmlns="http://www.w3.org/2000/svg" xmlns:xlink="http://www.w3.org/1999/xlink" x="0px" y="0px"
	 viewBox="0 0 511.97 511.97" style="enable-background:new 0 0 511.97 511.97;" xml:space="preserve">
<path style="fill:#2196F3;" d="M479.97,0.001H264.866c-138.784,0-254.848,104.288-264.224,237.44
	c-5.248,74.368,21.856,147.104,74.336,199.584c48.192,48.192,113.408,74.944,181.312,74.944c6.048,0,12.128-0.192,18.24-0.64
	c133.12-9.376,237.44-125.44,237.44-264.224V32.001C511.97,14.369,497.634,0.001,479.97,0.001z"/>
<path style="fill:#ECEFF1;" d="M415.97,304.001c0,5.536-2.88,10.688-7.584,13.632c-4.672,2.848-10.592,3.2-15.552,0.672
	l-40.864-20.416v38.112c0,8.832-7.168,16-16,16h-192c-8.832,0-16-7.168-16-16v-160c0-8.832,7.168-16,16-16h192
	c8.832,0,16,7.168,16,16v38.112l40.832-20.416c4.928-2.496,10.88-2.208,15.552,0.704c4.736,2.912,7.616,8.064,7.616,13.6V304.001z"
	/>
<g>
</g>
<g>
</g>
<g>
</g>
<g>
</g>
<g>
</g>
<g>
</g>
<g>
</g>
<g>
</g>
<g>
</g>
<g>
</g>
<g>
</g>
<g>
</g>
<g>
</g>
<g>
</g>
<g>
</g>
</svg>
