<?xml version="1.0" encoding="iso-8859-1"?>
<!-- Generator: Adobe Illustrator 19.0.0, SVG Export Plug-In . SVG Version: 6.00 Build 0)  -->
<svg version="1.1" id="Capa_1" xmlns="http://www.w3.org/2000/svg" xmlns:xlink="http://www.w3.org/1999/xlink" x="0px" y="0px"
	 viewBox="0 0 512 512" style="enable-background:new 0 0 512 512;" xml:space="preserve">
<g>
	<path style="fill:#FFC107;" d="M336,160H176c-8.832,0-16,7.168-16,16v320c0,8.832,7.168,16,16,16h160c8.832,0,16-7.168,16-16V176
		C352,167.168,344.832,160,336,160z"/>
	<path style="fill:#FFC107;" d="M176,320H16c-8.832,0-16,7.168-16,16v160c0,8.832,7.168,16,16,16h160c8.832,0,16-7.168,16-16V336
		C192,327.168,184.832,320,176,320z"/>
</g>
<path style="fill:#FFA000;" d="M496,0H336c-8.832,0-16,7.168-16,16v480c0,8.832,7.168,16,16,16h160c8.832,0,16-7.168,16-16V16
	C512,7.168,504.832,0,496,0z"/>
<g>
</g>
<g>
</g>
<g>
</g>
<g>
</g>
<g>
</g>
<g>
</g>
<g>
</g>
<g>
</g>
<g>
</g>
<g>
</g>
<g>
</g>
<g>
</g>
<g>
</g>
<g>
</g>
<g>
</g>
</svg>
