<?xml version="1.0" encoding="iso-8859-1"?>
<!-- Generator: Adobe Illustrator 19.0.0, SVG Export Plug-In . SVG Version: 6.00 Build 0)  -->
<svg version="1.1" id="Capa_1" xmlns="http://www.w3.org/2000/svg" xmlns:xlink="http://www.w3.org/1999/xlink" x="0px" y="0px"
	 viewBox="0 0 508 508" style="enable-background:new 0 0 508 508;" xml:space="preserve">
<polygon style="fill:#65C5B8;" points="0,94.6 0,283.4 163.4,377.7 163.4,0.2 "/>
<polygon style="fill:#4FBFA8;" points="163.4,0.2 163.4,377.7 326.8,283.4 326.8,94.6 "/>
<polygon style="fill:#F2F2F2;" points="0,94.6 163.4,0.2 326.8,94.6 326.8,94.6 163.4,189 "/>
<polygon style="fill:#65C5B8;" points="245.1,236.2 245.1,141.8 163.4,94.6 163.4,283.4 "/>
<polygon style="fill:#4FBFA8;" points="163.4,283.4 163.4,94.6 81.7,141.8 81.7,236.2 "/>
<polygon style="fill:#F2F2F2;" points="245.1,236.2 163.4,283.4 81.7,236.2 81.7,236.2 163.4,189 "/>
<path style="fill:#F2705B;" d="M501.1,233L474,205.9c-9.3-9.3-24.3-9.3-33.5,0L414,232.5l60.6,60.6l26.5-26.5
	C510.3,257.3,510.3,242.3,501.1,233z"/>
<polygon style="fill:#F2F2F2;" points="458.5,309.2 397.9,248.6 414,232.4 474.6,293 "/>
<polygon style="fill:#334A5E;" points="235,499.3 199.6,507.7 208,472.3 "/>
<path style="fill:#FFD05C;" d="M279,488.8l-50.6,12.1l-29,6.9l6.8-29l11.9-50.5l0.4-0.4c5.2-0.8,10.7,0.7,14.6,4.7
	c4.4,4.4,5.8,10.5,4.5,16.1c5.6-1.3,11.7,0.1,16.1,4.5c4.3,4.3,5.8,10.5,4.5,16.1c5.6-1.3,11.7,0.1,16.1,4.5
	C278.5,477.7,280,483.5,279,488.8z"/>
<g>
	<path style="fill:#89D6F7;" d="M233.3,432.6c4.3,4.3,5.8,10.5,4.5,16c5.6-1.3,11.7,0.1,16.1,4.5c4.3,4.3,5.8,10.5,4.5,16
		c5.6-1.3,11.7,0.1,16,4.5c4.1,4.1,5.7,9.9,4.7,15.2l179.5-179.6L398,248.6L218.8,427.8C223.9,427.1,229.4,428.6,233.3,432.6z"/>
	<path style="fill:#89D6F7;" d="M279,488.8L279,488.8L279,488.8z"/>
</g>
<polygon style="fill:#334A5E;" points="228.5,500.9 199.5,507.8 206.3,478.8 "/>
<g>
</g>
<g>
</g>
<g>
</g>
<g>
</g>
<g>
</g>
<g>
</g>
<g>
</g>
<g>
</g>
<g>
</g>
<g>
</g>
<g>
</g>
<g>
</g>
<g>
</g>
<g>
</g>
<g>
</g>
</svg>
