<?xml version="1.0" encoding="iso-8859-1"?>
<!-- Generator: Adobe Illustrator 19.0.0, SVG Export Plug-In . SVG Version: 6.00 Build 0)  -->
<svg version="1.1" id="Capa_1" xmlns="http://www.w3.org/2000/svg" xmlns:xlink="http://www.w3.org/1999/xlink" x="0px" y="0px"
	 viewBox="0 0 512 512" style="enable-background:new 0 0 512 512;" xml:space="preserve">
<path style="fill:#FF5722;" d="M256,0C114.656,0,0,114.624,0,256s114.656,256,256,256s256-114.656,256-256
	C512,114.624,397.344,0,256,0z M171.296,107.744c-1.632-0.448-6.048-2.464-7.328-0.448l-0.032,4.928
	c0.352,3.008,0.704,5.984,1.056,8.96c4.32,35.744,5.952,73.472-5.152,108.192c-5.92,18.688-16.8,35.776-31.296,49.056
	c-12,10.976-29.12,22.08-46.144,21.28c-3.168-0.096-6.304-0.64-9.408-1.696C54.784,291.872,53.728,272.16,53.632,256
	c-0.16-17.408,1.952-34.752,6.272-51.616c1.312-5.216,2.912-10.304,4.672-15.392C84.48,131.264,130.56,84.256,188.416,63.744
	c21.664-7.68,44.608-11.552,67.584-11.552c67.712,0,132.064,34.784,169.248,91.328c9.312,14.176,16.768,29.504,22.24,45.504h-0.064
	c1.76,5.088,3.392,10.144,4.736,15.36c4.256,16.864,6.368,34.24,6.272,51.648c-0.256,32.768-10.784,68.864-51.84,51.52
	c-19.424-8.192-35.648-24.864-47.68-41.696c-13.888-19.36-28.064-38.368-43.552-56.448c-14.592-16.928-30.112-33.12-47.008-47.84
	c-16.768-14.656-35.072-28.576-55.232-38.272C199.616,116.768,185.696,111.872,171.296,107.744z"/>
<g>
</g>
<g>
</g>
<g>
</g>
<g>
</g>
<g>
</g>
<g>
</g>
<g>
</g>
<g>
</g>
<g>
</g>
<g>
</g>
<g>
</g>
<g>
</g>
<g>
</g>
<g>
</g>
<g>
</g>
</svg>
