<?xml version="1.0" encoding="iso-8859-1"?>
<!-- Generator: Adobe Illustrator 19.0.0, SVG Export Plug-In . SVG Version: 6.00 Build 0)  -->
<svg version="1.1" id="Layer_1" xmlns="http://www.w3.org/2000/svg" xmlns:xlink="http://www.w3.org/1999/xlink" x="0px" y="0px"
	 viewBox="0 0 511.997 511.997" style="enable-background:new 0 0 511.997 511.997;" xml:space="preserve">
<path style="fill:#48CFAD;" d="M158.218,153.797c26.187-22.719,60.375-36.469,97.781-36.469c37.391,0,71.578,13.75,97.779,36.469
	l45.328-45.328c-37.843-34.266-88.045-55.141-143.107-55.141c-55.078,0-105.281,20.875-143.125,55.141L158.218,153.797z"/>
<path style="fill:#CCD1D9;" d="M255.999,53.327c-117.828,0-213.343,95.516-213.343,213.343v96.656H64v-96.656
	c0-25.938,5.062-51.078,15.078-74.734c9.671-22.859,23.515-43.39,41.156-61.031s38.172-31.484,61.031-41.156
	c23.656-10.016,48.796-15.078,74.734-15.078c25.922,0,51.062,5.062,74.719,15.078c22.873,9.672,43.404,23.516,61.029,41.156
	c17.656,17.641,31.5,38.171,41.156,61.031c10.016,23.656,15.094,48.796,15.094,74.734v96.656h21.328v-96.656
	C469.325,148.844,373.81,53.327,255.999,53.327z"/>
<path style="fill:#48CFAD;" d="M405.325,362.671c0,41.233,23.875,74.655,53.328,74.655c29.469,0,53.344-33.422,53.344-74.655
	c0-41.25-23.875-74.672-53.344-74.672C429.2,287.999,405.325,321.421,405.325,362.671z"/>
<path style="fill:#656D78;" d="M383.997,437.326c0,11.781,9.547,21.344,21.328,21.344h42.672c11.781,0,21.328-9.562,21.328-21.344
	V287.999c0-11.781-9.547-21.328-21.328-21.328h-42.672c-11.781,0-21.328,9.547-21.328,21.328V437.326z"/>
<path style="fill:#48CFAD;" d="M106.656,362.671c0,41.233-23.875,74.655-53.328,74.655S0,403.904,0,362.671
	c0-41.25,23.875-74.672,53.328-74.672S106.656,321.421,106.656,362.671z"/>
<path style="fill:#656D78;" d="M127.999,437.326c0,11.781-9.562,21.344-21.344,21.344H64c-11.781,0-21.344-9.562-21.344-21.344
	V287.999c0-11.781,9.562-21.328,21.344-21.328h42.656c11.781,0,21.344,9.547,21.344,21.328L127.999,437.326L127.999,437.326z"/>
<g>
	<path style="fill:#434A54;" d="M127.999,309.327c-5.891,0-10.672,4.781-10.672,10.672s4.781,10.672,10.672,10.672V309.327z"/>
	<path style="fill:#434A54;" d="M127.999,351.999c-5.891,0-10.672,4.781-10.672,10.672s4.781,10.656,10.672,10.656V351.999z"/>
	<path style="fill:#434A54;" d="M127.999,394.671c-5.891,0-10.672,4.765-10.672,10.655s4.781,10.672,10.672,10.672V394.671z"/>
	<path style="fill:#434A54;" d="M394.653,319.999c0-5.891-4.766-10.672-10.656-10.672v21.344
		C389.888,330.671,394.653,325.889,394.653,319.999z"/>
	<path style="fill:#434A54;" d="M394.653,362.671c0-5.891-4.766-10.672-10.656-10.672v21.328
		C389.888,373.327,394.653,368.561,394.653,362.671z"/>
	<path style="fill:#434A54;" d="M394.653,405.326c0-5.891-4.766-10.655-10.656-10.655v21.327
		C389.888,415.997,394.653,411.216,394.653,405.326z"/>
</g>
<g>
</g>
<g>
</g>
<g>
</g>
<g>
</g>
<g>
</g>
<g>
</g>
<g>
</g>
<g>
</g>
<g>
</g>
<g>
</g>
<g>
</g>
<g>
</g>
<g>
</g>
<g>
</g>
<g>
</g>
</svg>
