<?xml version="1.0" encoding="iso-8859-1"?>
<!-- Generator: Adobe Illustrator 19.0.0, SVG Export Plug-In . SVG Version: 6.00 Build 0)  -->
<svg version="1.1" id="Capa_1" xmlns="http://www.w3.org/2000/svg" xmlns:xlink="http://www.w3.org/1999/xlink" x="0px" y="0px"
	 viewBox="0 0 508 508" style="enable-background:new 0 0 508 508;" xml:space="preserve">
<rect x="0.15" y="465.2" style="fill:#65C5B8;" width="507.7" height="42.5"/>
<polygon style="fill:#F2F2F2;" points="451.05,247.8 451.05,507.7 57.05,507.7 57.05,247.8 254.05,92.6 "/>
<g>
	<polygon style="fill:#CDD5DF;" points="159.45,50.1 159.45,149.8 64.05,194.4 64.05,50.1 	"/>
	<rect x="40.15" style="fill:#CDD5DF;" width="143.2" height="50.1"/>
</g>
<path style="fill:#F2705B;" d="M479.45,262.4c-6.1,0-12.3-2-17.4-6l-208-163.8L46.15,256.4c-12.2,9.6-30,7.5-39.6-4.7
	s-7.5-30,4.7-39.6l225.3-177.5c10.2-8.1,24.7-8.1,34.9,0L496.85,212c12.2,9.6,14.3,27.4,4.7,39.6
	C496.05,258.7,487.75,262.4,479.45,262.4z"/>
<polygon style="opacity:0.5;fill:#CDD5DF;enable-background:new    ;" points="451.05,247.8 451.05,259 254.05,103.9 57.05,259 
	57.05,247.8 254.05,92.6 "/>
<rect x="64.05" y="50.1" style="fill:#ABB2B9;" width="95.5" height="15.2"/>
<path style="fill:#FFD05C;" d="M339.25,508h-170.4V277.7c0-2.8,2.2-5,5-5h160.4c2.8,0,5,2.2,5,5V508z"/>
<circle style="fill:#41596B;" cx="315.05" cy="390.4" r="14.6"/>
<g>
</g>
<g>
</g>
<g>
</g>
<g>
</g>
<g>
</g>
<g>
</g>
<g>
</g>
<g>
</g>
<g>
</g>
<g>
</g>
<g>
</g>
<g>
</g>
<g>
</g>
<g>
</g>
<g>
</g>
</svg>
