<?xml version="1.0" encoding="iso-8859-1"?>
<!-- Generator: Adobe Illustrator 19.0.0, SVG Export Plug-In . SVG Version: 6.00 Build 0)  -->
<svg version="1.1" id="Capa_1" xmlns="http://www.w3.org/2000/svg" xmlns:xlink="http://www.w3.org/1999/xlink" x="0px" y="0px"
	 viewBox="0 0 512 512" style="enable-background:new 0 0 512 512;" xml:space="preserve">
<g>
	<path style="fill:#FF9800;" d="M120,48C53.728,48,0,90.976,0,144v275.424c0,6.432,8.32,8.832,11.616,3.296
		C30.912,390.368,72.192,368,120,368c66.272,0,120,42.976,120,96V144C240,90.976,186.272,48,120,48z"/>
	<path style="fill:#FF9800;" d="M392,48c-66.272,0-120,42.976-120,96v320c0-53.024,53.728-96,120-96
		c47.808,0,89.088,22.368,108.384,54.72c3.296,5.536,11.616,3.136,11.616-3.296V144C512,90.976,458.272,48,392,48z"/>
</g>
<g>
</g>
<g>
</g>
<g>
</g>
<g>
</g>
<g>
</g>
<g>
</g>
<g>
</g>
<g>
</g>
<g>
</g>
<g>
</g>
<g>
</g>
<g>
</g>
<g>
</g>
<g>
</g>
<g>
</g>
</svg>
