<?xml version="1.0" encoding="iso-8859-1"?>
<!-- Generator: Adobe Illustrator 19.0.0, SVG Export Plug-In . SVG Version: 6.00 Build 0)  -->
<svg version="1.1" id="Capa_1" xmlns="http://www.w3.org/2000/svg" xmlns:xlink="http://www.w3.org/1999/xlink" x="0px" y="0px"
	 viewBox="0 0 508.1 508.1" style="enable-background:new 0 0 508.1 508.1;" xml:space="preserve">
<path style="fill:#41596B;" d="M486.8,100.5H21.2C9.5,100.5,0,110,0,121.7v365.2c0,11.7,9.5,21.2,21.2,21.2h465.7
	c11.7,0,21.2-9.5,21.2-21.2V121.7C508,110,498.5,100.5,486.8,100.5z"/>
<rect x="45.2" y="190.8" style="fill:#FFFFFF;" width="417.7" height="272"/>
<path style="fill:#334A5E;" d="M325.4,129.2H182.6c-6.3,0-11.3,5.1-11.3,11.3s5.1,11.3,11.3,11.3h142.8c6.3,0,11.3-5.1,11.3-11.3
	S331.7,129.2,325.4,129.2z"/>
<rect x="198.8" style="fill:#89D6F7;" width="110.4" height="140.5"/>
<rect x="92" y="231.4" style="fill:#F2705B;" width="115.4" height="136.2"/>
<rect x="271" y="341.2" style="fill:#CDD5DF;" width="145" height="26.4"/>
<rect x="271" y="285.9" style="fill:#F2F2F2;" width="145" height="26.4"/>
<rect x="92" y="396.5" style="fill:#CDD5DF;" width="324.1" height="26.4"/>
<rect x="271" y="230.8" style="fill:#FFD05C;" width="145" height="26.4"/>
<g>
</g>
<g>
</g>
<g>
</g>
<g>
</g>
<g>
</g>
<g>
</g>
<g>
</g>
<g>
</g>
<g>
</g>
<g>
</g>
<g>
</g>
<g>
</g>
<g>
</g>
<g>
</g>
<g>
</g>
</svg>
