<?xml version="1.0" encoding="iso-8859-1"?>
<!-- Generator: Adobe Illustrator 19.0.0, SVG Export Plug-In . SVG Version: 6.00 Build 0)  -->
<svg version="1.1" id="Capa_1" xmlns="http://www.w3.org/2000/svg" xmlns:xlink="http://www.w3.org/1999/xlink" x="0px" y="0px"
	 viewBox="0 0 508.029 508.029" style="enable-background:new 0 0 508.029 508.029;" xml:space="preserve">
<path style="fill:#FFD05C;" d="M241.44,0.429c-87.8,6.1-158.8,77.5-164.3,165.4c-3.4,54.9,18.1,104.8,54.4,139.5
	c22.6,21.6,36.2,51.1,36.2,82.4h172.5c0-31.1,13.2-60.5,35.7-81.9c34-32.3,55.2-77.9,55.2-128.5
	C431.24,75.229,345.04-6.671,241.44,0.429z"/>
<path style="fill:#4FBFA8;" d="M211.64,477.829c6.1,17.6,22.8,30.2,42.4,30.2c19.6,0,36.3-12.6,42.4-30.2H211.64z"/>
<path style="fill:#CDD5DF;" d="M167.84,387.729v75.6c0,8.3,6.7,15,15,15h142.4c8.3,0,15-6.7,15-15v-75.6H167.84z"/>
<g>
	<path style="fill:#ABB2B9;" d="M343.24,464.329h-178.4c-3.4,0-6.1-2.7-6.1-6.1l0,0c0-3.4,2.7-6.1,6.1-6.1h178.5
		c3.4,0,6.1,2.7,6.1,6.1l0,0C349.44,461.529,346.64,464.329,343.24,464.329z"/>
	<path style="fill:#ABB2B9;" d="M343.24,439.129h-178.4c-3.4,0-6.1-2.7-6.1-6.1l0,0c0-3.4,2.7-6.1,6.1-6.1h178.5
		c3.4,0,6.1,2.7,6.1,6.1l0,0C349.44,436.429,346.64,439.129,343.24,439.129z"/>
	<path style="fill:#ABB2B9;" d="M343.24,414.029h-178.4c-3.4,0-6.1-2.7-6.1-6.1l0,0c0-3.4,2.7-6.1,6.1-6.1h178.5
		c3.4,0,6.1,2.7,6.1,6.1l0,0C349.44,411.229,346.64,414.029,343.24,414.029z"/>
</g>
<path style="fill:#F6B44B;" d="M241.44,23.029c99.7-6.9,183.3,68.8,189.4,165.5c0.2-3.7,0.4-7.5,0.4-11.3
	c0-102-86.2-183.9-189.8-176.8c-87.8,6.1-158.8,77.5-164.3,165.4c-0.5,7.6-0.4,15,0,22.4C82.84,100.429,153.74,29.129,241.44,23.029
	z"/>
<g>
</g>
<g>
</g>
<g>
</g>
<g>
</g>
<g>
</g>
<g>
</g>
<g>
</g>
<g>
</g>
<g>
</g>
<g>
</g>
<g>
</g>
<g>
</g>
<g>
</g>
<g>
</g>
<g>
</g>
</svg>
