<?xml version="1.0" encoding="iso-8859-1"?>
<!-- Generator: Adobe Illustrator 19.0.0, SVG Export Plug-In . SVG Version: 6.00 Build 0)  -->
<svg version="1.1" id="Capa_1" xmlns="http://www.w3.org/2000/svg" xmlns:xlink="http://www.w3.org/1999/xlink" x="0px" y="0px"
	 viewBox="0 0 507.963 507.963" style="enable-background:new 0 0 507.963 507.963;" xml:space="preserve">
<path style="fill:#FFD05C;" d="M272.323,0.863c-113.5-10.9-212.4,82.9-207.4,196.8c2.5,57.6,30.9,108.5,73.7,141.5
	c19.1,14.7,30.1,37.6,30.1,61.7l0,0h170.5l0,0c0-23.9,10.6-46.8,29.6-61.3c45.2-34.6,74.4-89.1,74.4-150.4
	C443.223,90.863,368.223,10.063,272.323,0.863z"/>
<path style="fill:#334A5E;" d="M335.023,416.763h-162c-8.8,0-15.8,7.1-15.8,15.8c0,8.8,7.1,15.8,15.8,15.8h162
	c8.8,0,15.8-7.1,15.8-15.8C350.923,423.863,343.823,416.763,335.023,416.763z"/>
<g>
	<path style="fill:#41596B;" d="M324.723,448.463h-141.4c-8.8,0-15.8,7.1-15.8,15.8c0,8.8,7.1,15.8,15.8,15.8h141.5
		c8.8,0,15.8-7.1,15.8-15.8C340.623,455.563,333.523,448.463,324.723,448.463z"/>
	<path style="fill:#41596B;" d="M324.723,385.063h-141.4c-8.8,0-15.8,7.1-15.8,15.8l0,0c0,8.8,7.1,15.8,15.8,15.8h141.5
		c8.8,0,15.8-7.1,15.8-15.8l0,0C340.623,392.163,333.523,385.063,324.723,385.063z"/>
</g>
<path style="fill:#F2705B;" d="M192.623,480.063c0,15.4,12.5,27.9,27.9,27.9h67.2c15.4,0,27.9-12.5,27.9-27.9H192.623z"/>
<polygon style="fill:#FFFFFF;" points="227.123,102.363 319.023,102.363 273.023,199.563 303.123,199.563 227.123,332.663 
	247.123,246.063 189.023,246.063 "/>
<g>
</g>
<g>
</g>
<g>
</g>
<g>
</g>
<g>
</g>
<g>
</g>
<g>
</g>
<g>
</g>
<g>
</g>
<g>
</g>
<g>
</g>
<g>
</g>
<g>
</g>
<g>
</g>
<g>
</g>
</svg>
