<?xml version="1.0" encoding="iso-8859-1"?>
<!-- Generator: Adobe Illustrator 19.0.0, SVG Export Plug-In . SVG Version: 6.00 Build 0)  -->
<svg version="1.1" id="Capa_1" xmlns="http://www.w3.org/2000/svg" xmlns:xlink="http://www.w3.org/1999/xlink" x="0px" y="0px"
	 viewBox="0 0 508.1 508.1" style="enable-background:new 0 0 508.1 508.1;" xml:space="preserve">
<path style="fill:#F2F2F2;" d="M486.8,0H21.2C9.5,0,0,9.5,0,21.2v465.7c0,11.7,9.5,21.2,21.2,21.2h465.7c11.7,0,21.2-9.5,21.2-21.2
	V21.2C508,9.5,498.5,0,486.8,0z"/>
<path style="fill:#CDD5DF;" d="M254.7,36.2c-85.4,0-154.6,69.1-154.6,154.5c0,25.8,6.3,50.2,17.6,71.6c3.9,7.4,8.4,14.5,13.4,21.1
	c1,1.5,2.1,2.9,3.3,4.3c28.3,35.1,71.7,57.6,120.4,57.6c3.8,0,7.7-0.1,11.5-0.4c6.2-0.4,12.3-1.2,18.3-2.5c0.4-0.1,0.7-0.1,0.9-0.1
	c18.6-3.7,36-10.8,51.5-20.6c43.5-27.3,72.4-75.7,72.4-130.9C409.2,105.3,340,36.2,254.7,36.2z"/>
<polygon style="fill:#FFCF5C;" points="172.5,324.6 172.5,230.1 221,168.3 254.7,125.2 288.4,168.3 336.8,230.1 336.8,324.6 "/>
<path style="fill:#F2705B;" d="M172.5,442.7v42.1c0,12.4,10,22.4,22.4,22.4h119.5c12.4,0,22.4-10,22.4-22.4v-42.1H172.5z"/>
<rect x="172.6" y="394.4" style="fill:#FFFFFF;" width="164.2" height="48.3"/>
<polygon style="fill:#425A6D;" points="221,168.3 254.7,125.2 288.4,168.3 "/>
<g>
	<path style="fill:#55BFE9;" d="M336.8,230.1v164.2h-43.1V279c0-7.9,1.5-15.3,4.1-21.9c6.4-16.2,19.7-27.3,35.1-27.3
		C334.3,229.8,335.5,229.9,336.8,230.1z"/>
	<path style="fill:#55BFE9;" d="M215.4,279v115.3h-42.9V230.1c1.2-0.2,2.5-0.3,3.7-0.3c15.4,0,28.6,11.2,35,27.4
		C214,263.8,215.4,271.2,215.4,279z"/>
</g>
<path style="fill:#89D6F7;" d="M215.4,394.3V279c0-7.8-1.4-15.2-4.1-21.8c9.9-16.5,25.6-27.3,43.3-27.3c17.7,0,33.4,10.7,43.3,27.2
	c-2.6,6.6-4.1,14-4.1,21.9v115.3H215.4z"/>
<g>
	<path style="fill:#65C5B8;" d="M152.3,351.1l-0.3-0.2c-6.7-4.3-13.3-9.1-19.3-14.1l-0.2-0.2l14.5-17.2h0.5l-0.1,0.2
		c5.4,4.5,11,8.6,16.9,12.3l0.2,0.2L152.3,351.1z"/>
	<path style="fill:#65C5B8;" d="M356.6,350.4l-0.1-0.2l-0.2,0.2l0,0l-12.1-18.8l0.2-0.2c5.8-3.8,11.5-8,17-12.5l0.2-0.2l14.5,17.3
		l-0.2,0.2C369.8,341.3,363.3,346.1,356.6,350.4z"/>
	<path style="fill:#65C5B8;" d="M107.7,311.4l-0.3-0.1c-2.5-3.1-5-6.3-7.2-9.2c-1.5-2-2.7-3.8-3.8-5.6c-1.1-1.6-2-3-2.8-4.3
		l-0.2,0.2v-0.8l0.1-0.1l18.8-11.9l0.2,0.2c0.8,1.2,1.6,2.5,2.7,4.1l0.2,0.4c0.8,1.3,1.8,2.7,3.1,4.5c2,2.7,4,5.4,6.3,8.2l0.2,0.2
		L107.7,311.4z"/>
	<path style="fill:#65C5B8;" d="M401,310.8l-0.2-0.2l-17.2-14.1l0.2-0.2c4.5-5.4,8.6-11.3,12.3-17.2l0.1-0.2l19.8,12.4h-0.9
		c-4.2,6.7-8.8,13.2-13.9,19.3L401,310.8z"/>
	<path style="fill:#65C5B8;" d="M77.1,260.1v-0.4c-2.9-7.3-5.3-15-7.3-22.8l-0.1-0.3l21.9-5.4v0.2c1.7,6.8,3.8,13.5,6.4,20l1.1,0.1
		L77.1,260.1z"/>
	<path style="fill:#65C5B8;" d="M431.1,259.2L410,251l0.1-0.2c2.5-6.6,4.7-13.4,6.3-20.2l0.1-0.3l21.9,5.4l-0.1,0.3
		c-1.9,7.7-4.3,15.4-7.2,22.9L431.1,259.2z"/>
	<path style="fill:#65C5B8;" d="M64.4,201.6v-0.2c-0.4-6.7-0.4-13.6-0.1-20.5c0.1-1.2,0.2-2.3,0.2-3.5v-0.3l22.5,1.8
		c-0.1,1.1-0.2,2-0.2,3.1c-0.3,6-0.3,12.1,0,18.1h-0.2v0.3L64.4,201.6z"/>
	<path style="fill:#65C5B8;" d="M443.6,200.7l-22.6-1.4c0.3-5,0.3-10.1,0.2-15.1v-0.3h0.3l22.3-0.8v0.2c0.2,5.6,0.2,11.4-0.1,17.2
		L443.6,200.7z"/>
	<path style="fill:#65C5B8;" d="M92.2,148l-21.9-5.8l0.1-0.3c2-7.8,4.6-15.4,7.6-22.8l0.1-0.3l20.9,8.5l-0.1,0.3
		c-2.6,6.5-4.9,13.3-6.6,20.1L92.2,148z"/>
	<path style="fill:#65C5B8;" d="M417.3,153l-0.3-0.2c-1.6-6.8-3.6-13.6-6.1-20.3l-0.1-0.2l21.2-7.8l0.1,0.2c2.7,7.4,5,15,6.8,22.8
		v0.5l-0.2,0.1L417.3,153z"/>
	<path style="fill:#65C5B8;" d="M113.6,99.9l-19-12.4l0.1-0.6l0.2,0.1c4.2-6.5,9-12.9,14.2-19l0.3-0.1l0.1,0.1l17,14.4l-0.2,0.2
		c-4.5,5.4-8.8,11-12.6,16.9L113.6,99.9z"/>
	<path style="fill:#65C5B8;" d="M397.3,104.3l-0.1-0.2c-3.6-6-7.6-11.7-11.9-17.1l-0.3,0.2v-0.8l0.1-0.1l17.4-13.8l0.2,0.2
		c5,6.3,9.6,12.9,13.7,19.7l0.2,0.2L397.3,104.3z"/>
	<path style="fill:#65C5B8;" d="M148.7,60.7l-14.2-17.6h0.1v-0.6l0.3,0.4c6.1-4.9,12.6-9.5,19.4-13.7l0.2-0.2l11.9,19.2l-0.2,0.2
		c-6.1,3.8-11.9,7.9-17.3,12.2L148.7,60.7z"/>
	<path style="fill:#65C5B8;" d="M363.4,64l-0.2-0.2c-5.3-4.6-11-8.9-16.9-12.7l-0.2-0.2l12.6-18.7h0.1c6.7,4.5,13.1,9.3,19.1,14.5
		L378,47l-0.1,0.1L363.4,64z"/>
	<path style="fill:#65C5B8;" d="M194.3,34.4l-8.1-21.1l0.3-0.1c7.5-2.8,15.2-5.3,22.9-7.1h0.2l5.3,21.7h-0.3V28
		c-6.9,1.6-13.6,3.8-20.2,6.2L194.3,34.4z"/>
	<path style="fill:#65C5B8;" d="M318.7,36.2h-0.3c-6.5-2.8-13.2-5-20-6.9l-0.3-0.1l6-21.8l0.3,0.1c7.7,2.1,15.4,4.7,22.7,7.8
		l0.2,0.1L318.7,36.2z"/>
	<path style="fill:#65C5B8;" d="M245.8,23.6l-1-22.6h0.3c6.1-0.3,12.4-0.3,18.8,0.1c2.1,0.1,3.7,0.2,5.1,0.3h0.3v0.3l-1.8,22.2h-0.3
		c-7.1-0.5-14.3-0.7-21.1-0.4L245.8,23.6z"/>
</g>
<g>
</g>
<g>
</g>
<g>
</g>
<g>
</g>
<g>
</g>
<g>
</g>
<g>
</g>
<g>
</g>
<g>
</g>
<g>
</g>
<g>
</g>
<g>
</g>
<g>
</g>
<g>
</g>
<g>
</g>
</svg>
