<?xml version="1.0" encoding="iso-8859-1"?>
<!-- Generator: Adobe Illustrator 19.0.0, SVG Export Plug-In . SVG Version: 6.00 Build 0)  -->
<svg version="1.1" id="Layer_1" xmlns="http://www.w3.org/2000/svg" xmlns:xlink="http://www.w3.org/1999/xlink" x="0px" y="0px"
	 viewBox="0 0 511.996 511.996" style="enable-background:new 0 0 511.996 511.996;" xml:space="preserve">
<rect x="362.668" y="330.668" style="fill:#ED5564;" width="42.656" height="53"/>
<path style="fill:#DA4453;" d="M405.325,319.998h-42.656c-5.891,0-10.672,4.781-10.672,10.672v53
	c0,5.891,4.781,10.656,10.672,10.656h42.656c5.891,0,10.672-4.766,10.672-10.656v-53
	C415.997,324.779,411.216,319.998,405.325,319.998z M394.669,372.998h-21.344v-31.672h21.344V372.998z"/>
<g>
	<rect x="223.998" y="127.998" style="fill:#CCD1D9;" width="64" height="298.67"/>
	<path style="fill:#CCD1D9;" d="M127.999,501.324c0,5.891-4.781,10.672-10.672,10.672s-10.656-4.781-10.656-10.672
		s4.766-10.656,10.656-10.656S127.999,495.434,127.999,501.324z"/>
	<path style="fill:#CCD1D9;" d="M405.325,501.324c0,5.891-4.766,10.672-10.656,10.672s-10.672-4.781-10.672-10.672
		s4.781-10.656,10.672-10.656S405.325,495.434,405.325,501.324z"/>
</g>
<g>
	<path style="fill:#434A54;" d="M117.327,362.67c0,5.891-4.766,10.656-10.656,10.656s-10.672-4.766-10.672-10.656
		s4.781-10.672,10.672-10.672S117.327,356.779,117.327,362.67z"/>
	<path style="fill:#434A54;" d="M159.999,362.67c0,5.891-4.781,10.656-10.672,10.656s-10.656-4.766-10.656-10.656
		s4.765-10.672,10.656-10.672S159.999,356.779,159.999,362.67z"/>
</g>
<polygon style="fill:#656D78;" points="74.671,362.67 74.671,447.997 95.999,501.324 415.997,501.324 437.325,447.997 
	437.325,362.67 "/>
<path style="fill:#ED5564;" d="M255.998,0c-47.125,0-85.327,38.202-85.327,85.327c0,47.141,38.202,85.344,85.327,85.344
	s85.328-38.203,85.328-85.344C341.326,38.202,303.123,0,255.998,0z"/>
<path style="opacity:0.1;fill:#FFFFFF;enable-background:new    ;" d="M255.998,0c-3.609,0-7.172,0.234-10.672,0.656
	c42.094,5.25,74.672,41.155,74.672,84.671s-32.578,79.422-74.672,84.672c3.5,0.438,7.062,0.672,10.672,0.672
	c47.125,0,85.328-38.203,85.328-85.344C341.326,38.202,303.123,0,255.998,0z"/>
<path style="fill:#E6E9ED;" d="M309.326,319.998H202.67l-21.344,42.672l0.078,42.655c0,5.891,4.781,10.672,10.672,10.672h127.922
	c5.891,0,10.672-4.781,10.672-10.672V362.67L309.326,319.998z"/>
<polygon style="fill:#434A54;" points="415.997,501.324 95.999,501.324 74.671,447.997 437.325,447.997 "/>
<g>
</g>
<g>
</g>
<g>
</g>
<g>
</g>
<g>
</g>
<g>
</g>
<g>
</g>
<g>
</g>
<g>
</g>
<g>
</g>
<g>
</g>
<g>
</g>
<g>
</g>
<g>
</g>
<g>
</g>
</svg>
