<?xml version="1.0" encoding="iso-8859-1"?>
<!-- Generator: Adobe Illustrator 19.0.0, SVG Export Plug-In . SVG Version: 6.00 Build 0)  -->
<svg version="1.1" id="Capa_1" xmlns="http://www.w3.org/2000/svg" xmlns:xlink="http://www.w3.org/1999/xlink" x="0px" y="0px"
	 viewBox="0 0 508 508" style="enable-background:new 0 0 508 508;" xml:space="preserve">
<rect y="286.8" style="fill:#41596B;" width="508" height="221.2"/>
<g>
	<rect x="16.9" y="303.8" style="fill:#F2F2F2;" width="34.1" height="34.1"/>
	<rect x="71.9" y="303.8" style="fill:#F2F2F2;" width="34.1" height="34.1"/>
	<rect x="126.9" y="303.8" style="fill:#F2F2F2;" width="34.1" height="34.1"/>
	<rect x="181.9" y="303.8" style="fill:#F2F2F2;" width="34.1" height="34.1"/>
	<rect x="236.9" y="303.8" style="fill:#F2F2F2;" width="34.1" height="34.1"/>
	<rect x="291.9" y="303.8" style="fill:#F2F2F2;" width="34.1" height="34.1"/>
	<rect x="346.9" y="303.8" style="fill:#F2F2F2;" width="34.1" height="34.1"/>
	<rect x="401.9" y="303.8" style="fill:#F2F2F2;" width="34.1" height="34.1"/>
	<rect x="456.9" y="303.8" style="fill:#F2F2F2;" width="34.1" height="34.1"/>
	<rect x="16.9" y="354.8" style="fill:#F2F2F2;" width="34.1" height="34.1"/>
	<rect x="71.9" y="354.8" style="fill:#F2F2F2;" width="34.1" height="34.1"/>
	<rect x="126.9" y="354.8" style="fill:#F2F2F2;" width="34.1" height="34.1"/>
	<rect x="181.9" y="354.8" style="fill:#F2F2F2;" width="34.1" height="34.1"/>
	<rect x="236.9" y="354.8" style="fill:#F2F2F2;" width="34.1" height="34.1"/>
	<rect x="291.9" y="354.8" style="fill:#F2F2F2;" width="34.1" height="34.1"/>
	<rect x="346.9" y="354.8" style="fill:#F2F2F2;" width="34.1" height="34.1"/>
	<rect x="401.9" y="354.8" style="fill:#F2F2F2;" width="34.1" height="34.1"/>
	<rect x="456.9" y="354.8" style="fill:#F2F2F2;" width="34.1" height="34.1"/>
	<rect x="16.9" y="405.9" style="fill:#F2F2F2;" width="34.1" height="34.1"/>
	<rect x="71.9" y="405.9" style="fill:#F2F2F2;" width="34.1" height="34.1"/>
	<rect x="126.9" y="405.9" style="fill:#F2F2F2;" width="34.1" height="34.1"/>
	<rect x="181.9" y="405.9" style="fill:#F2F2F2;" width="34.1" height="34.1"/>
	<rect x="236.9" y="405.9" style="fill:#F2F2F2;" width="34.1" height="34.1"/>
	<rect x="291.9" y="405.9" style="fill:#F2F2F2;" width="34.1" height="34.1"/>
	<rect x="346.9" y="405.9" style="fill:#F2F2F2;" width="34.1" height="34.1"/>
	<rect x="401.9" y="405.9" style="fill:#F2F2F2;" width="34.1" height="34.1"/>
	<rect x="456.9" y="405.9" style="fill:#F2F2F2;" width="34.1" height="34.1"/>
	<rect x="16.9" y="456.9" style="fill:#F2F2F2;" width="34.1" height="34.1"/>
	<rect x="71.9" y="456.9" style="fill:#F2F2F2;" width="34.1" height="34.1"/>
	<rect x="126.9" y="456.9" style="fill:#F2F2F2;" width="254.1" height="34.1"/>
	<rect x="401.9" y="456.9" style="fill:#F2F2F2;" width="34.1" height="34.1"/>
	<rect x="456.9" y="456.9" style="fill:#F2F2F2;" width="34.1" height="34.1"/>
</g>
<path style="fill:#CDD5DF;" d="M430.3,286.8h-22.6v-47.5c0-12.5-10.1-22.6-22.6-22.6H139.9c-24.9,0-45.2-20.3-45.2-45.2V92.2
	C94.8,67.3,115,47,139.9,47h152.3c12.5,0,22.6-10.1,22.6-22.6V0h22.6v24.5c0,24.9-20.3,45.2-45.2,45.2H139.9
	c-12.4,0-22.6,10.1-22.6,22.6v79.4c0,12.5,10.1,22.6,22.6,22.6h245.2c24.9,0,45.2,20.3,45.2,45.2V286.8z"/>
<g>
</g>
<g>
</g>
<g>
</g>
<g>
</g>
<g>
</g>
<g>
</g>
<g>
</g>
<g>
</g>
<g>
</g>
<g>
</g>
<g>
</g>
<g>
</g>
<g>
</g>
<g>
</g>
<g>
</g>
</svg>
