<?xml version="1.0" encoding="iso-8859-1"?>
<!-- Generator: Adobe Illustrator 19.0.0, SVG Export Plug-In . SVG Version: 6.00 Build 0)  -->
<svg version="1.1" id="Capa_1" xmlns="http://www.w3.org/2000/svg" xmlns:xlink="http://www.w3.org/1999/xlink" x="0px" y="0px"
	 viewBox="0 0 512 512" style="enable-background:new 0 0 512 512;" xml:space="preserve">
<g>
	<path style="fill:#8BC34A;" d="M320.576,140.736c-19.52-18.016-49.888-16.768-67.84,2.688L144,261.248V48c0-26.528-21.472-48-48-48
		S48,21.472,48,48v416c0,26.496,21.472,48,48,48s48-21.504,48-48v-61.248l32-34.656l70.624,120.192
		C255.552,503.52,271.584,512,288.032,512c8.256,0,16.64-2.112,24.256-6.624c22.848-13.408,30.496-42.848,17.056-65.696
		L244.032,294.4l79.232-85.824C341.248,189.088,340.032,158.688,320.576,140.736z"/>
	<circle style="fill:#8BC34A;" cx="416" cy="336" r="48"/>
</g>
<g>
</g>
<g>
</g>
<g>
</g>
<g>
</g>
<g>
</g>
<g>
</g>
<g>
</g>
<g>
</g>
<g>
</g>
<g>
</g>
<g>
</g>
<g>
</g>
<g>
</g>
<g>
</g>
<g>
</g>
</svg>
