<?xml version="1.0" encoding="iso-8859-1"?>
<!-- Generator: Adobe Illustrator 19.0.0, SVG Export Plug-In . SVG Version: 6.00 Build 0)  -->
<svg version="1.1" id="Capa_1" xmlns="http://www.w3.org/2000/svg" xmlns:xlink="http://www.w3.org/1999/xlink" x="0px" y="0px"
	 viewBox="0 0 508.038 508.038" style="enable-background:new 0 0 508.038 508.038;" xml:space="preserve">
<path style="fill:#65C5B8;" d="M501.8,267.944L242.3,8.444c-5.3-5.4-12.6-8.4-20.2-8.4H55.3L0,55.344v166.7c0,7.6,3,14.9,8.4,20.3
	l259.5,259.5c8.2,8.2,21.5,8.2,29.8,0l204.2-204.2C510.1,289.444,510.1,276.144,501.8,267.944z M103.4,103.444
	c-13.1,13.1-34.4,13.1-47.5,0s-13.1-34.4,0-47.5s34.4-13.1,47.5,0S116.5,90.344,103.4,103.444z"/>
<rect x="111.671" y="152.856" transform="matrix(-0.7071 -0.7071 0.7071 -0.7071 251.51 607.4886)" style="fill:#FFFFFF;" width="279.797" height="197.598"/>
<rect x="92.492" y="277.93" transform="matrix(-0.7071 -0.7071 0.7071 -0.7071 155.634 647.1248)" style="fill:#65C5B8;" width="238.698" height="26.8"/>
<rect x="132.307" y="238.17" transform="matrix(-0.7071 -0.7071 0.7071 -0.7071 251.7173 607.4037)" style="fill:#89D6F7;" width="238.698" height="26.8"/>
<rect x="171.88" y="198.51" transform="matrix(-0.7071 -0.7071 0.7071 -0.7071 347.3153 567.6817)" style="fill:#FFD05C;" width="238.698" height="26.8"/>
<g>
</g>
<g>
</g>
<g>
</g>
<g>
</g>
<g>
</g>
<g>
</g>
<g>
</g>
<g>
</g>
<g>
</g>
<g>
</g>
<g>
</g>
<g>
</g>
<g>
</g>
<g>
</g>
<g>
</g>
</svg>
