<?xml version="1.0" encoding="iso-8859-1"?>
<!-- Generator: Adobe Illustrator 19.0.0, SVG Export Plug-In . SVG Version: 6.00 Build 0)  -->
<svg version="1.1" id="Capa_1" xmlns="http://www.w3.org/2000/svg" xmlns:xlink="http://www.w3.org/1999/xlink" x="0px" y="0px"
	 viewBox="0 0 507.975 507.975" style="enable-background:new 0 0 507.975 507.975;" xml:space="preserve">
<path style="fill:#89D6F7;" d="M273.988,6.1c-3.9-3.9-9.2-6.1-14.7-6.1l-176.1,0c-25.4,0-46,20.6-45.9,45.9V222
	c0,5.5,2.2,10.8,6.1,14.7l265.2,265.2c8.1,8.1,21.2,8.1,29.3,0l132.2-132.2l0.3-167.2L273.988,6.1z M147.888,110.6
	c-15.2,15.2-39.8,15.2-54.9,0.1c-15.2-15.2-15.1-39.8,0-55c15.2-15.2,39.7-15.2,54.8,0C162.988,70.9,162.988,95.4,147.888,110.6z"/>
<g>
	
		<rect x="220.224" y="150.292" transform="matrix(-0.7071 -0.7071 0.7071 -0.7071 417.0927 499.1487)" style="fill:#55BFE9;" width="183.398" height="25.8"/>
	
		<rect x="164.533" y="205.992" transform="matrix(-0.7071 -0.7071 0.7071 -0.7071 282.6365 554.8551)" style="fill:#55BFE9;" width="183.398" height="25.8"/>
	
		<rect x="108.832" y="261.702" transform="matrix(-0.7071 -0.7071 0.7071 -0.7071 148.1562 610.5715)" style="fill:#55BFE9;" width="183.398" height="25.8"/>
</g>
<path style="fill:#F2F2F2;" d="M469.988,202.5l-68.5,69.1c-8.1,8.1-8,21.3,0.1,29.3l69.1,68.5L469.988,202.5z"/>
<g>
</g>
<g>
</g>
<g>
</g>
<g>
</g>
<g>
</g>
<g>
</g>
<g>
</g>
<g>
</g>
<g>
</g>
<g>
</g>
<g>
</g>
<g>
</g>
<g>
</g>
<g>
</g>
<g>
</g>
</svg>
