<?xml version="1.0" encoding="iso-8859-1"?>
<!-- Generator: Adobe Illustrator 19.0.0, SVG Export Plug-In . SVG Version: 6.00 Build 0)  -->
<svg version="1.1" id="Capa_1" xmlns="http://www.w3.org/2000/svg" xmlns:xlink="http://www.w3.org/1999/xlink" x="0px" y="0px"
	 viewBox="0 0 508.1 508.1" style="enable-background:new 0 0 508.1 508.1;" xml:space="preserve">
<path style="fill:#41596B;" d="M467.9,140.622H40.1c-11.7,0-21.2,9.5-21.2,21.2v293.9h169.7c0,5.4,4.3,9.7,9.7,9.7h111.3
	c5.4,0,9.7-4.3,9.7-9.7h169.8v-293.9C489.1,150.122,479.6,140.622,467.9,140.622z"/>
<rect x="52.7" y="174.522" style="fill:#FFFFFF;" width="402.5" height="247.4"/>
<path style="fill:#334A5E;" d="M319.4,455.722c0,5.4-4.4,9.7-9.7,9.7H198.4c-5.4,0-9.7-4.4-9.7-9.7H0v20.3
	c0,17.2,13.9,31.1,31.1,31.1H477c17.2,0,31.1-13.9,31.1-31.1v-20.3H319.4z"/>
<path style="fill:#FFD05C;" d="M253.6,1.022c-50.3,1.5-91.6,44.4-91.3,94.8c0.2,24.6,9.8,47,25.4,63.7c17,18.1,27.5,41.3,27.5,66.1
	v5.3h82.7v-5.3c0-24,9.1-47.2,25.9-64.4c16.7-17,27-40.2,27-65.9C350.7,42.222,307-0.578,253.6,1.022z"/>
<path style="fill:#F05540;" d="M296.6,272.722h-80.1c-0.7,0-1.3-0.6-1.3-1.3v-40.7h82.7v40.7
	C297.8,272.122,297.3,272.722,296.6,272.722z"/>
<path style="fill:#FFD05C;" d="M236.5,272.722c0,0.7,0.1,1.3,0.1,1.9c1,9.6,9.1,17.1,18.9,17.1h1.9c5.3,0,10-2.1,13.4-5.6
	c2.9-3,5-7,5.4-11.5c0.1-0.6,0.1-1.2,0.1-1.9H236.5z"/>
<path style="fill:#FFFFFF;" d="M296.6,142.522c-2.2-2.2-5.8-2.2-8,0l-32.1,32.1l-32.1-32.1c-2.2-2.2-5.8-2.2-8,0s-2.2,5.8,0,8
	l34.5,34.5v45.8h11.3v-45.8l34.5-34.5C298.8,148.222,298.8,144.722,296.6,142.522z"/>
<g>
</g>
<g>
</g>
<g>
</g>
<g>
</g>
<g>
</g>
<g>
</g>
<g>
</g>
<g>
</g>
<g>
</g>
<g>
</g>
<g>
</g>
<g>
</g>
<g>
</g>
<g>
</g>
<g>
</g>
</svg>
