<?xml version="1.0" encoding="iso-8859-1"?>
<!-- Generator: Adobe Illustrator 19.0.0, SVG Export Plug-In . SVG Version: 6.00 Build 0)  -->
<svg version="1.1" id="Capa_1" xmlns="http://www.w3.org/2000/svg" xmlns:xlink="http://www.w3.org/1999/xlink" x="0px" y="0px"
	 viewBox="0 0 508 508" style="enable-background:new 0 0 508 508;" xml:space="preserve">
<rect x="204.8" y="409.6" style="fill:#65C5B8;" width="98.4" height="98.4"/>
<g>
	<rect x="303.2" y="441.8" style="fill:#CDD5DF;" width="204.8" height="34"/>
	<rect x="237" y="373.5" style="fill:#CDD5DF;" width="34" height="37.4"/>
	<rect y="441.8" style="fill:#CDD5DF;" width="204.8" height="34"/>
</g>
<path style="fill:#FFD05C;" d="M254,0c-60.3,0-111.3,48.4-111.3,105.7v52.2h45.2v-52.2c0-32.2,30.9-60.5,66.2-60.5
	s66.2,28.3,66.2,60.5v52.2h45.2v-52.2C365.3,48.4,314.3,0,254,0z"/>
<path style="fill:#F2705B;" d="M380.7,155.5H127.3c-11.7,0-21.2,9.5-21.2,21.2v175.7c0,11.7,9.5,21.2,21.2,21.2h253.5
	c11.7,0,21.2-9.5,21.2-21.2V176.6C401.9,164.9,392.4,155.5,380.7,155.5z"/>
<path style="fill:#41596B;" d="M287.9,247c0-21.1-19.3-37.7-41.2-33.1c-12.9,2.7-23.2,13.1-25.9,26c-3.1,15.1,3.9,29,15.5,36v22.3
	c0,9.7,7.9,17.6,17.6,17.6l0,0c9.7,0,17.6-7.9,17.6-17.6v-22.3C281.4,270,287.9,259.3,287.9,247z"/>
<g>
</g>
<g>
</g>
<g>
</g>
<g>
</g>
<g>
</g>
<g>
</g>
<g>
</g>
<g>
</g>
<g>
</g>
<g>
</g>
<g>
</g>
<g>
</g>
<g>
</g>
<g>
</g>
<g>
</g>
</svg>
