<?xml version="1.0" encoding="iso-8859-1"?>
<!-- Generator: Adobe Illustrator 19.0.0, SVG Export Plug-In . SVG Version: 6.00 Build 0)  -->
<svg version="1.1" id="Capa_1" xmlns="http://www.w3.org/2000/svg" xmlns:xlink="http://www.w3.org/1999/xlink" x="0px" y="0px"
	 viewBox="0 0 508 508" style="enable-background:new 0 0 508 508;" xml:space="preserve">
<rect x="30.5" y="239.8" style="fill:#F2F2F2;" width="447.1" height="212.1"/>
<path style="fill:#41596B;" d="M254,276.2c-23.4,0-42.4,19-42.4,42.4c0,14.3,7.1,26.9,17.9,34.5v37.8c0,13.5,11,24.5,24.5,24.5
	c13.5,0,24.5-11,24.5-24.5v-37.8c10.8-7.7,17.9-20.3,17.9-34.5C296.4,295.2,277.4,276.2,254,276.2z"/>
<path style="fill:#ABB2B9;" d="M250.4,0c-74.3,0-134.7,60.4-134.7,134.6v48.9h66.9v-48.9c0-37.3,30.4-67.7,67.7-67.7
	S318,97.3,318,134.6v48.9h67v-48.9C385,60.4,324.6,0,250.4,0z"/>
<path style="fill:#41596B;" d="M456.4,183.6H51.6c-11.7,0-21.2,9.5-21.2,21.2v35h447.1v-35C477.5,193.1,468,183.6,456.4,183.6z"/>
<g>
	<rect x="115.7" y="172.1" style="fill:#9EA3A9;" width="66.9" height="11.5"/>
	<rect x="318.1" y="172.1" style="fill:#9EA3A9;" width="66.9" height="11.5"/>
</g>
<path style="fill:#41596B;" d="M30.5,451.8v35c0,11.7,9.5,21.2,21.2,21.2h404.7c11.7,0,21.2-9.5,21.2-21.2v-35H30.5z"/>
<g>
</g>
<g>
</g>
<g>
</g>
<g>
</g>
<g>
</g>
<g>
</g>
<g>
</g>
<g>
</g>
<g>
</g>
<g>
</g>
<g>
</g>
<g>
</g>
<g>
</g>
<g>
</g>
<g>
</g>
</svg>
