<?xml version="1.0" encoding="iso-8859-1"?>
<!-- Generator: Adobe Illustrator 19.0.0, SVG Export Plug-In . SVG Version: 6.00 Build 0)  -->
<svg version="1.1" id="Capa_1" xmlns="http://www.w3.org/2000/svg" xmlns:xlink="http://www.w3.org/1999/xlink" x="0px" y="0px"
	 viewBox="0 0 508 508" style="enable-background:new 0 0 508 508;" xml:space="preserve">
<path style="fill:#65C5B8;" d="M253.95,0c-86,0-156,70-156,156v70.3h56.4V156c0-54.9,44.7-99.5,99.5-99.5
	c54.9,0,99.5,44.6,99.5,99.5v24.6h56.6V156C409.95,70,339.95,0,253.95,0z"/>
<path style="fill:#41596B;" d="M464.25,226.2H43.75c-11.7,0-21.2,9.5-21.2,21.2v239.4c0,11.7,9.5,21.2,21.2,21.2h420.5
	c11.7,0,21.2-9.5,21.2-21.2V247.4C485.35,235.7,475.95,226.2,464.25,226.2z"/>
<rect x="22.55" y="317.8" style="fill:#F2705B;" width="462.8" height="98.6"/>
<g>
	<polygon style="fill:#F2F2F2;" points="86.15,317.8 37.35,416.4 22.55,416.4 22.55,318.7 22.95,317.8 	"/>
	<polygon style="fill:#F2F2F2;" points="149.25,416.4 86.15,416.4 134.85,317.8 198.05,317.8 	"/>
	<polygon style="fill:#F2F2F2;" points="261.15,416.4 198.05,416.4 246.75,317.8 309.95,317.8 	"/>
	<polygon style="fill:#F2F2F2;" points="373.05,416.4 309.95,416.4 358.75,317.8 421.85,317.8 	"/>
	<polygon style="fill:#F2F2F2;" points="485.35,317.8 485.35,415.5 484.95,416.4 421.85,416.4 470.65,317.8 	"/>
</g>
<g>
</g>
<g>
</g>
<g>
</g>
<g>
</g>
<g>
</g>
<g>
</g>
<g>
</g>
<g>
</g>
<g>
</g>
<g>
</g>
<g>
</g>
<g>
</g>
<g>
</g>
<g>
</g>
<g>
</g>
</svg>
