<?xml version="1.0" encoding="iso-8859-1"?>
<!-- Generator: Adobe Illustrator 19.0.0, SVG Export Plug-In . SVG Version: 6.00 Build 0)  -->
<svg version="1.1" id="Capa_1" xmlns="http://www.w3.org/2000/svg" xmlns:xlink="http://www.w3.org/1999/xlink" x="0px" y="0px"
	 viewBox="0 0 508.075 508.075" style="enable-background:new 0 0 508.075 508.075;" xml:space="preserve">
<rect x="324.196" y="322.92" transform="matrix(-0.7071 0.7071 -0.7071 -0.7071 839.3927 347.6514)" style="fill:#4FBFA8;" width="47" height="49.5"/>
<path style="fill:#65C5B8;" d="M340.825,58.425c-77.8-77.9-204.5-77.9-282.4,0c-77.8,77.8-77.8,204.5,0,282.4
	c77.8,77.8,204.5,77.8,282.4,0S418.625,136.225,340.825,58.425z"/>
<path style="fill:#41596B;" d="M492.925,419.725l-63-63c-20.2-20.2-52.9-20.2-73.1,0s-20.2,52.9,0,73.1l63,63
	c20.2,20.2,52.9,20.2,73.1,0C513.025,472.725,513.025,439.925,492.925,419.725z"/>
<path style="fill:#334A5E;" d="M492.925,492.925L492.925,492.925c-20.2,20.2-52.9,20.2-73.1,0l73.1-73.1
	C513.025,439.925,513.025,472.725,492.925,492.925z"/>
<path style="fill:#FFFFFF;" d="M311.025,311.025c-61.4,61.4-161.4,61.5-222.8,0c-61.4-61.4-61.4-161.4,0-222.9
	c61.4-61.4,161.4-61.4,222.8,0C372.425,149.625,372.425,249.525,311.025,311.025z"/>
<g>
	<polygon style="fill:#41596B;" points="154.025,253.925 98.825,198.725 154.025,143.525 167.825,157.325 126.425,198.725 
		167.825,240.125 	"/>
	<polygon style="fill:#41596B;" points="245.225,253.925 231.325,240.125 272.725,198.725 231.325,157.325 245.225,143.525 
		300.425,198.725 	"/>
	
		<rect x="189.823" y="134.324" transform="matrix(-0.9683 -0.2496 0.2496 -0.9683 343.1106 442.6533)" style="fill:#41596B;" width="19.599" height="130.494"/>
</g>
<g>
</g>
<g>
</g>
<g>
</g>
<g>
</g>
<g>
</g>
<g>
</g>
<g>
</g>
<g>
</g>
<g>
</g>
<g>
</g>
<g>
</g>
<g>
</g>
<g>
</g>
<g>
</g>
<g>
</g>
</svg>
