<?xml version="1.0" encoding="iso-8859-1"?>
<!-- Generator: Adobe Illustrator 19.0.0, SVG Export Plug-In . SVG Version: 6.00 Build 0)  -->
<svg version="1.1" id="Capa_1" xmlns="http://www.w3.org/2000/svg" xmlns:xlink="http://www.w3.org/1999/xlink" x="0px" y="0px"
	 viewBox="0 0 508 508" style="enable-background:new 0 0 508 508;" xml:space="preserve">
<path style="fill:#F2705B;" d="M508,445.45c0,22.1-40.5,62.5-62.6,62.5c-9.5,0-20.7-5.7-32.5-14.7c-43.8-33.5-95-112.7-95-112.7
	l62.6-62.6c0,0,79.2,51.2,112.8,95C502.2,424.65,508,435.85,508,445.45z"/>
<rect x="306.548" y="317.965" transform="matrix(-0.7071 0.7071 -0.7071 -0.7071 811.7005 336.3119)" style="fill:#CDD5DF;" width="59.299" height="36.6"/>
<circle style="fill:#F2F2F2;" cx="193.4" cy="193.45" r="193.4"/>
<path style="fill:#FFFFFF;" d="M193.4,341.75c-81.8,0-148.3-66.5-148.3-148.3s66.6-148.2,148.3-148.2s148.3,66.5,148.3,148.3
	S275.2,341.75,193.4,341.75z"/>
<path style="fill:#89D6F7;" d="M193.4,319.15c-69.3,0-125.7-56.4-125.7-125.7s56.4-125.7,125.7-125.7s125.7,56.4,125.7,125.7
	C319.1,262.75,262.7,319.15,193.4,319.15z"/>
<path style="fill:#41596B;" d="M193.4,277.95c-46.5,0-84.4-37.9-84.4-84.4s37.9-84.4,84.4-84.4s84.4,37.9,84.4,84.4
	S240,277.95,193.4,277.95z"/>
<path style="fill:#FFD05C;" d="M508,445.45c0,22.1-40.5,62.5-62.6,62.5c-9.5,0-20.7-5.7-32.5-14.7l80.4-80.4
	C502.2,424.65,508,435.85,508,445.45z"/>
<circle style="fill:#FFFFFF;" cx="255.5" cy="140.25" r="22.3"/>
<g>
</g>
<g>
</g>
<g>
</g>
<g>
</g>
<g>
</g>
<g>
</g>
<g>
</g>
<g>
</g>
<g>
</g>
<g>
</g>
<g>
</g>
<g>
</g>
<g>
</g>
<g>
</g>
<g>
</g>
</svg>
