<?xml version="1.0" encoding="iso-8859-1"?>
<!-- Generator: Adobe Illustrator 19.0.0, SVG Export Plug-In . SVG Version: 6.00 Build 0)  -->
<svg version="1.1" id="Capa_1" xmlns="http://www.w3.org/2000/svg" xmlns:xlink="http://www.w3.org/1999/xlink" x="0px" y="0px"
	 viewBox="0 0 508.022 508.022" style="enable-background:new 0 0 508.022 508.022;" xml:space="preserve">
<path style="fill:#F2F2F2;" d="M28.211,153.622c-0.7,0-1.5,0-2.1,0.1c-14.6,1.1-26.1,13.2-26.1,28.1v99.4c0,14.8,11.5,27,26.1,28.1
	c0.7,0.1,1.4,0.1,2.1,0.1h9.1v-155.8H28.211z"/>
<path style="fill:#41596B;" d="M58.611,114.222c-11.7,0-21.2,9.5-21.2,21.2v192.2c0,11.7,9.5,21.2,21.2,21.2h126.6v-234.6H58.611z"
	/>
<path style="fill:#F2F2F2;" d="M170.011,348.822v159.2h-83.6l-5.9-33.6l-2.9-16.3l-4-22.1l-2.8-16.3l-4-22.1l-2.8-16.3l-3.8-21.6
	l-2.1-12c2.4,0.7,4.9,1.1,7.5,1.1H170.011z"/>
<g>
	<path style="fill:#CDD5DF;" d="M116.411,389.522c0-4.5-3.7-8.2-8.2-8.2h-44.2l2.9,16.3h41.4
		C112.811,397.622,116.411,393.922,116.411,389.522z"/>
	<path style="fill:#CDD5DF;" d="M127.111,427.822c0-4.5-3.6-8.1-8.1-8.1h-48.2l2.8,16.3h45.3
		C123.411,436.022,127.111,432.422,127.111,427.822z"/>
	<path style="fill:#CDD5DF;" d="M129.511,458.122h-51.9l2.9,16.3h49c4.5,0,8.2-3.7,8.2-8.1
		C137.711,461.822,134.111,458.122,129.511,458.122z"/>
</g>
<path style="fill:#41596B;" d="M406.811,2.222c-9.9,5-16.1,15.1-16.1,26.2v406.1c0,11.1,6.2,21.2,16.1,26.2
	c18.6,7.8,39.1-5.9,39.1-26v-406.4C445.911,8.122,425.411-5.578,406.811,2.222z"/>
<path style="fill:#F2F2F2;" d="M390.711,437.822v-406.1c0-1.6,0.2-3.2,0.4-4.8l-206,90.5v234.6l206,90.5
	C390.811,441.022,390.711,439.522,390.711,437.822z"/>
<path style="fill:#CDD5DF;" d="M445.911,144.222v174.5c36.1-12.6,62.1-46.8,62.1-87.2S482.011,156.822,445.911,144.222z"/>
<g>
</g>
<g>
</g>
<g>
</g>
<g>
</g>
<g>
</g>
<g>
</g>
<g>
</g>
<g>
</g>
<g>
</g>
<g>
</g>
<g>
</g>
<g>
</g>
<g>
</g>
<g>
</g>
<g>
</g>
</svg>
