<?xml version="1.0" encoding="iso-8859-1"?>
<!-- Generator: Adobe Illustrator 19.0.0, SVG Export Plug-In . SVG Version: 6.00 Build 0)  -->
<svg version="1.1" id="Capa_1" xmlns="http://www.w3.org/2000/svg" xmlns:xlink="http://www.w3.org/1999/xlink" x="0px" y="0px"
	 viewBox="0 0 508 508" style="enable-background:new 0 0 508 508;" xml:space="preserve">
<g>
	<path style="fill:#CDD5DF;" d="M0,108.5v291c0,9.8,4.1,18.6,10.6,24.8L197.5,254L10.6,83.7C4.1,90,0,98.7,0,108.5z"/>
	<path style="fill:#CDD5DF;" d="M497.4,83.7L310.5,254l186.9,170.3c6.5-6.3,10.6-15.1,10.6-24.8v-291C508,98.7,503.9,90,497.4,83.7z
		"/>
</g>
<path style="fill:#ABB2B9;" d="M310.5,254l-59.7-3.6l-53.3,3.6L10.6,424.3c6.2,6,14.6,9.7,23.9,9.7h439c9.3,0,17.7-3.7,23.9-9.7
	L310.5,254z"/>
<path style="fill:#F2F2F2;" d="M473.5,74h-439c-9.3,0-17.7,3.7-23.9,9.7L197.5,254l33.7,30.7c12.9,11.8,32.7,11.8,45.6,0l33.7-30.7
	L497.4,83.7C491.2,77.7,482.8,74,473.5,74z"/>
<g>
</g>
<g>
</g>
<g>
</g>
<g>
</g>
<g>
</g>
<g>
</g>
<g>
</g>
<g>
</g>
<g>
</g>
<g>
</g>
<g>
</g>
<g>
</g>
<g>
</g>
<g>
</g>
<g>
</g>
</svg>
