<?xml version="1.0" encoding="iso-8859-1"?>
<!-- Generator: Adobe Illustrator 19.0.0, SVG Export Plug-In . SVG Version: 6.00 Build 0)  -->
<svg version="1.1" id="Capa_1" xmlns="http://www.w3.org/2000/svg" xmlns:xlink="http://www.w3.org/1999/xlink" x="0px" y="0px"
	 viewBox="0 0 508 508" style="enable-background:new 0 0 508 508;" xml:space="preserve">
<path style="fill:#FFD05C;" d="M0,168.2v316.4c0,6.2,2.7,11.8,7,15.7c3.7,3.5,8.7,5.5,14.2,5.5h465.6c5.5,0,10.5-2,14.2-5.5
	c4.4-3.9,7-9.5,7-15.7V168.2H0z"/>
<path style="fill:#F6B44B;" d="M508,168.2L265.8,5.8c-7.2-4.8-16.5-4.8-23.6,0L0,168.2l0,0l254,197.6L508,168.2L508,168.2z"/>
<polygon style="fill:#F2F2F2;" points="254,365.7 437,223.3 437,97.6 352.6,13.4 71,13.4 71,223.3 "/>
<g>
	<polygon style="fill:#CDD5DF;" points="352.6,97.6 437,97.6 352.6,13.4 	"/>
	<rect x="133.1" y="141.2" style="fill:#CDD5DF;" width="241.8" height="26.4"/>
</g>
<rect x="133.1" y="71.2" style="fill:#F2705B;" width="175.7" height="26.4"/>
<rect x="133.1" y="208.5" style="fill:#CDD5DF;" width="241.8" height="26.4"/>
<path style="fill:#F6B44B;" d="M21.2,505.8h465.6c5.5,0,10.5-2,14.2-5.5L292.1,336.2h-76.2L7,500.3L21.2,505.8z"/>
<g>
</g>
<g>
</g>
<g>
</g>
<g>
</g>
<g>
</g>
<g>
</g>
<g>
</g>
<g>
</g>
<g>
</g>
<g>
</g>
<g>
</g>
<g>
</g>
<g>
</g>
<g>
</g>
<g>
</g>
</svg>
