<?xml version="1.0" encoding="iso-8859-1"?>
<!-- Generator: Adobe Illustrator 19.0.0, SVG Export Plug-In . SVG Version: 6.00 Build 0)  -->
<svg version="1.1" id="Capa_1" xmlns="http://www.w3.org/2000/svg" xmlns:xlink="http://www.w3.org/1999/xlink" x="0px" y="0px"
	 viewBox="0 0 508 508" style="enable-background:new 0 0 508 508;" xml:space="preserve">
<rect x="231.4" y="417" style="fill:#334A5E;" width="45.2" height="11.3"/>
<path style="fill:#65C5B8;" d="M254,0c-58.5,0-106,47.5-106,106v158.2c0,58.5,47.5,106,106,106s106-47.5,106-106V106
	C360,47.5,312.5,0,254,0z"/>
<path style="fill:#F2705B;" d="M254,432.3c-92.7,0-168.1-75.4-168.1-168.1v-45.3h33.9v45.3c0,74,60.2,134.2,134.2,134.2
	s134.2-60.2,134.2-134.2v-45.3h33.9v45.3C422.1,356.9,346.7,432.3,254,432.3z"/>
<path style="fill:#41596B;" d="M331.8,456h-55.2v-25.3c-7.4,1-14.9,1.6-22.6,1.6c-7.7,0-15.2-0.6-22.6-1.6V456h-55.1
	c-15.6,0-28.2,12.6-28.2,28.2V508H360v-23.8C360,468.7,347.4,456,331.8,456z"/>
<g>
	<circle style="fill:#F2F2F2;" cx="195" cy="164.3" r="11.4"/>
	<circle style="fill:#F2F2F2;" cx="234.4" cy="164.3" r="11.4"/>
	<circle style="fill:#F2F2F2;" cx="273.7" cy="164.3" r="11.4"/>
	<circle style="fill:#F2F2F2;" cx="313" cy="164.3" r="11.4"/>
	<circle style="fill:#F2F2F2;" cx="214.7" cy="122.6" r="11.4"/>
	<circle style="fill:#F2F2F2;" cx="254" cy="122.6" r="11.4"/>
	<circle style="fill:#F2F2F2;" cx="293.3" cy="122.6" r="11.4"/>
	<circle style="fill:#F2F2F2;" cx="195" cy="80.9" r="11.4"/>
	<circle style="fill:#F2F2F2;" cx="234.4" cy="80.9" r="11.4"/>
	<circle style="fill:#F2F2F2;" cx="273.7" cy="80.9" r="11.4"/>
	<circle style="fill:#F2F2F2;" cx="313" cy="80.9" r="11.4"/>
	<circle style="fill:#F2F2F2;" cx="214.7" cy="39.2" r="11.4"/>
	<circle style="fill:#F2F2F2;" cx="254" cy="39.2" r="11.4"/>
	<circle style="fill:#F2F2F2;" cx="293.3" cy="39.2" r="11.4"/>
</g>
<g>
</g>
<g>
</g>
<g>
</g>
<g>
</g>
<g>
</g>
<g>
</g>
<g>
</g>
<g>
</g>
<g>
</g>
<g>
</g>
<g>
</g>
<g>
</g>
<g>
</g>
<g>
</g>
<g>
</g>
</svg>
