<?xml version="1.0" encoding="iso-8859-1"?>
<!-- Generator: Adobe Illustrator 19.0.0, SVG Export Plug-In . SVG Version: 6.00 Build 0)  -->
<svg version="1.1" id="Capa_1" xmlns="http://www.w3.org/2000/svg" xmlns:xlink="http://www.w3.org/1999/xlink" x="0px" y="0px"
	 viewBox="0 0 508 508" style="enable-background:new 0 0 508 508;" xml:space="preserve">
<path style="fill:#F2705B;" d="M376.8,160.5v45.2h22.6v160.5c0,3.1-2.5,5.6-5.6,5.6H114.3c-3.1,0-5.6-2.5-5.6-5.6V205.7h22.6v-45.2
	H63.5v205.6c0,28,22.8,50.8,50.8,50.8h279.4c28,0,50.8-22.8,50.8-50.8V160.5H376.8z"/>
<path style="fill:#41596B;" d="M331.8,456h-55.2v-39h-45.2v39h-55.1c-15.6,0-28.2,12.6-28.2,28.2V508H360v-23.8
	C360,468.7,347.4,456,331.8,456z"/>
<rect x="231.4" y="417" style="fill:#334A5E;" width="45.2" height="11.3"/>
<path style="fill:#F2F2F2;" d="M342.9,0H152.4c-11.7,0-21.2,9.5-21.2,21.2v161.9h245.5V33.9C376.8,15.2,361.6,0,342.9,0z"/>
<path style="fill:#CDD5DF;" d="M131.2,183.1V328c0,11.7,9.5,21.2,21.2,21.2h203.2c11.7,0,21.2-9.5,21.2-21.2V183.1H131.2z"/>
<g>
	<circle style="fill:#65C5B8;" cx="178.1" cy="132" r="21.4"/>
	<circle style="fill:#65C5B8;" cx="254" cy="132" r="21.4"/>
	<circle style="fill:#65C5B8;" cx="329.9" cy="132" r="21.4"/>
	<circle style="fill:#65C5B8;" cx="216.1" cy="51.1" r="21.4"/>
	<circle style="fill:#65C5B8;" cx="291.9" cy="51.1" r="21.4"/>
</g>
<g>
</g>
<g>
</g>
<g>
</g>
<g>
</g>
<g>
</g>
<g>
</g>
<g>
</g>
<g>
</g>
<g>
</g>
<g>
</g>
<g>
</g>
<g>
</g>
<g>
</g>
<g>
</g>
<g>
</g>
</svg>
