<?xml version="1.0" encoding="iso-8859-1"?>
<!-- Generator: Adobe Illustrator 19.0.0, SVG Export Plug-In . SVG Version: 6.00 Build 0)  -->
<svg version="1.1" id="Capa_1" xmlns="http://www.w3.org/2000/svg" xmlns:xlink="http://www.w3.org/1999/xlink" x="0px" y="0px"
	 viewBox="0 0 508 508" style="enable-background:new 0 0 508 508;" xml:space="preserve">
<path style="fill:#41596B;" d="M413.398,201.5c-10.9,0-19.8,8.8-19.8,19.8v46.2c0,76.9-62.6,139.5-139.5,139.5
	s-139.5-62.6-139.5-139.5v-46.2c0-10.9-8.8-19.8-19.8-19.8c-10.9,0-19.8,8.8-19.8,19.8v46.2c0,98.7,80.3,179,179,179
	s179-80.3,179-179v-46.2C433.198,210.4,424.298,201.5,413.398,201.5z"/>
<path style="fill:#F2705B;" d="M304.498,467.1h-27v-22.2c-7.6,1-15.4,1.6-23.3,1.6c-7.9,0-15.6-0.6-23.3-1.6v22.2h-27
	c-22.6,0-40.9,18.3-40.9,40.9h182.5C345.498,485.4,327.098,467.1,304.498,467.1z"/>
<path style="fill:#89D6F7;" d="M333.198,133h35.1v-18.1h-35.1c-6,0-10.9-4.9-10.9-10.9s4.9-10.9,10.9-10.9h33.1
	c-9.9-53-56.3-93.1-112.1-93.1l0,0c-55.8,0-102.2,40.1-112.1,93.1h33.1c6,0,10.9,4.9,10.9,10.9s-4.9,10.9-10.9,10.9h-35.1V133h35.1
	c6,0,10.9,4.9,10.9,10.9s-4.9,10.9-10.9,10.9h-35.1v18.1h35.1c6,0,10.9,4.9,10.9,10.9s-4.9,10.9-10.9,10.9h-35.1v72.9
	c0,63,51.1,114.1,114.1,114.1l0,0c63,0,114.1-51.1,114.1-114.1v-72.9h-35.1c-6,0-10.9-4.9-10.9-10.9s4.9-10.9,10.9-10.9h35.1v-18.1
	h-35.1c-6,0-10.9-4.9-10.9-10.9C322.298,137.8,327.198,133,333.198,133z"/>
<path style="fill:#F05540;" d="M277.498,444.8v11.3c-7.6,1-15.4,1.5-23.3,1.5c-7.9,0-15.6-0.5-23.3-1.5v-11.3
	c7.6,1,15.4,1.6,23.3,1.6S269.898,445.9,277.498,444.8z"/>
<g>
</g>
<g>
</g>
<g>
</g>
<g>
</g>
<g>
</g>
<g>
</g>
<g>
</g>
<g>
</g>
<g>
</g>
<g>
</g>
<g>
</g>
<g>
</g>
<g>
</g>
<g>
</g>
<g>
</g>
</svg>
