<?xml version="1.0" encoding="iso-8859-1"?>
<!-- Generator: Adobe Illustrator 19.0.0, SVG Export Plug-In . SVG Version: 6.00 Build 0)  -->
<svg version="1.1" id="Capa_1" xmlns="http://www.w3.org/2000/svg" xmlns:xlink="http://www.w3.org/1999/xlink" x="0px" y="0px"
	 viewBox="0 0 508.1 508.1" style="enable-background:new 0 0 508.1 508.1;" xml:space="preserve">
<path style="fill:#41596B;" d="M400.65,0h-293.2c-11.7,0-21.2,9.5-21.2,21.2v465.7c0,11.7,9.5,21.2,21.2,21.2h293.2
	c11.7,0,21.2-9.5,21.2-21.2V21.2C421.75,9.5,412.35,0,400.65,0z"/>
<rect x="120.15" y="72" style="fill:#FFD05C;" width="267.8" height="341"/>
<polygon style="fill:#F2705B;" points="135.25,144.1 55.95,144.1 120.25,72 173.75,72 "/>
<polygon style="fill:#F2F2F2;" points="214.45,144.1 135.25,144.1 173.75,72 227.25,72 "/>
<polygon style="fill:#F2705B;" points="293.65,144.1 214.45,144.1 227.25,72 280.85,72 "/>
<polygon style="fill:#F2F2F2;" points="372.85,144.1 293.65,144.1 280.85,72 334.35,72 "/>
<polygon style="fill:#F2705B;" points="452.15,144.1 372.85,144.1 334.35,72 387.85,72 "/>
<g>
	<path style="fill:#CDD5DF;" d="M135.25,177.2c0,21.9,17.7,39.6,39.6,39.6s39.6-17.7,39.6-39.6V144h-79.2V177.2z"/>
	<path style="fill:#CDD5DF;" d="M293.65,144.1v33.2c0,21.9,17.7,39.6,39.6,39.6s39.6-17.7,39.6-39.6v-33.2L293.65,144.1
		L293.65,144.1z"/>
</g>
<g>
	<path style="fill:#F05540;" d="M55.95,177.2c0,21.9,17.7,39.6,39.6,39.6s39.6-17.7,39.6-39.6V144h-79.2V177.2z"/>
	<path style="fill:#F05540;" d="M214.45,177.2c0,21.9,17.7,39.6,39.6,39.6s39.6-17.7,39.6-39.6V144h-79.2L214.45,177.2L214.45,177.2
		z"/>
	<path style="fill:#F05540;" d="M372.85,144.1v33.2c0,21.9,17.7,39.6,39.6,39.6s39.6-17.7,39.6-39.6v-33.2L372.85,144.1
		L372.85,144.1z"/>
</g>
<g>
	<path style="fill:#F2F2F2;" d="M309.85,29.9h-75.6c-3.4,0-6.1,2.7-6.1,6.1s2.7,6.1,6.1,6.1h75.6c3.4,0,6.1-2.7,6.1-6.1
		C315.95,32.6,313.15,29.9,309.85,29.9z"/>
	<path style="fill:#F2F2F2;" d="M209.45,29.9h-11.2c-3.4,0-6.1,2.7-6.1,6.1l0,0c0,3.4,2.7,6.1,6.1,6.1h11.2c3.4,0,6.1-2.7,6.1-6.1
		l0,0C215.55,32.6,212.85,29.9,209.45,29.9z"/>
	<circle style="fill:#F2F2F2;" cx="254.05" cy="460.5" r="28.9"/>
	<path style="fill:#F2F2F2;" d="M191.25,452.1h-45.8c-4.6,0-8.3,3.7-8.3,8.3c0,4.6,3.7,8.3,8.3,8.3h45.8c4.6,0,8.3-3.7,8.3-8.3
		C199.55,455.9,195.85,452.1,191.25,452.1z"/>
	<path style="fill:#F2F2F2;" d="M362.65,452.1h-45.8c-4.6,0-8.3,3.7-8.3,8.3c0,4.6,3.7,8.3,8.3,8.3h45.8c4.6,0,8.3-3.7,8.3-8.3
		C370.95,455.9,367.25,452.1,362.65,452.1z"/>
</g>
<g>
	<path style="fill:#F2705B;" d="M308.65,280.4h-82.7l-5.9-29.1h-27.5v13.8h16.2l16.5,80.9c0.7,3.2,3.5,5.5,6.8,5.5h64.6
		c3.3,0,6.1-2.3,6.8-5.5l12-57.4C316.35,284.4,313.05,280.4,308.65,280.4z M298.55,307.1h-15V293h18L298.55,307.1z M258.75,307.1
		V293h10.1v14.1H258.75z M268.85,321.7v17.2h-10.1v-17.2H268.85z M244.15,293v14.1h-15.1l-2.9-14.1H244.15z M232.05,321.7h12.1v17.2
		h-8.6L232.05,321.7z M283.45,338.9v-17.2h12l-3.6,17.2H283.45z"/>
	<circle style="fill:#F2705B;" cx="241.95" cy="368.8" r="12.9"/>
	<circle style="fill:#F2705B;" cx="285.75" cy="368.8" r="12.9"/>
</g>
<g>
</g>
<g>
</g>
<g>
</g>
<g>
</g>
<g>
</g>
<g>
</g>
<g>
</g>
<g>
</g>
<g>
</g>
<g>
</g>
<g>
</g>
<g>
</g>
<g>
</g>
<g>
</g>
<g>
</g>
</svg>
