<?xml version="1.0" encoding="iso-8859-1"?>
<!-- Generator: Adobe Illustrator 19.0.0, SVG Export Plug-In . SVG Version: 6.00 Build 0)  -->
<svg version="1.1" id="Capa_1" xmlns="http://www.w3.org/2000/svg" xmlns:xlink="http://www.w3.org/1999/xlink" x="0px" y="0px"
	 viewBox="0 0 508 508" style="enable-background:new 0 0 508 508;" xml:space="preserve">
<path style="fill:#41596B;" d="M338.6,21.85v464.3c0,11.7-9.5,21.2-21.2,21.2H21.2c-11.7,0-21.2-9.5-21.2-21.2V21.85
	c0-11.7,9.5-21.2,21.2-21.2h296.3C329.2,0.65,338.6,10.15,338.6,21.85z"/>
<rect x="52.9" y="51.05" style="fill:#F2F2F2;" width="232.8" height="365.3"/>
<g>
	<path style="fill:#334A5E;" d="M199.5,32.25h-60.4c-3.5,0-6.3-2.8-6.3-6.3l0,0c0-3.5,2.8-6.3,6.3-6.3h60.4c3.5,0,6.3,2.8,6.3,6.3
		l0,0C205.8,29.35,203,32.25,199.5,32.25z"/>
	<circle style="fill:#334A5E;" cx="169.3" cy="461.85" r="29.4"/>
</g>
<path style="fill:#FFD05C;" d="M486,76.45H226c-12.1,0-21.9,9.8-21.9,22v158.3c0,12.1,9.8,21.9,21.9,21.9h27.5l-5,21.3l-9.1,38.4
	l61.7-38.4l34.2-21.3H486c12.1,0,22-9.8,22-21.9V98.45C508,86.25,498.2,76.45,486,76.45z"/>
<g>
	<path style="fill:#F05540;" d="M431.8,125.95h-125l-5.1-19.4H267v9.9h27l25.5,97.7h91.9v-9.9h-84.2l-2.6-9.8h90.9L431.8,125.95z
		 M332.9,184.65h-10.8l-5.1-19.4h15.9V184.65z M332.9,155.35h-18.5l-5.1-19.4h23.6V155.35z M359.2,184.65h-16.4v-19.4h16.4V184.65z
		 M359.2,155.35h-16.4v-19.4h16.4V155.35z M385.5,184.65h-16.4v-19.4h16.4V184.65z M385.5,155.35h-16.4v-19.4h16.4V155.35z
		 M407.7,184.65h-12.3v-19.4h16.9L407.7,184.65z M395.5,155.35v-19.4h23.8l-4.6,19.4H395.5z"/>
	<path style="fill:#F05540;" d="M333.4,218.55c-8.2,0-15,6.7-15,15c0,8.2,6.7,15,15,15c8.2,0,15-6.7,15-15
		S341.7,218.55,333.4,218.55z"/>
	<path style="fill:#F05540;" d="M395.3,218.55c-8.2,0-15,6.7-15,15c0,8.2,6.7,15,15,15s15-6.7,15-15
		C410.2,225.25,403.5,218.55,395.3,218.55z"/>
</g>
<g>
</g>
<g>
</g>
<g>
</g>
<g>
</g>
<g>
</g>
<g>
</g>
<g>
</g>
<g>
</g>
<g>
</g>
<g>
</g>
<g>
</g>
<g>
</g>
<g>
</g>
<g>
</g>
<g>
</g>
</svg>
