<?xml version="1.0" encoding="iso-8859-1"?>
<!-- Generator: Adobe Illustrator 19.0.0, SVG Export Plug-In . SVG Version: 6.00 Build 0)  -->
<svg version="1.1" id="Capa_1" xmlns="http://www.w3.org/2000/svg" xmlns:xlink="http://www.w3.org/1999/xlink" x="0px" y="0px"
	 viewBox="0 0 508 508" style="enable-background:new 0 0 508 508;" xml:space="preserve">
<path style="fill:#65C5B8;" d="M479.8,13.45H28.2C12.6,13.45,0,26.15,0,41.75v109.2h508V41.75C508,26.15,495.4,13.45,479.8,13.45z"
	/>
<path style="opacity:0.75;fill:#4FBFA8;enable-background:new    ;" d="M479.8,2.15H28.2C12.6,2.15,0,14.85,0,30.45v11.3
	c0-15.6,12.6-28.2,28.2-28.2h451.6c15.6,0,28.2,12.6,28.2,28.2v-11.3C508,14.85,495.4,2.15,479.8,2.15z"/>
<path style="fill:#F6F7F7;" d="M465.4,150.85v-49c-24.9,0-45.2-20.2-45.2-45.2H81.6c0,24.9-20.2,45.2-45.2,45.2v49H465.4z"/>
<path style="fill:#12934F;" d="M150.7,150.85c-1.6-7.1-7.9-12.4-15.4-12.4c-7.6,0-13.9,5.3-15.4,12.4H150.7z"/>
<path style="fill:#65C5B8;" d="M312.2,150.85c-1.4-41.3-28.3-74.3-61.3-74.3c-32.7,0-59.4,32.2-61.4,73c0,0.4,0,0.9,0,1.3H312.2z"/>
<path style="fill:#FFFFFF;" d="M231.9,150.85h42.5c-4.1-3.4-10.2-6.2-18.7-8.5v-25.5c4.2,1.8,6.8,5.3,7.8,10.4l16.5-2.2
	c-1.1-6.5-3.7-11.7-7.8-15.6c-4.1-3.9-9.6-6.2-16.5-7.1v-6.5h-9.5v6.5c-7.5,0.7-13.5,3.5-18,8.4c-4.5,4.8-6.7,10.8-6.7,18
	c0,7,2,13,6,18C228.8,148.25,230.3,149.65,231.9,150.85z M240.2,121.15c1.5-2.1,3.6-3.6,6.1-4.4v22.6c-2.8-1.2-4.9-2.8-6.3-4.8
	c-1.4-2-2.1-4.1-2.1-6.4C238,125.45,238.7,123.15,240.2,121.15z"/>
<path style="fill:#65C5B8;" d="M479.8,122.55H28.2c-15.6,0-28.2,12.6-28.2,28.2v125.7h508v-125.7
	C508,135.15,495.4,122.55,479.8,122.55z"/>
<path style="fill:#4FBFA8;" d="M479.8,111.25H28.2c-15.6,0-28.2,12.7-28.2,28.2v11.3c0-15.6,12.6-28.2,28.2-28.2h451.6
	c15.6,0,28.2,12.6,28.2,28.2v-11.3C508,123.95,495.4,111.25,479.8,111.25z"/>
<path style="fill:#F6F7F7;" d="M465.4,276.45v-65.5c-24.9,0-45.2-20.2-45.2-45.2H81.6c0,24.9-20.2,45.2-45.2,45.2v65.5H465.4z"/>
<path style="fill:#65C5B8;" d="M311.4,276.45c0.6-4.3,0.9-8.6,0.9-13.1c0-43-27.5-77.7-61.4-77.7c-32.7,0-59.4,32.2-61.4,73
	c-0.1,1.6-0.1,3.2-0.1,4.7c0,4.5,0.3,8.8,0.9,13.1H311.4z"/>
<path style="fill:#FFFFFF;" d="M246.4,266.95v9.6h9.5v-6.8c3.9,1.1,6.7,2.7,8.4,4.9c0.5,0.6,0.9,1.3,1.2,1.9h17.1
	c-0.5-5.6-2.3-10.3-5.4-14.1c-3.8-4.5-10.9-8.2-21.3-11v-25.5c4.2,1.8,6.8,5.3,7.8,10.4l16.5-2.2c-1.1-6.5-3.7-11.7-7.8-15.6
	c-4.1-3.9-9.6-6.2-16.5-7.1v-6.4h-9.5v6.5c-7.5,0.7-13.5,3.5-18,8.4c-4.5,4.8-6.7,10.8-6.7,18c0,7,2,13,6,18
	C231.6,260.75,237.9,264.45,246.4,266.95z M240.2,230.15c1.5-2.1,3.6-3.6,6.1-4.4v22.6c-2.8-1.2-4.9-2.8-6.3-4.8
	c-1.4-2-2.1-4.1-2.1-6.4C238,234.55,238.7,232.25,240.2,230.15z"/>
<path style="fill:#65C5B8;" d="M479.8,231.65H28.2c-15.6,0-28.2,12.6-28.2,28.2v217.8c0,15.6,12.6,28.2,28.2,28.2h451.6
	c15.6,0,28.2-12.6,28.2-28.2v-217.8C508,244.25,495.4,231.65,479.8,231.65z"/>
<path style="fill:#4FBFA8;" d="M479.8,220.35H28.2c-15.6,0-28.2,12.6-28.2,28.2v11.3c0-15.6,12.6-28.2,28.2-28.2h451.6
	c15.6,0,28.2,12.6,28.2,28.2v-11.3C508,232.95,495.4,220.35,479.8,220.35z"/>
<path style="fill:#F6F7F7;" d="M36.5,462.15v-179.3c4.4,0,8-3.6,8-8h413c0,4.4,3.6,8,8,8v179.2c-4.4,0-8,3.6-8,8h-413
	C44.5,465.65,40.9,462.15,36.5,462.15z"/>
<circle style="fill:#12934F;" cx="135.3" cy="372.45" r="15.8"/>
<g>
	<circle style="fill:#4FBFA8;" cx="135.3" cy="372.45" r="15.8"/>
	<circle style="fill:#4FBFA8;" cx="366.6" cy="372.45" r="15.8"/>
</g>
<path style="fill:#65C5B8;" d="M312.4,372.45c0,43-27.5,77.8-61.4,77.8c-4.5,0-8.9-0.6-13.2-1.8c-27.6-7.6-48.3-38.7-48.3-76
	c0-1.6,0.1-3.2,0.1-4.7c1.9-40.8,28.7-73,61.4-73C284.9,294.75,312.4,329.55,312.4,372.45z"/>
<path style="fill:#FFFFFF;" d="M246.4,403.35v-27.3c-8.5-2.4-14.8-6.1-18.7-11.1c-4-4.9-6-10.9-6-18s2.2-13.1,6.7-18
	c4.5-4.8,10.5-7.6,18-8.4v-6.5h9.5v6.5c6.9,0.8,12.4,3.2,16.5,7.1s6.7,9.1,7.8,15.6l-16.5,2.2c-1-5.1-3.6-8.6-7.8-10.4v25.5
	c10.4,2.8,17.5,6.5,21.3,11s5.7,10.3,5.7,17.3c0,7.9-2.4,14.5-7.1,19.9c-4.8,5.4-11.4,8.7-19.9,9.9v12.2h-9.5v-11.9
	c-7.5-0.9-13.6-3.7-18.3-8.4c-4.7-4.7-7.7-11.3-9-19.9l17-1.8c0.7,3.5,2,6.5,3.9,9C241.9,400.35,244,402.15,246.4,403.35z
	 M246.4,334.85c-2.6,0.9-4.6,2.3-6.1,4.4s-2.3,4.4-2.3,6.9c0,2.3,0.7,4.4,2.1,6.4c1.4,2,3.5,3.6,6.3,4.8V334.85z M255.8,404.25
	c3.3-0.6,5.9-2.1,8-4.5c2-2.4,3.1-5.3,3.1-8.5c0-2.9-0.9-5.4-2.6-7.5s-4.5-3.7-8.4-4.9v25.4H255.8z"/>
<g>
</g>
<g>
</g>
<g>
</g>
<g>
</g>
<g>
</g>
<g>
</g>
<g>
</g>
<g>
</g>
<g>
</g>
<g>
</g>
<g>
</g>
<g>
</g>
<g>
</g>
<g>
</g>
<g>
</g>
</svg>
