<?xml version="1.0" encoding="iso-8859-1"?>
<!-- Generator: Adobe Illustrator 19.0.0, SVG Export Plug-In . SVG Version: 6.00 Build 0)  -->
<svg version="1.1" id="Capa_1" xmlns="http://www.w3.org/2000/svg" xmlns:xlink="http://www.w3.org/1999/xlink" x="0px" y="0px"
	 viewBox="0 0 508 508" style="enable-background:new 0 0 508 508;" xml:space="preserve">
<path style="fill:#CDD5DF;" d="M377.1,65.2h-63.6c-56.7,0-104.9,36-123.1,86.4c38.7,41.5,93.8,67.5,154.9,67.5s116.2-26,154.9-67.5
	C482,101.2,433.7,65.2,377.1,65.2z"/>
<path style="fill:#65C5B8;" d="M506.6,177.2c-42.1,39.9-98.9,64.4-161.3,64.4S226.1,217.1,184,177.2c-1,6.2-1.4,12.5-1.4,18.9v180.6
	c0,72.3,58.6,130.9,130.9,130.9h63.6c72.2,0,130.9-58.6,130.9-130.9V196C508,189.7,507.5,183.3,506.6,177.2z"/>
<rect x="334" y="65.2" style="fill:#F2F2F2;" width="22.6" height="165.1"/>
<path style="fill:#41596B;" d="M291.9,0.4H184.7c-35.7,0-64.8,29-64.8,64.8v129c0,23.3-18.9,42.2-42.2,42.2H0V259h77.8
	c35.7,0,64.8-29,64.8-64.8v-129c0-23.3,18.9-42.2,42.2-42.2H292c23.3,0,42.2,18.9,42.2,42.2h22.6C356.6,29.5,327.6,0.4,291.9,0.4z"
	/>
<path style="fill:#F2F2F2;" d="M506.6,177.2c-1.2-8.9-3.4-17.4-6.4-25.6c-38.7,41.5-93.8,67.5-154.9,67.5s-116.2-26-154.9-67.5
	c-3,8.2-5.1,16.8-6.4,25.6c42.1,39.9,98.9,64.4,161.3,64.4S464.5,217.1,506.6,177.2z"/>
<path style="fill:#41596B;" d="M345.4,104.6h-0.1c-12.1,0-22.1,9.9-22.1,22.1v42.2c0,12.1,9.9,22.1,22.1,22.1h0.1
	c12.1,0,22.1-9.9,22.1-22.1v-42.2C367.4,114.5,357.5,104.6,345.4,104.6z"/>
<g>
</g>
<g>
</g>
<g>
</g>
<g>
</g>
<g>
</g>
<g>
</g>
<g>
</g>
<g>
</g>
<g>
</g>
<g>
</g>
<g>
</g>
<g>
</g>
<g>
</g>
<g>
</g>
<g>
</g>
</svg>
