<?xml version="1.0" encoding="iso-8859-1"?>
<!-- Generator: Adobe Illustrator 19.0.0, SVG Export Plug-In . SVG Version: 6.00 Build 0)  -->
<svg version="1.1" id="Capa_1" xmlns="http://www.w3.org/2000/svg" xmlns:xlink="http://www.w3.org/1999/xlink" x="0px" y="0px"
	 viewBox="0 0 508.018 508.018" style="enable-background:new 0 0 508.018 508.018;" xml:space="preserve">
<path style="fill:#CDD5DF;" d="M414.759,459.818h-399.5c-8,0-14.4,6.5-14.4,14.4c0,8,6.5,14.4,14.4,14.4h399.5
	c8,0,14.4-6.5,14.4-14.4C429.159,466.318,422.659,459.818,414.759,459.818z"/>
<polygon style="fill:#ABB2B9;" points="372.559,508.018 57.459,508.018 25.159,488.718 404.859,488.718 "/>
<path style="fill:#F2F2F2;" d="M15.859,110.918v196.2c0,61.9,28.9,117,73.8,152.8h242.7c44.9-35.7,73.8-90.9,73.8-152.8v-196.2
	H15.859z"/>
<path style="fill:#CDD5DF;" d="M410.159,137.118v39.2c32.4,3.1,57.7,30.4,57.7,63.6s-25.4,60.5-57.7,63.6v3.5
	c0,12.2-1.2,24.2-3.3,35.8c55.5-1.5,100.3-47.1,100.3-103C507.059,185.118,464.159,140.318,410.159,137.118z"/>
<g>
	<path style="fill:#41596B;" d="M126.159,97.218c-2.9,0-5.8-1.1-8-3.3c-10-10-12-20.1-11.9-26.8c0.3-15.2,10.9-25.6,12.1-26.8
		c3.3-3.3,5-6.7,5-10c0-4.9-3.7-9.5-5.1-10.9c-4.4-4.3-4.6-11.5-0.3-15.9c4.4-4.5,11.4-4.7,16-0.5c1.2,1.1,11.9,11.6,12.1,26.8
		c0.1,6.7-1.9,16.8-11.9,26.8c-1.6,1.5-5.2,6.2-5.3,11c0,3.4,1.7,6.7,5.3,10.3c4.4,4.4,4.4,11.6,0,16
		C131.959,96.118,129.059,97.218,126.159,97.218z"/>
	<path style="fill:#41596B;" d="M214.959,97.218c-2.9,0-5.8-1.1-8-3.3c-10-10-12-20.1-11.9-26.8c0.3-15.2,10.9-25.6,12.1-26.8
		c3.3-3.3,5-6.7,5-10c0-4.9-3.7-9.5-5.1-10.9c-4.4-4.3-4.6-11.5-0.3-15.9c4.3-4.5,11.3-4.7,15.8-0.5c1.2,1.1,11.9,11.6,12.1,26.8
		c0.1,6.7-1.9,16.8-11.9,26.8c-1.6,1.5-5.2,6.2-5.3,11c0,3.4,1.7,6.7,5.3,10.3c4.4,4.4,4.4,11.6,0,16
		C220.759,96.118,217.859,97.218,214.959,97.218z"/>
	<path style="fill:#41596B;" d="M303.759,97.218c-2.9,0-5.8-1.1-8-3.3c-10-10-12-20.1-11.9-26.8c0.3-15.2,10.9-25.6,12.1-26.8
		c3.3-3.3,5-6.7,5-10c0-4.9-3.7-9.5-5.1-10.9c-4.4-4.3-4.6-11.5-0.3-15.9c4.4-4.5,11.4-4.7,15.9-0.5c1.2,1.1,11.9,11.6,12.1,26.8
		c0.1,6.7-1.9,16.8-11.9,26.8c-1.6,1.5-5.2,6.2-5.3,11c0,3.4,1.7,6.7,5.3,10.3c4.4,4.4,4.4,11.6,0,16
		C309.559,96.118,306.659,97.218,303.759,97.218z"/>
</g>
<g>
</g>
<g>
</g>
<g>
</g>
<g>
</g>
<g>
</g>
<g>
</g>
<g>
</g>
<g>
</g>
<g>
</g>
<g>
</g>
<g>
</g>
<g>
</g>
<g>
</g>
<g>
</g>
<g>
</g>
</svg>
