<?xml version="1.0" encoding="iso-8859-1"?>
<!-- Generator: Adobe Illustrator 19.0.0, SVG Export Plug-In . SVG Version: 6.00 Build 0)  -->
<svg version="1.1" id="Capa_1" xmlns="http://www.w3.org/2000/svg" xmlns:xlink="http://www.w3.org/1999/xlink" x="0px" y="0px"
	 viewBox="0 0 508 508" style="enable-background:new 0 0 508 508;" xml:space="preserve">
<path style="fill:#F2F2F2;" d="M508,113.5v261.8L375.2,508h-354C9.5,508,0,498.5,0,486.8V113.5H508z"/>
<path style="fill:#F2705B;" d="M486.8,0h-453C15.2,0,0,15.2,0,33.9v79.6h508V21.2C508,9.5,498.5,0,486.8,0z"/>
<polygon style="fill:#CDD5DF;" points="116,188.8 116,266.1 508,266.1 508,272.1 116,272.1 116,349.4 508,349.4 508,355.4 
	116,355.4 116,432.7 419,432.7 413.1,438.7 116,438.7 116,508 110.1,508 110.1,438.7 0,438.7 0,432.7 110.1,432.7 110.1,355.4 
	0,355.4 0,349.4 110.1,349.4 110.1,272.1 0,272.1 0,266.1 110.1,266.1 110.1,188.8 0,188.8 0,182.8 110.1,182.8 110.1,113.5 
	116,113.5 116,182.8 508,182.8 508,188.8 "/>
<path style="fill:#ABB2B9;" d="M508,375.3H396.4c-11.7,0-21.2,9.5-21.2,21.2V508L508,375.3z"/>
<g>
</g>
<g>
</g>
<g>
</g>
<g>
</g>
<g>
</g>
<g>
</g>
<g>
</g>
<g>
</g>
<g>
</g>
<g>
</g>
<g>
</g>
<g>
</g>
<g>
</g>
<g>
</g>
<g>
</g>
</svg>
