<?xml version="1.0" encoding="iso-8859-1"?>
<!-- Generator: Adobe Illustrator 19.0.0, SVG Export Plug-In . SVG Version: 6.00 Build 0)  -->
<svg version="1.1" id="Capa_1" xmlns="http://www.w3.org/2000/svg" xmlns:xlink="http://www.w3.org/1999/xlink" x="0px" y="0px"
	 viewBox="0 0 508 508" style="enable-background:new 0 0 508 508;" xml:space="preserve">
<g>
	<path style="fill:#F2F2F2;" d="M396.613,0h-374.4c-11.7,0-21.2,9.5-21.2,21.2v465.6c0,11.7,9.5,21.2,21.2,21.2h381.5
		c11.7,0,21.2-9.5,21.2-21.2V28.2C424.913,12.7,412.213,0,396.613,0z"/>
	<path style="fill:#F2F2F2;" d="M424.813,95.3V28.2c0-15.6-12.6-28.2-28.2-28.2h-374.4c-11.7,0-21.2,9.5-21.2,21.2v74.1H424.813z"/>
</g>
<polygon style="fill:#ABB2B9;" points="120.613,146.7 120.613,195.9 424.913,195.9 424.913,198.8 120.613,198.8 120.613,248.1 
	424.913,248.1 424.913,250.9 120.613,250.9 120.613,300.2 424.913,300.2 424.913,303.1 120.613,303.1 120.613,352.3 424.913,352.3 
	424.913,355.2 120.613,355.2 120.613,404.5 424.913,404.5 424.913,407.3 120.613,407.3 120.613,456.6 424.913,456.6 424.913,459.5 
	120.613,459.5 120.613,508 117.813,508 117.813,459.5 1.013,459.5 1.013,456.6 117.813,456.6 117.813,407.3 1.013,407.3 
	1.013,404.5 117.813,404.5 117.813,355.2 1.013,355.2 1.013,352.3 117.813,352.3 117.813,303.1 1.013,303.1 1.013,300.2 
	117.813,300.2 117.813,250.9 1.013,250.9 1.013,248.1 117.813,248.1 117.813,198.8 1.013,198.8 1.013,195.9 117.813,195.9 
	117.813,146.7 1.013,146.7 1.013,143.8 117.813,143.8 117.813,95.3 120.613,95.3 120.613,143.8 424.913,143.8 424.913,146.7 "/>
<g>
	<rect x="1.013" y="92.5" style="fill:#F2705B;" width="423.8" height="2.8"/>
	<rect x="1.013" y="84.7" style="fill:#F2705B;" width="423.8" height="2.8"/>
</g>
<path style="fill:#F05540;" d="M487.013,124.1l-30.5-30.5l16-16c5.3-5.3,13.9-5.3,19.2,0l11.3,11.2c5.3,5.3,5.3,13.9,0,19.2
	L487.013,124.1z"/>
<polygon style="fill:#55BFE9;" points="477.413,133.6 447.013,103.2 456.513,93.6 487.013,124.1 "/>
<polygon style="fill:#334A5E;" points="170.513,423.7 150.813,430 156.913,410.2 "/>
<path style="fill:#FFD05C;" d="M195.113,416l-28.3,8.9l-16.2,5.1l5.1-16.2l8.8-28.2l0.3-0.3c2.9-0.7,5.8-0.1,7.8,1.9
	c2.2,2.2,2.7,5.5,1.7,8.6c3.1-1,6.4-0.5,8.6,1.7s2.7,5.5,1.7,8.6c3.1-1,6.4-0.5,8.6,1.7C195.313,410,195.913,413.1,195.113,416z"/>
<g>
	<path style="fill:#89D6F7;" d="M172.613,387.3c2.2,2.2,2.7,5.5,1.7,8.6c3.1-1,6.4-0.5,8.6,1.7c2.2,2.2,2.7,5.5,1.7,8.6
		c3.1-1,6.4-0.5,8.6,1.7c2.1,2.1,2.7,5.1,1.9,8.1l282.3-282.4l-30.4-30.4l-282.1,282.1C167.713,384.7,170.613,385.3,172.613,387.3z"
		/>
	<path style="fill:#89D6F7;" d="M195.113,416L195.113,416L195.113,416z"/>
</g>
<polygon style="fill:#334A5E;" points="166.913,424.9 150.713,430 155.713,413.8 "/>
<g>
</g>
<g>
</g>
<g>
</g>
<g>
</g>
<g>
</g>
<g>
</g>
<g>
</g>
<g>
</g>
<g>
</g>
<g>
</g>
<g>
</g>
<g>
</g>
<g>
</g>
<g>
</g>
<g>
</g>
</svg>
