<?xml version="1.0" encoding="iso-8859-1"?>
<!-- Generator: Adobe Illustrator 19.0.0, SVG Export Plug-In . SVG Version: 6.00 Build 0)  -->
<svg version="1.1" id="Capa_1" xmlns="http://www.w3.org/2000/svg" xmlns:xlink="http://www.w3.org/1999/xlink" x="0px" y="0px"
	 viewBox="0 0 508 508" style="enable-background:new 0 0 508 508;" xml:space="preserve">
<path style="fill:#41596B;" d="M470.9,31.65H36.3c-9.6,0-17.4,7.8-17.4,17.4v353.5h150.2v0.9c0,5.7,4.6,10.3,10.3,10.3h148.5
	c5.7,0,10.3-4.6,10.3-10.3v-0.9h150.2V49.15C488.3,39.45,480.4,31.65,470.9,31.65z"/>
<rect x="52.7" y="65.55" style="fill:#FFFFFF;" width="401.8" height="303.3"/>
<g>
	<path style="fill:#F05540;" d="M101.6,161.85c0,28.1,22.7,50.8,50.8,50.8s50.8-22.7,50.8-50.8v-18.2H101.6V161.85z"/>
	<path style="fill:#F05540;" d="M304.8,143.65v18.2c0,28.1,22.7,50.8,50.8,50.8s50.8-22.7,50.8-50.8v-18.2H304.8z"/>
</g>
<g>
	<path style="fill:#CDD5DF;" d="M203.2,161.85c0,28.1,22.7,50.8,50.8,50.8s50.8-22.7,50.8-50.8v-18.2H203.2V161.85z"/>
	<path style="fill:#CDD5DF;" d="M0,161.85c0,28.1,22.7,50.8,50.8,50.8s50.8-22.7,50.8-50.8v-18.2H0V161.85z"/>
	<path style="fill:#CDD5DF;" d="M406.4,143.65v18.2c0,28.1,22.7,50.8,50.8,50.8s50.8-22.7,50.8-50.8v-18.2H406.4z"/>
</g>
<polygon style="fill:#F2F2F2;" points="101.6,143.65 0,143.65 47.3,65.55 133.1,65.55 "/>
<polygon style="fill:#F2705B;" points="203.2,143.65 101.6,143.65 133.1,65.55 219,65.55 "/>
<polygon style="fill:#F2F2F2;" points="304.8,143.65 203.2,143.65 219,65.55 304.8,65.55 "/>
<polygon style="fill:#F2705B;" points="406.4,143.65 304.8,143.65 304.8,65.55 390.6,65.55 "/>
<polygon style="fill:#F2F2F2;" points="508,143.65 406.4,143.65 390.6,65.55 476.5,65.55 "/>
<path style="fill:#334A5E;" d="M338.1,402.55v0.9c0,5.7-4.6,10.3-10.3,10.3H179.3c-5.7,0-10.3-4.6-10.3-10.3v-0.9H0v40
	c0,18.7,15.1,33.8,33.8,33.8h439.5c18.7,0,33.8-15.1,33.8-33.8v-40H338.1z"/>
<g>
</g>
<g>
</g>
<g>
</g>
<g>
</g>
<g>
</g>
<g>
</g>
<g>
</g>
<g>
</g>
<g>
</g>
<g>
</g>
<g>
</g>
<g>
</g>
<g>
</g>
<g>
</g>
<g>
</g>
</svg>
