<?xml version="1.0" encoding="iso-8859-1"?>
<!-- Generator: Adobe Illustrator 19.0.0, SVG Export Plug-In . SVG Version: 6.00 Build 0)  -->
<svg version="1.1" id="Capa_1" xmlns="http://www.w3.org/2000/svg" xmlns:xlink="http://www.w3.org/1999/xlink" x="0px" y="0px"
	 viewBox="0 0 511.987 511.987" style="enable-background:new 0 0 511.987 511.987;" xml:space="preserve">
<g>
	<rect x="113.804" y="404.819" style="fill:#FFC107;" width="202.144" height="43.168"/>
	
		<rect x="392.385" y="2.202" transform="matrix(-0.9853 0.171 -0.171 -0.9853 839.5015 134.2464)" style="fill:#FFC107;" width="43.169" height="202.15"/>
	<polygon style="fill:#FFC107;" points="119.564,326.547 320.844,345.107 316.876,388.083 115.596,369.555 	"/>
	
		<rect x="209.301" y="182.301" transform="matrix(-0.2596 0.9657 -0.9657 -0.2596 564.4791 133.9671)" style="fill:#FFC107;" width="43.167" height="202.141"/>
	<polygon style="fill:#FFC107;" points="185.484,136.691 359.596,239.379 337.676,276.563 163.532,173.875 	"/>
	<polygon style="fill:#FFC107;" points="288.396,42.131 402.284,209.139 366.636,233.459 252.716,66.451 	"/>
</g>
<polygon style="fill:#B0BEC5;" points="379.468,511.987 59.468,511.987 59.468,319.987 91.468,319.987 91.468,479.987 
	347.468,479.987 347.468,319.987 379.468,319.987 "/>
<g>
</g>
<g>
</g>
<g>
</g>
<g>
</g>
<g>
</g>
<g>
</g>
<g>
</g>
<g>
</g>
<g>
</g>
<g>
</g>
<g>
</g>
<g>
</g>
<g>
</g>
<g>
</g>
<g>
</g>
</svg>
