<?xml version="1.0" encoding="iso-8859-1"?>
<!-- Generator: Adobe Illustrator 19.0.0, SVG Export Plug-In . SVG Version: 6.00 Build 0)  -->
<svg version="1.1" id="Capa_1" xmlns="http://www.w3.org/2000/svg" xmlns:xlink="http://www.w3.org/1999/xlink" x="0px" y="0px"
	 viewBox="0 0 508 508" style="enable-background:new 0 0 508 508;" xml:space="preserve">
<path style="fill:#F2F2F2;" d="M108.9,0H29.1C13.5,0,0.9,12.6,0.9,28.1v451.8C0.9,495.4,13.5,508,29,508h79.9
	c15.5,0,28.1-12.6,28.1-28.1V28.1C137,12.6,124.4,0,108.9,0z"/>
<rect x="0.9" y="28.5" style="fill:#ABB2B9;" width="136.1" height="87.4"/>
<rect x="0.9" y="131.9" style="fill:#C2CCD4;" width="136.1" height="87.4"/>
<rect x="0.9" y="235.4" style="fill:#CFD7DC;" width="136.1" height="87.3"/>
<rect x="0.9" y="338.9" style="fill:#DBDFE1;" width="136.1" height="87.4"/>
<path style="fill:#F2F2F2;" d="M364.7,63.6L297,21.2c-13.2-8.2-30.5-4.3-38.8,8.9L18.5,413c-8.2,13.2-4.3,30.5,8.9,38.8l67.7,42.4
	c13.2,8.2,30.5,4.3,38.8-8.9l239.8-382.9C381.9,89.2,377.9,71.9,364.7,63.6z"/>
<rect x="248.868" y="35.502" transform="matrix(-0.5308 0.8475 -0.8475 -0.5308 535.6237 -89.4331)" style="fill:#55BFE9;" width="87.4" height="136.1"/>
<rect x="193.972" y="123.171" transform="matrix(-0.5308 0.8475 -0.8475 -0.5308 525.8879 91.2947)" style="fill:#75D0F4;" width="87.4" height="136.1"/>
<rect x="139.08" y="210.882" transform="matrix(-0.5308 0.8475 -0.8475 -0.5308 516.1183 272.126)" style="fill:#94D8F6;" width="87.3" height="136.1"/>
<rect x="84.079" y="298.594" transform="matrix(-0.5308 0.8475 -0.8475 -0.5308 506.3335 452.9658)" style="fill:#B1E2F9;" width="87.4" height="136.1"/>
<path style="fill:#F2F2F2;" d="M504.2,264l-34.8-71.9c-6.8-14-23.6-19.8-37.6-13L25.2,376c-14,6.8-19.8,23.6-13,37.6L47,485.4
	c6.8,14,23.6,19.8,37.6,13l406.6-196.9C505.1,294.8,510.9,278,504.2,264z"/>
<rect x="378.219" y="191.457" transform="matrix(-0.9 0.4359 -0.4359 -0.9 914.7642 309.1483)" style="fill:#F05540;" width="87.4" height="136.101"/>
<polygon style="fill:#F06C53;" points="343.2,373.2 397.7,346.8 338.4,224.3 259.7,262.4 313.4,373.2 "/>
<polygon style="fill:#F48367;" points="295.5,373.2 245.2,269.4 166.6,307.5 198.4,373.2 "/>
<polygon style="fill:#F6977C;" points="180.5,373.2 152.1,314.5 73.4,352.6 83.4,373.2 "/>
<path style="fill:#F2F2F2;" d="M479.9,371.9H28.1C12.6,371.9,0,384.5,0,400v79.8C0,495.4,12.6,508,28.1,508h451.8
	c15.5,0,28.1-12.6,28.1-28.1V400C508,384.5,495.4,371.9,479.9,371.9z"/>
<rect x="392.2" y="371.9" style="fill:#F6B44B;" width="87.4" height="136.1"/>
<rect x="288.7" y="371.9" style="fill:#FFD05C;" width="87.4" height="136.1"/>
<rect x="185.2" y="371.9" style="fill:#FFE377;" width="87.3" height="136.1"/>
<rect x="81.7" y="371.9" style="fill:#FDF391;" width="87.4" height="136.1"/>
<circle style="fill:#FFFFFF;" cx="40" cy="441.5" r="20.3"/>
<circle style="fill:#41596B;" cx="40" cy="441.5" r="12.1"/>
<g>
</g>
<g>
</g>
<g>
</g>
<g>
</g>
<g>
</g>
<g>
</g>
<g>
</g>
<g>
</g>
<g>
</g>
<g>
</g>
<g>
</g>
<g>
</g>
<g>
</g>
<g>
</g>
<g>
</g>
</svg>
