<?xml version="1.0" encoding="iso-8859-1"?>
<!-- Generator: Adobe Illustrator 19.0.0, SVG Export Plug-In . SVG Version: 6.00 Build 0)  -->
<svg version="1.1" id="Capa_1" xmlns="http://www.w3.org/2000/svg" xmlns:xlink="http://www.w3.org/1999/xlink" x="0px" y="0px"
	 viewBox="0 0 508 508" style="enable-background:new 0 0 508 508;" xml:space="preserve">
<g>
	<path style="fill:#89D6F7;" d="M44.8,261.4H33.6c0-3.9,0.1-7.7,0.3-11.6l11.3,0.6C44.9,254.1,44.8,257.7,44.8,261.4z"/>
	<path style="fill:#89D6F7;" d="M47.4,228.6l-11.2-1.8c1.2-7.6,2.8-15.1,4.8-22.6l10.9,2.9C50.1,214.3,48.5,221.5,47.4,228.6z
		 M58.7,186.4l-10.5-4c2.8-7.2,5.9-14.2,9.4-21.1l10.1,5.1C64.3,172.9,61.3,179.6,58.7,186.4z"/>
	<path style="fill:#89D6F7;" d="M460.6,228.3c-1.1-7.2-2.7-14.4-4.6-21.4l10.9-2.9c2,7.4,3.6,15,4.8,22.6L460.6,228.3z M449.2,186.1
		c-2.6-6.8-5.6-13.5-8.9-20l10-5.1c3.5,6.8,6.7,13.9,9.4,21L449.2,186.1z M78.6,147.5l-9.5-6.2c4.2-6.4,8.7-12.7,13.6-18.7l8.8,7.1
		C86.9,135.4,82.5,141.4,78.6,147.5z M429.3,147.3c-4-6.1-8.3-12-12.9-17.7l8.8-7.1c4.8,5.9,9.4,12.2,13.6,18.6L429.3,147.3z
		 M106.1,113.5l-8-8c5.4-5.4,11.2-10.6,17.1-15.4l7.1,8.8C116.7,103.5,111.2,108.4,106.1,113.5z M401.7,113.4
		c-5.1-5.1-10.6-10.1-16.3-14.6l7.1-8.8c6,4.8,11.7,10,17.1,15.4L401.7,113.4z M140.1,86l-6.2-9.5c6.4-4.2,13.1-8.1,20-11.6L159,75
		C152.5,78.3,146.1,82,140.1,86z M367.7,85.9c-6.1-4-12.5-7.7-19-10.9l5.1-10.1c6.8,3.5,13.5,7.3,20,11.5L367.7,85.9z M179,66.1
		l-4.1-10.5c7.1-2.7,14.5-5.1,21.9-7.1l2.9,10.9C192.7,61.3,185.7,63.5,179,66.1z M328.8,66c-6.8-2.6-13.8-4.9-20.8-6.7l2.9-10.9
		c7.4,2,14.8,4.4,22,7.1L328.8,66z M221.1,54.8l-1.8-11.1c7.5-1.2,15.3-2,22.9-2.4l0.6,11.3C235.6,52.9,228.3,53.7,221.1,54.8z
		 M286.6,54.8c-7.2-1.1-14.5-1.9-21.8-2.2l0.6-11.3c7.6,0.4,15.4,1.2,22.9,2.4L286.6,54.8z"/>
	<path style="fill:#89D6F7;" d="M474.4,261.4h-11.3c0-3.7-0.1-7.4-0.3-11l11.3-0.6C474.3,253.7,474.4,257.5,474.4,261.4z"/>
</g>
<g>
	<rect x="209.9" style="fill:#41596B;" width="88.2" height="88.2"/>
	<rect x="1.1" y="240.4" style="fill:#41596B;" width="76.2" height="76.2"/>
	<rect x="430.7" y="240.4" style="fill:#41596B;" width="76.2" height="76.2"/>
</g>
<g>
	<rect x="298.1" y="38.5" style="fill:#89D6F7;" width="192.4" height="11.3"/>
	<path style="fill:#89D6F7;" d="M490.5,61.6L490.5,61.6c-9.7,0-17.5-7.8-17.5-17.5l0,0c0-9.7,7.8-17.5,17.5-17.5l0,0
		c9.7,0,17.5,7.8,17.5,17.5l0,0C508,53.8,500.2,61.6,490.5,61.6z"/>
	<rect x="17.5" y="38.5" style="fill:#89D6F7;" width="192.4" height="11.3"/>
	<path style="fill:#89D6F7;" d="M17.5,26.6L17.5,26.6c9.7,0,17.5,7.8,17.5,17.5l0,0c0,9.7-7.8,17.5-17.5,17.5l0,0
		C7.8,61.6,0,53.8,0,44.1l0,0C0,34.4,7.8,26.6,17.5,26.6z"/>
</g>
<path style="fill:#FFD05C;" d="M373.3,290c-58-54.6-92.6-132.9-108.6-176.7h-21.5c-16,43.7-50.6,122-108.6,176.7
	c0,0,55.8,78.3,51.5,120.7h135.6C317.5,368.3,373.3,290,373.3,290z"/>
<path style="fill:#FFFFFF;" d="M260.9,234.4v-121h-13.7v121.1c-11.8,3.1-20.5,13.7-20.5,26.4c0,15.1,12.3,27.4,27.4,27.4
	s27.4-12.3,27.4-27.4C281.4,248.1,272.6,237.5,260.9,234.4z"/>
<rect x="186.3" y="410.7" style="fill:#F2705B;" width="135.4" height="97.3"/>
<rect x="186.3" y="410.7" style="fill:#F05540;" width="135.4" height="15.2"/>
<g>
</g>
<g>
</g>
<g>
</g>
<g>
</g>
<g>
</g>
<g>
</g>
<g>
</g>
<g>
</g>
<g>
</g>
<g>
</g>
<g>
</g>
<g>
</g>
<g>
</g>
<g>
</g>
<g>
</g>
</svg>
