<?xml version="1.0" encoding="iso-8859-1"?>
<!-- Generator: Adobe Illustrator 19.0.0, SVG Export Plug-In . SVG Version: 6.00 Build 0)  -->
<svg version="1.1" id="Capa_1" xmlns="http://www.w3.org/2000/svg" xmlns:xlink="http://www.w3.org/1999/xlink" x="0px" y="0px"
	 viewBox="0 0 508.038 508.038" style="enable-background:new 0 0 508.038 508.038;" xml:space="preserve">
<path style="fill:#F2F2F2;" d="M350.6,0.469H93.9L0,94.369v392.1c0,11.7,9.5,21.1,21.1,21.1h329.5c11.7,0,21.1-9.5,21.1-21.1v-464.8
	C371.8,9.969,362.3,0.469,350.6,0.469z"/>
<g>
	<rect x="55.8" y="167.569" style="fill:#CDD5DF;" width="260.1" height="26.3"/>
	<rect x="55.8" y="247.069" style="fill:#CDD5DF;" width="260.1" height="26.3"/>
	<rect x="55.8" y="326.569" style="fill:#CDD5DF;" width="214.8" height="26.3"/>
</g>
<path style="fill:#65C5B8;" d="M93.9,73.269v-72.8L0,94.369h72.7C84.4,94.369,93.9,84.869,93.9,73.269z"/>
<path style="fill:#89D6F7;" d="M501.2,116.969l-70.8-70.9c-9-9-23.6-9-32.6,0l-43.3,43.3l103.5,103.5l43.3-43.3
	C510.3,140.569,510.3,125.969,501.2,116.969z"/>
<polygon style="fill:#D8AB53;" points="139.3,367.569 138.9,367.969 138.9,367.969 139.2,367.569 "/>
<path style="fill:#FFD05C;" d="M212.1,438.669l-83.6,18.9l-50,11.3l11.3-50l18.9-83.6l0,0c7.4,1,14.6,4.4,20.3,10.1
	c6.2,6.2,9.7,14.2,10.3,22.3c10.8-1.7,22.3,1.6,30.6,9.9c4.2,4.2,7.1,9.1,8.7,14.4c1.7,5.3,2.1,10.9,1.2,16.3
	c8.1,0.6,16.1,4,22.3,10.3C207.7,424.069,211.1,431.269,212.1,438.669z"/>
<path style="fill:#F2705B;" d="M349.1,157.769l-209.9,209.9h-0.1c-0.6-8.1-4.1-16.1-10.3-22.3c-5.7-5.7-12.9-9.1-20.3-10.1l0.1-0.1
	l208.9-208.9L349.1,157.769L349.1,157.769z"/>
<path style="fill:#F05540;" d="M179.7,408.069c1.7-10.8-1.6-22.2-9.9-30.5c-6.9-6.9-16-10.4-25-10.4c-1.9,0-3.7,0.2-5.5,0.5
	l209.9-209.9l40.4,40.5L179.7,408.069z"/>
<path style="fill:#F2705B;" d="M421.1,229.669l-208.9,208.9h-0.1c-1-7.4-4.4-14.5-10.1-20.2c-6.3-6.3-14.2-9.7-22.3-10.3l0,0
	l209.8-209.8L421.1,229.669z"/>
<polygon style="fill:#334A5E;" points="128.5,457.569 78.5,468.869 89.7,418.869 "/>
<g>
	
		<rect x="361.724" y="86.339" transform="matrix(-0.7071 0.7071 -0.7071 -0.7071 774.8676 -1.8851)" style="fill:#55BFE9;" width="52.2" height="146.399"/>
	<polygon style="fill:#55BFE9;" points="317.6,126.169 354.5,89.369 317.6,126.269 	"/>
	<polygon style="fill:#55BFE9;" points="386,120.769 386,120.869 354.5,89.369 	"/>
	<polygon style="fill:#55BFE9;" points="426.4,161.269 426.4,161.269 386,120.869 386,120.869 	"/>
</g>
<g>
</g>
<g>
</g>
<g>
</g>
<g>
</g>
<g>
</g>
<g>
</g>
<g>
</g>
<g>
</g>
<g>
</g>
<g>
</g>
<g>
</g>
<g>
</g>
<g>
</g>
<g>
</g>
<g>
</g>
</svg>
