<?xml version="1.0" encoding="iso-8859-1"?>
<!-- Generator: Adobe Illustrator 19.0.0, SVG Export Plug-In . SVG Version: 6.00 Build 0)  -->
<svg version="1.1" id="Capa_1" xmlns="http://www.w3.org/2000/svg" xmlns:xlink="http://www.w3.org/1999/xlink" x="0px" y="0px"
	 viewBox="0 0 507.9 507.9" style="enable-background:new 0 0 507.9 507.9;" xml:space="preserve">
<path style="fill:#F2F2F2;" d="M475.778,336.9c-24.9-24.9-59.7-33.7-91.7-26.7l-187.3-187.3c7-32-1.8-66.8-26.7-91.7
	c-26.7-26.7-64.9-35.1-98.8-25l61.9,61.9l-17.5,49.4l-49.3,17.4L4.478,73c-10.1,33.9-1.8,72,25,98.8c24.9,24.9,59.7,33.7,91.7,26.7
	l187.3,187.4c-7,32,1.8,66.8,26.7,91.7c26.7,26.7,64.9,35.1,98.8,25l-61.9-61.9l17.4-49.4l49.4-17.4l61.9,61.9
	C510.878,401.8,502.578,363.6,475.778,336.9z"/>
<polygon style="fill:#F2705B;" points="125.078,491.3 123.678,491.5 122.978,491.6 0.678,507.9 16.678,385.3 16.778,384.3 
	16.878,383.5 306.378,93.3 317.878,81.8 325.078,74.6 433.078,182.6 425.878,189.8 414.478,201.3 "/>
<g>
	<polygon style="fill:#89D6F7;" points="309.278,90.4 306.378,93.3 16.878,383.5 16.778,384.3 16.678,385.3 51.778,420.4 
		345.578,126.6 	"/>
	<polygon style="fill:#89D6F7;" points="381.378,162.5 87.578,456.3 122.978,491.6 123.678,491.5 125.078,491.3 417.678,198.7 	"/>
</g>
<rect x="8.927" y="265.771" transform="matrix(-0.7071 0.7071 -0.7071 -0.7071 575.9537 344.2743)" style="fill:#55BFE9;" width="415.496" height="51.299"/>
<path style="fill:#F2705B;" d="M449.578,166.1l-108-108l51.4-51.5c8.8-8.8,23.1-8.8,31.9,0l76.1,76c8.8,8.8,8.8,23.1,0,31.9
	L449.578,166.1z"/>
<polygon style="fill:#F2F2F2;" points="414.478,201.3 306.378,93.3 341.478,58.1 449.578,166.1 "/>
<path style="fill:#FFD05C;" d="M123.678,491.5l-123,16.4l16.1-123.6c9.5-2,19.8,0.7,27.2,8.1c7.6,7.6,10.2,18.2,7.9,28
	c9.7-2.3,20.4,0.3,28,7.9s10.2,18.2,7.9,28c9.7-2.3,20.4,0.3,28,7.9C123.078,471.4,125.778,481.9,123.678,491.5z"/>
<path style="fill:#41596B;" d="M46.478,501.8l-45.8,6.1l6-46.4c8.7,3.4,16.8,8.5,23.9,15.6C37.878,484.3,43.178,492.7,46.478,501.8z
	"/>
<g>
</g>
<g>
</g>
<g>
</g>
<g>
</g>
<g>
</g>
<g>
</g>
<g>
</g>
<g>
</g>
<g>
</g>
<g>
</g>
<g>
</g>
<g>
</g>
<g>
</g>
<g>
</g>
<g>
</g>
</svg>
