<?xml version="1.0" encoding="iso-8859-1"?>
<!-- Generator: Adobe Illustrator 19.0.0, SVG Export Plug-In . SVG Version: 6.00 Build 0)  -->
<svg version="1.1" id="Capa_1" xmlns="http://www.w3.org/2000/svg" xmlns:xlink="http://www.w3.org/1999/xlink" x="0px" y="0px"
	 viewBox="0 0 508 508" style="enable-background:new 0 0 508 508;" xml:space="preserve">
<path style="fill:#F2F2F2;" d="M0,0.4v507.2h507.2L0,0.4z M78.9,190.9l237.8,237.8H78.9V190.9z"/>
<polygon style="fill:#F05540;" points="391.7,332.8 454.8,269.7 508,322.8 444.9,385.9 "/>
<polygon style="fill:#CDD5DF;" points="371.9,313 435,249.9 454.9,269.6 391.7,332.8 "/>
<polygon style="fill:#334A5E;" points="135.2,41.5 122.3,0.6 163.3,13.4 "/>
<path style="fill:#FFCF5C;" d="M151.2,92.5L132.7,34L122.2,0.4l33.6,10.5l58.4,18.3l0.5,0.5c1.4,5.9,0.2,12-4,16.2
	c-4.5,4.5-11.4,5.6-17.8,3.6c2,6.4,0.9,13.3-3.6,17.8s-11.4,5.6-17.8,3.6c2,6.4,1,13.3-3.6,17.8C163.7,92.9,157.3,94.1,151.2,92.5z"
	/>
<path style="fill:#65C5B8;" d="M210.7,45.9c-4.5,4.5-11.3,5.6-17.8,3.6c2,6.5,0.9,13.3-3.6,17.8s-11.3,5.6-17.8,3.6
	c2,6.5,0.9,13.3-3.6,17.8c-4.3,4.3-10.7,5.5-16.8,3.9L371.8,313l63.1-63.1L214.8,29.8C216.1,35.7,214.8,41.7,210.7,45.9z"/>
<path style="fill:#89D6F7;" d="M151.2,92.5L151.2,92.5L151.2,92.5z"/>
<polygon style="fill:#334A5E;" points="132.7,34 122.2,0.4 155.8,10.9 "/>
<g>
	<rect x="50.7" y="470.8" style="fill:#ABB2B9;" width="11.3" height="36.8"/>
	<rect x="107.1" y="470.8" style="fill:#ABB2B9;" width="11.3" height="36.8"/>
	<rect x="163.4" y="470.8" style="fill:#ABB2B9;" width="11.3" height="36.8"/>
	<rect x="219.8" y="470.8" style="fill:#ABB2B9;" width="11.3" height="36.8"/>
	<rect x="276.1" y="470.8" style="fill:#ABB2B9;" width="11.3" height="36.8"/>
	<rect x="332.5" y="470.8" style="fill:#ABB2B9;" width="11.3" height="36.8"/>
	<rect x="388.8" y="470.8" style="fill:#ABB2B9;" width="11.3" height="36.8"/>
	<rect x="445.2" y="470.8" style="fill:#ABB2B9;" width="11.3" height="36.8"/>
	<rect y="51.1" style="fill:#ABB2B9;" width="36.8" height="11.3"/>
	<rect y="107.5" style="fill:#ABB2B9;" width="36.8" height="11.3"/>
	<rect y="163.8" style="fill:#ABB2B9;" width="36.8" height="11.3"/>
	<rect y="220.2" style="fill:#ABB2B9;" width="36.8" height="11.3"/>
	<rect y="276.5" style="fill:#ABB2B9;" width="36.8" height="11.3"/>
	<rect y="332.9" style="fill:#ABB2B9;" width="36.8" height="11.3"/>
	<rect y="389.3" style="fill:#ABB2B9;" width="36.8" height="11.3"/>
	<rect y="445.6" style="fill:#ABB2B9;" width="36.8" height="11.3"/>
</g>
<g>
</g>
<g>
</g>
<g>
</g>
<g>
</g>
<g>
</g>
<g>
</g>
<g>
</g>
<g>
</g>
<g>
</g>
<g>
</g>
<g>
</g>
<g>
</g>
<g>
</g>
<g>
</g>
<g>
</g>
</svg>
