<?xml version="1.0" encoding="iso-8859-1"?>
<!-- Generator: Adobe Illustrator 19.0.0, SVG Export Plug-In . SVG Version: 6.00 Build 0)  -->
<svg version="1.1" id="Capa_1" xmlns="http://www.w3.org/2000/svg" xmlns:xlink="http://www.w3.org/1999/xlink" x="0px" y="0px"
	 viewBox="0 0 508.013 508.013" style="enable-background:new 0 0 508.013 508.013;" xml:space="preserve">
<polygon style="fill:#CDD5DF;" points="495.1,387.781 385.2,497.581 10.4,122.681 120.2,12.881 "/>
<polygon style="fill:#ABB2B9;" points="419.2,463.581 385.2,497.581 267.1,379.481 145.4,257.681 10.4,122.681 44.4,88.781 
	179.4,223.781 301.2,345.481 "/>
<g>
	
		<rect x="126.129" y="47.425" transform="matrix(0.7071 0.7071 -0.7071 0.7071 100.8449 -73.6113)" style="fill:#F2F2F2;" width="26.3" height="74.999"/>
	
		<rect x="190.821" y="107.485" transform="matrix(0.7071 0.7071 -0.7071 0.7071 154.3063 -105.0593)" style="fill:#F2F2F2;" width="26.3" height="52.499"/>
	
		<rect x="353.099" y="274.493" transform="matrix(0.7071 0.7071 -0.7071 0.7071 327.8842 -167.5966)" style="fill:#F2F2F2;" width="26.3" height="74.999"/>
	
		<rect x="417.862" y="334.472" transform="matrix(0.7071 0.7071 -0.7071 0.7071 381.3092 -199.1182)" style="fill:#F2F2F2;" width="26.3" height="52.499"/>
</g>
<polygon style="opacity:0.5;fill:#4FBFA8;enable-background:new    ;" points="377.8,270.381 301.9,346.281 267.9,380.281 
	258.7,371.081 368.5,261.181 "/>
<path style="fill:#F2705B;" d="M501.8,98.081l-92-91.9c-8.2-8.2-21.6-8.2-29.9,0l-55.2,55.2l121.8,121.8l55.2-55.2
	C510.1,119.781,510.1,106.381,501.8,98.081z"/>
<polygon style="fill:#D8AB53;" points="71.6,388.881 71.1,389.281 71.1,389.181 71.5,388.881 "/>
<path style="fill:#FFD05C;" d="M145.4,448.581c-7.3-7.3-16.7-11.4-26.3-12.1c1-6.3,0.5-12.9-1.4-19.1s-5.3-12-10.2-16.9
	c-9.8-9.8-23.3-13.7-36-11.7c-0.7-9.6-4.8-18.9-12.1-26.3c-6.7-6.7-15.1-10.7-23.8-11.8l0,0l-22.2,98.3l-13.4,59l58.8-13.3
	l98.4-22.3C156,463.781,152.1,455.281,145.4,448.581z"/>
<polygon style="fill:#334A5E;" points="58.8,494.681 0,507.981 13.3,449.081 "/>
<polygon style="fill:#F6F7F7;" points="446.6,183.181 403.2,226.581 366.1,189.481 318.5,141.881 318.4,141.781 281.4,104.781 
	324.8,61.381 361.9,98.381 361.9,98.481 409.5,145.981 409.5,146.081 "/>
<path style="fill:#89D6F7;" d="M318.5,141.881L318.5,141.881l-37.1-37.1l-245.8,245.8v0.1c8.7,1.2,17.1,5.1,23.8,11.8
	c7.3,7.3,11.4,16.7,12.1,26.3c0,0,0,0,0.1,0L318.5,141.881L318.5,141.881z"/>
<g>
	<polygon style="fill:#55BFE9;" points="361.9,98.481 367.1,103.681 361.9,98.381 361.9,98.381 	"/>
	<path style="fill:#55BFE9;" d="M366.1,189.481L366.1,189.481l-47.6-47.6l0,0l-247,247l0,0c12.7-2,26.2,1.8,36,11.6
		c9.8,9.8,13.6,23.2,11.6,35.9L366.1,189.481z"/>
</g>
<path style="fill:#89D6F7;" d="M403.2,226.581l-37.1-37.1l-247,247v0.1c9.6,0.7,18.9,4.8,26.3,12.1c6.7,6.7,10.7,15.1,11.8,23.8h0.1
	l289.2-289.2l0,0L403.2,226.581z"/>
<g>
</g>
<g>
</g>
<g>
</g>
<g>
</g>
<g>
</g>
<g>
</g>
<g>
</g>
<g>
</g>
<g>
</g>
<g>
</g>
<g>
</g>
<g>
</g>
<g>
</g>
<g>
</g>
<g>
</g>
</svg>
