<?xml version="1.0" encoding="iso-8859-1"?>
<!-- Generator: Adobe Illustrator 19.0.0, SVG Export Plug-In . SVG Version: 6.00 Build 0)  -->
<svg version="1.1" id="Capa_1" xmlns="http://www.w3.org/2000/svg" xmlns:xlink="http://www.w3.org/1999/xlink" x="0px" y="0px"
	 viewBox="0 0 508 508" style="enable-background:new 0 0 508 508;" xml:space="preserve">
<polygon style="fill:#FFD05C;" points="505.1,189.4 449.6,218.7 344,218.7 301,189.4 361.2,77.5 402.9,0 444.4,76.9 "/>
<path style="fill:#334A5E;" d="M444.4,76.9c-13.5,3.5-27.8,5.3-42.5,5.3c-14.1,0-27.7-1.6-40.7-4.7L402.9,0L444.4,76.9z"/>
<path style="fill:#CDD5DF;" d="M438,203.4V508h-69.9V203.4c0-9.7,3.9-18.5,10.2-24.8c6.3-6.3,15.1-10.2,24.7-10.2
	C422.4,168.4,438,184,438,203.4z"/>
<g>
	<path style="fill:#F2F2F2;" d="M368.1,203.4V508h-70V203.4c0-5,1.1-9.7,2.9-14l0.1-0.2c0.8-1.9,1.8-3.7,2.9-5.4
		c0.1-0.1,0.1-0.1,0.1-0.1c1.2-1.9,2.7-3.6,4.2-5.1c6.4-6.3,15.1-10.2,24.8-10.2C352.4,168.4,368.1,184,368.1,203.4z"/>
	<path style="fill:#F2F2F2;" d="M508,203.4V508h-70V203.4c0-9.7,3.9-18.5,10.3-24.8c6.3-6.3,15.1-10.2,24.7-10.2
		c12.1,0,22.7,6.1,29.1,15.4c0.1,0.2,0.3,0.5,0.4,0.7l2.2,4.1c0.1,0.1,0.2,0.3,0.2,0.5c0.1,0.1,0.1,0.2,0.2,0.4
		C507,193.7,508,198.4,508,203.4z"/>
</g>
<path style="fill:#F2705B;" d="M217.9,0H21.2C9.5,0,0,9.5,0,21.2V508h239.1V21.2C239.1,9.5,229.6,0,217.9,0z M119.5,88.8
	c-15.6,0-28.3-12.7-28.3-28.3s12.7-28.3,28.3-28.3s28.3,12.7,28.3,28.3S135.2,88.8,119.5,88.8z"/>
<path style="fill:#F05540;" d="M70.5,0H21.2C9.5,0,0,9.5,0,21.2V508h70.5V0z"/>
<g>
	<rect x="201.7" y="178.8" style="fill:#F2F2F2;" width="37.4" height="18.8"/>
	<rect x="201.7" y="287.8" style="fill:#F2F2F2;" width="37.4" height="18.8"/>
	<rect x="201.7" y="396.7" style="fill:#F2F2F2;" width="37.4" height="18.8"/>
	<rect x="188.4" y="124.3" style="fill:#F2F2F2;" width="50.7" height="18.8"/>
	<rect x="188.4" y="233.3" style="fill:#F2F2F2;" width="50.7" height="18.8"/>
	<rect x="188.4" y="342.2" style="fill:#F2F2F2;" width="50.7" height="18.8"/>
	<rect x="188.4" y="451.2" style="fill:#F2F2F2;" width="50.7" height="18.8"/>
</g>
<g>
</g>
<g>
</g>
<g>
</g>
<g>
</g>
<g>
</g>
<g>
</g>
<g>
</g>
<g>
</g>
<g>
</g>
<g>
</g>
<g>
</g>
<g>
</g>
<g>
</g>
<g>
</g>
<g>
</g>
</svg>
