<?xml version="1.0" encoding="iso-8859-1"?>
<!-- Generator: Adobe Illustrator 19.0.0, SVG Export Plug-In . SVG Version: 6.00 Build 0)  -->
<svg version="1.1" id="Capa_1" xmlns="http://www.w3.org/2000/svg" xmlns:xlink="http://www.w3.org/1999/xlink" x="0px" y="0px"
	 viewBox="0 0 512 512" style="enable-background:new 0 0 512 512;" xml:space="preserve">
<g style="enable-background:new    ;">
	<path style="fill:#303F9F;" d="M470.752,116.736c5.184,16.832,7.872,34.624,7.872,53.056c0,59.36-29.184,111.552-73.536,144.352
		C327.776,371.04,215.136,371.136,59.68,420.096C106.528,476.32,177.024,512,255.936,512c141.376,0,256-114.56,256-255.936
		C511.936,204.736,496.736,156.896,470.752,116.736z"/>
	<path style="fill:#D32F2F;" d="M255.936,0C114.56,0,0.064,114.624,0.064,256.096c0,56.704,15.648,89.12,41.632,130.528
		C216.384,339.136,358.08,222.752,409.504,51.136C366.752,19.04,313.568,0,255.936,0z"/>
</g>
<g>
</g>
<g>
</g>
<g>
</g>
<g>
</g>
<g>
</g>
<g>
</g>
<g>
</g>
<g>
</g>
<g>
</g>
<g>
</g>
<g>
</g>
<g>
</g>
<g>
</g>
<g>
</g>
<g>
</g>
</svg>
