<?xml version="1.0" encoding="iso-8859-1"?>
<!-- Generator: Adobe Illustrator 19.0.0, SVG Export Plug-In . SVG Version: 6.00 Build 0)  -->
<svg version="1.1" id="Capa_1" xmlns="http://www.w3.org/2000/svg" xmlns:xlink="http://www.w3.org/1999/xlink" x="0px" y="0px"
	 viewBox="0 0 508.1 508.1" style="enable-background:new 0 0 508.1 508.1;" xml:space="preserve">
<path style="fill:#F2F2F2;" d="M486.8,0H21.2C9.5,0,0,9.5,0,21.2v465.7c0,11.7,9.5,21.2,21.2,21.2h465.7c11.7,0,21.2-9.5,21.2-21.2
	V21.2C508,9.5,498.5,0,486.8,0z"/>
<rect x="32.2" y="39.5" style="fill:#89D6F7;" width="440.3" height="355.6"/>
<g>
	<polygon style="fill:#334A5E;" points="234.7,395.1 32.2,395.1 32.2,287.4 61.3,251.8 67.5,247.7 71.3,256.1 81.1,253.4 
		90.4,260.8 101.6,248.2 117,256.1 116.6,250.5 140.4,279.7 	"/>
	<polygon style="fill:#334A5E;" points="472.5,304.4 472.5,395.1 312.8,395.1 385.7,305.9 416,268.8 418.1,273.4 424.3,271.7 
		430.2,276.4 437.3,268.4 447.1,273.4 	"/>
</g>
<g>
	<polygon style="fill:#F2F2F2;" points="117,256.1 101.6,248.3 90.4,260.8 81.1,253.4 71.3,256.1 67.5,247.7 61.3,251.8 89.4,217.3 
		116.6,250.5 	"/>
	<polygon style="fill:#F2F2F2;" points="447.1,273.3 437.3,268.4 430.2,276.3 424.3,271.6 418.1,273.3 416,268.8 429.7,252 	"/>
</g>
<polygon style="fill:#41596B;" points="460.8,395.1 47.2,395.1 50.8,391.4 140.1,282.2 194.4,215.7 194.9,215 195,214.9 
	220.8,197.8 229.7,228.3 242.6,207 265.3,235.8 275.5,198.8 297.9,218.9 299.2,198 304.5,204.5 389.8,308.9 "/>
<polygon style="fill:#F2F2F2;" points="254,142.6 194.9,215 220.8,197.8 229.7,228.3 242.6,207 265.3,235.8 275.5,198.8 298,218.9 
	299.2,198 "/>
<g>
	<circle style="fill:#FFFFFF;" cx="117.5" cy="115.6" r="44"/>
	<path style="fill:#FFFFFF;" d="M454.1,82.3c0.1-0.7,0.2-1.5,0.2-2.2c0-10.2-8.3-18.5-18.5-18.5c-6.4,0-12,3.2-15.3,8.1
		c-1.7-0.7-3.5-1.1-5.4-1.1c-6.9,0-12.6,5.1-13.7,11.7c-5.6,0.9-9.8,5.7-9.8,11.5c0,6.5,5.2,11.7,11.7,11.7h44.1
		c6.5,0,11.7-5.2,11.7-11.7C459,87.8,457.1,84.4,454.1,82.3z"/>
	<path style="fill:#FFFFFF;" d="M387.7,126.2c0.1-0.6,0.2-1.1,0.2-1.7c0-7.9-6.4-14.4-14.4-14.4c-4.9,0-9.3,2.5-11.9,6.3
		c-1.3-0.5-2.7-0.8-4.2-0.8c-5.4,0-9.8,3.9-10.6,9.1c-4.3,0.7-7.6,4.4-7.6,8.9c0,5,4.1,9.1,9.1,9.1h34.1c5,0,9.1-4.1,9.1-9.1
		C391.5,130.5,390,127.9,387.7,126.2z"/>
</g>
<g>
</g>
<g>
</g>
<g>
</g>
<g>
</g>
<g>
</g>
<g>
</g>
<g>
</g>
<g>
</g>
<g>
</g>
<g>
</g>
<g>
</g>
<g>
</g>
<g>
</g>
<g>
</g>
<g>
</g>
</svg>
