<?xml version="1.0" encoding="iso-8859-1"?>
<!-- Generator: Adobe Illustrator 19.0.0, SVG Export Plug-In . SVG Version: 6.00 Build 0)  -->
<svg version="1.1" id="Capa_1" xmlns="http://www.w3.org/2000/svg" xmlns:xlink="http://www.w3.org/1999/xlink" x="0px" y="0px"
	 viewBox="0 0 507.963 507.963" style="enable-background:new 0 0 507.963 507.963;" xml:space="preserve">
<path style="fill:#F2705B;" d="M253.982,0c-101.6,0-184,82.4-184,184s184,323.9,184,323.9c0,4.4,184-222.3,184-323.9
	S355.582,0,253.982,0z M253.982,236.8c-7.3,0-14.2-1.5-20.6-4.2c-19-8-32.3-26.8-32.3-48.7c0-29.2,23.6-52.8,52.8-52.8l0,0l0,0
	c29.2,0,52.8,23.6,52.8,52.8C306.782,213.2,283.182,236.8,253.982,236.8z"/>
<path style="fill:#FFD05C;" d="M253.982,80.8c-57,0-103.2,46.2-103.2,103.2s46.2,103.2,103.2,103.2s103.2-46.2,103.2-103.2
	S310.982,80.8,253.982,80.8z M253.982,236.8c-7.3,0-14.2-1.5-20.6-4.1c-19-8-32.3-26.8-32.3-48.7c0-29.2,23.6-52.8,52.8-52.8l0,0
	l0,0c29.2,0,52.8,23.6,52.8,52.8C306.782,213.2,283.182,236.8,253.982,236.8z"/>
<g>
</g>
<g>
</g>
<g>
</g>
<g>
</g>
<g>
</g>
<g>
</g>
<g>
</g>
<g>
</g>
<g>
</g>
<g>
</g>
<g>
</g>
<g>
</g>
<g>
</g>
<g>
</g>
<g>
</g>
</svg>
