<?xml version="1.0" encoding="iso-8859-1"?>
<!-- Generator: Adobe Illustrator 19.0.0, SVG Export Plug-In . SVG Version: 6.00 Build 0)  -->
<svg version="1.1" id="Capa_1" xmlns="http://www.w3.org/2000/svg" xmlns:xlink="http://www.w3.org/1999/xlink" x="0px" y="0px"
	 viewBox="0 0 508 508" style="enable-background:new 0 0 508 508;" xml:space="preserve">
<ellipse style="fill:#89D6F7;" cx="254" cy="463" rx="183.4" ry="45"/>
<path style="fill:#F2705B;" d="M254,0C160.4,0,84.6,75.9,84.6,169.4C84.6,263,254,464.7,254,464.7S423.4,263,423.4,169.4
	C423.4,75.9,347.6,0,254,0z"/>
<path style="fill:#FFFFFF;" d="M254,60.1c-60.4,0-109.4,49-109.4,109.4H254V60.1z"/>
<path style="fill:#FFD05C;" d="M144.6,169.4c0,60.4,49,109.4,109.4,109.4V169.4H144.6z"/>
<path style="fill:#FFFFFF;" d="M254,278.8c60.4,0,109.4-49,109.4-109.4H254V278.8z"/>
<path style="fill:#FFD05C;" d="M254,60.1v109.4h109.4C363.4,109,314.4,60.1,254,60.1z"/>
<g>
</g>
<g>
</g>
<g>
</g>
<g>
</g>
<g>
</g>
<g>
</g>
<g>
</g>
<g>
</g>
<g>
</g>
<g>
</g>
<g>
</g>
<g>
</g>
<g>
</g>
<g>
</g>
<g>
</g>
</svg>
