<?xml version="1.0" encoding="iso-8859-1"?>
<!-- Generator: Adobe Illustrator 19.0.0, SVG Export Plug-In . SVG Version: 6.00 Build 0)  -->
<svg version="1.1" id="Capa_1" xmlns="http://www.w3.org/2000/svg" xmlns:xlink="http://www.w3.org/1999/xlink" x="0px" y="0px"
	 viewBox="0 0 508.1 508.1" style="enable-background:new 0 0 508.1 508.1;" xml:space="preserve">
<path style="fill:#65C5B8;" d="M0.05,315.8v98.8c0,11.7,9.5,21.2,21.2,21.2h465.6c11.7,0,21.2-9.5,21.2-21.2v-98.8H0.05z"/>
<rect x="0.05" y="315.8" style="fill:#334A5E;" width="508" height="13.4"/>
<path style="fill:#41596B;" d="M486.85,111.9H21.25c-11.7,0-21.2,9.5-21.2,21.2v182.7h508V133.1
	C508.05,121.4,498.55,111.9,486.85,111.9z"/>
<rect x="100.25" y="346.4" style="fill:#4FBFA8;" width="307.6" height="89.4"/>
<path style="fill:#F2F2F2;" d="M113.95,357.1v129.8c0,11.7,9.5,21.2,21.2,21.2h230.6c11.7,0,21.2-9.5,21.2-21.2V357.1H113.95z"/>
<g>
	<rect x="137.55" y="464.2" style="fill:#CDD5DF;" width="125.7" height="21.3"/>
	<rect x="137.55" y="419.6" style="fill:#CDD5DF;" width="233" height="21.3"/>
	<rect x="137.55" y="375.1" style="fill:#CDD5DF;" width="233" height="21.3"/>
</g>
<path style="fill:#F2F2F2;" d="M320.45,0h-181.7c-11.7,0-21.2,9.5-21.2,21.2v90.7h273V70L320.45,0z"/>
<path style="fill:#CDD5DF;" d="M320.45,0v48.8c0,11.7,9.5,21.2,21.2,21.2h48.8L320.45,0z"/>
<circle style="fill:#FFD05C;" cx="373.25" cy="172.7" r="19.2"/>
<circle style="fill:#F2705B;" cx="442.35" cy="172.7" r="19.2"/>
<g>
</g>
<g>
</g>
<g>
</g>
<g>
</g>
<g>
</g>
<g>
</g>
<g>
</g>
<g>
</g>
<g>
</g>
<g>
</g>
<g>
</g>
<g>
</g>
<g>
</g>
<g>
</g>
<g>
</g>
</svg>
