<?xml version="1.0" encoding="iso-8859-1"?>
<!-- Generator: Adobe Illustrator 19.0.0, SVG Export Plug-In . SVG Version: 6.00 Build 0)  -->
<svg version="1.1" id="Capa_1" xmlns="http://www.w3.org/2000/svg" xmlns:xlink="http://www.w3.org/1999/xlink" x="0px" y="0px"
	 viewBox="0 0 508.1 508.1" style="enable-background:new 0 0 508.1 508.1;" xml:space="preserve">
<path style="fill:#CDD5DF;" d="M486.8,191.45H21.2c-11.7,0-21.2,9.5-21.2,21.2v229.2c0,11.7,9.5,21.2,21.2,21.2h465.7
	c11.7,0,21.2-9.5,21.2-21.2v-229.3C508,200.85,498.5,191.45,486.8,191.45z"/>
<path style="fill:#F2F2F2;" d="M459.4,215.15H48.6c-10.4,0-18.9,8.2-18.9,18.4v36.7c0,10.1,8.4,18.4,18.9,18.4h410.9
	c10.4,0,18.9-8.2,18.9-18.4v-36.7C478.3,223.45,469.8,215.15,459.4,215.15z"/>
<rect x="59.2" y="360.05" style="fill:#41596B;" width="389.7" height="102.9"/>
<rect x="59.2" y="140.05" style="fill:#334A5E;" width="389.7" height="51.4"/>
<g>
	<path style="fill:#F2F2F2;" d="M408.8,0.05H172.9L78,94.95v96.5h352V21.25C430,9.55,420.5,0.05,408.8,0.05z"/>
	<path style="fill:#F2F2F2;" d="M78,382.05v104.8c0,11.7,9.5,21.2,21.2,21.2h309.7c11.7,0,21.2-9.5,21.2-21.2v-104.8H78z"/>
</g>
<rect x="129.7" y="414.05" style="fill:#65C5B8;" width="248.5" height="15.3"/>
<rect x="129.7" y="461.25" style="fill:#89D6F7;" width="169.2" height="15.3"/>
<g>
	<path style="fill:#CDD5DF;" d="M151.7,94.95c11.7,0,21.2-9.5,21.2-21.2V0.05L78,94.95H151.7z"/>
	<rect x="78" y="382.05" style="fill:#CDD5DF;" width="352" height="15.8"/>
</g>
<circle style="fill:#FFD05C;" cx="83.4" cy="251.95" r="18.3"/>
<circle style="fill:#F2705B;" cx="138.9" cy="251.95" r="18.3"/>
<g>
</g>
<g>
</g>
<g>
</g>
<g>
</g>
<g>
</g>
<g>
</g>
<g>
</g>
<g>
</g>
<g>
</g>
<g>
</g>
<g>
</g>
<g>
</g>
<g>
</g>
<g>
</g>
<g>
</g>
</svg>
