<?xml version="1.0" encoding="iso-8859-1"?>
<!-- Generator: Adobe Illustrator 19.0.0, SVG Export Plug-In . SVG Version: 6.00 Build 0)  -->
<svg version="1.1" id="Capa_1" xmlns="http://www.w3.org/2000/svg" xmlns:xlink="http://www.w3.org/1999/xlink" x="0px" y="0px"
	 viewBox="0 0 512 512" style="enable-background:new 0 0 512 512;" xml:space="preserve">
<g>
	<path style="fill:#2196F3;" d="M393.6,174.4L284.16,282.24c-8,7.36-17.92,11.2-28.16,11.2s-20.8-3.84-28.48-11.84
		c-15.68-15.68-15.36-40.96,0.32-56.64l108.8-106.88C360,131.52,379.84,151.04,393.6,174.4z"/>
	<path style="fill:#2196F3;" d="M512,256C512,114.56,397.44,0,256,0S0,114.56,0,256s114.56,256,256,256
		c53.44,0,102.72-16.32,144-44.16L444.16,512H512v-67.84L467.84,400C495.68,358.72,512,309.44,512,256z M433.088,132.704
		C431.392,135.488,393.6,174.4,393.6,174.4c14.08,23.68,22.4,51.84,22.4,81.6c0,88.32-71.68,160-160,160S96,344.32,96,256
		S167.68,96,256,96c29.44,0,56.96,8,80.64,22.08c0,0,39.968-37.664,42.56-39.264C400.192,93.472,418.464,111.712,433.088,132.704z"
		/>
</g>
<g>
</g>
<g>
</g>
<g>
</g>
<g>
</g>
<g>
</g>
<g>
</g>
<g>
</g>
<g>
</g>
<g>
</g>
<g>
</g>
<g>
</g>
<g>
</g>
<g>
</g>
<g>
</g>
<g>
</g>
</svg>
