<?xml version="1.0" encoding="iso-8859-1"?>
<!-- Generator: Adobe Illustrator 19.0.0, SVG Export Plug-In . SVG Version: 6.00 Build 0)  -->
<svg version="1.1" id="Capa_1" xmlns="http://www.w3.org/2000/svg" xmlns:xlink="http://www.w3.org/1999/xlink" x="0px" y="0px"
	 viewBox="0 0 508 508" style="enable-background:new 0 0 508 508;" xml:space="preserve">
<path style="fill:#334A5E;" d="M486.8,57.6H21.2C9.5,57.6,0,67.1,0,78.9v276.3h508V78.9C508,67.1,498.5,57.6,486.8,57.6z"/>
<g>
	<rect x="438" y="57.6" style="fill:#2E4354;" width="11.3" height="27.9"/>
	<rect x="265.9" y="57.6" style="fill:#2E4354;" width="11.3" height="27.9"/>
</g>
<path style="fill:#F2F2F2;" d="M0,355.2v58.1c0,11.7,9.5,21.2,21.2,21.2h465.6c11.7,0,21.2-9.5,21.2-21.2v-58.1H0z"/>
<rect x="25.7" y="80.8" style="fill:#89D6F7;" width="456.6" height="251.2"/>
<rect x="169.9" y="434.5" style="fill:#CDD5DF;" width="168.3" height="49"/>
<rect x="169.9" y="434.5" style="fill:#ABB2B9;" width="168.3" height="20"/>
<path style="fill:#F2F2F2;" d="M365.1,483.5H142.9c-13.5,0-24.5,11-24.5,24.5l0,0h271.2l0,0C389.6,494.5,378.6,483.5,365.1,483.5z"
	/>
<circle style="fill:#CDD5DF;" cx="254" cy="394.9" r="14"/>
<path style="fill:#334A5E;" d="M425.3,0H290c-7,0-12.8,5.7-12.8,12.8v241.5c0,7,5.7,12.8,12.8,12.8h135.3c7,0,12.8-5.7,12.8-12.8
	V12.8C438,5.7,432.3,0,425.3,0z"/>
<rect x="290.9" y="25" style="fill:#89D6F7;" width="133.5" height="204.1"/>
<g>
	<circle style="fill:#ABB2B9;" cx="357.6" cy="248.1" r="10.8"/>
	<path style="fill:#ABB2B9;" d="M378.4,15.8h-41.5c-0.2,0-0.3-0.1-0.3-0.3V9.6c0-0.2,0.1-0.3,0.3-0.3h41.5c0.2,0,0.3,0.1,0.3,0.3
		v5.9C378.7,15.6,378.5,15.8,378.4,15.8z"/>
</g>
<g>
</g>
<g>
</g>
<g>
</g>
<g>
</g>
<g>
</g>
<g>
</g>
<g>
</g>
<g>
</g>
<g>
</g>
<g>
</g>
<g>
</g>
<g>
</g>
<g>
</g>
<g>
</g>
<g>
</g>
</svg>
