<?xml version="1.0" encoding="iso-8859-1"?>
<!-- Generator: Adobe Illustrator 19.0.0, SVG Export Plug-In . SVG Version: 6.00 Build 0)  -->
<svg version="1.1" id="Capa_1" xmlns="http://www.w3.org/2000/svg" xmlns:xlink="http://www.w3.org/1999/xlink" x="0px" y="0px"
	 viewBox="0 0 508.1 508.1" style="enable-background:new 0 0 508.1 508.1;" xml:space="preserve">
<polygon style="fill:#334A5E;" points="282.8,448.95 273.8,433.75 272.1,430.85 141.8,430.85 140,433.75 131,448.95 115.1,475.65 
	298.7,475.65 "/>
<path style="fill:#41596B;" d="M0,367.75v44.8c0,11.7,9.5,21.2,21.2,21.2h371.5c11.7,0,21.2-9.5,21.2-21.2v-44.8H0z"/>
<path style="fill:#F2F2F2;" d="M385.6,94.65H21.2c-11.7,0-21.2,9.4-21.2,21.1v252h413.9v-244.9
	C413.9,107.25,401.2,94.65,385.6,94.65z"/>
<rect x="33.2" y="124.05" style="fill:#55BFE9;" width="347.5" height="214.2"/>
<path style="fill:#41596B;" d="M306,475.75H107.8c-16.7,0-30.2,13.5-30.2,30.2h258.7C336.3,489.25,322.7,475.75,306,475.75z"/>
<circle style="fill:#334A5E;" cx="206.9" cy="400.75" r="16.8"/>
<path style="fill:#41596B;" d="M486.8,2.15H369.7c-11.7,0-21.2,9.5-21.2,21.2v205.4c0,11.7,9.5,21.2,21.2,21.2h117.2
	c11.7,0,21.2-9.5,21.2-21.2V23.35C508,11.65,498.5,2.15,486.8,2.15z"/>
<rect x="366" y="33.45" style="fill:#55BFE9;" width="124.6" height="166.1"/>
<g>
	<path style="fill:#334A5E;" d="M445.1,14.15h-33.7c-2,0-3.7,1.6-3.7,3.7s1.6,3.7,3.7,3.7h33.7c2,0,3.7-1.6,3.7-3.7
		S447.1,14.15,445.1,14.15z"/>
	<circle style="fill:#334A5E;" cx="428.2" cy="224.65" r="14"/>
</g>
<g>
</g>
<g>
</g>
<g>
</g>
<g>
</g>
<g>
</g>
<g>
</g>
<g>
</g>
<g>
</g>
<g>
</g>
<g>
</g>
<g>
</g>
<g>
</g>
<g>
</g>
<g>
</g>
<g>
</g>
</svg>
