<?xml version="1.0" encoding="iso-8859-1"?>
<!-- Generator: Adobe Illustrator 19.0.0, SVG Export Plug-In . SVG Version: 6.00 Build 0)  -->
<svg version="1.1" id="Capa_1" xmlns="http://www.w3.org/2000/svg" xmlns:xlink="http://www.w3.org/1999/xlink" x="0px" y="0px"
	 viewBox="0 0 508 508" style="enable-background:new 0 0 508 508;" xml:space="preserve">
<path style="fill:#F2F2F2;" d="M430.5,352.413h-353c-42.8,0-77.5,34.7-77.5,77.5v0.2c0,42.8,34.7,77.5,77.5,77.5h353
	c42.8,0,77.5-34.7,77.5-77.5v-0.2C508,387.113,473.3,352.413,430.5,352.413z"/>
<path style="fill:#334A5E;" d="M363.4,104.712c-22,0-39.9,17.9-39.9,39.9c0,16.5,10,30.6,24.2,36.7v171h31.4v-171
	c14.2-6.2,24.2-20.3,24.2-36.7C403.4,122.612,385.5,104.712,363.4,104.712z"/>
<g>
	<path style="fill:#89D6F7;" d="M465.5,42.612c-56.3-56.3-147.9-56.3-204.1,0c-27.2,27.2-42.2,63.5-42.2,102.1s15,74.8,42.2,102.1
		l20-20c-45.3-45.3-45.3-119,0-164.2c21.9-21.9,51.1-34,82.1-34c31.1,0,60.2,12.1,82.1,34c45.3,45.3,45.3,119,0,164.2l20,20
		c27.2-27.2,42.2-63.5,42.2-102.1S492.8,69.813,465.5,42.612z"/>
	<path style="fill:#89D6F7;" d="M428.7,79.412c-17.4-17.4-40.6-27-65.2-27c-24.7,0-47.8,9.6-65.2,27c-17.4,17.4-27,40.6-27,65.2
		s9.6,47.8,27,65.2l20-20c-12.1-12.1-18.7-28.1-18.7-45.3c0-17.1,6.6-33.2,18.7-45.3s28.1-18.7,45.3-18.7c17.1,0,33.2,6.6,45.3,18.7
		c12.1,12.1,18.7,28.1,18.7,45.3c0,17.1-6.6,33.2-18.7,45.3l20,20c17.4-17.4,27-40.6,27-65.2S446.1,96.813,428.7,79.412z"/>
</g>
<circle style="fill:#F2705B;" cx="57.8" cy="430.013" r="23.1"/>
<circle style="fill:#4FBFA8;" cx="121.3" cy="430.013" r="23.1"/>
<circle style="fill:#65C5B8;" cx="184.8" cy="430.013" r="23.1"/>
<circle style="fill:#FFCF5C;" cx="431.5" cy="430.013" r="41.9"/>
<g>
</g>
<g>
</g>
<g>
</g>
<g>
</g>
<g>
</g>
<g>
</g>
<g>
</g>
<g>
</g>
<g>
</g>
<g>
</g>
<g>
</g>
<g>
</g>
<g>
</g>
<g>
</g>
<g>
</g>
</svg>
