<?xml version="1.0" encoding="iso-8859-1"?>
<!-- Generator: Adobe Illustrator 19.0.0, SVG Export Plug-In . SVG Version: 6.00 Build 0)  -->
<svg version="1.1" id="Capa_1" xmlns="http://www.w3.org/2000/svg" xmlns:xlink="http://www.w3.org/1999/xlink" x="0px" y="0px"
	 viewBox="0 0 508.1 508.1" style="enable-background:new 0 0 508.1 508.1;" xml:space="preserve">
<path style="fill:#F2705B;" d="M486.8,0H21.2C9.5,0,0,9.5,0,21.2v465.7c0,11.7,9.5,21.2,21.2,21.2h465.7c11.7,0,21.2-9.5,21.2-21.2
	V21.2C508,9.5,498.5,0,486.8,0z"/>
<g>
	<path style="fill:#FFFFFF;" d="M373.7,426.2c-5.8-158.3-133.6-286.1-291.9-291.9V82C269,87.9,420.1,239,426,426.2H373.7z"/>
	<path style="fill:#FFFFFF;" d="M266.2,426.2c-5.7-99.1-85.3-178.7-184.4-184.4v-52.3c127.9,5.8,230.9,108.7,236.6,236.6h-52.2
		V426.2z"/>
	<circle style="fill:#FFFFFF;" cx="142" cy="373.5" r="52.6"/>
</g>
<g>
</g>
<g>
</g>
<g>
</g>
<g>
</g>
<g>
</g>
<g>
</g>
<g>
</g>
<g>
</g>
<g>
</g>
<g>
</g>
<g>
</g>
<g>
</g>
<g>
</g>
<g>
</g>
<g>
</g>
</svg>
