<?xml version="1.0" encoding="iso-8859-1"?>
<!-- Generator: Adobe Illustrator 19.0.0, SVG Export Plug-In . SVG Version: 6.00 Build 0)  -->
<svg version="1.1" id="Capa_1" xmlns="http://www.w3.org/2000/svg" xmlns:xlink="http://www.w3.org/1999/xlink" x="0px" y="0px"
	 viewBox="0 0 508 508" style="enable-background:new 0 0 508 508;" xml:space="preserve">
<path style="fill:#65C5B8;" d="M508,301v-94l-41.8-6.7c-5.3-20.8-13.5-40.5-24.2-58.4l24.9-34.3l-66.4-66.4l-34.3,24.9
	c-18-10.7-37.6-19-58.4-24.2L301,0h-94l-6.7,41.8C179.5,47,159.8,55.3,141.9,66l-34.3-24.9l-66.4,66.4l24.9,34.3
	c-10.7,18-19,37.6-24.2,58.4L0,207v94l41.8,6.7c5.2,20.8,13.5,40.5,24.2,58.4l-24.9,34.3l66.4,66.4l34.3-24.9
	c18,10.7,37.6,19,58.4,24.2L207,508h94l6.7-41.8c20.8-5.3,40.5-13.5,58.4-24.2l34.3,24.9l66.4-66.4l-24.9-34.3
	c10.7-18,19-37.6,24.2-58.4L508,301z M254,374.6c-66.6,0-120.6-54-120.6-120.6s54-120.6,120.6-120.6s120.6,54,120.6,120.6
	S320.6,374.6,254,374.6z"/>
<path style="fill:#F2F2F2;" d="M254,175.6c-43.3,0-78.4,35.1-78.4,78.3c0,4.7,0.5,9.4,1.2,13.9c5.8,32.1,31.1,57.5,63.3,63.2
	c4.5,0.8,9.1,1.2,13.9,1.2c43.3,0,78.4-35.1,78.4-78.4S297.3,175.6,254,175.6z"/>
<g>
</g>
<g>
</g>
<g>
</g>
<g>
</g>
<g>
</g>
<g>
</g>
<g>
</g>
<g>
</g>
<g>
</g>
<g>
</g>
<g>
</g>
<g>
</g>
<g>
</g>
<g>
</g>
<g>
</g>
</svg>
