<?xml version="1.0" encoding="iso-8859-1"?>
<!-- Generator: Adobe Illustrator 19.0.0, SVG Export Plug-In . SVG Version: 6.00 Build 0)  -->
<svg version="1.1" id="Capa_1" xmlns="http://www.w3.org/2000/svg" xmlns:xlink="http://www.w3.org/1999/xlink" x="0px" y="0px"
	 viewBox="0 0 508 508" style="enable-background:new 0 0 508 508;" xml:space="preserve">
<g>
	<path style="fill:#ABB2B9;" d="M339.8,169.2l-10.3,5.6l-70.3,38.7l-10.2,5.6c-5.3-18.6-14.7-35.4-27.2-49.4l10.1-5.5l70.3-38.7
		l10.3-5.6C316.7,138.9,326.4,155.9,339.8,169.2z"/>
	<path style="fill:#ABB2B9;" d="M339.8,338.8c-13.4,13.3-23.1,30.3-27.2,49.4l-10.3-5.6L232,343.9l-10.1-5.5
		c12.5-14.1,21.9-30.9,27.2-49.5l10.2,5.6l70.3,38.7L339.8,338.8z"/>
</g>
<circle style="fill:#F2F2F2;" cx="127" cy="254" r="127"/>
<path style="fill:#FFFFFF;" d="M48.5,265.3c-6.2,0-11.3-5.1-11.3-11.3c0-49.5,40.3-89.8,89.8-89.8c6.2,0,11.3,5.1,11.3,11.3
	s-5.1,11.3-11.3,11.3c-37.1,0-67.2,30.2-67.2,67.2C59.8,260.2,54.7,265.3,48.5,265.3z"/>
<circle style="fill:#F2705B;" cx="409.2" cy="409.2" r="98.8"/>
<circle style="fill:#FFD05C;" cx="409.2" cy="98.8" r="98.8"/>
<g>
	<path style="fill:#A4A9AE;" d="M249.1,288.9l10.2,5.6c-5.6,18.4-15,35.2-27.3,49.4l-10.1-5.5C234.4,324.4,243.8,307.5,249.1,288.9z
		"/>
	<path style="fill:#A4A9AE;" d="M249.1,219.1c-5.3-18.6-14.7-35.4-27.2-49.4l10.1-5.5c12.2,14.2,21.6,31,27.3,49.4L249.1,219.1z"/>
</g>
<g>
</g>
<g>
</g>
<g>
</g>
<g>
</g>
<g>
</g>
<g>
</g>
<g>
</g>
<g>
</g>
<g>
</g>
<g>
</g>
<g>
</g>
<g>
</g>
<g>
</g>
<g>
</g>
<g>
</g>
</svg>
