<?xml version="1.0" encoding="iso-8859-1"?>
<!-- Generator: Adobe Illustrator 19.0.0, SVG Export Plug-In . SVG Version: 6.00 Build 0)  -->
<svg version="1.1" id="Capa_1" xmlns="http://www.w3.org/2000/svg" xmlns:xlink="http://www.w3.org/1999/xlink" x="0px" y="0px"
	 viewBox="0 0 508 508" style="enable-background:new 0 0 508 508;" xml:space="preserve">
<path style="fill:#41596B;" d="M463.1,89.8v100.8c0,138.1-82.2,262.9-209.1,317.4C127.1,453.5,44.9,328.7,44.9,190.6V89.8
	c75.7-12.9,147.3-43.7,208.8-89.6L254,0l0.3,0.2C315.8,46.2,387.4,76.9,463.1,89.8z"/>
<path style="fill:#FFD05C;" d="M409.8,250.4c4-19.4,6-39.4,6-59.8v-62.5C358.5,113.7,303.6,89.8,254,57.5l0,0v192.9H409.8z"/>
<g>
	<path style="fill:#F2F2F2;" d="M409.8,250.4H254v205.4C335.1,414.2,391.9,338.3,409.8,250.4z"/>
	<path style="fill:#F2F2F2;" d="M254,57.5c-49.6,32.2-104.5,56.2-161.9,70.6v62.5c0,20.4,2.1,40.4,6,59.8H254V57.5z"/>
</g>
<path style="fill:#FFD05C;" d="M98.2,250.4C116.1,338.3,173,414.2,254,455.8l0,0V250.4H98.2z"/>
<g>
</g>
<g>
</g>
<g>
</g>
<g>
</g>
<g>
</g>
<g>
</g>
<g>
</g>
<g>
</g>
<g>
</g>
<g>
</g>
<g>
</g>
<g>
</g>
<g>
</g>
<g>
</g>
<g>
</g>
</svg>
