<?xml version="1.0" encoding="iso-8859-1"?>
<!-- Generator: Adobe Illustrator 19.0.0, SVG Export Plug-In . SVG Version: 6.00 Build 0)  -->
<svg version="1.1" id="Capa_1" xmlns="http://www.w3.org/2000/svg" xmlns:xlink="http://www.w3.org/1999/xlink" x="0px" y="0px"
	 viewBox="0 0 508 508" style="enable-background:new 0 0 508 508;" xml:space="preserve">
<g>
	<path style="fill:#FFD05C;" d="M395.675,283.4l-23.9-23.9c64.9-64.9,64.9-170.6,0-235.5l23.9-24
		C473.875,78.1,473.875,205.3,395.675,283.4z"/>
	<path style="fill:#FFD05C;" d="M112.275,283.4c-37.8-37.8-58.6-88.1-58.6-141.7c0-53.6,20.8-103.9,58.6-141.7l23.9,23.9
		c-31.4,31.4-48.7,73.2-48.7,117.8c0,44.5,17.3,86.4,48.7,117.8L112.275,283.4z"/>
	<path style="fill:#FFD05C;" d="M358.875,246.6l-23.9-23.9c21.6-21.6,33.4-50.3,33.4-80.9s-11.9-59.3-33.4-80.9l23.9-23.9
		c28,28,43.4,65.2,43.4,104.8C402.175,181.4,386.775,218.6,358.875,246.6z"/>
	<path style="fill:#FFD05C;" d="M149.175,246.6c-28-28-43.4-65.2-43.4-104.8s15.4-76.9,43.4-104.8l23.9,23.9
		c-21.6,21.6-33.5,50.3-33.5,80.9s11.9,59.3,33.4,80.9L149.175,246.6z"/>
</g>
<g>
	<path style="fill:#F2705B;" d="M318.875,76.8c-17.3-17.3-40.4-26.9-64.9-26.9l0,0c-24.5,0-47.6,9.5-64.9,26.9
		c-35.8,35.8-35.8,94.1,0,129.9c17.3,17.3,40.4,26.9,64.9,26.9c24.6,0,47.6-9.5,64.9-26.9C354.675,170.8,354.675,112.6,318.875,76.8
		z"/>
	<path style="fill:#F2705B;" d="M295.775,236l-2.5-11.3c-12.1,5.8-25.4,8.9-39.2,8.9s-27.1-3.1-39.2-8.9l-2.5,11.3l-61.3,272h206.1
		L295.775,236z"/>
</g>
<path style="fill:#F05540;" d="M295.775,236c-13,5.8-27.1,8.8-41.8,8.8c-14.7,0-28.8-3-41.8-8.8l2.5-11.3
	c12.1,5.8,25.4,8.9,39.2,8.9c13.8,0,27.1-3.1,39.2-8.9L295.775,236z"/>
<g>
</g>
<g>
</g>
<g>
</g>
<g>
</g>
<g>
</g>
<g>
</g>
<g>
</g>
<g>
</g>
<g>
</g>
<g>
</g>
<g>
</g>
<g>
</g>
<g>
</g>
<g>
</g>
<g>
</g>
</svg>
