<?xml version="1.0" encoding="iso-8859-1"?>
<!-- Generator: Adobe Illustrator 19.0.0, SVG Export Plug-In . SVG Version: 6.00 Build 0)  -->
<svg version="1.1" id="Capa_1" xmlns="http://www.w3.org/2000/svg" xmlns:xlink="http://www.w3.org/1999/xlink" x="0px" y="0px"
	 viewBox="0 0 512 512" style="enable-background:new 0 0 512 512;" xml:space="preserve">
<path style="fill:#2196F3;" d="M72,434.016C33.984,392.64,3.904,338.976,0,267.008c0-6.976,0-14.016,0-20.992
	c1.536-30.4,9.28-57.952,19.008-83.008C31.584,130.528,51.04,99.456,74.016,80c0,15.552,0.384,30.4,1.984,40
	c4.864,29.184,21.12,61.12,41.024,80.992c16.096,16.128,37.696,27.2,60,39.008c44.48,23.616,86.784,44.448,131.008,68
	c28.448,15.168,57.728,33.888,65.984,64c11.712,42.56-13.12,82.048-32.992,103.008c-18.336,19.296-42.368,32.512-71.008,36.992
	c-11.328,0-22.656,0-34.016,0C165.792,504.16,110.176,475.52,72,434.016L72,434.016z M240.992,177.024
	c40.992,21.472,83.328,43.296,125.024,64.992c21.472,11.2,41.024,22.752,56,39.008c27.264,29.568,44.288,68.096,40.992,124
	c6.752-6.528,12.864-15.648,17.984-24.992c14.88-27.2,26.912-61.856,30.016-102.016c-0.16-1.184,0.192-1.792,0.992-2.016
	c0-13.344,0-26.656,0-40C494.4,95.328,398.656,10.848,264,0c-4.352,0-8.672,0-12.992,0C224.704,4.416,199.04,11.936,184,29.024
	C173.44,40.992,165.12,62.304,164,76C159.264,134.848,201.44,156.256,240.992,177.024L240.992,177.024z"/>
<g>
</g>
<g>
</g>
<g>
</g>
<g>
</g>
<g>
</g>
<g>
</g>
<g>
</g>
<g>
</g>
<g>
</g>
<g>
</g>
<g>
</g>
<g>
</g>
<g>
</g>
<g>
</g>
<g>
</g>
</svg>
