<?xml version="1.0" encoding="iso-8859-1"?>
<!-- Generator: Adobe Illustrator 19.0.0, SVG Export Plug-In . SVG Version: 6.00 Build 0)  -->
<svg version="1.1" id="Capa_1" xmlns="http://www.w3.org/2000/svg" xmlns:xlink="http://www.w3.org/1999/xlink" x="0px" y="0px"
	 viewBox="0 0 512.032 512.032" style="enable-background:new 0 0 512.032 512.032;" xml:space="preserve">
<path style="fill:#CFD8DC;" d="M480.02,288h-32V80c0-26.464-21.536-48-48-48h-288c-26.464,0-48,21.536-48,48v208h-32V80
	c0-44.096,35.904-80,80-80h288c44.128,0,80,35.904,80,80V288z"/>
<path style="fill:#2196F3;" d="M488.02,261.504c-17.12,19.072-90.816,43.232-100.32,43.232s-62.688,0-80.768,0
	c-18.048,0-48.48,4.768-48.48,16.192c0,0,0,139.2,0,145.664c0,13.312,18.496,45.44,74.592,45.44s70.784-66.4,70.784-77.792
	c0-11.424,0-51.424,0-80.928c39.904-20.96,80.768-32.384,100.32-69.856C522.548,248.16,505.108,242.464,488.02,261.504z"/>
<path style="fill:#FFC107;" d="M242.324,385.632c0,30.496,0,67.616,0,80.928c0,13.344-20.896,32.384-48.448,32.384
	s-80.768-39.008-80.768-64.736c0-25.696,0-87.616,0-87.616s-73.76-28.896-90.88-49.856C5.108,275.776-3.436,267.2,1.332,254.88
	c4.576-11.968,59.872,34.272,92.192,41.888c32.352,7.616,88.384,11.424,112.16,10.496c23.744-0.992,37.056,8.512,50.336,20.864
	c0,0,15.072,24.608,51.968,24.256s45.44-28.96,58.368-31.616c10.912-2.272,16.192,2.272,16.192,12.416s-45.184,48.192-75.104,55.328
	C293.46,391.84,256.02,394.912,242.324,385.632z"/>
<ellipse style="fill:#2196F3;" cx="333.876" cy="221.632" rx="56.544" ry="56.64"/>
<ellipse style="fill:#FFC107;" cx="184.884" cy="221.632" rx="56.544" ry="56.64"/>
<g>
</g>
<g>
</g>
<g>
</g>
<g>
</g>
<g>
</g>
<g>
</g>
<g>
</g>
<g>
</g>
<g>
</g>
<g>
</g>
<g>
</g>
<g>
</g>
<g>
</g>
<g>
</g>
<g>
</g>
</svg>
