<?xml version="1.0" encoding="iso-8859-1"?>
<!-- Generator: Adobe Illustrator 19.0.0, SVG Export Plug-In . SVG Version: 6.00 Build 0)  -->
<svg version="1.1" id="Capa_1" xmlns="http://www.w3.org/2000/svg" xmlns:xlink="http://www.w3.org/1999/xlink" x="0px" y="0px"
	 viewBox="0 0 512.01 512.01" style="enable-background:new 0 0 512.01 512.01;" xml:space="preserve">
<path style="fill:#FF5722;" d="M315.584,32.005C540.672,182.213,467.68,347.269,467.68,347.269s63.936,70.752,38.24,132.736
	c0,0-26.528-43.296-70.56-43.296c-42.56,0-67.744,43.296-153.664,43.296C90.592,480.005,0,323.397,0,323.397
	c172.224,111.36,289.888,32.448,289.888,32.448C212.128,311.749,47.2,100.581,47.2,100.581
	c143.776,120.032,205.824,151.552,205.824,151.552c-37.312-29.952-141.28-176.736-141.28-176.736
	c83.2,82.528,248.576,197.6,248.576,197.6C407.744,145.829,315.584,32.005,315.584,32.005z"/>
<g>
</g>
<g>
</g>
<g>
</g>
<g>
</g>
<g>
</g>
<g>
</g>
<g>
</g>
<g>
</g>
<g>
</g>
<g>
</g>
<g>
</g>
<g>
</g>
<g>
</g>
<g>
</g>
<g>
</g>
</svg>
