<?xml version="1.0" encoding="iso-8859-1"?>
<!-- Generator: Adobe Illustrator 19.0.0, SVG Export Plug-In . SVG Version: 6.00 Build 0)  -->
<svg version="1.1" id="Capa_1" xmlns="http://www.w3.org/2000/svg" xmlns:xlink="http://www.w3.org/1999/xlink" x="0px" y="0px"
	 viewBox="0 0 508.1 508.1" style="enable-background:new 0 0 508.1 508.1;" xml:space="preserve">
<path style="fill:#334A5E;" d="M420.9,0H87.1C75.4,0,66,9.5,66,21.2v465.7c0,11.7,9.5,21.2,21.2,21.2h333.7
	c11.7,0,21.2-9.5,21.2-21.2V21.2C442,9.5,432.6,0,420.9,0z"/>
<rect x="111.1" y="62.6" style="fill:#FFFFFF;" width="285.8" height="337.6"/>
<rect x="148.7" y="241.7" style="fill:#F2705B;" width="55.6" height="122.1"/>
<rect x="226.2" y="210.2" style="fill:#89D6F7;" width="55.6" height="153.7"/>
<rect x="303.7" y="170.5" style="fill:#FFD05C;" width="55.6" height="193.4"/>
<g>
	<path style="fill:#ABB2B9;" d="M320.8,20.4h-87.5c-6,0-10.9,4.9-10.9,10.9s4.9,10.9,10.9,10.9h87.5c6,0,10.9-4.9,10.9-10.9
		C331.8,25.3,326.9,20.4,320.8,20.4z"/>
	<path style="fill:#ABB2B9;" d="M198.4,20.4h-11.2c-6,0-10.9,4.9-10.9,10.9s4.9,10.9,10.9,10.9h11.2c6,0,10.9-4.9,10.9-10.9
		S204.4,20.4,198.4,20.4z"/>
	<circle style="fill:#ABB2B9;" cx="254" cy="454.1" r="32.7"/>
</g>
<g>
</g>
<g>
</g>
<g>
</g>
<g>
</g>
<g>
</g>
<g>
</g>
<g>
</g>
<g>
</g>
<g>
</g>
<g>
</g>
<g>
</g>
<g>
</g>
<g>
</g>
<g>
</g>
<g>
</g>
</svg>
