<?xml version="1.0" encoding="iso-8859-1"?>
<!-- Generator: Adobe Illustrator 19.0.0, SVG Export Plug-In . SVG Version: 6.00 Build 0)  -->
<svg version="1.1" id="Capa_1" xmlns="http://www.w3.org/2000/svg" xmlns:xlink="http://www.w3.org/1999/xlink" x="0px" y="0px"
	 viewBox="0 0 508.1 508.1" style="enable-background:new 0 0 508.1 508.1;" xml:space="preserve">
<path style="fill:#41596B;" d="M411.9,0H96.1C84.4,0,75,9.5,75,21.2v465.7c0,11.7,9.5,21.2,21.2,21.2h315.7
	c11.7,0,21.2-9.5,21.2-21.2V21.2C433,9.5,423.6,0,411.9,0z"/>
<rect x="108.8" y="72" style="fill:#FFFFFF;" width="290.3" height="341"/>
<g>
	<path style="fill:#CDD5DF;" d="M309.8,42.1h-75.6c-3.4,0-6.1-2.7-6.1-6.1l0,0c0-3.4,2.7-6.1,6.1-6.1h75.6c3.4,0,6.1,2.7,6.1,6.1
		l0,0C315.9,39.3,313.1,42.1,309.8,42.1z"/>
	<path style="fill:#CDD5DF;" d="M209.4,42.1h-11.2c-3.4,0-6.1-2.7-6.1-6.1l0,0c0-3.4,2.7-6.1,6.1-6.1h11.2c3.4,0,6.1,2.7,6.1,6.1
		l0,0C215.5,39.3,212.8,42.1,209.4,42.1z"/>
	<circle style="fill:#CDD5DF;" cx="254" cy="460.5" r="28.9"/>
</g>
<path style="fill:#89D6F7;" d="M354.2,225c-0.2-1-0.4-2.1-0.6-3.1c-8.3-41-41.3-72.9-82.8-79.8c-3-0.5-6.1-0.9-9.2-1.1
	c-2.5-0.2-5.1-0.3-7.7-0.3c-6.4,0-12.6,0.6-18.7,1.7c-0.3,0.1-0.6,0.1-0.9,0.2c-25.3,4.9-47.2,19.2-62,39c-1.1,1.5-2.2,3-3.2,4.5
	c-10.7,16.1-17,35.5-17,56.3c0,56.2,45.6,101.8,101.7,101.8c56.2,0,101.8-45.6,101.8-101.8C355.8,236.5,355.2,230.7,354.2,225z"/>
<g>
	<path style="fill:#55BFE9;" d="M248.5,159.9c-0.1,3.2-4.8,3.5-7.8,4.6c-2.2,0.8-3.9,2.6-5.6,4.2c-3.9,3.6-8.2,6.8-12.9,9.3
		c-4.8,2.6-11.6,4.3-15.2,0.1c11.5-4.7,20.3-15.1,24.3-26.9c-5.5,3-9.8,7.9-14.6,12c-5.5,4.6-11.8,8.1-17,12.9
		c-5.3,4.8-9.6,11.4-9.3,18.5c-0.1-4.1-2.5-7.9-6-10.2c-3.4-2.3-7.6-3.1-11.7-3c-0.1,0-0.2,0-0.4,0c14.8-19.9,36.7-34.1,62-39
		c0.3-0.1,0.6-0.1,0.9-0.2c1.2,5.2,4.5,9.9,9.1,12.7C246.3,156.3,248.7,157.7,248.5,159.9z"/>
	<path style="fill:#55BFE9;" d="M270.9,142.1c2.5,1.4,4.9,3,6.6,5.1c0.5,0.6,0.9,1.3,0.8,2.1c-0.4,1.8-3.1,1.4-4.8,2.2
		c-2.8,1.3-1.9,5.9,0.6,7.7c2.6,1.8,5.9,2.1,8.7,3.5c1.1,0.5,2.2,1.6,2,2.8c-0.1,0.7-0.5,1.2-1,1.7c-3.3,3.7-6.7,7.5-10,11.3
		c-0.9,0.9-1.7,1.9-2.9,2.5c-1.5,0.8-3.3,0.7-5,0.7c-6.5-0.2-14.6,1.2-16.4,7.5c-0.4,1.5-0.4,3.3-1.5,4.5c-1,1.1-2.7,1.4-3.5,2.7
		c-1.3,1.9,0.5,4.4,0.8,6.7c0.5,3.6-3.8,7-7.2,5.6c-0.1-3.9-0.2-7.9-0.3-11.8c0-0.7-0.1-1.3-0.4-1.9c-0.4-0.6-1.2-0.9-1.9-1.1
		c-3.7-1.1-8.4-1.9-11,1s-1.3,7.5,0.8,10.9c2.1,3.3,4.9,6.5,5,10.4c0.1,1.9-0.9,4.1-2.8,4.5c-2.8,0.6-4.5-3-4.7-5.8
		c-3.6,7.4-4.8,15.8-3.3,23.9c-5.7,1.4-11.4,2.9-17.1,4.3c-2.1,0.5-4.3,1.2-5.7,2.9c-1.3,1.6-1.4,3.8-1.4,5.9c0.1,7,1.9,14,5.1,20.2
		c1.1,2.1,2.5,4.2,4.4,5.6c5.3,4,13,1.9,19.4,3.7c5.5,1.6,9.9,5.9,12.7,10.9s4.2,10.7,5.4,16.2c0.6,2.6,1.3,5.3,3.1,7.2
		c2.2,2.2,5.4,2.8,8.4,3.3c5.1,0.8,10.7,1.6,15.3-1c3.9-2.2,6.4-6.5,10.5-8.1c2.8-1.1,6-0.7,8.9-1.3c2.9-0.7,6-3.2,5.3-6.2
		c-0.6-2.8-4.3-4.8-3.5-7.5c0.6-1.9,2.9-2.4,4.8-3.1c8.4-2.8,12.9-13.9,8.7-21.8c-0.6-1.2-1.5-2.5-1.6-3.9c-0.3-4.3,5.7-5.7,8.6-8.9
		c2.7-2.9,2.7-7.2,3.1-11.1c0.4-3.9,1.9-8.3,5.7-9.4c3.7-1.1,7.3,1.7,9.6,4.8c2.2,3.1,3.9,6.8,7.1,8.8c0.1-6.7,0.2-13.5,0.3-20.2
		c0-2.4,0.1-5,1.7-6.9c2.6-3.1,7.5-2.3,11.5-1.5c1.3,0.3,2.7,0.5,4,0.4C345.3,181,312.3,149,270.9,142.1z M290.8,208.2l0.4-0.1
		c1.1,0,2.2,0.1,3.4,0.1c-0.6,2.4,0.1,5.1,1.8,7c0.7,0.8,1.6,1.5,2.4,2.3c1.8,2,2.3,5.1,1.3,7.6c-2.2,0.2-4.4,0.3-6.6-0.2
		c-2.1-0.5-4.2-1.9-5.1-3.9c-0.5-1.3-0.6-2.6-0.6-4C287.7,213.7,288,209.8,290.8,208.2z M260.8,243.1c-3.3-0.6-6.2-2.7-9.1-4.3
		c-4.3-2.3-9.2-3.5-14.1-3.6c-1.7-0.1-3.5,0.1-5.1-0.3c-1.7-0.4-3.3-1.6-3.8-3.2c-0.6-2.1,0.9-4.3,2.7-5.5s3.9-1.9,5.7-3.1l0.4-3.2
		c3.9,4,8.7,7.1,13.9,9c2.5,1,5.1,1.6,7.8,1.9c2.8,0.3,5.6,0.1,8.3-0.1c0.9-0.1,1.8-0.2,2.7-0.2c1.9-0.1,3.7-0.3,5.6-0.4
		c2.2-0.1,4.6-0.4,6.4-1.8c0.7,2.8-0.6,5.7-2.6,7.7s-4.6,3.2-7.2,4.4C268.8,242,264.8,243.7,260.8,243.1z M300.1,263
		c-0.2,0.6-0.5,1.3-1,1.6c-0.4,0.2-0.9,0.3-1.3,0.4c-4.3,0.6-9.2,1-12.5-1.7c-1.6-1.3-2.6-3-3.6-4.7c-1.3-2.3-2.6-4.5-3.9-6.8
		s-2.7-4.8-2.1-7.4c2-0.2,4.2-0.1,6.2,0.3l0.6,0.6c-0.7,1.6,0.1,3.6,1.3,4.8c1.2,1.2,3,1.9,4.6,2.6c1.4,0.6,2.8,1.1,4.2,1.7
		c2,0.8,4,1.6,5.6,3C299.5,258.7,300.6,260.9,300.1,263z M307.6,241.6c-0.4,0.4-0.9,0.6-1.4,0.8c-4,1.3-9-1.9-9.4-6.2l0.6-0.5
		c3,0,6,0,9,0c0.5,0,1.1,0,1.5,0.4s0.5,1,0.5,1.6C308.6,239,308.6,240.6,307.6,241.6z"/>
</g>
<g>
</g>
<g>
</g>
<g>
</g>
<g>
</g>
<g>
</g>
<g>
</g>
<g>
</g>
<g>
</g>
<g>
</g>
<g>
</g>
<g>
</g>
<g>
</g>
<g>
</g>
<g>
</g>
<g>
</g>
</svg>
