<?xml version="1.0" encoding="iso-8859-1"?>
<!-- Generator: Adobe Illustrator 19.0.0, SVG Export Plug-In . SVG Version: 6.00 Build 0)  -->
<svg version="1.1" id="Capa_1" xmlns="http://www.w3.org/2000/svg" xmlns:xlink="http://www.w3.org/1999/xlink" x="0px" y="0px"
	 viewBox="0 0 508 508" style="enable-background:new 0 0 508 508;" xml:space="preserve">
<path style="fill:#F2705B;" d="M254,0C113.7,0,0,113.7,0,254s113.7,254,254,254c95.7,0,179-52.9,222.3-131.1
	c16.2-29.2,26.8-62,30.4-96.9c0.8-8.5,1.3-17.2,1.3-26C508,113.7,394.3,0,254,0z"/>
<circle style="fill:#FFFFFF;" cx="254" cy="254" r="187"/>
<circle style="fill:#F2705B;" cx="254" cy="254" r="119.9"/>
<circle style="fill:#FFFFFF;" cx="254" cy="254" r="52.9"/>
<path style="opacity:0.2;fill:#334A5E;enable-background:new    ;" d="M506.7,280c-3.6,34.9-14.2,67.7-30.4,96.9l-67.1-20.8
	l-7.2-43.3l-149.7-46.5c-6.1-1.9-9.5-8.4-7.6-14.4c1.9-6.1,8.4-9.5,14.4-7.6l149.7,46.6l30.5-31.7L506.7,280z"/>
<g>
	<polygon style="fill:#55BFE9;" points="448.1,58.9 372.6,136.3 352.3,77.5 427.8,0 	"/>
	<polygon style="fill:#55BFE9;" points="432,155.1 507.5,77.6 448.1,58.9 372.6,136.3 	"/>
</g>
<path style="fill:#41596B;" d="M483.2,41L266.4,263.5c-4.9,5-12.9,5.1-17.9,0.2l0,0c-5-4.9-5.1-12.9-0.2-17.9L465.1,23.3
	c4.9-5,12.9-5.1,17.9-0.2l0,0C487.9,28,488,36,483.2,41z"/>
<g>
</g>
<g>
</g>
<g>
</g>
<g>
</g>
<g>
</g>
<g>
</g>
<g>
</g>
<g>
</g>
<g>
</g>
<g>
</g>
<g>
</g>
<g>
</g>
<g>
</g>
<g>
</g>
<g>
</g>
</svg>
