<?xml version="1.0" encoding="iso-8859-1"?>
<!-- Generator: Adobe Illustrator 19.0.0, SVG Export Plug-In . SVG Version: 6.00 Build 0)  -->
<svg version="1.1" id="Capa_1" xmlns="http://www.w3.org/2000/svg" xmlns:xlink="http://www.w3.org/1999/xlink" x="0px" y="0px"
	 viewBox="0 0 508 508" style="enable-background:new 0 0 508 508;" xml:space="preserve">
<g>
	<polygon style="fill:#41596B;" points="165.5,508 77.1,508 165.5,306.4 254,306.4 	"/>
	<polygon style="fill:#41596B;" points="342.5,508 430.9,508 342.5,306.4 254,306.4 	"/>
</g>
<path style="fill:#89D6F7;" d="M467.1,184.7C451.4,80.2,361.2,0,252.3,0C132.3,0,34.9,97.4,34.9,217.4s97.4,217.3,217.4,217.3
	c108.9,0,199.2-80.1,214.9-184.7c1.6-10.7,2.4-21.6,2.4-32.7C469.6,206.3,468.8,195.4,467.1,184.7z"/>
<circle style="fill:#FFFFFF;" cx="252.3" cy="217.4" r="160.1"/>
<circle style="fill:#89D6F7;" cx="252.3" cy="217.4" r="102.8"/>
<circle style="fill:#FFFFFF;" cx="252.3" cy="217.4" r="45.5"/>
<path style="opacity:0.2;fill:#41596B;enable-background:new    ;" d="M469.6,217.4c0,11.1-0.8,22-2.4,32.7h-7.8l-12.6-24.3H259.5
	c-4,0-7.3-3.2-7.3-7.3v-2.2c0-4,3.2-7.3,7.3-7.3h187.3l12.6-24.3h7.7C468.8,195.4,469.6,206.3,469.6,217.4z"/>
<polygon style="fill:#F2705B;" points="426.8,6 376.4,56.4 387.6,91.5 422.7,102.7 473.1,52.2 438.1,41 "/>
<path style="fill:#41596B;" d="M439.9,37.6c-3.3-3.3-8.6-3.3-11.9,0L253.9,211.7c-3.3,3.3-3.3,8.6,0,11.9c3.3,3.3,8.6,3.3,11.9,0
	L439.9,49.5C443.2,46.2,443.2,40.9,439.9,37.6z"/>
<g>
</g>
<g>
</g>
<g>
</g>
<g>
</g>
<g>
</g>
<g>
</g>
<g>
</g>
<g>
</g>
<g>
</g>
<g>
</g>
<g>
</g>
<g>
</g>
<g>
</g>
<g>
</g>
<g>
</g>
</svg>
