<?xml version="1.0" encoding="iso-8859-1"?>
<!-- Generator: Adobe Illustrator 19.0.0, SVG Export Plug-In . SVG Version: 6.00 Build 0)  -->
<svg version="1.1" id="Capa_1" xmlns="http://www.w3.org/2000/svg" xmlns:xlink="http://www.w3.org/1999/xlink" x="0px" y="0px"
	 viewBox="0 0 507.144 507.144" style="enable-background:new 0 0 507.144 507.144;" xml:space="preserve">
<path style="fill:#41596B;" d="M495.575,69.119l-54.5,54.5l-55.9-10.7l-10.6-55.9l54.5-54.5c-29.6-7.1-62,0.8-85.1,23.8
	c-19.3,19.3-28,45.1-26.2,70.4l-100.3,100.5l-34.4,34.4l-86.2,86.2c-25.2-1.8-51.1,6.9-70.4,26.2c-23.2,23-31,55.5-23.9,85.1
	l54.5-54.5l55.9,10.7l10.7,55.9l-54.5,54.5c29.6,7.1,62-0.8,85.1-23.8c19.3-19.3,28-45.1,26.2-70.3l48.1-48.4l110.5-110.5l62.3-62.3
	c25.2,1.8,51.1-6.9,70.4-26.2C494.875,131.119,502.775,98.719,495.575,69.119z"/>
<path style="fill:#334A5E;" d="M339.075,242.719l-110.5,110.5l-26.4-26.4c-10.8-10.8-10.8-28.3,0-39.2l18.4-18.4l-37.6-37.6
	l34.4-34.4l37.6,37.6l18.5-18.4c10.8-10.8,28.3-10.8,39.1,0L339.075,242.719z"/>
<path style="fill:#89D6F7;" d="M505.375,403.419l-102,102c-2.3,2.3-6.1,2.3-8.5,0l-201-201c-2.3-2.3-2.3-6.1,0-8.5l102-102
	c2.3-2.3,6.1-2.3,8.5,0l201,201C507.675,397.219,507.675,401.019,505.375,403.419z"/>
<polygon style="fill:#F2F2F2;" points="26.675,0.019 0.075,26.619 31.275,73.519 64.175,98.619 227.675,262.119 262.175,227.719 
	98.575,64.219 73.475,31.219 "/>
<g>
	<path style="fill:#55BFE9;" d="M392.675,453.219L392.675,453.219c-4.6,4.6-12,4.6-16.5,0l-130-130c-4.6-4.6-4.6-12,0-16.5l0,0
		c4.6-4.6,12-4.6,16.5,0l130,130C397.275,441.219,397.275,448.619,392.675,453.219z"/>
	<path style="fill:#55BFE9;" d="M460.675,385.219l-14.9,14.9c-0.4,0.4-1.2,0.4-1.6,0l-145-145c-0.4-0.4-0.4-1.2,0-1.6l14.9-14.9
		c0.4-0.4,1.2-0.4,1.6,0l145,145C461.075,384.019,461.075,384.719,460.675,385.219z"/>
</g>
<g>
</g>
<g>
</g>
<g>
</g>
<g>
</g>
<g>
</g>
<g>
</g>
<g>
</g>
<g>
</g>
<g>
</g>
<g>
</g>
<g>
</g>
<g>
</g>
<g>
</g>
<g>
</g>
<g>
</g>
</svg>
