<?xml version="1.0" encoding="iso-8859-1"?>
<!-- Generator: Adobe Illustrator 19.0.0, SVG Export Plug-In . SVG Version: 6.00 Build 0)  -->
<svg version="1.1" id="Capa_1" xmlns="http://www.w3.org/2000/svg" xmlns:xlink="http://www.w3.org/1999/xlink" x="0px" y="0px"
	 viewBox="0 0 508 508" style="enable-background:new 0 0 508 508;" xml:space="preserve">
<path style="fill:#65C5B8;" d="M67.6,156.6v295c22,22,34.4,34.4,56.4,56.4h260c22-22,34.4-34.4,56.4-56.4v-295H67.6z"/>
<path style="fill:#41596B;" d="M450.5,78.5h-393c-11.7,0-21.2,9.5-21.2,21.2v56.9h435.4V99.7C471.7,88,462.2,78.5,450.5,78.5z"/>
<g>
	<path style="fill:#4FBFA8;" d="M166.6,219.2c-8.6,0-15.5,6.9-15.5,15.5v206.6c0,8.6,6.9,15.5,15.5,15.5s15.5-6.9,15.5-15.5V234.7
		C182.1,226.1,175.2,219.2,166.6,219.2z"/>
	<path style="fill:#4FBFA8;" d="M259.6,219.2c-8.6,0-15.5,6.9-15.5,15.5v206.6c0,8.6,6.9,15.5,15.5,15.5c8.6,0,15.5-6.9,15.5-15.5
		V234.7C275.1,226.1,268.2,219.2,259.6,219.2z"/>
	<path style="fill:#4FBFA8;" d="M352.6,219.2c-8.6,0-15.5,6.9-15.5,15.5v206.6c0,8.6,6.9,15.5,15.5,15.5s15.5-6.9,15.5-15.5V234.7
		C368.1,226.1,361.2,219.2,352.6,219.2z"/>
</g>
<path style="fill:#334A5E;" d="M185.9,78.5V50.2c0-9,7.3-16.3,16.3-16.3h103.6c9,0,16.3,7.3,16.3,16.3v28.4H356V50.2
	C356,22.5,333.5,0,305.8,0H202.2C174.5,0,152,22.5,152,50.2v28.4h33.9V78.5z"/>
<g>
	<path style="fill:#FFFFFF;" d="M161,213.5c-8.6,0-15.5,6.9-15.5,15.5v206.6c0,8.6,6.9,15.5,15.5,15.5s15.5-6.9,15.5-15.5V229
		C176.5,220.5,169.6,213.5,161,213.5z"/>
	<path style="fill:#FFFFFF;" d="M254,213.5c-8.6,0-15.5,6.9-15.5,15.5v206.6c0,8.6,6.9,15.5,15.5,15.5c8.6,0,15.5-6.9,15.5-15.5V229
		C269.5,220.5,262.6,213.5,254,213.5z"/>
	<path style="fill:#FFFFFF;" d="M347,213.5c-8.6,0-15.5,6.9-15.5,15.5v206.6c0,8.6,6.9,15.5,15.5,15.5s15.5-6.9,15.5-15.5V229
		C362.5,220.5,355.6,213.5,347,213.5z"/>
</g>
<rect x="67.6" y="156.6" style="fill:#4FBFA8;" width="372.8" height="15.8"/>
<g>
</g>
<g>
</g>
<g>
</g>
<g>
</g>
<g>
</g>
<g>
</g>
<g>
</g>
<g>
</g>
<g>
</g>
<g>
</g>
<g>
</g>
<g>
</g>
<g>
</g>
<g>
</g>
<g>
</g>
</svg>
