<?xml version="1.0" encoding="iso-8859-1"?>
<!-- Generator: Adobe Illustrator 19.0.0, SVG Export Plug-In . SVG Version: 6.00 Build 0)  -->
<svg version="1.1" id="Capa_1" xmlns="http://www.w3.org/2000/svg" xmlns:xlink="http://www.w3.org/1999/xlink" x="0px" y="0px"
	 viewBox="0 0 512 512" style="enable-background:new 0 0 512 512;" xml:space="preserve">
<path style="fill:#0277BD;" d="M448,0H64C28.672,0,0,28.672,0,64v384c0,35.328,28.672,64,64,64h384c35.36,0,64-28.672,64-64V64
	C512,28.64,483.328,0,448,0z"/>
<g>
	<path style="fill:#ECEFF1;" d="M224,384c0,17.664-14.336,32-32,32H96c-17.696,0-32-14.336-32-32V96c0-17.696,14.304-32,32-32h96
		c17.664,0,32,14.304,32,32V384z"/>
	<path style="fill:#ECEFF1;" d="M448,256c0,17.664-14.336,32-32,32h-96c-17.696,0-32-14.336-32-32V96c0-17.696,14.304-32,32-32h96
		c17.664,0,32,14.304,32,32V256z"/>
</g>
<g>
</g>
<g>
</g>
<g>
</g>
<g>
</g>
<g>
</g>
<g>
</g>
<g>
</g>
<g>
</g>
<g>
</g>
<g>
</g>
<g>
</g>
<g>
</g>
<g>
</g>
<g>
</g>
<g>
</g>
</svg>
