<?xml version="1.0" encoding="iso-8859-1"?>
<!-- Generator: Adobe Illustrator 19.0.0, SVG Export Plug-In . SVG Version: 6.00 Build 0)  -->
<svg version="1.1" id="Capa_1" xmlns="http://www.w3.org/2000/svg" xmlns:xlink="http://www.w3.org/1999/xlink" x="0px" y="0px"
	 viewBox="0 0 508.1 508.1" style="enable-background:new 0 0 508.1 508.1;" xml:space="preserve">
<g>
	<path style="fill:#334A5E;" d="M231.4,222.2v219.3c0,11.8-9.6,21.4-21.4,21.4c-11.8,0-21.4-9.6-21.4-21.4v-19.3h-45.2v19.3
		c0,36.7,29.9,66.6,66.6,66.6s66.6-29.9,66.6-66.6V222.2H231.4z"/>
	<path style="fill:#334A5E;" d="M254,0c-12.5,0-22.6,10.1-22.6,22.6v54.5h45.2V22.6C276.6,10.1,266.5,0,254,0z"/>
	<path style="fill:#334A5E;" d="M231.4,371.7v69.7c0,11.8-9.6,21.4-21.4,21.4c-11.8,0-21.4-9.6-21.4-21.4v-19.3h-45.2v19.3
		c0,36.7,29.9,66.6,66.6,66.6s66.6-29.9,66.6-66.6v-69.7H231.4z"/>
</g>
<path style="fill:#89D6F7;" d="M379.3,266.9c0.6,1,1.1,2.1,1.6,3.2c0.2-0.3,0.3-0.6,0.5-0.9C380.9,268.2,380.3,267.4,379.3,266.9z"
	/>
<path style="fill:#65C5B8;" d="M381.7,270c0.1-0.1,0.1-0.2,0.1-0.3c0-0.5-0.1-0.8-0.1-1.3c-0.2,0.2-0.3,0.5-0.4,0.7
	C381.5,269.4,381.6,269.7,381.7,270z"/>
<path style="fill:#F05540;" d="M250.8,22.6C118.6,24.2,10.7,127.4,0,258.4c0.1,0.1,0.1,0.2,0.2,0.3c11.1-24,35.3-40.7,63.4-40.7
	c27.5,0,51.3,16,62.7,39.1C131.9,127.8,185.3,25.8,250.8,22.6z"/>
<path style="fill:#F2705B;" d="M257.2,22.6c65.5,3.2,118.9,105.1,124.6,234.5C393.2,234,417,218,444.5,218
	c28.2,0,52.4,16.7,63.4,40.7c0.1-0.1,0.1-0.2,0.2-0.3C497.3,127.4,389.4,24.2,257.2,22.6z"/>
<path style="fill:#F05540;" d="M257.2,22.6c-1.1-0.1-2.1-0.1-3.1-0.1v236.1c11.1-24,35.3-40.6,63.4-40.6c26.9,0,50.2,15.2,61.9,37.5
	c1,0.6,1.6,1.3,2,2.3c0.1-0.3,0.2-0.5,0.4-0.7C376.1,127.7,322.7,25.8,257.2,22.6z"/>
<path style="fill:#F2705B;" d="M254,22.6c-1.1,0-2.1,0-3.2,0.1c-65.6,3.2-118.9,105.2-124.6,234.5c0.3,0.5,0.6,1,0.8,1.6
	c11.1-24,35.3-40.7,63.5-40.7s52.4,16.7,63.4,40.7c0,0,0,0,0-0.1L254,22.6L254,22.6z"/>
<g>
</g>
<g>
</g>
<g>
</g>
<g>
</g>
<g>
</g>
<g>
</g>
<g>
</g>
<g>
</g>
<g>
</g>
<g>
</g>
<g>
</g>
<g>
</g>
<g>
</g>
<g>
</g>
<g>
</g>
</svg>
