<?xml version="1.0" encoding="iso-8859-1"?>
<!-- Generator: Adobe Illustrator 19.0.0, SVG Export Plug-In . SVG Version: 6.00 Build 0)  -->
<svg version="1.1" id="Capa_1" xmlns="http://www.w3.org/2000/svg" xmlns:xlink="http://www.w3.org/1999/xlink" x="0px" y="0px"
	 viewBox="0 0 508.1 508.1" style="enable-background:new 0 0 508.1 508.1;" xml:space="preserve">
<g>
	<path style="fill:#41596B;" d="M21.25,0C9.55,0,0.05,9.5,0.05,21.2v465.7c0,11.7,9.5,21.2,21.2,21.2h106.2V0H21.25z"/>
	<path style="fill:#41596B;" d="M486.85,0h-106.2v508h106.2c11.7,0,21.2-9.5,21.2-21.2V21.2C508.05,9.5,498.55,0,486.85,0z"/>
</g>
<rect x="127.45" style="fill:#89D6F7;" width="253.2" height="508"/>
<path style="fill:#FFFFFF;" d="M254.05,158.7c-56.7,0-102.6,45.9-102.6,102.6c0,5.2,0.4,10.4,1.2,15.4c5.9,39.5,34.3,71.6,71.7,82.8
	c9.4,2.9,19.4,4.4,29.7,4.4c5.3,0,10.6-0.4,15.6-1.2c39.3-6,71.4-34.4,82.6-71.8c2.9-9.4,4.4-19.3,4.4-29.6
	C356.65,204.6,310.65,158.7,254.05,158.7z"/>
<g>
	<rect x="28.55" y="63.4" style="fill:#F2F2F2;" width="70.4" height="70.4"/>
	<rect x="28.55" y="374.1" style="fill:#F2F2F2;" width="70.4" height="70.4"/>
	<rect x="28.55" y="218.8" style="fill:#F2F2F2;" width="70.4" height="70.4"/>
	<rect x="409.15" y="63.4" style="fill:#F2F2F2;" width="70.4" height="70.4"/>
	<rect x="409.15" y="374.1" style="fill:#F2F2F2;" width="70.4" height="70.4"/>
	<rect x="409.15" y="218.8" style="fill:#F2F2F2;" width="70.4" height="70.4"/>
</g>
<path style="fill:#F2705B;" d="M316.95,250.7l-80.7-52.7c-8.4-5.5-19.6,0.5-19.6,10.6V314c0,10.1,11.2,16.1,19.6,10.6l80.7-52.7
	C324.65,266.9,324.65,255.7,316.95,250.7z"/>
<g>
</g>
<g>
</g>
<g>
</g>
<g>
</g>
<g>
</g>
<g>
</g>
<g>
</g>
<g>
</g>
<g>
</g>
<g>
</g>
<g>
</g>
<g>
</g>
<g>
</g>
<g>
</g>
<g>
</g>
</svg>
