<?xml version="1.0" encoding="iso-8859-1"?>
<!-- Generator: Adobe Illustrator 19.0.0, SVG Export Plug-In . SVG Version: 6.00 Build 0)  -->
<svg version="1.1" id="Capa_1" xmlns="http://www.w3.org/2000/svg" xmlns:xlink="http://www.w3.org/1999/xlink" x="0px" y="0px"
	 viewBox="0 0 508.1 508.1" style="enable-background:new 0 0 508.1 508.1;" xml:space="preserve">
<path style="fill:#F2F2F2;" d="M486.8,0H21.2C9.5,0,0,9.5,0,21.2v465.7c0,11.7,9.5,21.2,21.2,21.2h465.7c11.7,0,21.2-9.5,21.2-21.2
	V21.2C508,9.5,498.5,0,486.8,0z"/>
<rect x="33.9" y="130.6" style="fill:#FFFFFF;" width="440.3" height="343.5"/>
<circle style="fill:#FFD05C;" cx="56.4" cy="65.3" r="22.5"/>
<circle style="fill:#4FBFA8;" cx="127.3" cy="65.3" r="22.5"/>
<circle style="fill:#FFFFFF;" cx="198.3" cy="65.3" r="22.5"/>
<circle style="fill:#F2705B;" cx="254" cy="302.4" r="138.2"/>
<path style="fill:#FFFFFF;" d="M320.2,294.1L235.5,236c-6.8-4.7-16.1,0.1-16.1,8.2v116.3c0,8.1,9.3,12.9,16.1,8.2l84.7-58.2
	C326,306.6,326,298.1,320.2,294.1z"/>
<g>
</g>
<g>
</g>
<g>
</g>
<g>
</g>
<g>
</g>
<g>
</g>
<g>
</g>
<g>
</g>
<g>
</g>
<g>
</g>
<g>
</g>
<g>
</g>
<g>
</g>
<g>
</g>
<g>
</g>
</svg>
