<?xml version="1.0" encoding="iso-8859-1"?>
<!-- Generator: Adobe Illustrator 19.0.0, SVG Export Plug-In . SVG Version: 6.00 Build 0)  -->
<svg version="1.1" id="Capa_1" xmlns="http://www.w3.org/2000/svg" xmlns:xlink="http://www.w3.org/1999/xlink" x="0px" y="0px"
	 viewBox="0 0 508.1 508.1" style="enable-background:new 0 0 508.1 508.1;" xml:space="preserve">
<path style="fill:#F2F2F2;" d="M486.8,0H21.2C9.5,0,0,9.5,0,21.2v465.7c0,11.7,9.5,21.2,21.2,21.2h465.7c11.7,0,21.2-9.5,21.2-21.2
	V21.2C508,9.5,498.5,0,486.8,0z"/>
<rect x="45.2" y="45.2" style="fill:#89D6F7;" width="417.7" height="302.9"/>
<path style="fill:#FFFFFF;" d="M254.3,93.2c-57.1,0-103.4,46.3-103.4,103.4c0,4.7,0.3,9.3,0.9,13.8c5.1,38.1,31,69.7,65.9,82.8
	c11.3,4.3,23.7,6.7,36.6,6.7c57.1,0,103.4-46.3,103.4-103.4C357.7,139.5,311.4,93.2,254.3,93.2z"/>
<path style="fill:#F2705B;" d="M307.3,191.2l-71.6-46.9c-4.3-2.8-10.1,0.3-10.1,5.5v93.7c0,5.2,5.8,8.3,10.1,5.5l71.6-46.9
	C311.2,199.5,311.2,193.7,307.3,191.2z"/>
<rect x="73.3" y="418" style="fill:#CDD5DF;" width="361.5" height="22.1"/>
<rect x="151.8" y="401" style="fill:#334A5E;" width="31.7" height="56.2"/>
<g>
</g>
<g>
</g>
<g>
</g>
<g>
</g>
<g>
</g>
<g>
</g>
<g>
</g>
<g>
</g>
<g>
</g>
<g>
</g>
<g>
</g>
<g>
</g>
<g>
</g>
<g>
</g>
<g>
</g>
</svg>
