<?xml version="1.0" encoding="iso-8859-1"?>
<!-- Generator: Adobe Illustrator 19.0.0, SVG Export Plug-In . SVG Version: 6.00 Build 0)  -->
<svg version="1.1" id="Capa_1" xmlns="http://www.w3.org/2000/svg" xmlns:xlink="http://www.w3.org/1999/xlink" x="0px" y="0px"
	 viewBox="0 0 512 512" style="enable-background:new 0 0 512 512;" xml:space="preserve">
<circle style="fill:#FAFAFA;" cx="256" cy="256" r="224"/>
<path style="fill:#2196F3;" d="M344.48,242.432l-128-80c-4.928-3.104-11.2-3.232-16.224-0.448C195.168,164.832,192,170.176,192,176
	v160c0,5.824,3.168,11.2,8.256,14.016c2.4,1.312,5.088,1.984,7.744,1.984c2.944,0,5.888-0.8,8.48-2.432l128-80
	c4.672-2.912,7.52-8.064,7.52-13.568S349.152,245.344,344.48,242.432z"/>
<path style="fill:#F44336;" d="M64,256H0C0,114.848,114.848,0,256,0v64C150.112,64,64,150.112,64,256z"/>
<path style="fill:#FFC107;" d="M256,512v-64c105.888,0,192-86.112,192-192h64C512,397.152,397.152,512,256,512z"/>
<path style="fill:#2196F3;" d="M256,512C114.848,512,0,397.152,0,256h64c0,105.888,86.112,192,192,192V512z"/>
<path style="fill:#4CAF50;" d="M512,256h-64c0-105.888-86.112-192-192-192V0C397.152,0,512,114.848,512,256z"/>
<g>
</g>
<g>
</g>
<g>
</g>
<g>
</g>
<g>
</g>
<g>
</g>
<g>
</g>
<g>
</g>
<g>
</g>
<g>
</g>
<g>
</g>
<g>
</g>
<g>
</g>
<g>
</g>
<g>
</g>
</svg>
