<?xml version="1.0" encoding="iso-8859-1"?>
<!-- Generator: Adobe Illustrator 19.0.0, SVG Export Plug-In . SVG Version: 6.00 Build 0)  -->
<svg version="1.1" id="Capa_1" xmlns="http://www.w3.org/2000/svg" xmlns:xlink="http://www.w3.org/1999/xlink" x="0px" y="0px"
	 viewBox="0 0 512 512" style="enable-background:new 0 0 512 512;" xml:space="preserve">
<g>
	<path style="fill:#4CAF50;" d="M169.184,45.276c26.976,10.592,53.12,24.64,77.664,41.728c2.752,1.92,5.952,2.88,9.152,2.88
		c3.2,0,6.4-0.96,9.152-2.88c24.576-17.12,50.72-31.168,77.664-41.76c6.144-2.4,10.176-8.352,10.144-14.976
		c-0.032-6.624-4.128-12.512-10.304-14.848c-53.952-20.512-119.392-20.512-173.312,0c-6.144,2.336-10.272,8.256-10.304,14.848
		S163.04,42.844,169.184,45.276z"/>
	<path style="fill:#4CAF50;" d="M401.056,45.34c-5.088-3.488-11.648-3.776-17.056-0.672c-29.856,17.216-58.848,36.928-86.112,58.624
		c-3.616,2.88-5.824,7.168-6.016,11.808c-0.224,4.64,1.6,9.12,4.928,12.288c56.576,53.92,135.04,219.168,152.992,295.232
		c-39.04-65.984-125.984-221.28-182.912-274.368c-6.112-5.728-15.68-5.728-21.824,0c-56.992,53.12-143.68,208.544-182.72,274.56
		c17.952-76.032,96.192-241.472,152.8-295.424c3.36-3.2,5.152-7.68,4.96-12.288s-2.368-8.928-5.984-11.808
		C186.816,81.596,157.856,61.884,128,44.668c-5.344-3.072-11.968-2.784-17.088,0.672C41.472,93.212,0,171.932,0,255.964
		c0,61.408,22.08,120.608,62.368,166.848c48.16,56.64,118.72,89.152,193.632,89.152s145.472-32.512,193.824-89.344
		C489.92,376.604,512,317.404,512,255.964C512,171.932,470.528,93.212,401.056,45.34z"/>
</g>
<g>
</g>
<g>
</g>
<g>
</g>
<g>
</g>
<g>
</g>
<g>
</g>
<g>
</g>
<g>
</g>
<g>
</g>
<g>
</g>
<g>
</g>
<g>
</g>
<g>
</g>
<g>
</g>
<g>
</g>
</svg>
