<?xml version="1.0" encoding="iso-8859-1"?>
<!-- Generator: Adobe Illustrator 19.0.0, SVG Export Plug-In . SVG Version: 6.00 Build 0)  -->
<svg version="1.1" id="Capa_1" xmlns="http://www.w3.org/2000/svg" xmlns:xlink="http://www.w3.org/1999/xlink" x="0px" y="0px"
	 viewBox="0 0 512 512" style="enable-background:new 0 0 512 512;" xml:space="preserve">
<path style="fill:#F44336;" d="M128.477,23.317c26.016-20.32,76.032-26.112,96.608-22.144c20.608,3.936,31.36,15.36,31.488,29.312
	l1.184,177.504c0.096,13.952-7.2,26.752-16.224,28.48c-9.056,1.696-22.4-6.592-29.76-18.464L117.917,65.781
	C110.653,53.909,95.997,48.661,128.477,23.317L128.477,23.317z M97.309,360.917l94.496-33.184
	c13.152-4.64,24.96-17.536,26.272-28.736c1.28-11.2-8.288-24.512-21.28-29.6l-99.808-39.264c-12.992-5.12-28,6.976-31.936,26.752
	c0,0-2.368,68.896,0,83.136C67.453,354.293,84.125,365.589,97.309,360.917L97.309,360.917z M262.141,377.525
	c0.256-13.984-7.232-26.048-16.704-26.912c-9.472-0.864-24.512,7.136-33.504,17.792l-65.92,78.464
	c-8.96,10.656-4.512,35.68,8.576,40.448l68.928,23.744c13.12,4.736,36.224-9.28,36.48-23.232L262.141,377.525L262.141,377.525z
	 M425.949,359.253l-82.656-23.584c-13.408-3.84-28.608-3.456-33.76,0.864c-5.152,4.256-3.872,17.792,2.88,30.016l52.16,94.752
	c6.72,12.192,33.728,10.112,41.152-1.728c0,0,31.424-46.016,37.216-63.296C448.733,378.965,439.357,363.061,425.949,359.253
	L425.949,359.253z M446.077,226.005c-3.712-12-29.568-47.328-43.552-59.36c-13.984-12.064-29.984-10.56-38.976,0.032l-53.28,63.008
	c-9.024,10.592-11.456,27.424-5.44,37.28c6.016,9.888,22.048,15.488,35.68,12.448l92.128-16.96
	C449.277,258.485,449.885,238.005,446.077,226.005L446.077,226.005z"/>
<g>
</g>
<g>
</g>
<g>
</g>
<g>
</g>
<g>
</g>
<g>
</g>
<g>
</g>
<g>
</g>
<g>
</g>
<g>
</g>
<g>
</g>
<g>
</g>
<g>
</g>
<g>
</g>
<g>
</g>
</svg>
