<svg id="Capa_1" enable-background="new 0 0 497 497" height="512" viewBox="0 0 497 497" width="512" xmlns="http://www.w3.org/2000/svg"><g><path d="m429.5 261.333-30 42.833 30 42.833h22.5c4.142 0 7.5-3.358 7.5-7.5v-70.667c0-4.142-3.358-7.5-7.5-7.5h-22.5z" fill="#ff5a47"/><path d="m369.5 261.333h60v85.667h-60z" fill="#fe8047"/><path d="m429.5 145.667-30 42.833 30 42.833h22.5c4.142 0 7.5-3.358 7.5-7.5v-70.667c0-4.142-3.358-7.5-7.5-7.5h-22.5z" fill="#a4d43b"/><path d="m369.5 145.667h60v85.667h-60z" fill="#cce332"/><path d="m429.5 30-30 42.833 30 42.833h22.5c4.142 0 7.5-3.358 7.5-7.5v-70.666c0-4.142-3.358-7.5-7.5-7.5z" fill="#fcc023"/><path d="m369.5 30h60v85.667h-60z" fill="#fcd72b"/><path d="m82.5 0 120 422h-165v-377c0-24.85 20.15-45 45-45z" fill="#0f4c81"/><path d="m399.5 7.5v369.5l-120 15 90-392h22.5c4.142 0 7.5 3.358 7.5 7.5z" fill="#2d6aab"/><path d="m369.5 0v392h-287v-392h212l22.5 30 22.5-30z" fill="#4b88d5"/><path d="m399.5 467v22.5c0 4.142-3.358 7.5-7.5 7.5h-22.5l-30-60z" fill="#0f4c81"/><path d="m399.5 377v30l-60 30 30-60z" fill="#0f4c81"/><path d="m82.5 377c-24.85 0-45 20.15-45 45v30c0 24.85 20.15 45 45 45h212l22.5-15 22.5 15h30v-120z" fill="#2d6aab"/><path d="m369.5 407h30c-8.29 8.29-12.44 19.14-12.44 30l-60 15z" fill="#fff7ba"/><path d="m399.5 467h-30l-42.44-30h60c0 10.86 4.15 21.71 12.44 30z" fill="#fff04a"/><path d="m369.5 467h-287c-8.28 0-15-6.72-15-15v-15l15-15h259.56l15 15c0 10.86 4.15 21.71 12.44 30z" fill="#fff7ba"/><path d="m82.5 407h287c-8.29 8.29-12.44 19.14-12.44 30h-289.56v-15c0-8.28 6.72-15 15-15z" fill="#fff"/><path d="m294.5 377v120h45v-120l-22.5-30z" fill="#404242"/><path d="m294.5 0h45v377h-45z" fill="#565959"/></g></svg>