<?xml version="1.0" encoding="iso-8859-1"?>
<!-- Generator: Adobe Illustrator 19.0.0, SVG Export Plug-In . SVG Version: 6.00 Build 0)  -->
<svg version="1.1" id="Capa_1" xmlns="http://www.w3.org/2000/svg" xmlns:xlink="http://www.w3.org/1999/xlink" x="0px" y="0px"
	 viewBox="0 0 508 508" style="enable-background:new 0 0 508 508;" xml:space="preserve">
<rect x="103.4" y="143.4" style="fill:#41596B;" width="315.1" height="325.6"/>
<rect y="476.3" style="fill:#CDD5DF;" width="508" height="31.7"/>
<g>
	<rect x="27.2" y="444.7" style="fill:#F2F2F2;" width="453.6" height="31.7"/>
	<polygon style="fill:#F2F2F2;" points="254,0 27.2,109.1 27.2,172.7 480.8,172.7 480.8,109.1 	"/>
	<rect x="220.6" y="208.4" style="fill:#F2F2F2;" width="66.8" height="200.6"/>
	<rect x="371.2" y="208.4" style="fill:#F2F2F2;" width="66.8" height="200.6"/>
	<rect x="70" y="208.4" style="fill:#F2F2F2;" width="66.8" height="200.6"/>
</g>
<g>
	<rect x="206.1" y="172.7" style="fill:#CDD5DF;" width="95.9" height="35.7"/>
	<rect x="206.1" y="409" style="fill:#CDD5DF;" width="95.9" height="35.7"/>
	<rect x="55.4" y="172.7" style="fill:#CDD5DF;" width="95.9" height="35.7"/>
	<rect x="55.4" y="409" style="fill:#CDD5DF;" width="95.9" height="35.7"/>
	<rect x="356.7" y="172.7" style="fill:#CDD5DF;" width="95.9" height="35.7"/>
	<rect x="356.7" y="409" style="fill:#CDD5DF;" width="95.9" height="35.7"/>
</g>
<circle style="fill:#ABB2B9;" cx="254" cy="86.4" r="36.6"/>
<g>
</g>
<g>
</g>
<g>
</g>
<g>
</g>
<g>
</g>
<g>
</g>
<g>
</g>
<g>
</g>
<g>
</g>
<g>
</g>
<g>
</g>
<g>
</g>
<g>
</g>
<g>
</g>
<g>
</g>
</svg>
