<?xml version="1.0" encoding="iso-8859-1"?>
<!-- Generator: Adobe Illustrator 19.0.0, SVG Export Plug-In . SVG Version: 6.00 Build 0)  -->
<svg version="1.1" id="Layer_1" xmlns="http://www.w3.org/2000/svg" xmlns:xlink="http://www.w3.org/1999/xlink" x="0px" y="0px"
	 viewBox="0 0 473.931 473.931" style="enable-background:new 0 0 473.931 473.931;" xml:space="preserve">
<circle style="fill:#49A0AE;" cx="236.966" cy="236.966" r="236.966"/>
<path style="fill:#E8E8E8;" d="M473.931,236.954c0-31.797-6.305-62.106-17.661-89.806H128.885
	c-24.797,0-44.901,20.101-44.901,44.901v225.834c41.283,34.941,94.648,56.048,152.967,56.048
	C367.834,473.931,473.931,367.83,473.931,236.954z"/>
<polygon style="fill:#BC2C2A;" points="140.514,155.567 140.514,406.153 234.462,339.359 328.418,406.153 328.422,155.567 "/>
<path style="fill:#CC3432;" d="M390.584,147.148c0-15.966-12.939-28.913-28.909-28.913H169.423
	c-15.974,0-28.913,12.946-28.913,28.913v250.586l93.948-66.798l93.956,66.798V277.332c0-0.022,0.004-0.037,0.004-0.06V147.148
	H390.584z"/>
<g>
	<polygon style="fill:#DDA027;" points="234.462,180.143 252.277,216.225 292.086,222.01 263.274,250.096 270.08,289.751 
		234.462,271.027 198.848,289.751 205.655,250.096 176.847,222.01 216.655,216.225 	"/>
	<path style="fill:#DDA027;" d="M270.08,293.492c-0.595,0-1.194-0.142-1.74-0.43l-33.878-17.807l-33.87,17.807
		c-1.261,0.666-2.788,0.554-3.944-0.284c-1.152-0.838-1.729-2.256-1.485-3.659l6.47-37.717l-27.401-26.712
		c-1.018-0.995-1.384-2.481-0.947-3.835c0.442-1.355,1.613-2.342,3.023-2.548l37.863-5.504l16.935-34.316
		c1.257-2.556,5.452-2.556,6.709,0l16.943,34.316l37.863,5.504c1.411,0.206,2.578,1.194,3.023,2.548
		c0.438,1.355,0.075,2.84-0.947,3.835l-27.405,26.709l6.47,37.717c0.239,1.403-0.337,2.821-1.486,3.659
		C271.629,293.249,270.855,293.492,270.08,293.492z M234.462,267.285c0.599,0,1.194,0.142,1.74,0.43l28.909,15.195l-5.523-32.183
		c-0.21-1.212,0.195-2.451,1.074-3.311l23.386-22.795l-32.31-4.696c-1.22-0.176-2.271-0.943-2.818-2.047l-14.458-29.283
		l-14.451,29.283c-0.546,1.104-1.598,1.871-2.818,2.047l-32.31,4.696l23.382,22.795c0.879,0.857,1.283,2.099,1.074,3.311
		l-5.523,32.183l28.901-15.195C233.269,267.427,233.864,267.285,234.462,267.285z"/>
</g>
<g>
</g>
<g>
</g>
<g>
</g>
<g>
</g>
<g>
</g>
<g>
</g>
<g>
</g>
<g>
</g>
<g>
</g>
<g>
</g>
<g>
</g>
<g>
</g>
<g>
</g>
<g>
</g>
<g>
</g>
</svg>
