<?xml version="1.0" encoding="iso-8859-1"?>
<!-- Generator: Adobe Illustrator 19.0.0, SVG Export Plug-In . SVG Version: 6.00 Build 0)  -->
<svg version="1.1" id="Capa_1" xmlns="http://www.w3.org/2000/svg" xmlns:xlink="http://www.w3.org/1999/xlink" x="0px" y="0px"
	 viewBox="0 0 512 512" style="enable-background:new 0 0 512 512;" xml:space="preserve">
<path style="fill:#53433F;" d="M512,300.001v167c0,24.899-20.099,45-45,45H77c-24.901,0-47-20.101-47-45v-167l32-30h413.401
	L512,300.001z"/>
<path style="fill:#3E322E;" d="M512,300.001v167c0,24.899-20.099,45-45,45H272v-242h203.401L512,300.001z"/>
<g>
	<circle style="fill:#FFEEE6;" cx="107" cy="437.001" r="15"/>
	<circle style="fill:#EFE2DD;" cx="437" cy="437.001" r="15"/>
</g>
<path style="fill:#3E322E;" d="M497,210.001h-31.974l-66.055,30l-0.002,30l6.055,30H512v-75
	C512,216.715,505.284,210.001,497,210.001z"/>
<polygon style="fill:#EFE2DD;" points="375.028,210.001 308.973,240.001 278.973,270.001 315.028,300.001 405.024,300.001 
	465.026,210.001 "/>
<polygon style="fill:#53433F;" points="374.9,210.001 314.9,300.001 224.9,300.001 188.899,270.001 218.899,240.001 272,216.001 
	284.9,210.001 "/>
<polygon style="fill:#3E322E;" points="284.9,210.001 374.9,210.001 314.9,300.001 272,300.001 272,216.001 "/>
<polygon style="fill:#FFEEE6;" points="195.028,210.001 158.973,240.001 98.973,270.001 135.028,300.001 225.028,300.001 
	285.028,210.001 "/>
<polygon style="fill:#53433F;" points="30,210.001 30,300.001 135.028,300.001 195.028,210.001 "/>
<path style="fill:#EFE2DD;" d="M511.224,94.022L490.16,30.799c-7.515-22.544-31.392-35.435-54.287-29.253l-77.911,20.777
	l-6.035,39.609l60.976,36.779l66.037,20.392l21.929-5.848c3.999-1.055,7.383-3.735,9.331-7.368
	C512.161,102.24,512.542,97.948,511.224,94.022z"/>
<polygon style="fill:#3E322E;" points="357.961,22.323 262.338,47.824 256.302,87.434 317.276,124.212 383.312,144.603 
	478.938,119.104 "/>
<polygon style="fill:#FFEEE6;" points="383.301,144.667 287.601,170.168 272,165.367 221.6,149.768 160.699,112.867 166.7,73.267 
	262.4,47.768 272,55.568 "/>
<polygon style="fill:#EFE2DD;" points="287.601,170.168 272,165.367 272,55.568 383.301,144.667 "/>
<polygon style="fill:#53433F;" points="287.6,170.171 272,174.37 192.2,195.671 125.9,175.271 65.9,139.271 71,98.771 166.7,73.271 
	272,157.571 "/>
<path style="fill:#FFEEE6;" d="M71.093,98.825l-29.14,7.238c-2.792,0.743-5.468,1.805-8.038,3.058
	c-8.421,4.102-15.494,10.737-19.984,19.076c-5.874,10.884-6.987,23.848-3.076,35.566l10.43,31.289l54.69,30.981
	c1.289,0,2.578-0.161,3.882-0.513l76.177-20.314l36.037-9.609L71.093,98.825z"/>
<path style="fill:#A44F3E;" d="M45,270.001c-24.814,0-45-20.186-45-45s20.186-45,45-45s47,20.186,47,45S69.814,270.001,45,270.001z"
	/>
<polygon style="fill:#3C3A41;" points="287.6,170.171 272,174.37 272,157.571 "/>
<g>
</g>
<g>
</g>
<g>
</g>
<g>
</g>
<g>
</g>
<g>
</g>
<g>
</g>
<g>
</g>
<g>
</g>
<g>
</g>
<g>
</g>
<g>
</g>
<g>
</g>
<g>
</g>
<g>
</g>
</svg>
