<?xml version="1.0" encoding="iso-8859-1"?>
<!-- Generator: Adobe Illustrator 19.0.0, SVG Export Plug-In . SVG Version: 6.00 Build 0)  -->
<svg version="1.1" id="Capa_1" xmlns="http://www.w3.org/2000/svg" xmlns:xlink="http://www.w3.org/1999/xlink" x="0px" y="0px"
	 viewBox="0 0 508.1 508.1" style="enable-background:new 0 0 508.1 508.1;" xml:space="preserve">
<path style="fill:#41596B;" d="M486.8,0.4H52.4c-11.7,0-21.2,9.5-21.2,21.2V306c0,11.7,9.5,21.2,21.2,21.2h434.5
	c11.7,0,21.2-9.5,21.2-21.2V21.5C508,9.8,498.5,0.4,486.8,0.4z"/>
<path style="fill:#F2F2F2;" d="M455.6,180.9H21.2C9.5,180.9,0,190.4,0,202.1v284.4c0,11.7,9.5,21.2,21.2,21.2h434.5
	c11.7,0,21.2-9.5,21.2-21.2V202.1C476.8,190.4,467.3,180.9,455.6,180.9z"/>
<g>
	<rect x="39.4" y="263.2" style="fill:#CDD5DF;" width="135.8" height="23.6"/>
	<rect x="39.4" y="346.8" style="fill:#CDD5DF;" width="188" height="23.6"/>
</g>
<rect x="39.2" y="430.1" style="fill:#89D6F7;" width="83.1" height="23.6"/>
<rect x="144.2" y="430.1" style="fill:#55BFE9;" width="83.1" height="23.6"/>
<rect x="249.1" y="430.1" style="fill:#89D6F7;" width="83.1" height="23.6"/>
<rect x="354" y="430.1" style="fill:#55BFE9;" width="83.1" height="23.6"/>
<rect x="31.2" y="74.5" style="fill:#65C5B8;" width="476.8" height="59.2"/>
<circle style="fill:#F2705B;" cx="333.8" cy="275" r="40.3"/>
<circle style="fill:#FFD05C;" cx="397" cy="275" r="40.3"/>
<g>
</g>
<g>
</g>
<g>
</g>
<g>
</g>
<g>
</g>
<g>
</g>
<g>
</g>
<g>
</g>
<g>
</g>
<g>
</g>
<g>
</g>
<g>
</g>
<g>
</g>
<g>
</g>
<g>
</g>
</svg>
