<?xml version="1.0" encoding="iso-8859-1"?>
<!-- Generator: Adobe Illustrator 19.0.0, SVG Export Plug-In . SVG Version: 6.00 Build 0)  -->
<svg version="1.1" id="Layer_1" xmlns="http://www.w3.org/2000/svg" xmlns:xlink="http://www.w3.org/1999/xlink" x="0px" y="0px"
	 viewBox="0 0 512 512" style="enable-background:new 0 0 512 512;" xml:space="preserve">
<path style="fill:#D1F4FF;" d="M458.639,161.964L303.487,6.816C299.121,2.451,293.204,0,287.03,0H69.818
	C56.967,0,46.545,10.42,46.545,23.273v465.455C46.545,501.58,56.967,512,69.818,512h372.364c12.851,0,23.273-10.42,23.273-23.273
	V178.42C465.455,172.248,463.003,166.329,458.639,161.964z"/>
<path style="fill:#A7E5FF;" d="M458.639,161.964L303.487,6.816C299.121,2.451,293.204,0,287.03,0H256v512h186.182
	c12.851,0,23.273-10.42,23.273-23.273V178.42C465.455,172.248,463.003,166.329,458.639,161.964z"/>
<g>
	<path style="fill:#387896;" d="M457.087,161.964L303.487,8.367c-6.658-6.654-16.669-8.642-25.364-5.044
		c-8.696,3.603-14.365,12.088-14.365,21.501V178.42c0,12.853,10.422,23.273,23.273,23.273h153.6c9.412,0,17.897-5.671,21.502-14.367
		C465.734,178.629,463.743,168.62,457.087,161.964z"/>
	<path style="fill:#387896;" d="M299.885,449.939c-18.649,0-36.181-7.263-49.369-20.447l-10.972-10.975
		c-13.185-13.183-20.449-30.717-20.449-49.368c0.003-18.649,7.264-36.18,20.452-49.366c13.185-13.188,30.718-20.451,49.366-20.451
		c18.648,0,36.181,7.263,49.369,20.451l10.969,10.969c27.221,27.221,27.224,71.516,0.003,98.738
		C336.064,442.677,318.534,449.939,299.885,449.939z M288.912,345.878c-6.215,0-12.06,2.422-16.454,6.817
		c-4.397,4.395-6.819,10.24-6.819,16.457c0,6.215,2.422,12.058,6.816,16.452l10.975,10.975c4.391,4.392,10.237,6.814,16.454,6.814
		c6.215,0,12.06-2.42,16.457-6.817c9.073-9.073,9.073-23.837,0-32.912l-10.972-10.969
		C300.972,348.298,295.131,345.878,288.912,345.878z"/>
</g>
<path style="fill:#408BAF;" d="M223.091,373.142c-0.003,0-0.003,0-0.006,0c-18.649,0-36.181-7.264-49.366-20.449l-10.969-10.971
	c-27.221-27.223-27.221-71.517,0-98.738c13.188-13.186,30.722-20.449,49.369-20.449c18.648,0,36.181,7.263,49.366,20.449
	l10.972,10.969c27.221,27.224,27.221,71.519,0,98.74C259.269,365.88,241.74,373.142,223.091,373.142z M212.118,269.082
	c-6.218,0-12.063,2.422-16.46,6.817c-9.07,9.073-9.07,23.837,0.003,32.914l10.969,10.969c4.397,4.394,10.24,6.816,16.46,6.816l0,0
	c6.215,0,12.057-2.42,16.454-6.816c9.073-9.075,9.073-23.839-0.003-32.914L228.572,275.9
	C224.178,271.503,218.334,269.082,212.118,269.082z"/>
<g>
</g>
<g>
</g>
<g>
</g>
<g>
</g>
<g>
</g>
<g>
</g>
<g>
</g>
<g>
</g>
<g>
</g>
<g>
</g>
<g>
</g>
<g>
</g>
<g>
</g>
<g>
</g>
<g>
</g>
</svg>
