<?xml version="1.0" encoding="iso-8859-1"?>
<!-- Generator: Adobe Illustrator 19.0.0, SVG Export Plug-In . SVG Version: 6.00 Build 0)  -->
<svg version="1.1" id="Capa_1" xmlns="http://www.w3.org/2000/svg" xmlns:xlink="http://www.w3.org/1999/xlink" x="0px" y="0px"
	 viewBox="0 0 508 508" style="enable-background:new 0 0 508 508;" xml:space="preserve">
<polygon style="fill:#89D6F7;" points="106.3,75.95 0,202.55 177.7,202.55 106.4,75.95 "/>
<polygon style="fill:#55BFE9;" points="106.4,75.95 177.7,202.55 178.3,202.55 251.8,75.95 "/>
<polygon style="fill:#89D6F7;" points="508,202.55 401.7,75.95 329.2,202.55 "/>
<polygon style="fill:#F2F2F2;" points="254.9,75.95 251.8,75.95 178.3,202.55 328.5,202.55 "/>
<g>
	<polygon style="fill:#55BFE9;" points="329.2,202.55 401.7,75.95 401.7,75.95 254.9,75.95 328.5,202.55 	"/>
	<polygon style="fill:#55BFE9;" points="508,202.55 328.9,202.55 254,504.95 254,504.95 	"/>
	<polygon style="fill:#55BFE9;" points="0,202.55 253.2,503.95 178.5,202.55 	"/>
</g>
<polygon style="fill:#89D6F7;" points="178.5,202.55 253.2,503.95 254,504.95 328.9,202.55 "/>
<path style="fill:#FFD05C;" d="M49.5,117.15c0-24-25.5-49.5-49.5-49.5c24,0,49.5-25.5,49.5-49.5c0,24,25.5,49.5,49.5,49.5
	C75.1,67.65,49.5,93.15,49.5,117.15z"/>
<path style="fill:#F2705B;" d="M94.6,54.05c0-12.3-13.2-25.5-25.6-25.5c12.4,0,25.5-13.2,25.5-25.5c0,12.4,13.2,25.5,25.5,25.5
	C107.7,28.55,94.6,41.75,94.6,54.05z"/>
<g>
</g>
<g>
</g>
<g>
</g>
<g>
</g>
<g>
</g>
<g>
</g>
<g>
</g>
<g>
</g>
<g>
</g>
<g>
</g>
<g>
</g>
<g>
</g>
<g>
</g>
<g>
</g>
<g>
</g>
</svg>
