<?xml version="1.0" encoding="iso-8859-1"?>
<!-- Generator: Adobe Illustrator 19.0.0, SVG Export Plug-In . SVG Version: 6.00 Build 0)  -->
<svg version="1.1" id="Capa_1" xmlns="http://www.w3.org/2000/svg" xmlns:xlink="http://www.w3.org/1999/xlink" x="0px" y="0px"
	 viewBox="0 0 444.082 444.082" style="enable-background:new 0 0 444.082 444.082;" xml:space="preserve">
<path style="fill:#4DCFE0;" d="M372.537,199.576c0-0.522-0.522-1.045-1.045-1.045L234.61,6.792C231.998,2.612,227.296,0,222.071,0
	c-5.225,0-9.927,2.612-12.539,6.792L72.651,198.531c-0.522,0.522-0.522,1.045-1.045,1.045c-14.106,24.033-20.898,49.633-20.898,76.8
	c0,90.906,78.367,167.706,171.363,167.706c61.127,0,118.073-33.437,149.42-87.249C400.227,306.678,400.749,248.163,372.537,199.576z
	"/>
<path style="fill:#00BBD3;" d="M304.096,258.09c-8.882,0-15.673,6.792-15.673,15.673c0,37.094-30.302,67.396-67.396,67.396
	c-8.882,0-15.673,6.792-15.673,15.673c0,8.882,6.792,15.673,15.673,15.673c54.335,0,98.743-44.408,98.743-98.743
	C319.769,264.882,312.978,258.09,304.096,258.09z"/>
<g>
</g>
<g>
</g>
<g>
</g>
<g>
</g>
<g>
</g>
<g>
</g>
<g>
</g>
<g>
</g>
<g>
</g>
<g>
</g>
<g>
</g>
<g>
</g>
<g>
</g>
<g>
</g>
<g>
</g>
</svg>
