<?xml version="1.0" encoding="iso-8859-1"?>
<!-- Generator: Adobe Illustrator 19.0.0, SVG Export Plug-In . SVG Version: 6.00 Build 0)  -->
<svg version="1.1" id="Capa_1" xmlns="http://www.w3.org/2000/svg" xmlns:xlink="http://www.w3.org/1999/xlink" x="0px" y="0px"
	 viewBox="0 0 508 508" style="enable-background:new 0 0 508 508;" xml:space="preserve">
<g>
	<rect x="212.75" y="116.3" style="fill:#F2F2F2;" width="82.6" height="119.9"/>
	<circle style="fill:#F2F2F2;" cx="254.05" cy="347.6" r="160.4"/>
</g>
<rect x="195.35" y="79.3" style="fill:#CDD5DF;" width="117.5" height="37"/>
<g>
	<circle style="fill:#89D6F7;" cx="276.05" cy="50.2" r="22.2"/>
	<circle style="fill:#89D6F7;" cx="302.35" cy="17.7" r="13"/>
	<circle style="fill:#89D6F7;" cx="215.55" cy="41.8" r="11.3"/>
	<circle style="fill:#89D6F7;" cx="238.45" cy="15.2" r="15.2"/>
	<circle style="fill:#89D6F7;" cx="211.45" cy="263.9" r="26.1"/>
</g>
<circle style="fill:#FFFFFF;" cx="201.75" cy="256.1" r="6.7"/>
<circle style="fill:#89D6F7;" cx="249.75" cy="221.5" r="13.3"/>
<circle style="fill:#FFFFFF;" cx="244.85" cy="217.7" r="3.5"/>
<path style="fill:#89D6F7;" d="M411.45,316.4c-26.9,24.6-77.2,53.8-148.2,23.4c-101.4-43.4-155.1-21.1-168.2-14
	c-1,7.1-1.5,14.4-1.5,21.7c0.1,88.7,71.9,160.5,160.5,160.5s160.4-71.8,160.4-160.4C414.45,336.9,413.45,326.5,411.45,316.4z"/>
<g>
</g>
<g>
</g>
<g>
</g>
<g>
</g>
<g>
</g>
<g>
</g>
<g>
</g>
<g>
</g>
<g>
</g>
<g>
</g>
<g>
</g>
<g>
</g>
<g>
</g>
<g>
</g>
<g>
</g>
</svg>
