<svg xmlns="http://www.w3.org/2000/svg" height="591pt" version="1.1" viewBox="0 0 591.59744 591" width="591pt">
<g id="surface1">
<path d="M 347.027344 122.78125 L 469.511719 0.296875 L 591.996094 122.78125 L 469.511719 245.265625 Z M 347.027344 122.78125 " style=" stroke:none;fill-rule:nonzero;fill:rgb(85.490196%,86.666667%,87.45098%);fill-opacity:1;" />
<path d="M 438.890625 30.921875 L 469.511719 0.300781 L 591.996094 122.785156 L 561.371094 153.40625 Z M 438.890625 30.921875 " style=" stroke:none;fill-rule:nonzero;fill:rgb(71.372549%,72.156863%,72.941176%);fill-opacity:1;" />
<path d="M 452.085938 166.59375 L 472.496094 146.183594 L 486.929688 160.617188 L 466.519531 181.027344 Z M 452.085938 166.59375 " style=" stroke:none;fill-rule:nonzero;fill:rgb(71.372549%,72.156863%,72.941176%);fill-opacity:1;" />
<path d="M 411.257812 125.769531 L 431.667969 105.359375 L 446.105469 119.792969 L 425.695312 140.203125 Z M 411.257812 125.769531 " style=" stroke:none;fill-rule:nonzero;fill:rgb(71.372549%,72.156863%,72.941176%);fill-opacity:1;" />
<path d="M 316.414062 92.152344 L 500.136719 275.875 L 198.15625 577.855469 C 188.917969 587.101562 176.375 592.289062 163.308594 592.289062 C 150.246094 592.289062 137.699219 587.09375 128.464844 577.855469 L 14.433594 463.824219 C 5.195312 454.585938 0 442.054688 0 428.976562 C 0 415.914062 5.195312 403.367188 14.433594 394.132812 Z M 316.414062 92.152344 " style=" stroke:none;fill-rule:nonzero;fill:rgb(26.27451%,59.607843%,81.960784%);fill-opacity:1;" />
<path d="M 449.101562 224.839844 L 147.121094 526.820312 C 127.882812 546.070312 96.679688 546.070312 77.429688 526.820312 L 14.433594 463.824219 L 128.464844 577.855469 C 147.703125 597.105469 178.90625 597.105469 198.15625 577.855469 L 500.136719 275.875 Z M 449.101562 224.839844 " style=" stroke:none;fill-rule:nonzero;fill:rgb(24.313725%,54.901961%,78.039216%);fill-opacity:1;" />
<path d="M 278.570312 176.792969 L 298.980469 156.382812 L 313.414062 170.816406 L 293.003906 191.226562 Z M 278.570312 176.792969 " style=" stroke:none;fill-rule:nonzero;fill:rgb(36.862745%,70.196078%,81.960784%);fill-opacity:1;" />
<path d="M 196.910156 258.457031 L 258.148438 197.21875 L 272.582031 211.652344 L 211.347656 272.890625 Z M 196.910156 258.457031 " style=" stroke:none;fill-rule:nonzero;fill:rgb(36.862745%,70.196078%,81.960784%);fill-opacity:1;" />
</g>
</svg>