<?xml version="1.0" encoding="iso-8859-1"?>
<!-- Generator: Adobe Illustrator 19.0.0, SVG Export Plug-In . SVG Version: 6.00 Build 0)  -->
<svg version="1.1" id="Capa_1" xmlns="http://www.w3.org/2000/svg" xmlns:xlink="http://www.w3.org/1999/xlink" x="0px" y="0px"
	 viewBox="0 0 508 508" style="enable-background:new 0 0 508 508;" xml:space="preserve">
<g>
	<path style="fill:#F2F2F2;" d="M254,400.35c-16.7,0-32.7-2.8-47.7-8l-52,70.5c30.2,14.5,64,22.6,99.7,22.6s69.4-8.1,99.6-22.6
		l-52-70.6C286.7,397.45,270.7,400.35,254,400.35z"/>
	<path style="fill:#F2F2F2;" d="M400.3,254.05c0,16.7-2.8,32.7-8,47.7l70.6,52c14.5-30.2,22.6-64,22.6-99.6
		c0-35.7-8.1-69.5-22.6-99.7l-70.5,52C397.4,221.35,400.3,237.35,400.3,254.05z"/>
	<path style="fill:#F2F2F2;" d="M107.7,254.05c0-16.7,2.8-32.7,8-47.6l-70.5-52c-14.5,30.2-22.6,64-22.6,99.7s8.1,69.4,22.6,99.6
		l70.6-52C110.6,286.75,107.7,270.75,107.7,254.05z"/>
	<path style="fill:#F2F2F2;" d="M254,107.75c16.7,0,32.7,2.8,47.7,8l52-70.6c-30.2-14.5-64-22.6-99.6-22.6
		c-35.7,0-69.5,8.1-99.7,22.6l52,70.6C221.3,110.55,237.3,107.75,254,107.75z"/>
</g>
<g>
	<path style="fill:#F2705B;" d="M392.3,206.35l70.6-52c-22.9-47.6-61.6-86.3-109.3-109.1l-52,70.6
		C344,130.45,377.6,164.05,392.3,206.35z"/>
	<path style="fill:#F2705B;" d="M115.7,301.65l-70.6,52c22.9,47.7,61.6,86.4,109.2,109.2l52-70.5
		C164,377.65,130.4,344.05,115.7,301.65z"/>
	<path style="fill:#F2705B;" d="M392.3,301.75c-14.6,42.4-48.2,76-90.6,90.6l52,70.6c47.7-22.8,86.4-61.5,109.2-109.2L392.3,301.75z
		"/>
	<path style="fill:#F2705B;" d="M206.3,115.75l-52-70.6c-47.6,22.9-86.3,61.6-109.1,109.2l70.5,52
		C130.3,164.05,163.9,130.45,206.3,115.75z"/>
</g>
<g>
	<path style="fill:#CDD5DF;" d="M26.6,140.75C9.6,174.85,0,213.25,0,254.05s9.6,79.2,26.6,113.3l18.5-13.7
		c-14.5-30.2-22.6-64-22.6-99.6c0-35.7,8.1-69.5,22.6-99.7L26.6,140.75z"/>
	<path style="fill:#CDD5DF;" d="M254,485.45c-35.7,0-69.5-8.1-99.7-22.6l-13.7,18.5c34.1,17,72.6,26.6,113.3,26.6
		c40.8,0,79.2-9.6,113.3-26.6l-13.7-18.5C323.4,477.35,289.7,485.45,254,485.45z"/>
	<path style="fill:#CDD5DF;" d="M140.7,26.65l13.7,18.5c30.2-14.5,64-22.6,99.7-22.6s69.5,8.1,99.6,22.6l13.6-18.5
		c-34.1-17-72.5-26.6-113.3-26.6S174.8,9.65,140.7,26.65z"/>
	<path style="fill:#CDD5DF;" d="M481.4,140.75l-18.5,13.7c14.5,30.2,22.6,64,22.6,99.7s-8.1,69.5-22.6,99.6l18.5,13.6
		c17-34.1,26.6-72.5,26.6-113.3S498.4,174.85,481.4,140.75z"/>
	<path style="fill:#CDD5DF;" d="M254,107.75c-16.7,0-32.7,2.8-47.7,8l14.1,19.2c10.7-3,21.9-4.6,33.5-4.6c11.6,0,22.9,1.6,33.5,4.6
		l14.1-19.2C286.7,110.55,270.7,107.75,254,107.75z"/>
	<path style="fill:#CDD5DF;" d="M115.7,206.45c-5.2,14.9-8,30.9-8,47.6s2.8,32.7,8,47.6l19.2-14.1c-3-10.7-4.6-21.9-4.6-33.5
		c0-11.6,1.6-22.8,4.6-33.5L115.7,206.45z"/>
	<path style="fill:#CDD5DF;" d="M254,377.75c-11.6,0-22.9-1.6-33.5-4.6l-14.1,19.2c15,5.2,31,8,47.7,8s32.7-2.8,47.7-8l-14.1-19.2
		C276.9,376.15,265.6,377.75,254,377.75z"/>
	<path style="fill:#CDD5DF;" d="M373.1,220.55c3,10.7,4.6,21.9,4.6,33.5c0,11.6-1.6,22.9-4.6,33.5l19.2,14.1c5.2-15,8-31,8-47.7
		s-2.8-32.7-8-47.7L373.1,220.55z"/>
</g>
<g>
	<path style="fill:#F05540;" d="M462.8,154.35l18.5-13.7c-24.6-49.3-64.8-89.5-114.1-114l-13.6,18.5
		C401.3,68.05,440,106.75,462.8,154.35z"/>
	<path style="fill:#F05540;" d="M45.2,353.65l-18.5,13.7c24.6,49.3,64.7,89.5,114,114.1l13.7-18.5
		C106.7,440.05,68,401.35,45.2,353.65z"/>
	<path style="fill:#F05540;" d="M353.6,462.85l13.7,18.5c49.3-24.6,89.5-64.7,114.1-114.1l-18.5-13.6
		C440,401.35,401.3,440.05,353.6,462.85z"/>
	<path style="fill:#F05540;" d="M154.3,45.25l-13.7-18.5c-49.3,24.6-89.4,64.7-114,114l18.5,13.7C68,106.75,106.7,68.05,154.3,45.25
		z"/>
	<path style="fill:#F05540;" d="M373.1,220.55l19.2-14.1c-14.6-42.4-48.2-76-90.6-90.6l-14.1,19.2
		C328.9,146.55,361.5,179.15,373.1,220.55z"/>
	<path style="fill:#F05540;" d="M134.9,287.55l-19.2,14.1c14.6,42.4,48.2,76,90.6,90.6l14.1-19.2
		C179,361.55,146.5,328.85,134.9,287.55z"/>
	<path style="fill:#F05540;" d="M392.3,301.75l-19.2-14.1c-11.6,41.4-44.2,73.9-85.6,85.6l14.1,19.2
		C344,377.65,377.6,344.05,392.3,301.75z"/>
	<path style="fill:#F05540;" d="M115.7,206.45l19.2,14.2c11.6-41.4,44.1-74.1,85.6-85.6l-14.1-19.2
		C163.9,130.45,130.3,164.05,115.7,206.45z"/>
</g>
<g>
</g>
<g>
</g>
<g>
</g>
<g>
</g>
<g>
</g>
<g>
</g>
<g>
</g>
<g>
</g>
<g>
</g>
<g>
</g>
<g>
</g>
<g>
</g>
<g>
</g>
<g>
</g>
<g>
</g>
</svg>
