<?xml version="1.0" encoding="iso-8859-1"?>
<!-- Generator: Adobe Illustrator 19.0.0, SVG Export Plug-In . SVG Version: 6.00 Build 0)  -->
<svg version="1.1" id="Capa_1" xmlns="http://www.w3.org/2000/svg" xmlns:xlink="http://www.w3.org/1999/xlink" x="0px" y="0px"
	 viewBox="0 0 508 508" style="enable-background:new 0 0 508 508;" xml:space="preserve">
<path style="fill:#65C5B8;" d="M486.8,508H21.2C9.5,508,0,498.5,0,486.8V21.2C0,9.5,9.5,0,21.2,0h381
	c49.6,49.6,56.2,56.2,105.8,105.8v381C508,498.5,498.5,508,486.8,508z"/>
<g>
	<path style="fill:#F2F2F2;" d="M425.9,508H82.1V305c0-2.1,1.7-3.8,3.8-3.8h336.3c2.1,0,3.8,1.7,3.8,3.8v203H425.9z"/>
	<path style="fill:#F2F2F2;" d="M394.9,144.9H113.1c-2.1,0-3.8-1.7-3.8-3.8V0h289.4v141.1C398.7,143.2,397,144.9,394.9,144.9z"/>
</g>
<rect x="299.4" y="25.3" style="fill:#41596B;" width="62.2" height="94.3"/>
<g>
	<rect x="132.8" y="341.1" style="fill:#CDD5DF;" width="242.5" height="24.1"/>
	<rect x="132.8" y="399.1" style="fill:#CDD5DF;" width="242.5" height="24.1"/>
	<rect x="132.8" y="457.2" style="fill:#CDD5DF;" width="242.5" height="24.1"/>
</g>
<g>
</g>
<g>
</g>
<g>
</g>
<g>
</g>
<g>
</g>
<g>
</g>
<g>
</g>
<g>
</g>
<g>
</g>
<g>
</g>
<g>
</g>
<g>
</g>
<g>
</g>
<g>
</g>
<g>
</g>
</svg>
