<?xml version="1.0" encoding="iso-8859-1"?>
<!-- Generator: Adobe Illustrator 19.0.0, SVG Export Plug-In . SVG Version: 6.00 Build 0)  -->
<svg version="1.1" id="Capa_1" xmlns="http://www.w3.org/2000/svg" xmlns:xlink="http://www.w3.org/1999/xlink" x="0px" y="0px"
	 viewBox="0 0 410.309 410.309" style="enable-background:new 0 0 410.309 410.309;" xml:space="preserve">
<g>
	<g>
		<path style="fill:#00ACEA;" d="M382.955,58.96c16.936,2.176,29.014,17.507,27.167,34.482L386.09,306.079
			c-1.848,16.923-17.066,29.144-33.989,27.295c-0.339-0.037-0.677-0.08-1.015-0.128h-1.567V138.372
			c0-17.312-14.035-31.347-31.347-31.347H56.947l5.747-52.245c2.179-17.223,17.742-29.535,35.004-27.69L382.955,58.96z"/>
		<path style="fill:#00CEB4;" d="M349.518,333.246v18.808c0,17.312-14.035,31.347-31.347,31.347H31.347
			C14.035,383.401,0,369.366,0,352.054v-43.886l86.204-62.694c13.668-10.37,32.794-9.491,45.453,2.09l57.469,50.155
			c12.046,10.215,29.238,11.683,42.841,3.657l117.551-68.963V333.246z"/>
		<path style="fill:#00EFD1;" d="M349.518,138.372v94.041l-117.551,68.963c-13.603,8.026-30.795,6.558-42.841-3.657l-57.469-50.155
			c-12.659-11.58-31.785-12.46-45.453-2.09L0,308.168V138.372c0-17.312,14.035-31.347,31.347-31.347h286.824
			C335.484,107.026,349.518,121.06,349.518,138.372z"/>
	</g>
	<circle style="fill:#D4E1F4;" cx="208.98" cy="192.707" r="33.437"/>
</g>
<g>
</g>
<g>
</g>
<g>
</g>
<g>
</g>
<g>
</g>
<g>
</g>
<g>
</g>
<g>
</g>
<g>
</g>
<g>
</g>
<g>
</g>
<g>
</g>
<g>
</g>
<g>
</g>
<g>
</g>
</svg>
