<?xml version="1.0" encoding="iso-8859-1"?>
<!-- Generator: Adobe Illustrator 19.0.0, SVG Export Plug-In . SVG Version: 6.00 Build 0)  -->
<svg version="1.1" id="Layer_1" xmlns="http://www.w3.org/2000/svg" xmlns:xlink="http://www.w3.org/1999/xlink" x="0px" y="0px"
	 viewBox="0 0 511.996 511.996" style="enable-background:new 0 0 511.996 511.996;" xml:space="preserve">
<path style="fill:#CCD1D9;" d="M373.31,234.67H138.686C62.108,234.67,0.03,296.748,0.03,373.326
	c0,76.593,62.078,138.67,138.656,138.67c39.358,0,74.874-16.391,100.124-42.718h34.391c25.234,26.327,60.766,42.718,100.108,42.718
	c76.594,0,138.656-62.077,138.656-138.67C511.966,296.748,449.903,234.67,373.31,234.67z"/>
<path style="fill:#434A54;" d="M394.669,85.327H117.343l0,0c-5.891,0-10.672-4.781-10.672-10.656
	c0-5.891,4.781-10.672,10.672-10.672l0,0H234.67c17.672,0,32-14.328,32-32V10.672C266.67,4.781,261.904,0,255.998,0
	c-5.875,0-10.656,4.781-10.656,10.672v21.327c0,5.875-4.781,10.672-10.672,10.672H117.343l0,0c-17.688,0-32,14.328-32,32
	s14.312,32,32,32l0,0h277.326c5.891,0,10.672,4.781,10.672,10.656c0,5.891-4.781,10.672-10.672,10.672H277.342
	c-17.687,0-32,14.328-32,32v26h21.328v-26c0-5.875,4.781-10.672,10.672-10.672h117.327c17.672,0,32-14.328,32-32
	S412.341,85.327,394.669,85.327z"/>
<path style="fill:#656D78;" d="M282.67,255.998c0,5.891-4.766,10.672-10.672,10.672h-32c-5.875,0-10.656-4.781-10.656-10.672
	v-74.671c0-5.891,4.781-10.656,10.656-10.656h32c5.906,0,10.672,4.766,10.672,10.656V255.998z"/>
<path style="fill:#E6E9ED;" d="M373.31,213.326H138.686C62.108,213.326,0.03,275.42,0.03,351.998
	c0,76.577,62.078,138.67,138.656,138.67c39.358,0,74.874-16.405,100.124-42.718h34.391c25.234,26.312,60.766,42.718,100.108,42.718
	c76.594,0,138.656-62.093,138.656-138.67C511.966,275.42,449.903,213.326,373.31,213.326z"/>
<path style="fill:#FFCE54;" d="M373.31,319.951c-11.766,0-21.344-9.578-21.344-21.344c0-11.75,9.578-21.328,21.344-21.328
	s21.344,9.578,21.344,21.328C394.653,310.373,385.075,319.951,373.31,319.951z"/>
<path style="fill:#F6BB42;" d="M373.31,266.607c-17.672,0-31.999,14.328-31.999,32s14.327,32,31.999,32s32-14.328,32-32
	S390.981,266.607,373.31,266.607z M373.31,309.279c-5.875,0-10.656-4.781-10.656-10.672c0-5.875,4.781-10.656,10.656-10.656
	s10.656,4.781,10.656,10.656C383.966,304.498,379.185,309.279,373.31,309.279z"/>
<path style="fill:#ED5564;" d="M426.653,373.279c-11.781,0-21.344-9.578-21.344-21.328c0-11.766,9.562-21.344,21.344-21.344
	c11.75,0,21.312,9.578,21.312,21.344C447.966,363.701,438.403,373.279,426.653,373.279z"/>
<path style="fill:#DA4453;" d="M426.653,319.951c-17.688,0-32,14.312-32,32c0,17.672,14.312,32,32,32c17.656,0,32-14.328,32-32
	C458.653,334.264,444.31,319.951,426.653,319.951z M426.653,362.607c-5.891,0-10.688-4.781-10.688-10.656
	c0-5.891,4.797-10.672,10.688-10.672c5.875,0,10.656,4.781,10.656,10.672C437.31,357.826,432.528,362.607,426.653,362.607z"/>
<path style="fill:#A0D468;" d="M319.967,373.279c-11.75,0-21.312-9.578-21.312-21.328c0-11.766,9.562-21.344,21.312-21.344
	c11.781,0,21.344,9.578,21.344,21.344C341.31,363.701,331.748,373.279,319.967,373.279z"/>
<path style="fill:#8CC153;" d="M319.967,319.951c-17.656,0-32,14.312-32,32c0,17.672,14.344,32,32,32
	c17.688,0,31.999-14.328,31.999-32C351.966,334.264,337.654,319.951,319.967,319.951z M319.967,362.607
	c-5.875,0-10.656-4.781-10.656-10.656c0-5.891,4.781-10.672,10.656-10.672c5.891,0,10.688,4.781,10.688,10.672
	C330.654,357.826,325.857,362.607,319.967,362.607z"/>
<path style="fill:#5D9CEC;" d="M373.31,426.606c-11.766,0-21.344-9.562-21.344-21.328c0-11.765,9.578-21.327,21.344-21.327
	s21.344,9.562,21.344,21.327C394.653,417.044,385.075,426.606,373.31,426.606z"/>
<path style="fill:#4A89DC;" d="M373.31,373.279c-17.672,0-31.999,14.328-31.999,31.999c0,17.672,14.327,32,31.999,32
	s32-14.328,32-32C405.31,387.607,390.981,373.279,373.31,373.279z M373.31,415.95c-5.875,0-10.656-4.797-10.656-10.672
	c0-5.891,4.781-10.671,10.656-10.671s10.656,4.78,10.656,10.671C383.966,411.153,379.185,415.95,373.31,415.95z"/>
<path style="fill:#434A54;" d="M181.31,330.607H95.968c-11.781,0-21.312,9.562-21.312,21.344s9.531,21.328,21.312,21.328h85.343
	c11.781,0,21.344-9.547,21.344-21.328S193.092,330.607,181.31,330.607z"/>
<path style="fill:#656D78;" d="M159.968,394.607v-85.328c0-11.781-9.531-21.328-21.312-21.328c-11.797,0-21.344,9.547-21.344,21.328
	v85.328c0,11.78,9.547,21.343,21.344,21.343C150.436,415.95,159.968,406.388,159.968,394.607z"/>
<g>
</g>
<g>
</g>
<g>
</g>
<g>
</g>
<g>
</g>
<g>
</g>
<g>
</g>
<g>
</g>
<g>
</g>
<g>
</g>
<g>
</g>
<g>
</g>
<g>
</g>
<g>
</g>
<g>
</g>
</svg>
