<svg height="511pt" viewBox="1 1 511.99965 511" width="511pt" xmlns="http://www.w3.org/2000/svg" xmlns:xlink="http://www.w3.org/1999/xlink"><linearGradient id="a"><stop offset="0" stop-color="#ffe548"/><stop offset=".2465" stop-color="#ffdf41"/><stop offset=".5924" stop-color="#ffce2f"/><stop offset=".9956" stop-color="#ffb211"/><stop offset="1" stop-color="#ffb211"/></linearGradient><linearGradient id="b" gradientUnits="userSpaceOnUse" x1="118.0312601088" x2="268.676382094" xlink:href="#a" y1="118.5310851088" y2="269.176207094"/><linearGradient id="c"><stop offset="0" stop-color="#ffb211" stop-opacity="0"/><stop offset=".1624" stop-color="#ffaa14" stop-opacity=".160784"/><stop offset=".4095" stop-color="#ff951e" stop-opacity=".407843"/><stop offset=".7088" stop-color="#ff732d" stop-opacity=".709804"/><stop offset="1" stop-color="#ff4b3e"/></linearGradient><linearGradient id="d" gradientUnits="userSpaceOnUse" x1="379.014939309" x2="284.1711150264" xlink:href="#c" y1="379.514764309" y2="284.6709400264"/><linearGradient id="e" gradientUnits="userSpaceOnUse" x1="288.6974981478" x2="348.9085232354" xlink:href="#c" y1="289.1973231478" y2="349.4083482354"/><linearGradient id="f" gradientTransform="matrix(.709873 -.709873 .709873 .709873 -170.834472 1168.241867)" gradientUnits="userSpaceOnUse" x1="942.8192" x2="942.8192" y1="-405.2206" y2="-380.3934"><stop offset="0" stop-color="#c6e56f"/><stop offset=".3371" stop-color="#c4e56f"/><stop offset=".4953" stop-color="#bce36e"/><stop offset=".6162" stop-color="#afe16d"/><stop offset=".7182" stop-color="#9ddd6b"/><stop offset=".8083" stop-color="#85d968"/><stop offset=".8899" stop-color="#68d365"/><stop offset=".9635" stop-color="#46cd61"/><stop offset="1" stop-color="#32c95f"/></linearGradient><linearGradient id="g" gradientTransform="matrix(-.709873 .709873 -.709873 -.709873 2738.783824 332.637488)" gradientUnits="userSpaceOnUse" x1="1695.1083" x2="1695.1083" y1="1738.6847" y2="1763.512"><stop offset="0" stop-color="#c6e56f"/><stop offset=".0271" stop-color="#bdda6b"/><stop offset=".115" stop-color="#a4be60"/><stop offset=".2136" stop-color="#8fa657"/><stop offset=".3252" stop-color="#7f9450"/><stop offset=".4576" stop-color="#74874b"/><stop offset=".6309" stop-color="#6e7f48"/><stop offset="1" stop-color="#6c7d47"/></linearGradient><linearGradient id="h" gradientTransform="matrix(.709873 -.709873 .709873 .709873 -640.125239 35.273811)" gradientUnits="userSpaceOnUse" x1="475.3616" x2="475.3616" y1="781.5718" y2="833.3553"><stop offset="0" stop-color="#ff4b3e"/><stop offset=".0286" stop-color="#fb4a3c"/><stop offset=".3327" stop-color="#d03e25"/><stop offset=".6067" stop-color="#b13515"/><stop offset=".8384" stop-color="#9e300b"/><stop offset="1" stop-color="#972e07"/></linearGradient><linearGradient id="i" gradientUnits="userSpaceOnUse" x1="291.0398489582" x2="227.9694532302" y1="277.5126749898" y2="214.4422792618"><stop offset="0" stop-color="#972e07" stop-opacity="0"/><stop offset="1" stop-color="#582707"/></linearGradient><linearGradient id="j" gradientTransform="matrix(.709873 -.709873 .709873 .709873 -640.125239 35.273811)" gradientUnits="userSpaceOnUse" x1="475.3622" x2="475.3622" xlink:href="#a" y1="776.5611" y2="806.6367"/><path d="m37.273438 475.226562c-49.699219-49.699218-49.699219-130.28125 0-179.980468l257.476562-257.472656c49.695312-49.699219 130.277344-49.699219 179.976562 0 49.699219 49.699218 49.699219 130.277343 0 179.976562l-257.476562 257.476562c-49.699219 49.699219-130.277344 49.699219-179.976562 0zm0 0" fill="url(#b)"/><path d="m474.726562 37.773438c-.746093-.742188-1.496093-1.472657-2.25-2.191407l-437.394531 437.394531c.71875.753907 1.449219 1.503907 2.191407 2.25 49.699218 49.699219 130.277343 49.699219 179.976562 0l257.476562-257.476562c49.699219-49.699219 49.699219-130.277344 0-179.976562zm0 0" fill="url(#d)"/><path d="m474.726562 37.773438c-.746093-.742188-1.496093-1.472657-2.25-2.191407l-437.394531 437.394531c.71875.753907 1.449219 1.503907 2.191407 2.25 49.699218 49.699219 130.277343 49.699219 179.976562 0l257.476562-257.476562c49.699219-49.699219 49.699219-130.277344 0-179.976562zm0 0" fill="url(#e)"/><path d="m5.875 440.140625 15.816406-47.976563c6.320313-19.167968 25.480469-38.328124 44.644532-44.644531l6.496093-2.144531c22.28125-7.34375 43.78125-31.605469 46.449219-52.40625l1.195312-9.339844c3.058594-23.847656 30.363282-51.15625 54.214844-54.214844h.011719c23.851563-3.058593 51.160156-30.367187 54.214844-54.21875 3.054687-23.851562 30.363281-51.160156 54.214843-54.214843l9.328126-1.195313c20.800781-2.667968 45.0625-24.167968 52.410156-46.449218l2.140625-6.496094c6.316406-19.164063 25.476562-38.324219 44.640625-44.640625l47.988281-15.824219zm0 0" fill="url(#f)"/><path d="m506.125 72.859375-15.816406 47.976563c-6.320313 19.164062-25.480469 38.328124-44.644532 44.644531l-6.496093 2.140625c-22.28125 7.347656-43.78125 31.609375-46.449219 52.410156l-1.195312 9.335938c-3.058594 23.851562-30.363282 51.160156-54.214844 54.214843l-.011719.003907c-23.855469 3.058593-51.160156 30.363281-54.214844 54.214843-3.054687 23.855469-30.363281 51.164063-54.214843 54.21875l-9.328126 1.195313c-20.804687 2.664062-45.066406 24.167968-52.410156 46.445312l-2.140625 6.496094c-6.320312 19.164062-25.480469 38.324219-44.644531 44.644531l-47.988281 15.824219zm0 0" fill="url(#g)"/><path d="m495.488281 92.53125-403.453125 403.457031c-20.855468 20.855469-54.667968 20.855469-75.523437 0s-20.855469-54.667969 0-75.519531l403.457031-403.457031c20.851562-20.855469 54.667969-20.855469 75.519531 0 20.855469 20.855469 20.855469 54.664062 0 75.519531zm0 0" fill="url(#h)"/><path d="m495.488281 92.53125c16.164063-16.160156 19.789063-40.101562 10.902344-59.765625l-35.011719-3.34375c-5.210937-.160156-9.5625 3.929687-9.722656 9.136719-.257812 8.328125-4.203125 15.738281-10.25 20.667968-.285156.09375-24.167969 7.011719-25.136719 7.296876-20.53125 4.460937-36.070312 22.460937-36.742187 44.15625-.234375 7.503906-3.464844 14.253906-8.519532 19.128906-1.042968.195312-22.699218 8.042968-23.71875 8.273437-22.070312 3.222657-39.175781 21.929688-39.882812 44.714844-.230469 7.507813-3.464844 14.261719-8.523438 19.132813-1.023437.207031-22.699218 8.039062-23.714843 8.269531-22.070313 3.226562-39.175781 21.933593-39.882813 44.710937l-.003906.160156c-.367188 10.183594-6.25 18.972657-14.734375 23.503907-.507813.121093-16.449219 3.515625-17.464844 3.746093-22.042969 3.203126-39.140625 21.847657-39.914062 44.578126l-.003907.144531c-.316406 10.230469-6.195312 19.066406-14.691406 23.628906-.527344.125-16.535156 3.542969-17.550781 3.773437-22.023437 3.21875-39.101563 21.859376-39.875 44.574219l-.003906.148438c-.316407 10.226562-6.191407 19.058593-14.6875 23.625l-17.550781 3.773437c-22.070313 3.226563-39.179688 21.933594-39.886719 44.714844l.019531.925781c.34375 5.199219 4.839844 9.128907 10.035156 8.78125l73.949219-5.882812zm0 0" fill="url(#i)"/><path d="m466.847656 70.667969c-8.132812 8.128906-19.238281 13.28125-31.527344 13.660156-14.660156.457031-26.488281 12.285156-26.9375 26.925781-.761718 24.589844-20.613281 44.441406-45.191406 45.199219l-.09375.003906c-14.601562.5-26.382812 12.304688-26.835937 26.921875-.761719 24.578125-20.609375 44.429688-45.191407 45.195313l-.144531.003906c-14.53125.519531-26.253906 12.242187-26.78125 26.769531l-.003906.15625c-.761719 24.582032-20.613281 44.429688-45.191406 45.191406l-.21875.007813c-14.542969.5625-26.261719 12.34375-26.710938 26.917969l-.007812.148437c-.832031 24.511719-20.652344 44.289063-45.183594 45.050781l-.210937.003907c-14.550782.554687-26.269532 12.339843-26.722657 26.917969l-.003906.144531c-.832031 24.515625-20.652344 44.292969-45.1875 45.054687l-.148437.003906c-14.550782.523438-26.285157 12.277344-26.78125 26.832032-.101563 4.835937-3.882813 8.878906-8.800782 9.207031-5.199218.347656-9.691406-3.582031-10.039062-8.777344l-.015625-.929687c.761719-24.578125 20.613281-44.429688 45.1875-45.191406l.148437-.003907c14.582032-.523437 26.335938-12.324219 26.785156-26.917969l.003907-.144531c.832031-24.515625 20.652343-44.296875 45.1875-45.054687l.21875-.007813c14.546875-.558593 26.261719-12.34375 26.714843-26.914062l.003907-.148438c.828125-24.515625 20.652343-44.292969 45.183593-45.050781l.21875-.007812c14.5-.554688 26.183594-12.265626 26.707032-26.769532l.007812-.15625c.757813-24.578125 20.609375-44.429687 45.1875-45.191406l.148438-.003906c14.582031-.523438 26.332031-12.320313 26.785156-26.917969.757812-24.585937 20.609375-44.433594 45.191406-45.195313l.085938-.003906c14.605468-.496094 26.386718-12.304687 26.839844-26.917968.765624-24.585938 20.613281-44.4375 45.191406-45.203126 14.660156-.453124 26.484375-12.28125 26.9375-26.921874.164062-5.207032 4.515625-9.292969 9.722656-9.132813 5.207031.164063 9.296875 4.511719 9.132812 9.71875-.378906 12.289063-5.535156 23.394531-13.660156 31.527344zm0 0" fill="url(#j)"/><g fill="#ffb211"><path d="m288.621094 100.503906c-2.039063-2.039062-5.34375-2.039062-7.378906 0-2.039063 2.035156-2.039063 5.339844 0 7.375 2.035156 2.039063 5.339843 2.039063 7.378906 0 2.035156-2.035156 2.035156-5.339844 0-7.375zm0 0"/><path d="m333.984375 67.492188c-3.226563-3.226563-8.457031-3.226563-11.683594 0-3.226562 3.226562-3.226562 8.457031 0 11.683593 3.226563 3.226563 8.457031 3.226563 11.683594 0 3.226563-3.226562 3.226563-8.457031 0-11.683593zm0 0"/><path d="m305.855469 63.007812c-4.960938-4.964843-13.011719-4.964843-17.972657 0-4.964843 4.960938-4.964843 13.007813 0 17.972657 4.960938 4.964843 13.011719 4.964843 17.972657 0 4.964843-4.964844 4.964843-13.011719 0-17.972657zm0 0"/></g></svg>