<?xml version="1.0" encoding="iso-8859-1"?>
<!-- Generator: Adobe Illustrator 19.0.0, SVG Export Plug-In . SVG Version: 6.00 Build 0)  -->
<svg version="1.1" id="Capa_1" xmlns="http://www.w3.org/2000/svg" xmlns:xlink="http://www.w3.org/1999/xlink" x="0px" y="0px"
	 viewBox="0 0 508.1 508.1" style="enable-background:new 0 0 508.1 508.1;" xml:space="preserve">
<path style="fill:#F2F2F2;" d="M486.8,135.15H21.2c-11.7,0-21.2,9.5-21.2,21.2v330.5c0,11.7,9.5,21.2,21.2,21.2h465.7
	c11.7,0,21.2-9.5,21.2-21.2v-330.5C508,144.65,498.5,135.15,486.8,135.15z"/>
<rect x="56.4" y="191.65" style="fill:#89D6F7;" width="395.1" height="260"/>
<rect x="163.3" y="115.25" style="fill:#F6B44B;" width="181.3" height="19.9"/>
<path style="fill:#FFD05C;" d="M254,0.05c-32.2,0-58.3,26.1-58.3,58.3v56.9h116.6v-56.9C312.3,26.15,286.2,0.05,254,0.05z
	 M254,84.95c-15.1,0-27.3-12.2-27.3-27.3s12.2-27.3,27.3-27.3s27.3,12.2,27.3,27.3S269.1,84.95,254,84.95z"/>
<path style="fill:#41596B;" d="M198.6,363.55c-0.1-5.5-2.5-10.8-7-14.1c0,0-0.1,0-0.1-0.1c-4.6-3.4-13-9.2-22.1-13.4
	c-9.1-4.2-14.5-14-13.1-24c0-0.1,0-0.3,0.1-0.5c0,0,20.8-14.1,17.9-27.8c0,0,0.6,0,1.6,0c9.2-0.8,9.8-14.5,0.7-16
	c-0.1,0-0.2,0-0.2,0l-0.3-1.5c2.8-9.7,9.5-39.1-10.9-36.3c0,0-14.7-24.3-45.7-12.6c-31.1,11.7-23,39.5-23,39.5l3.9,11.1
	c-8.3,2-7.6,14.9,1.3,15.8c1,0.1,1.6,0,1.6,0c-2.9,13.7,17.9,27.8,17.9,27.8c0,0.2,0,0.3,0.1,0.5c1.4,9.9-4,19.8-13,24
	c-9.2,4.2-17.5,10-22.2,13.4l-0.1,0.1c-4.4,3.3-6.8,8.6-6.9,14h119.5V363.55z"/>
<rect x="246.5" y="337.95" style="fill:#F2F2F2;" width="182.5" height="25.8"/>
<rect x="79" y="403.25" style="fill:#55BFE9;" width="350" height="25.8"/>
<rect x="246.5" y="272.65" style="fill:#FFFFFF;" width="182.5" height="25.8"/>
<g>
</g>
<g>
</g>
<g>
</g>
<g>
</g>
<g>
</g>
<g>
</g>
<g>
</g>
<g>
</g>
<g>
</g>
<g>
</g>
<g>
</g>
<g>
</g>
<g>
</g>
<g>
</g>
<g>
</g>
</svg>
