<svg height="503pt" viewBox="0 0 503.80605 503" width="503pt" xmlns="http://www.w3.org/2000/svg"><path d="m503.632812 18.019531c.0625-4.652343-1.753906-9.132812-5.035156-12.433593-3.28125-3.296876-7.753906-5.136719-12.40625-5.097657l-85.132812-.085937c-2.378906.449218-4.542969 1.671875-6.160156 3.472656l-188.574219 188.570312c-69.933594-21.621093-145.597657 7.21875-183.398438 69.902344s-27.996093 143.0625 23.765625 194.824219c51.757813 51.761719 132.140625 61.566406 194.824219 23.765625s91.523437-113.46875 69.898437-183.402344l18.746094-18.742187c1.101563-1.132813 1.671875-2.679688 1.5625-4.253907l-4.253906-46.164062c-.132812-1.582031.4375-3.136719 1.558594-4.257812 1.121094-1.121094 2.675781-1.691407 4.257812-1.558594l42.261719 3.90625c1.574219.117187 3.125-.457032 4.242187-1.574219 1.117188-1.117187 1.691407-2.664063 1.570313-4.242187l-3.90625-42.261719c-.132813-1.578125.4375-3.136719 1.558594-4.257813 1.121093-1.117187 2.679687-1.6875 4.257812-1.554687l42.261719 3.90625c1.574219.117187 3.125-.457031 4.242188-1.574219 1.117187-1.117188 1.691406-2.667969 1.570312-4.242188l-3.816406-42.433593c-.132813-1.558594.425781-3.09375 1.53125-4.199219 1.105468-1.101562 2.640625-1.664062 4.195312-1.527344l46.425782 4.164063c1.554687.132812 3.085937-.441407 4.167968-1.5625l17.527344-18.050781c1.558594-1.636719 2.429688-3.8125 2.429688-6.074219zm-359.355468 401.617188c-12.144532 12.144531-30.40625 15.777343-46.273438 9.203125-15.871094-6.570313-26.214844-22.054688-26.214844-39.230469s10.34375-32.65625 26.214844-39.230469c15.867188-6.574218 34.128906-2.9375 46.273438 9.207032 16.574218 16.585937 16.574218 43.464843 0 60.050781zm0 0" fill="#f29c1f"/><path d="m497.472656 4.480469-354.234375 354.234375c-16.667969-15.722656-42.820312-15.34375-59.023437.859375-16.199219 16.203125-16.582032 42.351562-.855469 59.019531l-37.664063 37.664062c-3.902343-3.992187-7.636718-8.246093-11.28125-12.757812-43.335937-54.71875-45.992187-131.28125-6.554687-188.875s111.777344-82.796875 178.464844-62.179688l188.574219-188.570312c1.617187-1.800781 3.78125-3.023438 6.160156-3.472656l85.132812.085937c4.109375-.03125 8.105469 1.378907 11.28125 3.992188zm0 0" fill="#f0c419"/><g fill="#fff"><path d="m241.84375 225.636719c-3.507812 0-6.671875-2.117188-8.015625-5.359375-1.34375-3.242188-.601563-6.972656 1.878906-9.453125l135.117188-135.117188c2.179687-2.246093 5.402343-3.144531 8.433593-2.351562 3.027344.796875 5.394532 3.160156 6.1875 6.191406.796876 3.027344-.101562 6.25-2.351562 8.429687l-135.113281 135.117188c-1.625 1.628906-3.835938 2.546875-6.136719 2.542969zm0 0"/><path d="m408.347656 60.792969c0-4.789063-3.882812-8.675781-8.675781-8.675781s-8.679687 3.886718-8.679687 8.675781c0 4.792969 3.886718 8.679687 8.679687 8.679687s8.675781-3.886718 8.675781-8.679687zm0 0"/></g></svg>