<?xml version="1.0" encoding="UTF-8" standalone="no"?>
<!-- Generator: Adobe Illustrator 19.0.0, SVG Export Plug-In . SVG Version: 6.00 Build 0)  -->

<svg
   xmlns:dc="http://purl.org/dc/elements/1.1/"
   xmlns:cc="http://creativecommons.org/ns#"
   xmlns:rdf="http://www.w3.org/1999/02/22-rdf-syntax-ns#"
   xmlns:svg="http://www.w3.org/2000/svg"
   xmlns="http://www.w3.org/2000/svg"
   xmlns:sodipodi="http://sodipodi.sourceforge.net/DTD/sodipodi-0.dtd"
   xmlns:inkscape="http://www.inkscape.org/namespaces/inkscape"
   version="1.1"
   id="Capa_1"
   x="0px"
   y="0px"
   viewBox="0 0 512.058 512.058"
   style="enable-background:new 0 0 512.058 512.058;"
   xml:space="preserve"
   sodipodi:docname="lollipop.svg"
   inkscape:version="0.92.5 (2060ec1f9f, 2020-04-08)"><metadata
   id="metadata57"><rdf:RDF><cc:Work
       rdf:about=""><dc:format>image/svg+xml</dc:format><dc:type
         rdf:resource="http://purl.org/dc/dcmitype/StillImage" /></cc:Work></rdf:RDF></metadata><defs
   id="defs55" /><sodipodi:namedview
   pagecolor="#ffffff"
   bordercolor="#666666"
   borderopacity="1"
   objecttolerance="10"
   gridtolerance="10"
   guidetolerance="10"
   inkscape:pageopacity="0"
   inkscape:pageshadow="2"
   inkscape:window-width="1211"
   inkscape:window-height="877"
   id="namedview53"
   showgrid="false"
   inkscape:zoom="0.46088531"
   inkscape:cx="28.206584"
   inkscape:cy="256.02899"
   inkscape:window-x="40"
   inkscape:window-y="0"
   inkscape:window-maximized="0"
   inkscape:current-layer="g20" />
<g
   transform="translate(-1)"
   id="g20">
	<path
   style="fill:#000034;fill-opacity:1"
   d="M209.213,278.775L6.178,481.81C2.863,485.122,1,489.615,1,494.301s1.863,9.179,5.178,12.491   l0.088,0.088c3.312,3.315,7.805,5.178,12.491,5.178s9.179-1.863,12.491-5.178l203.034-203.034L209.213,278.775z"
   id="path2" />
	<path
   style="fill:#f49129;fill-opacity:1"
   d="M327.679,185.38c0.5-50.599-39.673-92.248-90.257-93.574c-50.584-1.325-92.883,38.163-95.034,88.718   c1.143-47.487,20.558-92.703,54.201-126.234c1.148-1.148,2.295-2.207,3.443-3.266c37.307-33.759,94.734-31.591,129.39,4.886   S363.303,149.849,327.679,185.38z"
   id="path4" />
	<path
   style="fill:#7c4cff;fill-opacity:1"
   d="M420.368,92.69c0,51.191-41.499,92.69-92.69,92.69c35.624-35.531,36.398-92.993,1.743-129.47   s-92.082-38.645-129.39-4.886C234.41,18.193,280.142-0.088,327.679,0c1.589,0,3.266,0,4.855,0.088   C381.773,2.698,420.362,43.381,420.368,92.69z"
   id="path6" />
	<path
   style="fill:#5ec419;fill-opacity:1"
   d="M458.768,185.38c-17.383,17.385-40.96,27.152-65.545,27.152c-24.584,0-48.162-9.767-65.545-27.152   c50.599,0.5,92.248-39.673,93.574-90.257c1.325-50.584-38.163-92.883-88.718-95.034c47.487,1.143,92.703,20.558,126.234,54.201   c1.148,1.148,2.207,2.295,3.266,3.443C495.1,94.367,493.664,150.485,458.768,185.38z"
   id="path8" />
	<path
   style="fill:#f2131f;fill-opacity:1"
   d="M513.058,185.38c0,1.589,0,3.266-0.088,4.855c-2.151,50.556-44.45,90.044-95.034,88.718   c-50.584-1.325-90.757-42.975-90.257-93.574c35.531,35.624,92.993,36.398,129.47,1.743s38.645-92.082,4.886-129.39   C494.866,92.111,513.146,137.843,513.058,185.38z"
   id="path10" />
	<path
   style="fill:#ff53da;fill-opacity:1"
   d="M512.97,190.235c-1.143,47.487-20.558,92.703-54.201,126.234c-1.148,1.148-2.295,2.207-3.443,3.266   c-37.307,33.759-94.734,31.591-129.39-4.886c-34.655-36.477-33.882-93.939,1.743-129.47c-0.5,50.599,39.673,92.248,90.257,93.574   C468.52,280.279,510.819,240.791,512.97,190.235z"
   id="path12" />
	<path
   style="fill:#ffcb00;fill-opacity:1"
   d="M455.326,319.736c-34.378,32.831-80.11,51.111-127.647,51.023c-1.589,0-3.266,0-4.855-0.088   c-50.556-2.151-90.044-44.45-88.718-95.034c1.325-50.584,42.975-90.757,93.574-90.257c-35.624,35.531-36.398,92.993-1.743,129.47   C360.591,351.326,418.018,353.495,455.326,319.736z"
   id="path14" />
	<path
   style="fill:#005a0b;fill-opacity:1"
   d="M322.824,370.671c-47.487-1.143-92.703-20.558-126.234-54.201c-1.148-1.148-2.207-2.295-3.266-3.443   c-33.759-37.307-31.591-94.734,4.886-129.39s93.939-33.882,129.47,1.743c-50.599-0.5-92.248,39.673-93.574,90.257   C232.78,326.221,272.268,368.52,322.824,370.671z"
   id="path16" />
	<path
   style="fill:#4699fc;fill-opacity:1"
   d="M327.679,185.38c-35.531-35.624-92.993-36.398-129.47-1.743s-38.645,92.082-4.886,129.39   c-32.831-34.378-51.111-80.11-51.023-127.647c0-1.589,0-3.266,0.088-4.855c2.151-50.556,44.45-90.044,95.034-88.718   C288.006,93.131,328.179,134.781,327.679,185.38z"
   id="path18" />
</g>
<g
   id="g22">
</g>
<g
   id="g24">
</g>
<g
   id="g26">
</g>
<g
   id="g28">
</g>
<g
   id="g30">
</g>
<g
   id="g32">
</g>
<g
   id="g34">
</g>
<g
   id="g36">
</g>
<g
   id="g38">
</g>
<g
   id="g40">
</g>
<g
   id="g42">
</g>
<g
   id="g44">
</g>
<g
   id="g46">
</g>
<g
   id="g48">
</g>
<g
   id="g50">
</g>
</svg>