<?xml version="1.0" encoding="iso-8859-1"?>
<!-- Generator: Adobe Illustrator 19.0.0, SVG Export Plug-In . SVG Version: 6.00 Build 0)  -->
<svg version="1.1" id="Capa_1" xmlns="http://www.w3.org/2000/svg" xmlns:xlink="http://www.w3.org/1999/xlink" x="0px" y="0px"
	 viewBox="0 0 507.967 507.967" style="enable-background:new 0 0 507.967 507.967;" xml:space="preserve">
<g>
	<path style="fill:#41596B;" d="M185.883,419.867c-20.6-6.7-25.1-45.2-42.2-57.7c-11.1-8.1-30.7-7.9-46.7-11.3l-6.1,10.3l-48.1,80.9
		l86.7-19.7l24.3,85.5l45.3-76.3l8.7-14.7C200.083,420.267,192.583,422.067,185.883,419.867z"/>
	<path style="fill:#41596B;" d="M410.983,350.967c-16,3.4-35.6,3.2-46.8,11.3c-17.1,12.5-21.6,51-42.2,57.7
		c-6.7,2.2-14.1,0.4-21.8-3l8.7,14.7l45.3,76.3l24.2-85.5l86.7,19.7l-48-80.9L410.983,350.967z"/>
</g>
<path style="fill:#334A5E;" d="M417.083,361.167c-6.5,1.7-13.3,2.6-19.8,3.5c-10.3,1.4-21,2.8-26.4,6.7c-5.3,3.9-9.9,13.5-14.3,22.8
	c-7,14.7-15,31.3-31,36.6c-3.1,1-6.4,1.5-9.8,1.5c-2.3,0-4.6-0.2-6.9-0.6l-54.9-92.5l-54.9,92.5c-2.3,0.4-4.6,0.6-6.9,0.6
	c-3.4,0-6.7-0.5-9.8-1.5c-16-5.2-24-21.9-31-36.6c-4.4-9.3-9-18.9-14.3-22.7c-5.4-3.9-16.1-5.3-26.4-6.8c-6.5-0.8-13.3-1.7-19.7-3.4
	l63-106.3l100,59.3l100-59.3L417.083,361.167z"/>
<path style="fill:#F2705B;" d="M432.483,152.467c-6.7-20.6,12.2-54.3-0.3-71.5c-12.6-17.3-50.6-9.7-67.9-22.3
	c-17.1-12.5-21.6-51-42.2-57.7c-19.9-6.5-46.1,21.9-68.1,21.9s-48.2-28.3-68.1-21.9c-20.6,6.7-25.1,45.2-42.2,57.7
	c-17.3,12.6-55.3,5-67.9,22.3c-12.5,17.1,6.4,50.9-0.3,71.5c-6.4,19.8-41.8,36-41.8,58s35.3,38.1,41.8,58
	c6.7,20.6-12.2,54.3,0.3,71.5c12.6,17.3,50.6,9.7,67.9,22.3c17.1,12.5,21.6,51,42.2,57.7c19.9,6.4,46.1-22,68.1-22
	s48.2,28.3,68.1,21.9c20.6-6.7,25.1-45.2,42.2-57.7c17.3-12.6,55.3-5,67.9-22.3c12.5-17.1-6.4-50.9,0.3-71.5
	c6.4-19.8,41.8-36,41.8-58S438.883,172.267,432.483,152.467z"/>
<path style="fill:#FFD05C;" d="M253.983,78.567c-72.8,0-131.9,59-131.9,131.8c0,0.8,0,1.6,0.1,2.4v0.6
	c1.6,71.5,60,128.8,131.8,128.8c2,0,4.1-0.1,6.1-0.2c69.9-3.2,125.7-60.9,125.7-131.6
	C385.783,137.567,326.783,78.567,253.983,78.567z"/>
<polygon style="fill:#FFFFFF;" points="253.983,108.067 277.283,179.767 352.683,179.767 291.683,224.167 314.983,295.867 
	253.983,251.567 192.883,295.867 216.183,224.167 155.183,179.767 230.583,179.767 "/>
<g>
</g>
<g>
</g>
<g>
</g>
<g>
</g>
<g>
</g>
<g>
</g>
<g>
</g>
<g>
</g>
<g>
</g>
<g>
</g>
<g>
</g>
<g>
</g>
<g>
</g>
<g>
</g>
<g>
</g>
</svg>
