<svg id="Capa_1" enable-background="new 0 0 512 512" height="512" viewBox="0 0 512 512" width="512" xmlns="http://www.w3.org/2000/svg"><g><path d="m370.399 512h-228.798c-14.764 0-27.466-10.442-30.322-24.927l-41.442-210.18h372.327l-41.444 210.18c-2.856 14.485-15.558 24.927-30.321 24.927z" fill="#ffe07d"/><path d="m442.163 276.892h-30.905-341.421l12.94 65.625c20.881.199 39.609-9.006 52.208-23.651 4.026-4.68 11.377-4.663 15.405.016 12.465 14.48 30.92 23.653 51.526 23.653 18.177 0 34.681-7.138 46.877-18.759 4.059-3.868 10.356-3.868 14.415 0 12.196 11.621 28.701 18.759 46.877 18.759 20.607 0 39.063-9.174 51.528-23.655 4.063-4.72 11.419-4.626 15.49.087.091.106.183.211.275.316 13.187 15.079 18.526 35.477 14.651 55.13l-22.214 112.659c-2.856 14.486-15.558 24.928-30.322 24.928h30.906c14.764 0 27.465-10.442 30.321-24.927l28.503-144.556z" fill="#ffd064"/><path d="m454.438 180.75c-3.518-1.449-5.985-4.651-6.391-8.435-10.389-96.874-92.411-172.315-192.047-172.315s-181.658 75.441-192.048 172.315c-.406 3.783-2.873 6.985-6.391 8.435-25.292 10.42-42.921 35.65-42.08 64.892 1.037 36.049 30.634 65.318 66.692 65.977 21.061.385 39.976-8.815 52.696-23.524 4.085-4.723 11.444-4.852 15.517-.119 12.465 14.481 30.921 23.655 51.528 23.655 18.177 0 34.681-7.138 46.877-18.759 4.059-3.867 10.356-3.867 14.415 0 12.196 11.621 28.701 18.759 46.877 18.759 20.607 0 39.063-9.174 51.528-23.655 4.074-4.733 11.433-4.604 15.517.119 12.72 14.709 31.635 23.909 52.696 23.524 36.058-.659 65.656-29.927 66.692-65.977.843-29.242-16.786-54.472-42.078-64.892z" fill="#e490b7"/><g><path d="m454.438 180.75c-3.518-1.449-5.985-4.651-6.391-8.435-10.389-96.874-92.411-172.315-192.047-172.315-5.203 0-10.354.218-15.453.621 92.55 7.327 166.747 79.878 176.595 171.694.406 3.783 2.873 6.985 6.391 8.435 25.292 10.42 42.921 35.65 42.08 64.892-.897 31.195-23.187 57.296-52.537 64.191 5.369 1.252 10.974 1.891 16.75 1.785 36.058-.658 65.656-29.928 66.692-65.976.841-29.242-16.788-54.472-42.08-64.892z" fill="#df75a5"/></g><g><g><path d="m256 476.74c-8.534 0-15.453-6.919-15.453-15.453v-98.945c0-8.534 6.919-15.453 15.453-15.453s15.453 6.918 15.453 15.453v98.945c0 8.535-6.919 15.453-15.453 15.453z" fill="#fbf4c6"/></g><g><path d="m178.717 476.742c-7.483 0-14.058-5.446-15.248-13.07l-15.453-98.945c-1.317-8.432 4.451-16.335 12.883-17.652 8.43-1.318 16.336 4.451 17.652 12.883l15.453 98.945c1.317 8.432-4.451 16.335-12.883 17.652-.808.127-1.611.187-2.404.187z" fill="#fbf4c6"/></g><g><path d="m333.283 476.742c-.793 0-1.596-.061-2.403-.187-8.432-1.317-14.2-9.22-12.883-17.652l15.453-98.945c1.317-8.433 9.225-14.201 17.652-12.883 8.432 1.317 14.2 9.22 12.883 17.652l-15.453 98.945c-1.191 7.624-7.767 13.07-15.249 13.07z" fill="#fbf4c6"/></g></g><circle cx="202.456" cy="94.018" fill="#f7f6f7" r="24.638"/><circle cx="311.543" cy="94.018" fill="#b3e59f" r="24.638"/><circle cx="256" cy="222.967" fill="#cbe2ff" r="24.638"/><g fill="#ffe07d"><circle cx="128.979" cy="195.017" r="24.638"/><circle cx="383.021" cy="195.017" r="24.638"/></g></g></svg>