<?xml version="1.0" encoding="iso-8859-1"?>
<!-- Generator: Adobe Illustrator 19.0.0, SVG Export Plug-In . SVG Version: 6.00 Build 0)  -->
<svg version="1.1" id="Capa_1" xmlns="http://www.w3.org/2000/svg" xmlns:xlink="http://www.w3.org/1999/xlink" x="0px" y="0px"
	 viewBox="0 0 512 512" style="enable-background:new 0 0 512 512;" xml:space="preserve">
<path style="fill:#FEA832;" d="M498.874,456.367l-42.426,42.426c-17.183,17.183-45.609,18.031-63.64,0l-10.607-10.607l4.243-28.426
	l-25.456,7.213l-21.213-21.213l7.425-25.668l-28.639,4.455l-21.213-21.213l5.091-29.274l-26.304,8.061L129.643,235.628l5.091-28.85
	l-26.304,7.636l-21.213-21.213l2.758-27.791l-23.971,6.577L44.79,150.775l2.545-23.334l-23.759,2.121L12.97,118.955
	c-17.074-17.074-17.073-46.567,0-63.64l42.426-42.026c18.668-18.668,47.305-16.335,63.64,0l379.838,379.438
	C516.269,410.122,516.481,438.759,498.874,456.367z"/>
<path style="fill:#FE9923;" d="M477.661,477.58l-21.213,21.213c-17.183,17.183-45.609,18.031-63.64,0l-10.607-10.607l4.243-28.426
	l-25.456,7.213l-21.213-21.213l7.425-25.668l-28.639,4.455l-21.213-21.213l5.091-29.274l-26.304,8.061L129.643,235.628l5.091-28.85
	l-26.304,7.636l-21.213-21.213l2.758-27.791l-23.971,6.577L44.79,150.775l2.545-23.334l-23.759,2.121L12.97,118.955
	c-17.074-17.074-17.073-46.567,0-63.64l21.213-21.213L477.661,477.58z"/>
<path style="fill:#787780;" d="M479.207,89.591l-45.821,15.273c-5.091-3.395-9.97-7.424-14.425-11.879
	c-6.576-6.576-12.09-14.214-16.333-22.698l19.727-37.123l64.852-31.828c5.727-2.757,15.061-1.062,19.516,3.394
	c4.879,4.879,6.576,11.667,4.243,17.82L479.207,89.591z"/>
<path style="fill:#57555C;" d="M433.386,104.864c-5.091-3.395-9.97-7.424-14.425-11.879L506.723,4.73
	c4.879,4.879,6.576,11.667,4.243,17.82l-31.759,67.042L433.386,104.864z"/>
<path style="fill:#FF5F18;" d="M138.948,479.488l-10.607,10.607c-29.062,29.062-76.579,29.062-106.066,0c0,0,0,0-0.212-0.212
	c-14-14-21.85-33.304-22.063-53.033c0-19.939,7.849-38.819,22.063-53.033L32.67,373.21l50.275,7.849l21.637,26.305l33.942,41.578
	L138.948,479.488z"/>
<path style="fill:#FC5112;" d="M138.948,479.488l-10.607,10.607c-29.062,29.062-76.579,29.062-106.066,0c0,0,0,0-0.212-0.212
	l82.518-82.518l33.942,41.578L138.948,479.488z"/>
<path style="fill:#00DA7C;" d="M427.447,190.565l-224.86,224.859l-42.002,0.425L92.49,347.754l4.243-38.184l224.86-224.859
	c1.908-1.908,3.394-3.394,5.303-4.879l0.212,0.212l32.243,13.151l58.336,58.336l14.425,33.517l-0.212,0.637
	C430.629,187.382,429.144,188.867,427.447,190.565z"/>
<path style="fill:#00B77B;" d="M160.585,415.849l-32.244-32.244l260.71-260.71l28.637,28.637l14.425,33.517l-0.212,0.637
	c-1.271,1.696-2.757,3.181-4.454,4.879l-224.86,224.859L160.585,415.849z"/>
<path style="fill:#D9D9D9;" d="M202.587,415.424L96.733,309.57l-53.245,52.821L32.669,373.21l106.278,106.278l10.607-10.607
	c0.212-0.212,0.212-0.212,0.423-0.423L202.587,415.424z"/>
<path style="fill:#E5741A;" d="M76.61,118.955l-31.82,31.82l-21.213-21.213l31.82-31.82c5.94-5.94,15.273-5.94,21.213,0
	C82.338,103.47,82.55,113.015,76.61,118.955z"/>
<path style="fill:#FE8821;" d="M140.25,140.169l-53.033,53.033l-21.213-21.213l53.033-53.033c5.728-5.728,15.273-5.94,21.213,0
	C145.978,124.683,145.978,134.441,140.25,140.169z"/>
<g>
	<path style="fill:#E5741A;" d="M161.463,203.808l-31.82,31.82l-21.213-21.213l31.82-31.82c5.728-5.728,15.273-5.94,21.213,0
		C167.191,188.323,167.191,198.08,161.463,203.808z"/>
	<path style="fill:#E5741A;" d="M329.168,371.514l-31.82,31.82l-21.213-21.213l31.82-31.82c5.728-5.728,15.273-5.94,21.213,0
		C334.896,356.029,334.896,365.786,329.168,371.514z"/>
</g>
<path style="fill:#FE8821;" d="M392.808,392.727l-53.033,53.033l-21.213-21.213l53.033-53.033c5.728-5.728,15.273-5.94,21.213,0
	C398.536,377.242,398.536,386.999,392.808,392.727z"/>
<path style="fill:#E5741A;" d="M414.021,456.367l-31.82,31.82l-21.213-21.213l31.82-31.82c5.728-5.728,15.273-5.94,21.213,0
	C419.749,440.881,419.749,450.639,414.021,456.367z"/>
<path style="fill:#FEC478;" d="M433.598,183.564l-1.485,1.485L327.109,80.045l1.485-1.485c1.696-0.849,3.818-2.122,5.939-2.971
	c80.399-38.819,63.427-30.758,87.822-42.425c0.849,14.848,7.425,28.639,17.607,38.821c10.394,10.394,24.396,17.181,39.245,17.607
	c-12.304,25.031-4.031,8.272-42.215,87.609C435.508,179.958,434.447,181.868,433.598,183.564z"/>
<path style="fill:#FEB756;" d="M432.113,185.049l-52.608-52.608l60.457-60.457c10.394,10.394,24.396,17.181,39.245,17.607
	c-12.304,25.031-4.031,8.272-42.215,87.609c-1.484,2.758-2.544,4.668-3.394,6.364L432.113,185.049z"/>
<path style="fill:#C8C6CD;" d="M149.978,468.458c-0.211,0.211-0.211,0.211-0.423,0.423l-10.607,10.607l-53.245-53.245l63.852-63.852
	l53.033,53.033L149.978,468.458z"/>
<g>
	
		<rect x="88.121" y="118.573" transform="matrix(0.7071 0.7071 -0.7071 0.7071 140.5634 -27.2049)" style="fill:#E5741A;" width="30" height="74.999"/>
	
		<rect x="318.188" y="393.631" transform="matrix(-0.7071 0.7071 -0.7071 -0.7071 896.1427 446.0675)" style="fill:#E5741A;" width="74.999" height="30"/>
</g>
<g>
</g>
<g>
</g>
<g>
</g>
<g>
</g>
<g>
</g>
<g>
</g>
<g>
</g>
<g>
</g>
<g>
</g>
<g>
</g>
<g>
</g>
<g>
</g>
<g>
</g>
<g>
</g>
<g>
</g>
</svg>
