<?xml version="1.0" encoding="iso-8859-1"?>
<!-- Generator: Adobe Illustrator 19.0.0, SVG Export Plug-In . SVG Version: 6.00 Build 0)  -->
<svg version="1.1" id="Capa_1" xmlns="http://www.w3.org/2000/svg" xmlns:xlink="http://www.w3.org/1999/xlink" x="0px" y="0px"
	 viewBox="0 0 512.001 512.001" style="enable-background:new 0 0 512.001 512.001;" xml:space="preserve">
<path style="fill:#DD352E;" d="M405.231,0H106.77C89.248,0,75.035,14.212,75.035,31.735v471.402c0,7.256,8.263,11.423,14.098,7.106
	L260.414,370.6l162.454,139.652c5.835,4.317,14.098,0.15,14.098-7.106V324.943V134.091V31.735C436.966,14.212,422.754,0,405.231,0z"
	/>
<g>
	<path style="fill:#B02721;" d="M145.656,61.793H75.035v17.655h70.621c4.873,0,8.828-3.946,8.828-8.828
		S150.529,61.793,145.656,61.793z"/>
	<path style="fill:#B02721;" d="M163.311,114.759H75.035v17.655h88.276c4.873,0,8.828-3.946,8.828-8.828
		S168.184,114.759,163.311,114.759z"/>
	<path style="fill:#B02721;" d="M180.966,167.724H75.035v17.655h105.931c4.873,0,8.828-3.946,8.828-8.828
		S185.839,167.724,180.966,167.724z"/>
	<path style="fill:#B02721;" d="M260.414,370.6l8.828,7.592v-42.893c0-4.882-3.955-8.828-8.828-8.828
		c-4.873,0-8.828,3.946-8.828,8.828v42.505L260.414,370.6z"/>
</g>
<g>
</g>
<g>
</g>
<g>
</g>
<g>
</g>
<g>
</g>
<g>
</g>
<g>
</g>
<g>
</g>
<g>
</g>
<g>
</g>
<g>
</g>
<g>
</g>
<g>
</g>
<g>
</g>
<g>
</g>
</svg>
