<?xml version="1.0" encoding="iso-8859-1"?>
<!-- Generator: Adobe Illustrator 19.0.0, SVG Export Plug-In . SVG Version: 6.00 Build 0)  -->
<svg version="1.1" id="Capa_1" xmlns="http://www.w3.org/2000/svg" xmlns:xlink="http://www.w3.org/1999/xlink" x="0px" y="0px"
	 viewBox="0 0 508.1 508.1" style="enable-background:new 0 0 508.1 508.1;" xml:space="preserve">
<path style="fill:#F2F2F2;" d="M486.8,0H21.2C9.5,0,0,9.5,0,21.2v465.7c0,11.7,9.5,21.2,21.2,21.2h465.7c11.7,0,21.2-9.5,21.2-21.2
	V21.2C508,9.5,498.5,0,486.8,0z"/>
<rect x="56.4" y="56.4" style="fill:#65C5B8;" width="395.1" height="395.1"/>
<g>
	<rect x="432.8" y="91.9" style="fill:#41596B;" width="37.6" height="80.8"/>
	<rect x="432.8" y="335.3" style="fill:#41596B;" width="37.6" height="80.8"/>
	<path style="fill:#41596B;" d="M312.7,229.7h-30c-1.3-4-2.9-7.9-4.9-11.6l21.2-21.2c2.2-2.2,2.2-5.8,0-8l-26.4-26.4
		c-2.2-2.2-5.8-2.2-8,0l-21.2,21.2c-3.7-1.9-7.6-3.5-11.6-4.9v-30c0-3.1-2.5-5.6-5.6-5.6h-37.4c-3.1,0-5.6,2.5-5.6,5.6v30
		c-4,1.3-7.9,2.9-11.6,4.9l-21.2-21.2c-2.2-2.2-5.8-2.2-8,0L116,188.9c-2.2,2.2-2.2,5.8,0,8l21.2,21.2c-1.9,3.7-3.5,7.6-4.9,11.6
		h-30c-3.1,0-5.6,2.5-5.6,5.6v37.4c0,3.1,2.5,5.6,5.6,5.6h30c1.3,4,2.9,7.9,4.9,11.6L116,311.1c-2.2,2.2-2.2,5.8,0,8l26.4,26.4
		c2.2,2.2,5.8,2.2,8,0l21.2-21.2c3.7,1.9,7.6,3.5,11.6,4.9v30c0,3.1,2.5,5.6,5.6,5.6h37.4c3.1,0,5.6-2.5,5.6-5.6v-30
		c4-1.3,7.9-2.9,11.6-4.9l21.2,21.2c2.2,2.2,5.8,2.2,8,0l26.4-26.4c2.2-2.2,2.2-5.8,0-8L277.9,290c1.9-3.7,3.5-7.6,4.9-11.6h30
		c3.1,0,5.6-2.5,5.6-5.6v-37.4C318.4,232.2,315.8,229.7,312.7,229.7z"/>
</g>
<circle style="fill:#F2705B;" cx="207.5" cy="254" r="47.1"/>
<g>
</g>
<g>
</g>
<g>
</g>
<g>
</g>
<g>
</g>
<g>
</g>
<g>
</g>
<g>
</g>
<g>
</g>
<g>
</g>
<g>
</g>
<g>
</g>
<g>
</g>
<g>
</g>
<g>
</g>
</svg>
