<?xml version="1.0" encoding="iso-8859-1"?>
<!-- Generator: Adobe Illustrator 19.0.0, SVG Export Plug-In . SVG Version: 6.00 Build 0)  -->
<svg version="1.1" id="Capa_1" xmlns="http://www.w3.org/2000/svg" xmlns:xlink="http://www.w3.org/1999/xlink" x="0px" y="0px"
	 viewBox="0 0 508 508" style="enable-background:new 0 0 508 508;" xml:space="preserve">
<g>
	<path style="fill:#89D6F7;" d="M424.1,0H83.9C69.8,0,58.3,11.5,58.3,25.6s11.5,25.6,25.6,25.6h340.2c14.1,0,25.6-11.5,25.6-25.6
		S438.2,0,424.1,0z"/>
	<path style="fill:#89D6F7;" d="M83.9,456.8h340.2c14.1,0,25.6,11.5,25.6,25.6l0,0c0,14.1-11.5,25.6-25.6,25.6H83.9
		c-14.1,0-25.6-11.5-25.6-25.6l0,0C58.3,468.2,69.8,456.8,83.9,456.8z"/>
</g>
<path style="fill:#F2F2F2;" d="M397.7,82.9V51.2H110.3v31.7c0,70.7,43.3,135.2,112.3,171c-69,35.9-112.3,100.4-112.3,171.1v31.7
	h287.4V425c0-70.7-43.3-135.2-112.2-171C354.5,218.1,397.7,153.6,397.7,82.9z"/>
<path style="fill:#F2705B;" d="M156.1,411.6c5.5-51.8,42.2-97.9,97.9-122.7c55.6,24.8,92.4,70.9,97.9,122.7L156.1,411.6L156.1,411.6
	z"/>
<g>
</g>
<g>
</g>
<g>
</g>
<g>
</g>
<g>
</g>
<g>
</g>
<g>
</g>
<g>
</g>
<g>
</g>
<g>
</g>
<g>
</g>
<g>
</g>
<g>
</g>
<g>
</g>
<g>
</g>
</svg>
