<?xml version="1.0" encoding="iso-8859-1"?>
<!-- Generator: Adobe Illustrator 19.0.0, SVG Export Plug-In . SVG Version: 6.00 Build 0)  -->
<svg version="1.1" id="Capa_1" xmlns="http://www.w3.org/2000/svg" xmlns:xlink="http://www.w3.org/1999/xlink" x="0px" y="0px"
	 viewBox="0 0 508 508" style="enable-background:new 0 0 508 508;" xml:space="preserve">
<path style="fill:#CDD5DF;" d="M465.225,128l-156.5,156.5l-64,64l-32.5,32.5c-8.6-30.8-31.7-55.5-61.5-66.5L465.225,0
	C500.625,35.3,500.625,92.6,465.225,128z"/>
<path style="fill:#F2F2F2;" d="M356.925,314.1L42.825,0c-35.3,35.3-35.3,92.6,0,128l251.9,251.9
	C303.725,349.3,327.025,324.8,356.925,314.1z"/>
<g>
	<path style="fill:#F2705B;" d="M390.525,308.2c-55.2,0-99.9,44.7-99.9,99.9s44.7,99.9,99.9,99.9s99.9-44.7,99.9-99.9
		S445.725,308.2,390.525,308.2z M390.525,453.2c-24.9,0-45-20.2-45-45c0-24.9,20.2-45,45-45c24.9,0,45,20.2,45,45
		S415.425,453.2,390.525,453.2z"/>
	<path style="fill:#F2705B;" d="M116.125,308.2c-55.2,0-99.9,44.7-99.9,99.9s44.8,99.9,99.9,99.9c55.2,0,99.9-44.7,99.9-99.9
		S171.325,308.2,116.125,308.2z M116.125,453.2c-24.9,0-45-20.2-45-45c0-24.9,20.2-45,45-45c24.9,0,45,20.2,45,45
		C161.225,433,141.025,453.2,116.125,453.2z"/>
</g>
<polygon style="fill:#ABB2B9;" points="254.025,339.2 244.725,348.5 180.725,284.5 190.025,275.2 "/>
<circle style="fill:#65C5B8;" cx="254.025" cy="275.2" r="18.8"/>
<g>
</g>
<g>
</g>
<g>
</g>
<g>
</g>
<g>
</g>
<g>
</g>
<g>
</g>
<g>
</g>
<g>
</g>
<g>
</g>
<g>
</g>
<g>
</g>
<g>
</g>
<g>
</g>
<g>
</g>
</svg>
