<?xml version="1.0" encoding="iso-8859-1"?>
<!-- Generator: Adobe Illustrator 19.0.0, SVG Export Plug-In . SVG Version: 6.00 Build 0)  -->
<svg version="1.1" id="Layer_1" xmlns="http://www.w3.org/2000/svg" xmlns:xlink="http://www.w3.org/1999/xlink" x="0px" y="0px"
	 viewBox="0 0 511.996 511.996" style="enable-background:new 0 0 511.996 511.996;" xml:space="preserve">
<g>
	<path style="fill:#AAB2BC;" d="M410.649,117.327c-5.875,0-10.656,4.773-10.656,10.664v42.672c0,5.891,4.781,10.664,10.656,10.664
		c5.906,0,10.688-4.773,10.688-10.664v-42.672C421.337,122.101,416.556,117.327,410.649,117.327z"/>
	<path style="fill:#AAB2BC;" d="M410.649,191.991c-5.875,0-10.656,4.781-10.656,10.671v42.664c0,5.891,4.781,10.664,10.656,10.664
		c5.906,0,10.688-4.773,10.688-10.664v-42.664C421.337,196.772,416.556,191.991,410.649,191.991z"/>
</g>
<path style="fill:#E6E9ED;" d="M133.331,506.652c-20.594,0-37.328-16.75-37.328-37.327V42.663c0-20.585,16.734-37.335,37.328-37.335
	h234.662c20.594,0,37.344,16.75,37.344,37.335v426.662c0,20.577-16.75,37.327-37.344,37.327H133.331z"/>
<path style="fill:#CCD1D9;" d="M367.993,0H133.331c-23.562,0-42.672,19.102-42.672,42.663v426.662
	c0,23.577,19.109,42.671,42.672,42.671h234.662c23.562,0,42.656-19.094,42.656-42.671V42.663C410.649,19.102,391.556,0,367.993,0z
	 M399.993,469.325c0,17.64-14.344,31.999-32,31.999H133.331c-17.641,0-32-14.359-32-31.999V42.663c0-17.647,14.359-31.999,32-31.999
	h234.662c17.656,0,32,14.352,32,31.999V469.325z"/>
<rect x="101.328" y="74.668" style="fill:#5D9CEC;" width="298.66" height="362.66"/>
<path style="fill:#CCD1D9;" d="M325.338,458.653H176.002c-5.906,0-10.671,4.781-10.671,10.672s4.766,10.672,10.671,10.672h149.336
	c5.875,0,10.656-4.781,10.656-10.672S331.213,458.653,325.338,458.653z"/>
<path style="fill:#5D9CEC;" d="M335.994,42.663c0,5.891-4.781,10.664-10.656,10.664c-5.906,0-10.688-4.773-10.688-10.664
	s4.781-10.672,10.688-10.672C331.213,31.991,335.994,36.772,335.994,42.663z"/>
<path style="fill:#CCD1D9;" d="M293.338,31.991H176.002c-5.906,0-10.671,4.781-10.671,10.672s4.766,10.664,10.671,10.664h117.336
	c5.875,0,10.656-4.773,10.656-10.664S299.213,31.991,293.338,31.991z"/>
<polygon style="opacity:0.1;fill:#FFFFFF;enable-background:new    ;" points="270.658,437.669 209.331,437.669 273.338,74.89 
	334.65,74.89 "/>
<g>
</g>
<g>
</g>
<g>
</g>
<g>
</g>
<g>
</g>
<g>
</g>
<g>
</g>
<g>
</g>
<g>
</g>
<g>
</g>
<g>
</g>
<g>
</g>
<g>
</g>
<g>
</g>
<g>
</g>
</svg>
