<?xml version="1.0" encoding="iso-8859-1"?>
<!-- Generator: Adobe Illustrator 19.0.0, SVG Export Plug-In . SVG Version: 6.00 Build 0)  -->
<svg version="1.1" id="Capa_1" xmlns="http://www.w3.org/2000/svg" xmlns:xlink="http://www.w3.org/1999/xlink" x="0px" y="0px"
	 viewBox="0 0 508 508" style="enable-background:new 0 0 508 508;" xml:space="preserve">
<path style="fill:#55BFE9;" d="M486.1,0H100.8C89.1,0,79.6,9.5,79.6,21.2v218.1c0,35.1,28.4,63.5,63.5,63.5h343
	c11.7,0,21.2-9.5,21.2-21.2V21.2C507.2,9.5,497.7,0,486.1,0z"/>
<path style="fill:#89D6F7;" d="M407.2,132H21.9c-11.7,0-21.2,9.5-21.2,21.2v260.4c0,11.7,9.5,21.2,21.2,21.2h141l0,0l51.7,73.2
	l51.7-73.2l0,0h141c11.7,0,21.2-9.5,21.2-21.2V153.2C428.4,141.5,418.9,132,407.2,132z"/>
<g>
	<rect x="70.9" y="270.5" style="fill:#F2F2F2;" width="287.3" height="25.8"/>
	<rect x="111.7" y="335.8" style="fill:#F2F2F2;" width="205.7" height="25.8"/>
	<rect x="111.7" y="205.2" style="fill:#F2F2F2;" width="205.7" height="25.8"/>
</g>
<g>
</g>
<g>
</g>
<g>
</g>
<g>
</g>
<g>
</g>
<g>
</g>
<g>
</g>
<g>
</g>
<g>
</g>
<g>
</g>
<g>
</g>
<g>
</g>
<g>
</g>
<g>
</g>
<g>
</g>
</svg>
