<svg height="512" viewBox="0 0 58 58" width="512" xmlns="http://www.w3.org/2000/svg"><g id="013---Pocket-Knife" fill="none" transform="translate(-1)"><path id="Shape" d="m56.23 40.82c-3.4259618-1.4043869-6.5393617-3.474322-9.16-6.09l-8.07-8.07-2-6.66 2-4.66 13.73 13.73c2.615678 2.6206383 4.6856131 5.7340382 6.09 9.16.2884144.7395236.112188 1.5796213-.4490953 2.1409047-.5612834.5612833-1.4013811.7375097-2.1409047.4490953z" fill="#a5a5a4"/><path id="Shape" d="m58.92 39.51c-.1740042.6940643-.7159357 1.2359958-1.41 1.41l-16.12-16.12c-.2853762-.2443899-.4096819-.6281184-.3218101-.993419.0878718-.3653005.3730906-.6505193.7383911-.7383911.3653006-.0878718.7490291.0364339.993419.3218101z" fill="#56595e"/><path id="Shape" d="m37.22 11h19.78c.52 0 .66-.25 1.7-1.29.1893127-.1877666.2957983-.44336246.2957983-.71s-.1064856-.5222334-.2957983-.71c-1.05-1.06-1.17-1.29-1.7-1.29h-20z" fill="#a5a5a4"/><path id="Shape" d="m22.94 44h-9.94c-.5522847 0-1 .4477153-1 1s-.4477153 1-1 1h-4c-.55228475 0-1-.4477153-1-1s-.44771525-1-1-1h-3c-.55228475 0-1 .4477153-1 1 0 1.3260824.5267842 2.597852 1.46446609 3.5355339.9376819.9376819 2.20945146 1.4644661 3.53553391 1.4644661h17z" fill="#7f8284"/><path id="Shape" d="m21 42c-14.51-14.51-15.16-14.79-17.06-18.29-1.99398808-3.3579172-3.01211707-7.2053367-2.94-11.11.01066902-.4658227.21779315-.9054194.57021671-1.2102182.35242356-.3047987.81728891-.4463821 1.27978329-.3897818.77084019.0836339 1.3811064.6897486 1.47 1.46l.1.94c.05283556.4623627.41763729.8271644.88.88l1.47.17c.46567739.0537391.83152602.4237451.88.89l.16 1.45c.04935162.4695763.42042368.8406484.89.89l1.45.15c.4695763.0493516.8406484.4204237.89.89l.16 1.46c.048474.4662549.4143226.8362609.88.89l1.47.16c.4623627.0528356.8271644.4176373.88.88l.17 1.47c.0528356.4623627.4176373.8271644.88.88l1.47.17c.4623627.0528356.8271644.4176373.88.88l.26 2.27 2.9 2.9 3.01 7.32z" fill="#a5a5a4"/><path id="Shape" d="m30 58c-4.9705627 0-9-4.0294373-9-9v-40c.0000001-4.97056267 4.0294373-8.99999981 9-8.99999981s8.9999999 4.02943714 9 8.99999981v40c0 4.9705627-4.0294373 9-9 9z" fill="#c03a2b"/><path id="Shape" d="m30 58c-3.38 0-7-3.44-7-9v-40c0-5.48 3.54-9 7-9s7 3.44 7 9v40c0 5.48-3.54 9-7 9z" fill="#e64c3c"/><circle id="Oval" cx="30" cy="9" fill="#d1d4d1" r="5"/><path id="Shape" d="m34 45h-2v-2c0-.5522847-.4477153-1-1-1h-2c-.5522847 0-1 .4477153-1 1v2h-2c-.5522847 0-1 .4477153-1 1v2c0 .5522847.4477153 1 1 1h2v2c0 .5522847.4477153 1 1 1h2c.5522847 0 1-.4477153 1-1v-2h2c.5522847 0 1-.4477153 1-1v-2c0-.5522847-.4477153-1-1-1z" fill="#ecf0f1"/><g fill="#fb7b76"><path id="Shape" d="m25 20c-.5522847 0-1-.4477153-1-1v-2c0-.5522847.4477153-1 1-1s1 .4477153 1 1v2c0 .5522847-.4477153 1-1 1z"/><path id="Shape" d="m25 40c-.5522847 0-1-.4477153-1-1v-16c0-.5522847.4477153-1 1-1s1 .4477153 1 1v16c0 .5522847-.4477153 1-1 1z"/></g></g></svg>