<?xml version="1.0" encoding="iso-8859-1"?>
<!-- Generator: Adobe Illustrator 19.0.0, SVG Export Plug-In . SVG Version: 6.00 Build 0)  -->
<svg version="1.1" id="Layer_1" xmlns="http://www.w3.org/2000/svg" xmlns:xlink="http://www.w3.org/1999/xlink" x="0px" y="0px"
	 viewBox="0 0 512 512" style="enable-background:new 0 0 512 512;" xml:space="preserve">
<path style="fill:#A1A7B3;" d="M361,452c0,32.999-27.001,60-60,60c-17.999,0-34.2-8.101-45-20.7c-9.6-10.501-15-24.3-15-39.3V15
	c0-8.401,6.599-15,15-15s15,6.599,15,15v437c0,16.5,13.5,30,30,30s30-13.5,30-30c0-8.401,6.599-15,15-15c0.901,0,1.8,0,2.999,0.3
	C355.901,438.8,361,444.8,361,452z"/>
<path style="fill:#979CA7;" d="M361,452c0,32.999-27.001,60-60,60c-17.999,0-34.2-8.101-45-20.7V0c8.401,0,15,6.599,15,15v437
	c0,16.5,13.5,30,30,30s30-13.5,30-30c0-8.401,6.599-15,15-15c0.901,0,1.8,0,2.999,0.3C355.901,438.8,361,444.8,361,452z"/>
<path style="fill:#4DA6FF;" d="M256,30C115.39,30,0,144.39,0,285c0,8.291,6.709,15,15,15s15-6.709,15-15c0-3.735,16.967-15,46-15
	c11.891,0,44.232,4.885,45.26,16.291l55.372-30.126l153.754-0.35l60.477,29.862C391.337,275.4,424.595,270,436,270
	c29.033,0,46,11.265,46,15c0,8.291,6.709,15,15,15s15-6.709,15-15C512,144.39,396.61,30,256,30z"/>
<path style="fill:#4596E6;" d="M330.385,255.815l60.478,29.863C391.337,275.4,424.594,270,436,270c29.033,0,46,11.265,46,15
	c0,8.291,6.709,15,15,15s15-6.709,15-15c0-140.61-115.39-255-256-255v225.983L330.385,255.815z"/>
<path style="fill:#50B9FF;" d="M330.099,66C308.2,42.599,282.1,30.599,256,30.599c-25.8,0-51.599,11.7-73.5,34.801
	C139.9,111,121,213.9,121.3,286.199C121.901,294,128.2,300,136,300c8.401,0,15-6.601,15-15l0.3-0.3c0.3-3.9,16.199-14.7,44.7-14.7
	c29.099,0,45,11.4,45,15c0,8.399,6.599,15,15,15s15-6.601,15-15c0-3.6,15.901-15,45-15c28.801,0,44.7,11.1,45,15
	c0,8.399,6.599,15,15,15c8.101,0,14.399-6.301,15-14.401C391.3,206.1,370,109.2,330.099,66z"/>
<path style="fill:#48A7E6;" d="M391,285.599C390.399,293.7,384.101,300,376,300c-8.401,0-15-6.601-15-15c-0.3-3.9-16.199-15-45-15
	c-29.099,0-45,11.4-45,15c0,8.399-6.599,15-15,15V30.599c26.1,0,52.2,12.001,74.099,35.402C370,109.2,391.3,206.1,391,285.599z"/>
<g>
</g>
<g>
</g>
<g>
</g>
<g>
</g>
<g>
</g>
<g>
</g>
<g>
</g>
<g>
</g>
<g>
</g>
<g>
</g>
<g>
</g>
<g>
</g>
<g>
</g>
<g>
</g>
<g>
</g>
</svg>
