<?xml version="1.0" encoding="UTF-8" standalone="no"?>
<!-- Created with Inkscape (http://www.inkscape.org/) -->

<svg
   xmlns:dc="http://purl.org/dc/elements/1.1/"
   xmlns:cc="http://creativecommons.org/ns#"
   xmlns:rdf="http://www.w3.org/1999/02/22-rdf-syntax-ns#"
   xmlns:svg="http://www.w3.org/2000/svg"
   xmlns="http://www.w3.org/2000/svg"
   xmlns:sodipodi="http://sodipodi.sourceforge.net/DTD/sodipodi-0.dtd"
   xmlns:inkscape="http://www.inkscape.org/namespaces/inkscape"
   version="1.1"
   id="svg2"
   xml:space="preserve"
   width="2560"
   height="1440"
   viewBox="0 0 2560 1440"
   sodipodi:docname="landscape.svg"
   inkscape:version="0.92.3 (2405546, 2018-03-11)"><metadata
     id="metadata8"><rdf:RDF><cc:Work
         rdf:about=""><dc:format>image/svg+xml</dc:format><dc:type
           rdf:resource="http://purl.org/dc/dcmitype/StillImage" /><dc:title></dc:title></cc:Work></rdf:RDF></metadata><defs
     id="defs6"><clipPath
       clipPathUnits="userSpaceOnUse"
       id="clipPath20"><path
         d="M 0,1080 H 1920 V 0 H 0 Z"
         id="path18"
         inkscape:connector-curvature="0" /></clipPath></defs><sodipodi:namedview
     pagecolor="#ffffff"
     bordercolor="#666666"
     borderopacity="1"
     objecttolerance="10"
     gridtolerance="10"
     guidetolerance="10"
     inkscape:pageopacity="0"
     inkscape:pageshadow="2"
     inkscape:window-width="751"
     inkscape:window-height="480"
     id="namedview4"
     showgrid="false"
     inkscape:zoom="0.12695312"
     inkscape:cx="1280"
     inkscape:cy="720"
     inkscape:window-x="42"
     inkscape:window-y="0"
     inkscape:window-maximized="0"
     inkscape:current-layer="g10" /><g
     id="g10"
     inkscape:groupmode="layer"
     inkscape:label="landscape-2270913"
     transform="matrix(1.3333333,0,0,-1.3333333,0,1440)"><path
       d="M 0,87.57 H 1920 V 1080 H 0 Z"
       style="fill:#55d7ff;fill-opacity:1;fill-rule:nonzero;stroke:none"
       id="path12"
       inkscape:connector-curvature="0" /><g
       id="g14"><g
         id="g16"
         clip-path="url(#clipPath20)"><g
           id="g22"
           transform="translate(1920,1080)"><path
             d="m 0,0 v -96.89 c -193.57,78.99 -354.81,66.73 -634.43,15.78 -320.98,-58.5 -229.48,4.5 -600.87,10.5 -258.7,4.18 -538.63,-46.9 -684.7,-78.27 V 0 Z"
             style="fill:#00b7ff;fill-opacity:1;fill-rule:nonzero;stroke:none"
             id="path24"
             inkscape:connector-curvature="0" /></g><g
           id="g26"
           transform="translate(1920,864.9702)"><path
             d="m 0,0 v -229.52 c -49.34,16.57 -110.2,34.82 -180.64,51.74 -200.94,48.29 -356.14,93.5 -504.78,39.14 -167.4,-61.22 -291.23,-168.6 -726.2,-78.89 -158.51,32.69 -367.64,-71.76 -508.38,-159.58 v 344.69 c 201.22,14.28 522.33,-91.3 636.94,-92.55 137.37,-1.5 233.15,49.4 438.64,113.92 205.5,64.53 443.82,65.97 550.32,24.45 C -234.16,-9.96 -103.12,-7.03 0,0"
             style="fill:#00b7ff;fill-opacity:1;fill-rule:nonzero;stroke:none"
             id="path28"
             inkscape:connector-curvature="0" /></g><g
           id="g30"
           transform="translate(1920,492.6104)"><path
             d="m 0,0 v -67.061 c -84.97,37.88 -247.84,92.081 -475.43,86.241 -346.49,-8.88 -337.49,-128.89 -578.97,-131.88 -241.49,-2.99 -253.98,107.5 -504.98,68 -134.58,-21.18 -266.86,-79.061 -360.62,-128.191 v 70.781 c 124.52,57.349 308.11,126.469 460.75,121.29 258.06,-8.75 380.85,-71.88 592.34,-7.38 C -663.65,73.79 -413.3,147.99 0,0"
             style="fill:#00b7ff;fill-opacity:1;fill-rule:nonzero;stroke:none"
             id="path32"
             inkscape:connector-curvature="0" /></g><g
           id="g34"
           transform="translate(1568.7197,171.6797)"><path
             d="m 0,0 c -2.399,-14.59 -2.38,-27.92 -0.25,-40.06 h -196.34 c 2.45,14.581 1.33,31.75 -3.86,52.25 -8.409,33.14 -21.239,87.4 -44.119,137.79 -0.011,0.031 -0.021,0.06 -0.031,0.081 -0.009,0.029 -0.02,0.049 -0.02,0.059 -0.01,0.021 -0.01,0.03 -0.02,0.05 -7.92,17.431 -17.04,34.391 -27.589,49.851 4.939,11.469 10.219,22.95 15.809,34.319 20.771,42.261 45.79,82.94 73.021,115.961 0.019,0.029 0.029,0.05 0.029,0.05 37.82,45.869 79.92,76.94 120.87,76.94 50.28,0 93.45,-51.821 126.78,-121.211 0.02,-0.04 0.04,-0.08 0.06,-0.12 1.86,-3.87 3.681,-7.79 5.48,-11.76 14.51,-32.099 27,-67.37 37.21,-102.679 C 53.181,131.971 8.391,50.82 0,0"
             style="fill:#3b893b;fill-opacity:1;fill-rule:nonzero;stroke:none"
             id="path36"
             inkscape:connector-curvature="0" /></g><g
           id="g38"
           transform="translate(1368.2695,183.8701)"><path
             d="M 0,0 C 5.19,-20.5 6.311,-37.67 3.86,-52.25 H -98.409 c -10.91,19.67 -17.021,43.32 -17.021,71.58 0,29.23 7.611,67.28 20.88,108.22 6.351,19.639 14.021,39.96 22.771,60.28 10.55,-15.46 19.67,-32.42 27.59,-49.851 0.009,-0.019 0.009,-0.029 0.019,-0.049 0,-0.01 0.011,-0.031 0.021,-0.06 0.009,-0.02 0.019,-0.05 0.03,-0.08 C -21.239,87.399 -8.409,33.14 0,0"
             style="fill:#4c934c;fill-opacity:1;fill-rule:nonzero;stroke:none"
             id="path40"
             inkscape:connector-curvature="0" /></g><g
           id="g42"
           transform="translate(1707.8203,174.1396)"><path
             d="m 0,0 c 0,-16.09 -1.721,-30.189 -5,-42.52 h -134.351 c -2.129,12.14 -2.149,25.47 0.25,40.06 8.391,50.82 53.181,131.971 107.031,191.521 C -11.37,117.551 0,45.86 0,0"
             style="fill:#4c934c;fill-opacity:1;fill-rule:nonzero;stroke:none"
             id="path44"
             inkscape:connector-curvature="0" /></g><g
           id="g46"
           transform="translate(1911.2598,131.6201)"><path
             d="m 0,0 h -342.79 c -2.13,12.14 -2.149,25.47 0.25,40.06 8.391,50.82 53.181,131.97 107.03,191.52 5.29,5.85 10.67,11.5 16.111,16.87 0.019,0.02 0.029,0.04 0.029,0.04 38.9,38.51 80.94,63.83 116.641,57.949 37.679,-6.219 63.66,-50.21 80.139,-106.219 C -3.779,136.36 2.66,56.88 0,0"
             style="fill:#1ea307;fill-opacity:1;fill-rule:nonzero;stroke:none"
             id="path48"
             inkscape:connector-curvature="0" /></g><g
           id="g50"
           transform="translate(1372.1299,131.6201)"><path
             d="m 0,0 h -498.97 c -1.66,45.17 30.79,105.43 73.62,159.939 45.51,57.931 102.75,109.361 143.22,129.261 100.75,49.52 164.8,11.92 206.49,-49.12 10.55,-15.46 19.67,-32.42 27.59,-49.851 0.01,-0.019 0.01,-0.029 0.02,-0.049 0,-0.01 0.01,-0.031 0.02,-0.06 0.01,-0.02 0.02,-0.05 0.031,-0.08 C -25.1,139.649 -12.27,85.39 -3.86,52.25 1.33,31.75 2.45,14.58 0,0"
             style="fill:#1ea307;fill-opacity:1;fill-rule:nonzero;stroke:none"
             id="path52"
             inkscape:connector-curvature="0" /></g><g
           id="g54"
           transform="translate(688.8799,143.8604)"><path
             d="m 0,0 c -34.93,-0.08 -43.2,35.71 -42.3,90.67 0.13,8.72 0.51,17.91 1.04,27.529 0.2,3.731 0.43,7.53 0.68,11.391 0.15,2.2 0.3,4.41 0.45,6.649 0.18,2.58 0.37,5.181 0.56,7.801 0.2,2.72 0.41,5.46 0.62,8.23 0.25,3.23 0.51,6.49 0.77,9.79 0.24,3.089 0.5,6.21 0.76,9.36 0.71,8.95 1.47,18.109 2.2,27.439 0.26,3.17 0.51,6.37 0.76,9.58 0.32,4.22 0.64,8.481 0.95,12.76 0.11,1.5 0.22,3 0.33,4.49 0.43,5.621 0.87,11.191 1.34,16.681 0.24,2.9 0.5,5.77 0.75,8.63 1.02,11.31 2.13,22.3 3.33,32.939 0.5,4.451 1.02,8.84 1.55,13.161 0.37,3.009 0.75,5.98 1.13,8.91 0.32,2.46 0.65,4.889 0.97,7.3 1.12,8.129 2.29,15.98 3.51,23.52 0.24,1.449 0.47,2.88 0.71,4.3 0.42,2.5 0.84,4.95 1.27,7.37 0.93,5.26 1.89,10.35 2.87,15.25 0.69,3.42 1.39,6.75 2.1,9.979 0.47,2.151 0.95,4.25 1.43,6.3 0.44,1.901 0.89,3.761 1.34,5.58 1.06,4.271 2.15,8.33 3.26,12.181 1.53,5.35 3.11,10.28 4.73,14.76 6.56,18.11 13.77,28.79 21.41,29.86 10.36,1.45 13.44,-7.84 13.69,-26.39 0.04,-2.77 0.01,-5.76 -0.06,-8.94 -0.21,-8.9 -0.79,-19.36 -1.43,-31.31 v -0.01 c -0.36,-6.8 -0.74,-14.09 -1.07,-21.83 -0.44,-9.981 -0.8,-20.72 -0.95,-32.17 -0.04,-2.5 -0.06,-5.031 -0.08,-7.59 -0.02,-3.851 -0.01,-7.78 0.02,-11.78 0.04,-4.47 0.11,-9.031 0.22,-13.68 v -0.011 c 0.06,-2.189 0.12,-4.389 0.2,-6.619 0.09,-2.83 0.2,-5.681 0.33,-8.57 0.17,-3.99 0.38,-8.05 0.63,-12.16 0.13,-2.161 0.27,-4.34 0.43,-6.54 0.73,-10.821 1.74,-22.031 3.07,-33.611 0.11,-0.939 0.22,-1.889 0.32,-2.829 0.85,-7.341 1.7,-14.6 2.54,-21.761 0.33,-2.83 0.66,-5.639 0.99,-8.439 1.14,-9.75 2.23,-19.3 3.25,-28.601 0.33,-3.069 0.65,-6.12 0.97,-9.13 0.42,-4.049 0.82,-8.049 1.19,-11.99 0.98,-10.199 1.8,-20.029 2.38,-29.409 0.25,-4.051 0.46,-8.02 0.61,-11.9 C 48.17,38.729 39.44,0.09 0,0"
             style="fill:#5e0628;fill-opacity:1;fill-rule:nonzero;stroke:none"
             id="path56"
             inkscape:connector-curvature="0" /></g><g
           id="g58"
           transform="translate(1164.0449,168.8555)"><path
             d="M 0,0 C -0.015,-0.02 -0.027,-0.037 -0.04,-0.055 -0.138,0.722 -0.293,1.512 -0.485,2.308 -0.442,2.373 -0.397,2.434 -0.349,2.5 -0.229,1.625 -0.11,0.786 0,0 M 50.531,21.216 C 47.487,23.652 40.929,19.768 35.214,15.092 35.397,28.729 33.409,48.76 25.307,49.747 19.809,50.414 14.731,41.811 11.015,32.042 6.68,44.429 0.228,56.806 -6.712,55.736 -13.777,54.647 -16.434,40.24 -16.967,26.78 c -8.939,9.348 -20.036,18.121 -25.823,14.265 -6.638,-4.425 -0.825,-22.097 5.277,-35.003 -8.7,3.957 -19.879,7.456 -22.746,3.011 -4.062,-6.303 13.284,-21.803 19.987,-26.122 1.322,-0.853 2.675,-1.556 4.031,-2.089 8.944,5.394 36.58,19.193 75.645,11.854 0.575,0.579 1.129,1.209 1.663,1.873 4.334,5.417 14.556,22.57 9.464,26.647"
             style="fill:#19381f;fill-opacity:1;fill-rule:nonzero;stroke:none"
             id="path60"
             inkscape:connector-curvature="0" /></g><g
           id="g62"
           transform="translate(1166.8877,168.6572)"><path
             d="m 0,0 c 0.346,-2.235 0.568,-4.174 0.681,-5.808 -0.459,-0.108 -0.93,-0.2 -1.419,-0.275 -0.596,-0.092 -1.184,-0.158 -1.754,-0.195 -0.355,1.698 -0.712,3.742 -1.078,6.114 C -3.736,0.917 -3.957,2.46 -4.225,4.332 -4.319,5.01 -4.42,5.734 -4.52,6.491 -6.317,19.547 -9.287,43.286 -8.491,43.408 -7.76,43.521 -3.995,23.292 -1.659,9.891 -1.551,9.257 -1.439,8.636 -1.336,8.033 -0.742,4.565 -0.262,1.704 0,0"
             style="fill:#ffd700;fill-opacity:1;fill-rule:nonzero;stroke:none"
             id="path64"
             inkscape:connector-curvature="0" /></g><g
           id="g66"
           transform="translate(1182.9707,161.1436)"><path
             d="m 0,0 c -0.295,-2.142 -0.606,-4.001 -0.924,-5.581 -0.309,0.018 -0.627,0.049 -0.946,0.086 -0.675,0.085 -1.323,0.201 -1.946,0.358 0.169,1.701 0.405,3.695 0.718,5.964 1.179,8.578 6.888,44.968 7.757,44.85 C 5.53,45.557 1.179,8.579 0,0"
             style="fill:#ffd700;fill-opacity:1;fill-rule:nonzero;stroke:none"
             id="path68"
             inkscape:connector-curvature="0" /></g><g
           id="g70"
           transform="translate(1157.8525,152.8301)"><path
             d="M 0,0 C -0.227,-0.169 -0.465,-0.34 -0.709,-0.502 -1.154,-0.797 -1.603,-1.071 -2.056,-1.313 -3.428,0.415 -5.211,2.933 -7.37,6.201 -12.147,13.419 -31.868,44.529 -31.134,45.015 -30.4,45.5 -9.273,14.843 -4.494,7.619 -4.201,7.175 -3.919,6.741 -3.648,6.32 -1.997,3.75 -0.799,1.638 0,0"
             style="fill:#ffd700;fill-opacity:1;fill-rule:nonzero;stroke:none"
             id="path72"
             inkscape:connector-curvature="0" /></g><g
           id="g74"
           transform="translate(1817.4648,151.8066)"><path
             d="M 0,0 C -0.021,-0.015 -0.038,-0.027 -0.056,-0.04 0.09,0.729 0.185,1.528 0.245,2.345 0.307,2.395 0.368,2.438 0.435,2.486 0.279,1.617 0.136,0.782 0,0 m 54.603,4.696 c -2.151,3.252 -9.584,1.567 -16.457,-1.132 4.356,12.925 8.607,32.6 1.198,36.025 -5.029,2.32 -12.5,-4.312 -19.033,-12.469 -0.328,13.119 -2.673,26.878 -9.606,27.988 -7.059,1.131 -14.006,-11.767 -18.642,-24.415 -5.641,11.639 -13.512,23.393 -20.204,21.496 -7.674,-2.175 -7.561,-20.778 -5.712,-34.934 -7.067,6.434 -16.633,13.193 -20.726,9.842 -5.8,-4.753 5.958,-24.826 11.012,-30.993 0.998,-1.217 2.07,-2.301 3.197,-3.224 10.167,2.391 40.703,7.05 75.635,-11.917 0.724,0.376 1.446,0.805 2.158,1.273 5.786,3.826 20.775,17.018 17.18,22.46"
             style="fill:#ffd700;fill-opacity:1;fill-rule:nonzero;stroke:none"
             id="path76"
             inkscape:connector-curvature="0" /></g><g
           id="g78"
           transform="translate(1820.1094,150.7461)"><path
             d="m 0,0 c -0.356,-2.233 -0.739,-4.147 -1.133,-5.736 -0.471,0.037 -0.946,0.093 -1.435,0.173 -0.595,0.094 -1.175,0.211 -1.73,0.351 0.184,1.726 0.471,3.78 0.85,6.15 0.174,1.081 0.436,2.617 0.756,4.481 0.118,0.674 0.244,1.394 0.381,2.145 C -0.019,20.542 4.436,44.048 5.23,43.92 5.962,43.804 3.341,23.395 1.454,9.923 1.363,9.286 1.278,8.661 1.192,8.056 0.694,4.573 0.273,1.702 0,0"
             style="fill:#19381f;fill-opacity:1;fill-rule:nonzero;stroke:none"
             id="path80"
             inkscape:connector-curvature="0" /></g><g
           id="g82"
           transform="translate(1833.1133,138.6621)"><path
             d="m 0,0 c -0.937,-1.948 -1.805,-3.622 -2.591,-5.029 -0.289,0.112 -0.582,0.239 -0.875,0.372 -0.615,0.288 -1.197,0.597 -1.742,0.938 0.683,1.568 1.519,3.392 2.514,5.456 C 1.058,9.54 17.651,42.426 18.442,42.047 19.235,41.665 3.753,7.804 0,0"
             style="fill:#19381f;fill-opacity:1;fill-rule:nonzero;stroke:none"
             id="path84"
             inkscape:connector-curvature="0" /></g><g
           id="g86"
           transform="translate(1806.6553,138.4521)"><path
             d="M 0,0 C -0.267,-0.091 -0.546,-0.181 -0.828,-0.26 -1.343,-0.404 -1.854,-0.528 -2.359,-0.619 -3.135,1.446 -4.06,4.39 -5.112,8.163 -7.446,16.498 -16.676,52.157 -15.828,52.394 -14.98,52.631 -4.273,16.972 -1.94,8.631 -1.798,8.118 -1.662,7.618 -1.533,7.135 -0.75,4.182 -0.258,1.804 0,0"
             style="fill:#19381f;fill-opacity:1;fill-rule:nonzero;stroke:none"
             id="path88"
             inkscape:connector-curvature="0" /></g><g
           id="g90"
           transform="translate(498.98,165.7197)"><path
             d="m 0,0 c 0,-16.08 -1.72,-30.18 -5.01,-42.51 h -432.96 c -10.91,19.66 -39.01,-19.849 -39.01,8.41 0,43.26 26.04,112.72 53,175.38 5.22,12.13 11.22,24.821 17.89,37.83 0.01,0.031 0.02,0.05 0.02,0.05 55.67,108.68 157.11,238.91 227.09,238.91 58.14,0 85.85,-72.84 111.03,-160.12 7.63,-26.439 15.03,-54.2 22.97,-81.67 C -24.28,104.771 0,45.87 0,0"
             style="fill:#3b893b;fill-opacity:1;fill-rule:nonzero;stroke:none"
             id="path92"
             inkscape:connector-curvature="0" /></g><g
           id="g94"
           transform="translate(429.3301,352.4102)"><path
             d="M 0,0 C -21.32,-0.061 -35.55,78.41 -35.99,80.859 -35.57,77.45 -17.72,-69.68 -51,-64.76 c -33.66,4.989 -50.33,138.35 -50.33,138.35 0,0 -0.67,-137.67 -45,-131.67 -44.33,6 -42.67,135.67 -42.67,135.67 0,0 -2.33,-118 -32.66,-109 -30.34,9 -21.34,83.23 -21.34,83.23 0,0 -35.33,-89.23 -75.33,-108.23 -39.35,-18.691 -18.79,46.69 -18.11,48.83 0.01,0.03 0.02,0.05 0.02,0.05 55.67,108.679 157.11,238.91 227.09,238.91 58.14,0 85.85,-72.84 111.03,-160.12 C 6.06,48.939 21.67,0.06 0,0"
             style="fill:#97e80a;fill-opacity:1;fill-rule:nonzero;stroke:none"
             id="path96"
             inkscape:connector-curvature="0" /></g><g
           id="g98"
           transform="translate(1920,136)"><path
             d="M 0,0 V -136 H -1920 V 6.14 l 126,-2.81 c 69,-7.33 118,0 118.33,10.55 0.34,10.55 13,11.12 13,11.12 0,0 176.34,-18.67 242.67,-23.79 66.33,-5.12 245.67,-0.54 284.33,1.79 38.67,2.33 141,18 155.34,23 14.33,5 17.33,-0.33 17.33,-0.33 l 15,-20.74 c 0,0 288,29.4 302,32.74 14,3.33 17,0 17,0 l 47.63,-42.05 h 240.07 c 2.73,7.95 6.3,19.87 6.3,27.71 0,12.67 13.33,11.67 13.33,11.67 z"
             style="fill:#7c220d;fill-opacity:1;fill-rule:nonzero;stroke:none"
             id="path100"
             inkscape:connector-curvature="0" /></g><g
           id="g102"
           transform="translate(1285.875,175.1484)"><path
             d="m 0,0 c 0,0 11.625,0.602 20.25,-3.773 8.625,-4.375 -0.5,-9.375 -11.25,-7.375 0,0 2.375,-8 -2.625,-9.125 -5,-1.125 -13.25,6.125 -13.25,6.125 0,0 0,-12.25 -6.5,-12.75 -6.5,-0.5 -9.875,7 -9.875,7 0,0 0.125,-13.375 -5.25,-13.5 -5.375,-0.125 -6,11.125 -6,11.125 0,0 -3.375,-13.5 -9.5,-12.75 -6.125,0.75 -7.875,13.625 -7.875,13.625 0,0 1.5,-10.125 -2.375,-10.875 -3.875,-0.75 -9,9 -9,9 0,0 -0.625,-15.125 -10.25,-15.25 -9.625,-0.125 -11.875,12.5 -11.875,12.5 0,0 -2.375,-14.25 -8.5,-14.75 -6.125,-0.5 -5.5,12.625 -5.5,12.625 0,0 -1.625,-8.75 -4.875,-10.625 -3.25,-1.875 -11.5,9.5 -11.5,9.5 0,0 2.75,-14 -4.375,-16.625 -7.125,-2.625 -13.125,14 -13.125,14 0,0 -1.625,-12.938 -11.125,-14.282 -9.5,-1.343 -10.375,6.157 -10.375,6.157 0,0 2,-11.375 -4.625,-11.5 -6.625,-0.125 -13.75,11 -13.75,11 0,0 -3,-11.375 -12.75,-10.375 -9.75,1 -8.5,7.5 -8.5,7.5 0,0 1.875,-15.125 -5.625,-14.375 -7.5,0.75 -14.5,11.75 -14.5,11.75 0,0 3.125,-7.125 -3,-9.75 -6.125,-2.625 -11.625,6.375 -11.625,6.375 0,0 1.625,-12 -4.125,-12.125 -5.75,-0.125 -11.625,16.5 -11.625,16.5 0,0 2.625,-12.375 -6.125,-13.625 -8.75,-1.25 -8.125,12.875 -8.125,12.875 0,0 -3.125,-14.625 -10.125,-14.75 -7,-0.125 -2.875,12.75 -2.875,12.75 0,0 -4.25,-10.25 -10.75,-10.375 -6.5,-0.125 -8.125,9.25 -8.125,9.25 0,0 -2.625,-3.25 -9.125,-2.75 -6.5,0.5 -5.625,8.375 -5.625,8.375 0,0 -4.875,-6 -11.5,-5.875 0,0 -3.375,-13.375 -12,-11.375 0,0 -11.625,1.867 15.375,26.308 0,0 293.583,35.864 313.875,34.215"
             style="fill:#97e80a;fill-opacity:1;fill-rule:nonzero;stroke:none"
             id="path104"
             inkscape:connector-curvature="0" /></g><g
           id="g106"
           transform="translate(1920,74.7598)"><path
             d="M 0,0 V -74.76 H -1920 V 35.681 c 7.03,-0.921 14.21,-1.851 21.46,-2.761 15.96,-2 32.25,-3.92 48.02,-5.6 32.73,-3.48 63.19,-5.9 83.59,-5.75 5.81,0.04 10.81,0.29 14.81,0.781 15.54,1.92 32.16,4.46 47.77,7.08 5.8,0.969 11.46,1.949 16.87,2.909 28.1,4.99 49.6,9.48 49.6,9.48 0,0 12.78,-1.4 31.96,-3.52 4.41,-0.489 9.17,-1.02 14.18,-1.57 8.74,-0.98 18.28,-2.049 28.19,-3.16 10.5,-1.179 21.43,-2.42 32.3,-3.66 21.57,-2.46 42.9,-4.95 60.2,-7.05 1.42,-0.17 2.81,-0.339 4.17,-0.509 9.17,-1.121 22.6,-2.231 38.91,-3.271 17.37,-1.109 38,-2.16 60.19,-3.09 11.34,-0.48 23.09,-0.929 35.02,-1.349 35.26,-1.221 72.1,-2.151 104.68,-2.641 8.24,-0.12 16.21,-0.21 23.81,-0.279 27.46,-0.221 50.12,-0.051 63.53,0.639 2.55,0.13 4.77,0.281 6.62,0.451 8.15,0.75 17.98,1.87 28.52,3.189 29.72,3.74 65.16,9.101 85.08,12.2 9.61,1.49 15.61,2.45 15.61,2.45 0,0 19.72,-8.37 58.09,-14.089 13.05,-1.951 28.25,-3.59 45.56,-4.491 3.37,-0.179 6.82,-0.32 10.35,-0.44 14.52,-0.48 34.44,-0.06 57.12,0.931 7.96,0.349 16.26,0.769 24.78,1.239 3.32,0.18 6.66,0.37 10.04,0.58 21.16,1.25 43.39,2.801 65.06,4.44 10.61,0.8 21.07,1.63 31.21,2.451 15.75,1.269 30.7,2.549 44.15,3.719 11.8,1.031 22.43,1.99 31.41,2.821 18.68,1.71 30.21,2.839 30.21,2.839 0,0 19.91,-2.49 46.73,-4.77 18.56,-1.569 40.42,-3.05 61.27,-3.529 7.96,-0.181 17.87,-0.311 28.91,-0.391 13.2,-0.1 28.04,-0.14 43.15,-0.13 2.4,0 4.8,0 7.21,0.01 25.02,0.02 50.16,0.15 69.25,0.261 4.67,0.04 8.98,0.069 12.83,0.089 12.42,0.09 20.14,0.161 20.14,0.161 0,0 1.54,0.019 4.38,0.04 5.65,0.04 16.41,0.089 30.35,0 6.86,-0.04 14.49,-0.12 22.66,-0.241 5.44,-0.08 11.12,-0.19 16.97,-0.32 10.53,-0.24 21.6,-0.57 32.81,-1.01 3.98,-0.16 7.97,-0.33 11.96,-0.52 16.68,-0.779 33.35,-1.86 48.68,-3.3 5.6,-0.529 11.03,-1.109 16.2,-1.74 8.45,-1.03 16.25,-2.21 23.12,-3.56 0.46,-0.08 0.91,-0.17 1.36,-0.26 4.25,-0.86 8.58,-1.669 12.94,-2.41 C -75.73,7.26 -65.22,5.79 -54.87,4.58 -49.26,3.91 -43.7,3.33 -38.25,2.811 -24.52,1.5 -11.45,0.61 0,0"
             style="fill:#ff5703;fill-opacity:1;fill-rule:nonzero;stroke:none"
             id="path108"
             inkscape:connector-curvature="0" /></g><g
           id="g110"
           transform="translate(1920,891.8599)"><path
             d="m 0,0 v -13.07 c -58.31,13.04 -168.92,37.32 -277.96,33.97 -94.62,-2.91 -179.93,-93 -310,-94.38 -92.78,-0.99 -192.48,114.51 -296.42,114.51 -90.98,0 -107.65,-118.14 -340.58,-99.21 -114.42,9.29 -273.95,115.24 -364,117.51 C -1710.02,62.38 -1838.8,30.82 -1920,8.01 v 17.95 c 85.96,34.07 224.63,77.83 347.04,80.95 89.12,2.27 313.15,-109.05 427,-107.97 84.75,0.81 125.45,95.16 219,95.16 100.58,0 278,-118.03 392,-87.84 125.84,33.33 151.26,56.88 247,53.99 C -175.53,56.85 -60.03,22.91 0,0"
             style="fill:#ffffff;fill-opacity:1;fill-rule:nonzero;stroke:none"
             id="path112"
             inkscape:connector-curvature="0" /></g><g
           id="g114"
           transform="translate(1511.3252,374.1279)"><path
             d="m 0,0 c -0.17,-1.64 -0.42,-3.43 -0.729,-5.37 -0.372,-2.31 -0.831,-4.819 -1.361,-7.54 -0.52,-2.61 -1.091,-5.4 -1.71,-8.38 -0.37,-1.76 -0.75,-3.58 -1.14,-5.46 -0.55,-2.64 -1.129,-5.41 -1.709,-8.31 -0.301,-1.47 -0.601,-2.97 -0.911,-4.5 -0.31,-1.56 -0.621,-3.15 -0.93,-4.78 -0.781,-4.09 -1.56,-8.389 -2.31,-12.889 -0.29,-1.67 -0.57,-3.371 -0.84,-5.101 -0.6,-3.81 -1.179,-7.75 -1.73,-11.819 -1.391,-10.351 -2.54,-21.551 -3.25,-33.551 -0.12,-2.08 -0.231,-4.17 -0.32,-6.3 -0.039,-0.8 -0.071,-1.62 -0.1,-2.43 -0.189,-4.99 -0.37,-9.91 -0.55,-14.759 -0.091,-2.46 -0.171,-4.901 -0.261,-7.321 -0.069,-1.679 -0.128,-3.35 -0.199,-5 -0.06,-1.76 -0.131,-3.51 -0.211,-5.25 -0.058,-1.52 -0.119,-3.03 -0.189,-4.52 -0.17,-3.79 -0.35,-7.5 -0.55,-11.13 v -0.01 c -0.11,-1.96 -0.229,-3.9 -0.351,-5.8 -0.17,-2.59 -0.349,-5.13 -0.539,-7.61 -0.25,-3.02 -0.509,-5.97 -0.8,-8.83 -0.87,-8.5 -2,-16.279 -3.539,-23.15 -0.511,-2.32 -1.071,-4.54 -1.691,-6.65 -5.261,-18.1 -14.27,-28.13 -30.44,-25.68 -12.95,1.96 -18.3,11.42 -19.071,26.27 -0.119,2.04 -0.138,4.181 -0.08,6.431 0.091,3.479 0.371,7.189 0.821,11.119 0.179,1.61 0.39,3.27 0.63,4.95 0.241,1.78 0.51,3.6 0.82,5.46 0.82,5.09 1.841,10.471 3,16.08 1.12,5.431 2.38,11.08 3.729,16.931 0.591,2.579 1.201,5.199 1.83,7.859 0.452,1.92 0.91,3.86 1.371,5.811 0.629,2.639 1.26,5.319 1.9,8.019 0.47,1.93 0.931,3.88 1.399,5.84 0.381,1.63 0.771,3.28 1.16,4.931 0.311,1.319 0.631,2.649 0.941,3.979 0.36,1.55 0.72,3.11 1.091,4.68 0.25,1.12 0.509,2.24 0.769,3.36 0.69,3.01 1.39,5.99 2.09,8.93 0.699,2.96 1.42,5.89 2.13,8.77 v 0.01 c 1.101,4.41 2.2,8.72 3.319,12.95 0.631,2.39 1.271,4.76 1.901,7.09 0.87,3.15 1.74,6.231 2.61,9.26 v 0.011 c 0.58,2.019 1.16,4.009 1.739,5.969 0.561,1.85 1.112,3.68 1.66,5.48 0.601,1.93 1.191,3.82 1.791,5.68 0.9,2.81 1.789,5.541 2.7,8.19 0.461,1.37 0.92,2.72 1.39,4.04 1.25,3.58 2.5,6.99 3.75,10.23 0.63,1.64 1.26,3.23 1.89,4.77 1.86,4.59 3.72,8.77 5.54,12.48 0.769,1.57 1.529,3.05 2.3,4.45 5.49,10.131 10.69,15.8 15.28,15.74 C -0.39,13.561 0.931,8.9 0,0"
             style="fill:#5e0628;fill-opacity:1;fill-rule:nonzero;stroke:none"
             id="path116"
             inkscape:connector-curvature="0" /></g><g
           id="g118"
           transform="translate(0,715.1699)"><path
             d="m 0,0 v 36.16 c 83.53,14.76 236.11,46.33 299,89.05 78.94,53.63 -132.98,53.93 -299,-2.65 v 37.1 c 76.7,24.45 211.82,59.53 323,46.38 C 479.9,187.5 413,70.34 0,0"
             style="fill:#ffffff;fill-opacity:1;fill-rule:nonzero;stroke:none"
             id="path120"
             inkscape:connector-curvature="0" /></g><g
           id="g122"
           transform="translate(1103.1777,766.5825)"><path
             d="m 0,0 c -146.178,-32.938 -244.252,-84.385 -350.178,-16.469 0,0 -52,26.533 24,26.533 0,0 118,6.598 168,41.728 50,35.129 111.399,66.238 181.699,29.64 C 93.822,44.833 146.178,32.939 0,0 m 141.822,40.258 c -13,29.279 -112,90.582 -165,97.902 -53,7.319 -66,5.489 -146,-48.493 -80,-53.983 -219.125,-75.942 -336.062,-19.215 0,0 -125.938,57.643 -146.938,51.238 -21,-6.404 -44,-55.813 62,-103.391 106,-47.578 200,-111.625 351,-104.305 151,7.319 394,96.985 381,126.264"
             style="fill:#ffffff;fill-opacity:1;fill-rule:nonzero;stroke:none"
             id="path124"
             inkscape:connector-curvature="0" /></g><g
           id="g126"
           transform="translate(1240.9004,691.8398)"><path
             d="M 0,0 -0.021,0.01 -0.2,0.2 C -0.16,0.17 -0.07,0.1 -0.021,0.04 0.02,0.01 0.06,-0.02 0.09,-0.06 0.05,-0.04 0.02,-0.02 0,0 m 624.6,17.39 c -32.84,-3.89 -65.96,-4.76 -98.92,-3.7 -16.491,0.55 -32.941,1.65 -49.34,3.14 -16.401,1.51 -32.721,3.56 -48.971,5.94 -16.239,2.39 -32.38,5.32 -48.38,8.6 -16,3.29 -31.859,7.06 -47.449,11.38 -3.891,1.09 -7.801,2.2 -11.641,3.32 -3.95,1.16 -7.609,2.28 -11.28,3.51 -7.309,2.44 -14.349,5.18 -20.779,8.32 -6.42,3.14 -12.17,6.68 -16.76,10.62 -2.32,1.97 -4.351,4.02 -6.23,6.31 -1.88,2.29 -3.611,4.82 -5.571,7.92 -1.969,3.08 -4.17,6.84 -7.46,11.09 -1.639,2.11 -3.569,4.3 -5.779,6.39 -2.21,2.08 -4.69,4.04 -7.28,5.74 -5.21,3.42 -10.7,5.77 -15.87,7.45 -5.201,1.68 -10.17,2.8 -15,3.62 -9.64,1.63 -18.741,2.28 -27.68,2.66 -8.92,0.36 -17.67,0.36 -26.341,0.19 l -6.55,-0.16 c -2.21,-0.07 -4.429,-0.16 -6.639,-0.27 -4.42,-0.22 -8.84,-0.51 -13.26,-0.88 -8.83,-0.75 -17.63,-1.82 -26.391,-3.19 C 83.52,112.66 66.21,108.66 49.319,103.34 32.42,98.04 15.96,91.37 0.21,83.22 -7.66,79.14 -15.351,74.67 -22.78,69.72 -30.2,64.78 -37.381,59.4 -44.17,53.41 -50.96,47.43 -57.36,40.83 -63.061,33.33 c -5.649,-7.52 -10.71,-15.96 -13.769,-26 -1.511,-5.01 -2.46,-10.45 -2.42,-16.19 0.029,-2.86 0.3,-5.8 0.88,-8.73 0.279,-1.46 0.649,-2.92 1.08,-4.38 l 0.35,-1.08 0.389,-1.16 0.341,-0.89 0.489,-1.24 c 2.531,-6.11 6.7,-11.56 11.34,-15.71 4.651,-4.19 9.681,-7.26 14.61,-9.65 4.951,-2.39 9.851,-4.15 14.651,-5.57 4.819,-1.42 9.55,-2.49 14.22,-3.35 9.339,-1.7 18.45,-2.6 27.44,-3.11 17.97,-0.99 35.47,-0.41 52.779,0.96 17.311,1.38 34.401,3.52 51.41,6.35 8.51,1.41 16.97,3.07 25.5,4.98 2.14,0.49 4.281,0.99 6.42,1.52 l 3.241,0.81 1.639,0.44 1.88,0.51 c 5.851,1.68 11.231,4.32 15.861,7.48 4.639,3.17 8.58,6.85 11.9,10.75 3.319,3.91 6.059,8.04 8.279,12.31 4.441,8.54 7.021,17.53 7.95,26.71 0.901,9.16 0.141,18.61 -3.04,27.84 -1.58,4.6 -3.839,9.12 -6.819,13.34 -2.971,4.21 -6.681,8.1 -10.98,11.34 -4.29,3.24 -9.14,5.81 -14.14,7.64 -5.011,1.83 -10.15,2.95 -15.191,3.52 -5.04,0.58 -10,0.63 -14.799,0.31 -2.401,-0.16 -4.771,-0.41 -7.1,-0.72 L 119.58,72.1 117.909,71.84 114.63,71.3 C 97.439,68.35 80.609,63.91 64.47,57.94 48.35,51.94 32.84,44.57 18.47,35.35 11.31,30.69 4.43,25.59 -1.82,19.46 -4.92,16.35 -7.91,13.05 -10.37,8.77 -10.98,7.7 -11.54,6.53 -12.021,5.24 -12.49,3.94 -12.891,2.5 -13,0.82 c -0.12,-1.67 0.09,-3.67 1.01,-5.62 0.46,-0.97 1.08,-1.88 1.809,-2.69 0.221,-0.23 0.481,-0.49 0.701,-0.7 l 0.28,-0.24 c 0.53,-0.46 0.519,-0.43 0.8,-0.65 0.21,-0.15 0.42,-0.3 0.62,-0.43 1.63,-1.03 3,-1.54 4.309,-1.99 1.301,-0.43 2.521,-0.74 3.71,-1 2.38,-0.51 4.651,-0.82 6.88,-1.06 4.471,-0.47 8.82,-0.65 13.141,-0.72 8.639,-0.12 17.149,0.23 25.63,0.83 16.95,1.25 33.769,3.44 50.349,7.09 8.271,1.88 16.521,4.05 24.5,7.42 1.981,0.86 3.96,1.81 5.87,2.93 1.911,1.13 3.8,2.41 5.481,4.12 0.83,0.86 1.609,1.83 2.21,2.97 0.309,0.58 0.559,1.18 0.74,1.83 0.189,0.67 0.25,1.2 0.319,1.77 0.25,2.26 -0.099,4.73 -1.25,6.86 -1.13,2.14 -2.91,3.82 -4.799,5.08 -1.911,1.26 -3.96,2.17 -6.02,2.9 -4.141,1.42 -8.381,2.16 -12.601,2.65 -8.45,0.93 -16.899,0.84 -25.259,0.18 4.2,-0.05 8.38,-0.3 12.519,-0.7 4.151,-0.42 8.271,-0.97 12.301,-1.79 4.02,-0.83 7.979,-1.91 11.55,-3.5 3.53,-1.57 6.72,-3.83 7.83,-6.63 0.569,-1.38 0.64,-2.86 0.319,-4.39 -0.189,-0.86 -0.33,-1.31 -0.699,-1.89 -0.351,-0.57 -0.851,-1.14 -1.44,-1.68 -1.201,-1.08 -2.75,-2.05 -4.42,-2.91 C 121.729,8 119.939,7.25 118.1,6.56 110.68,3.85 102.63,2.13 94.569,0.73 86.479,-0.65 78.279,-1.64 70.05,-2.38 61.83,-3.13 53.569,-3.61 45.33,-3.83 37.09,-4.04 28.84,-4.01 20.739,-3.52 16.689,-3.28 12.68,-2.92 8.85,-2.33 6.939,-2.04 5.08,-1.68 3.399,-1.25 2.56,-1.03 1.77,-0.78 1.119,-0.53 0.83,-0.42 0.56,-0.3 0.34,-0.19 c 0,0.01 0.01,0.02 0.01,0.03 0.089,0.47 0.589,1.66 1.4,2.84 1.63,2.42 4.17,4.99 6.909,7.35 5.551,4.76 12.091,8.97 18.87,12.79 13.611,7.64 28.481,13.68 43.731,18.36 15.269,4.68 31,8.04 46.889,9.92 4,0.52 7.561,0.72 11.151,0.7 3.569,-0.03 7.019,-0.32 10.25,-0.9 6.5,-1.17 11.979,-3.62 16,-7.2 4.059,-3.55 6.809,-8.34 8.309,-13.85 1.51,-5.51 1.67,-11.67 0.661,-17.71 -1.01,-6.04 -3.19,-11.99 -6.31,-17.13 -3.101,-5.14 -7.15,-9.47 -11.49,-12.07 -2.16,-1.3 -4.361,-2.19 -6.55,-2.69 l -2.53,-0.57 -2.85,-0.6 c -1.91,-0.39 -3.851,-0.77 -5.801,-1.13 -7.809,-1.46 -15.809,-2.64 -23.819,-3.75 -16.04,-2.17 -32.24,-3.7 -48.351,-4.5 -8.049,-0.39 -16.08,-0.58 -24.049,-0.56 -7.96,0.01 -15.85,0.27 -23.571,0.87 -7.71,0.6 -15.269,1.54 -22.319,3 -7.011,1.44 -13.61,3.46 -18.481,5.99 -2.42,1.25 -4.359,2.59 -5.649,3.81 -1.301,1.25 -1.94,2.28 -2.36,3.35 -1.09,2.82 -1.191,6.77 0.36,11.52 1.489,4.74 4.5,9.98 8.42,15.01 3.93,5.05 8.75,9.93 14.05,14.54 10.639,9.23 23.25,17.26 36.63,24.19 13.42,6.92 27.75,12.66 42.5,17.36 14.78,4.68 30.04,8.26 45.519,10.81 7.74,1.26 15.551,2.25 23.381,2.99 3.92,0.37 7.85,0.68 11.79,0.92 1.97,0.12 3.939,0.22 5.909,0.31 l 6,0.22 c 8.071,0.25 16.08,0.34 23.891,0.17 7.79,-0.18 15.45,-0.65 22.309,-1.7 3.411,-0.52 6.611,-1.17 9.34,-1.98 2.74,-0.81 4.91,-1.74 6.551,-2.74 1.649,-1.02 2.93,-2.09 4.59,-4.07 1.64,-1.95 3.559,-4.88 5.89,-8.37 2.33,-3.47 5.129,-7.42 8.41,-11.16 3.269,-3.76 6.99,-7.31 10.92,-10.45 7.91,-6.29 16.49,-10.95 24.98,-14.74 8.52,-3.78 17.079,-6.73 25.6,-9.26 4.25,-1.26 8.59,-2.41 12.66,-3.46 4.18,-1.08 8.319,-2.09 12.5,-3.05 16.7,-3.85 33.479,-7.07 50.319,-9.77 16.851,-2.7 33.79,-4.74 50.75,-6.36 16.971,-1.64 33.99,-2.63 51.021,-3.16 17.019,-0.55 34.07,-0.45 51.08,0.2 34,1.3 67.95,5.1 101.05,12.18 8.259,1.8 16.469,3.8 24.599,6.03 8.12,2.23 16.151,4.74 24.08,7.46 1.21,0.42 2.41,0.84 3.611,1.28 v 5.89 c -17.951,-4.32 -36.191,-7.41 -54.5,-9.58"
             style="fill:#ffffff;fill-opacity:1;fill-rule:nonzero;stroke:none"
             id="path128"
             inkscape:connector-curvature="0" /></g><g
           id="g130"
           transform="translate(90.2705,695.8599)"><path
             d="m 0,0 c 10.603,6.862 21.796,12.884 33.153,18.598 11.365,5.721 22.994,10.981 34.782,15.96 23.607,9.877 47.922,18.448 72.802,25.583 24.87,7.163 50.297,12.932 76.121,17.165 25.82,4.232 52.047,6.917 78.453,7.757 26.397,0.847 52.987,-0.187 79.333,-3.472 26.331,-3.293 52.433,-8.848 77.506,-17.072 25.078,-8.171 49.09,-19.065 71.019,-32.519 5.456,-3.403 10.829,-6.887 16.019,-10.58 5.176,-3.713 10.262,-7.497 15.116,-11.518 9.756,-7.975 18.87,-16.529 27.029,-25.761 -11.098,6.148 -22.156,12.014 -33.391,17.383 -11.246,5.35 -22.6,10.282 -34.134,14.66 -23.024,8.837 -46.641,15.629 -70.585,20.703 C 395.296,46.993 346.042,50.021 296.683,48.491 247.288,46.95 197.792,40.86 148.417,32.305 123.73,27.986 99.038,23.095 74.344,17.651 49.622,12.237 24.947,6.328 0,0"
             style="fill:#ffffff;fill-opacity:1;fill-rule:nonzero;stroke:none"
             id="path132"
             inkscape:connector-curvature="0" /></g><g
           id="g134"
           transform="translate(1526.0527,792.9766)"><path
             d="m 0,0 c -1.731,-0.603 -3.525,-1.29 -5.377,-2.049 -14.748,-6.059 -43.366,-21.069 -40.22,-28.728 2.479,-6.032 28.734,-3.225 46.985,1.198 -13.324,-10.298 -31.195,-26.849 -27.058,-32.71 3.65,-5.17 27.28,2.77 44.031,10.906 C 7.6,-64.098 -8.884,-87.491 -3.047,-92.645 c 5.023,-4.434 28.445,10.595 42.787,22.827 -8.092,-14.292 -20.527,-41.741 -13.621,-45.764 6.04,-3.521 27.595,17.623 38.996,32.585 C 32.056,-65.958 8.274,-36.345 0,0"
             style="fill:#ffb600;fill-opacity:1;fill-rule:nonzero;stroke:none"
             id="path136"
             inkscape:connector-curvature="0" /></g><g
           id="g138"
           transform="translate(1816.6221,832.6929)"><path
             d="M 0,0 C 15.423,3.019 32.696,8.235 32.004,14.346 31.315,20.423 8.394,24.74 -9.93,25.861 c 0.333,0.117 0.659,0.223 0.996,0.345 15.001,5.406 44.251,19.143 41.446,26.932 -2.037,5.654 -24.575,4.698 -42.519,1.684 13.995,9.319 32.599,24.261 28.94,30.345 -3.064,5.097 -24.571,-0.055 -41.51,-6.406 12.854,10.892 31.299,29.545 26.675,35.386 -3.794,4.795 -25.526,-3.646 -41.675,-12.374 0.217,0.27 0.433,0.541 0.651,0.816 9.881,12.515 27.459,39.632 20.96,44.762 -4.716,3.725 -23.348,-8.997 -36.991,-21.037 6.96,15.306 14.861,37.823 8.542,41.058 -6.067,3.103 -25.576,-18.005 -36.342,-33.491 5.544,15.148 10.45,33.999 4.613,36.619 -6.016,2.701 -23.452,-17.883 -33.604,-33.725 0.204,0.938 0.399,1.9 0.587,2.884 2.999,15.661 6.093,47.827 -2.039,49.384 -6.447,1.233 -18.581,-22.597 -24.826,-40.331 -0.104,15.951 -3.317,48.085 -11.594,48.032 -6.151,-0.039 -12.925,-22.634 -15.961,-40.79 -3.296,15.787 -9.09,34.372 -15.426,33.515 -7.014,-0.949 -11.027,-31.616 -10.71,-50.376 -0.426,1.23 -0.873,2.478 -1.366,3.766 -5.729,14.881 -20.097,43.826 -27.824,40.85 -5.611,-2.159 -4.165,-24.671 -0.763,-42.546 -9.618,13.79 -24.961,32.067 -30.964,28.278 -4.694,-2.962 -0.113,-21.785 5.977,-37.939 -11.927,10.237 -26.725,20.559 -31.091,16.229 -4.342,-4.305 6.469,-24.96 16.941,-40.035 -0.292,0.185 -0.584,0.37 -0.88,0.556 -13.541,8.424 -42.448,22.869 -46.823,15.839 -3.175,-5.102 11.544,-22.199 25.031,-34.415 -15.987,5.211 -39.246,10.551 -41.753,3.911 -2.102,-5.564 15.269,-19.251 30.753,-28.61 -16.514,3.339 -42.584,6.254 -44.305,-0.993 -1.411,-5.947 18.68,-17.775 35.535,-25.041 -0.346,0.004 -0.691,0.008 -1.041,0.008 -15.945,0 -48.121,-3.01 -48.121,-11.289 0,-6.011 21.528,-12.75 39.432,-15.996 -16.325,-4.023 -38.893,-11.776 -37.514,-18.739 1.043,-5.272 19.088,-7.773 35.9,-8.034 -15.908,-5.342 -37.36,-14.761 -35.447,-21.529 2.15,-7.609 40.506,-6.298 57.318,-2.387 -1.999,9.017 -3.056,18.44 -3.056,28.188 0,35.965 15.821,73.105 43.407,101.896 27.886,29.103 64.278,45.795 99.844,45.795 76.59,0 136.587,-57.72 136.587,-131.405 0,-35.761 -15.988,-72.256 -43.862,-100.131 -27.873,-27.873 -64.37,-43.86 -100.13,-43.86 -24.682,0 -47.424,5.584 -66.964,15.54 -0.239,-0.542 -0.478,-1.084 -0.714,-1.644 -6.202,-14.689 -15.946,-45.501 -8.319,-48.72 6.164,-2.603 23.542,19.026 33.261,35.176 -2.62,-15.834 -4.906,-47.649 3.21,-49.014 6.627,-1.112 18.624,24.179 24.32,42.154 1.04,-16.81 4.978,-42.836 12.434,-42.62 5.668,0.162 11.433,19.496 14.357,36.79 4.887,-16.061 13.706,-37.821 20.531,-36.1 5.19,1.311 6.762,19.32 6.175,36.068 5.334,-15.293 13.59,-33.231 19.805,-31.539 6.748,1.839 6.792,32.075 4.114,50.696 8.284,-14.67 23.118,-36.252 29.717,-32.814 6.594,3.436 -1.047,36.612 -8.01,53.586 0.497,-0.598 1.004,-1.198 1.529,-1.805 10.434,-12.057 33.762,-34.418 40.024,-29.002 5.34,4.62 -8,32.369 -18.516,47.921 1.519,-1.343 3.165,-2.704 4.929,-4.08 12.577,-9.801 39.805,-27.207 44.893,-20.676 4.073,5.226 -11.948,27.24 -24.957,40.851 14.698,-7.528 34.46,-15.436 37.866,-9.673 3.274,5.54 -14.273,24.361 -28.699,36.284 16.272,-4.241 39.859,-8.187 41.964,-1.398 1.78,5.738 -16.782,18.556 -32.92,26.961 16.782,-0.997 40.634,-0.278 41.381,6.78 C 34.064,-13.297 16.453,-5.229 0,0"
             style="fill:#ffb600;fill-opacity:1;fill-rule:nonzero;stroke:none"
             id="path140"
             inkscape:connector-curvature="0" /></g><g
           id="g142"
           transform="translate(1807.4082,839.1553)"><path
             d="m 0,0 c 0,-0.546 0,-1.104 -0.011,-1.65 -0.07,-5.235 -0.462,-10.446 -1.175,-15.609 -2.958,-21.614 -11.299,-42.362 -23.539,-60.7 -2.765,-4.144 -5.719,-8.167 -8.865,-12.049 -15.36,-18.967 -35.029,-34.587 -56.963,-44.819 -3.643,-1.698 -7.347,-3.253 -11.111,-4.641 -14.8,-5.484 -30.432,-8.511 -46.303,-8.511 -5.461,0 -10.836,0.273 -16.131,0.807 -4.568,0.451 -9.066,1.092 -13.482,1.948 -25.889,4.877 -49.104,16.142 -67.432,32.403 -3.644,3.217 -7.087,6.647 -10.326,10.255 -9.578,10.671 -17.318,22.969 -22.766,36.595 -1.756,4.367 -3.265,8.866 -4.522,13.495 -3.016,11.002 -4.619,22.731 -4.619,35.063 0,12.653 1.899,25.246 5.414,37.46 1.222,4.226 2.624,8.404 4.226,12.524 6.55,16.996 16.201,32.997 28.119,47.062 2.67,3.146 5.447,6.196 8.331,9.139 12.025,12.274 25.852,22.671 40.843,30.434 4.512,2.351 9.141,4.451 13.841,6.293 14.813,5.791 30.469,9.019 46.41,9.019 10.017,0 19.797,-0.973 29.248,-2.861 4.58,-0.889 9.081,-2.005 13.481,-3.347 23.314,-6.955 44.015,-19.525 60.264,-36.285 3.597,-3.704 6.979,-7.608 10.099,-11.704 C -10.029,58.231 0,30.647 0,0"
             style="fill:#ff9700;fill-opacity:1;fill-rule:nonzero;stroke:none"
             id="path144"
             inkscape:connector-curvature="0" /></g><g
           id="g146"
           transform="translate(1920,135.8203)"><path
             d="m 0,0 v -19.21 c -8.25,0.51 -11.21,11 -11.74,13.17 0.43,-1.94 1.97,-10.58 -4.09,-11.61 -6.84,-1.17 -9.67,13.33 -9.67,13.33 0,0 -1.17,-10 -9.83,-11.56 -8.67,-1.56 -9,10.23 -9,10.23 0,0 -4.84,-12 -11.34,-10 -6.5,2 -6.16,13.33 -6.16,13.33 0,0 -3.67,-11.67 -9.17,-9.5 -4.52,1.78 -2.85,9.07 -2.11,11.62 -1.19,-3.58 -6.04,-16.76 -12.39,-14.45 -6.46,2.339 -6.06,13.49 -5.88,16.11 -0.32,-2.86 -2.15,-15.971 -9.12,-16.11 -7.83,-0.17 -9.67,19 -9.67,19 0,0 -2.66,-16.84 -10.5,-17 -7.83,-0.17 -8,19 -8,19 0,0 -8.5,-17.5 -13,-14 -4.5,3.5 -1.83,14.5 -1.83,14.5 0,0 -7.33,-11.5 -11.17,-10.67 -3.641,0.789 -3.667,10.01 -3.661,10.921 -0.012,-1.013 -0.276,-12.577 -6.339,-12.251 -4.32,0.23 -5.84,7.12 -6.38,11.48 0.2,-5.5 -0.47,-15.61 -7.95,-16.82 -9.46,-1.521 -12.49,18.61 -12.94,22.01 0.09,-1.38 -0.21,-5.27 -6.06,-7.17 -7.17,-2.34 -8.33,11.16 -8.33,11.16 0,0 -4.67,-19 -10.5,-17 -5.84,2 -6.17,17.17 -6.17,17.17 0,0 -2.83,-14 -8,-15.33 -5.17,-1.34 -6.5,15.66 -6.5,15.66 0,0 -4.83,-11.66 -8.17,-9.16 -3.18,2.389 -1.95,9.65 -1.84,10.29 -0.28,-0.85 -4.97,-14.76 -9.66,-13.96 -4.83,0.83 -4.16,11.83 -4.16,11.83 0,0 -1.17,-5.33 -4.67,-3.83 -3.2,1.37 -2.22,6.639 -2.03,7.54 -0.32,-1.29 -3.05,-11.651 -9.3,-10.66 -3.87,0.61 -4.77,5.11 -4.83,8.77 -0.72,-3.48 -2.76,-7.7 -8.34,-8.65 -7.64,-1.3 -9.34,8.469 -9.72,12.9 0.05,-3.721 -0.6,-11.15 -6.45,-11.9 -7.83,-1 -8,12.83 -8,12.83 -2.66,-10 -7.83,-9.33 -7.83,-9.33 -7.17,-0.5 -9.33,10.33 -9.33,10.33 -10.5,-3.33 -15,-2.33 -8.67,5.67 6.33,8 18.83,6.5 18.83,6.5 L -171.17,19.01 -0.55,0.239 Z"
             style="fill:#97e80a;fill-opacity:1;fill-rule:nonzero;stroke:none"
             id="path148"
             inkscape:connector-curvature="0" /></g><g
           id="g150"
           transform="translate(666.7803,639.6182)"><path
             d="m 0,0 c 28.168,-38.484 14.699,-71.821 14.699,-71.821 0,0 -35.849,-2.761 -64.016,35.724 C -77.484,2.387 -87.304,67.542 -87.304,67.542 -87.304,67.542 -28.167,38.484 0,0"
             style="fill:#19381f;fill-opacity:1;fill-rule:nonzero;stroke:none"
             id="path152"
             inkscape:connector-curvature="0" /></g><g
           id="g154"
           transform="translate(712.8262,646.4912)"><path
             d="m 0,0 c -1.663,-27.347 -19.847,-37.146 -19.847,-37.146 0,0 -16.861,11.931 -15.199,39.277 1.663,27.347 21.222,59.756 21.222,59.756 0,0 15.487,-34.54 13.824,-61.887"
             style="fill:#19381f;fill-opacity:1;fill-rule:nonzero;stroke:none"
             id="path156"
             inkscape:connector-curvature="0" /></g><g
           id="g158"
           transform="translate(600.8843,603.7764)"><path
             d="m 0,0 c 30.827,-10.957 36.054,-35.062 36.054,-35.062 0,0 -19.268,-15.401 -50.096,-4.444 -30.827,10.956 -61.541,44.121 -61.541,44.121 0,0 44.755,6.341 75.583,-4.615"
             style="fill:#19381f;fill-opacity:1;fill-rule:nonzero;stroke:none"
             id="path160"
             inkscape:connector-curvature="0" /></g><g
           id="g162"
           transform="translate(779.4619,583.1494)"><path
             d="m 0,0 c -46.452,-10.804 -71.827,14.669 -71.827,14.669 0,0 11.531,34.056 57.983,44.859 C 32.607,70.331 96.388,53.79 96.388,53.79 96.388,53.79 46.451,10.804 0,0"
             style="fill:#19381f;fill-opacity:1;fill-rule:nonzero;stroke:none"
             id="path164"
             inkscape:connector-curvature="0" /></g><g
           id="g166"
           transform="translate(773.6318,531.6816)"><path
             d="m 0,0 c -28.185,16.611 -28.738,41.272 -28.738,41.272 0,0 21.843,11.459 50.028,-5.152 28.185,-16.613 52.041,-55.008 52.041,-55.008 0,0 -45.146,2.276 -73.331,18.888"
             style="fill:#19381f;fill-opacity:1;fill-rule:nonzero;stroke:none"
             id="path168"
             inkscape:connector-curvature="0" /></g><g
           id="g170"
           transform="translate(766.2441,653.856)"><path
             d="m 0,0 c -22.177,-24.054 -46.398,-19.4 -46.398,-19.4 0,0 -6.603,23.767 15.573,47.82 C -8.649,52.473 33.91,67.707 33.91,67.707 33.91,67.707 22.177,24.054 0,0"
             style="fill:#19381f;fill-opacity:1;fill-rule:nonzero;stroke:none"
             id="path172"
             inkscape:connector-curvature="0" /></g><g
           id="g174"
           transform="translate(629.7729,550.2168)"><path
             d="m 0,0 c 29.058,15.035 50.234,2.389 50.234,2.389 0,0 -1.909,-24.592 -30.966,-39.627 -29.058,-15.034 -74.26,-14.82 -74.26,-14.82 0,0 25.934,37.022 54.992,52.058"
             style="fill:#19381f;fill-opacity:1;fill-rule:nonzero;stroke:none"
             id="path176"
             inkscape:connector-curvature="0" /></g><g
           id="g178"
           transform="translate(736.5137,512.4775)"><path
             d="m 0,0 c -14.129,21.135 -6.199,38.583 -6.199,38.583 0,0 19.156,0.657 33.284,-20.478 14.129,-21.134 17.881,-56.058 17.881,-56.058 0,0 -30.836,16.818 -44.966,37.953"
             style="fill:#19381f;fill-opacity:1;fill-rule:nonzero;stroke:none"
             id="path180"
             inkscape:connector-curvature="0" /></g><g
           id="g182"
           transform="translate(832.9048,557.8062)"><path
             d="m 0,0 c -26.829,4.631 -34.52,23.66 -34.52,23.66 0,0 13.627,15.352 40.455,10.722 C 32.762,29.751 62.635,6.893 62.635,6.893 62.635,6.893 26.829,-4.63 0,0"
             style="fill:#19381f;fill-opacity:1;fill-rule:nonzero;stroke:none"
             id="path184"
             inkscape:connector-curvature="0" /></g><g
           id="g186"
           transform="translate(579.125,648.0068)"><path
             d="m 0,0 c 21.344,-14.292 20.667,-33.644 20.667,-33.644 0,0 -17.638,-7.999 -38.98,6.291 -21.344,14.29 -38.312,45.46 -38.312,45.46 0,0 35.281,-3.817 56.625,-18.107"
             style="fill:#19381f;fill-opacity:1;fill-rule:nonzero;stroke:none"
             id="path188"
             inkscape:connector-curvature="0" /></g><g
           id="g190"
           transform="translate(1498.5352,422.1133)"><path
             d="m 0,0 c 6.777,-22.891 -5.197,-36.326 -5.197,-36.326 0,0 -17.36,4.752 -24.137,27.64 -6.777,22.892 -0.405,55.255 -0.405,55.255 0,0 22.962,-23.678 29.739,-46.569"
             style="fill:#19381f;fill-opacity:1;fill-rule:nonzero;stroke:none"
             id="path192"
             inkscape:connector-curvature="0" /></g><g
           id="g194"
           transform="translate(1522.1904,405.6875)"><path
             d="m 0,0 c -5.398,-12.605 -15.623,-14.155 -15.623,-14.155 0,0 -5.933,8.47 -0.531,21.075 C -10.755,19.527 3.935,31.499 3.935,31.499 3.935,31.499 5.401,12.606 0,0"
             style="fill:#19381f;fill-opacity:1;fill-rule:nonzero;stroke:none"
             id="path196"
             inkscape:connector-curvature="0" /></g><g
           id="g198"
           transform="translate(1462.5518,413.5156)"><path
             d="m 0,0 c 12.678,-10.368 11.073,-22.61 11.073,-22.61 0,0 -11.681,-4.005 -24.359,6.361 -12.678,10.367 -21.554,31.183 -21.554,31.183 0,0 22.162,-4.568 34.84,-14.934"
             style="fill:#19381f;fill-opacity:1;fill-rule:nonzero;stroke:none"
             id="path200"
             inkscape:connector-curvature="0" /></g><g
           id="g202"
           transform="translate(1530.668,353.21)"><path
             d="m 0,0 c -10.478,12.586 -6.574,24.3 -6.574,24.3 0,0 12.226,1.714 22.705,-10.872 10.478,-12.588 15.24,-34.709 15.24,-34.709 0,0 -20.892,8.693 -31.371,21.281"
             style="fill:#19381f;fill-opacity:1;fill-rule:nonzero;stroke:none"
             id="path204"
             inkscape:connector-curvature="0" /></g><g
           id="g206"
           transform="translate(1541.5762,385.9463)"><path
             d="m 0,0 c -14.512,-7.591 -25.141,-1.31 -25.141,-1.31 0,0 0.901,12.315 15.412,19.908 14.512,7.59 37.139,7.586 37.139,7.586 C 27.41,26.184 14.512,7.593 0,0"
             style="fill:#19381f;fill-opacity:1;fill-rule:nonzero;stroke:none"
             id="path208"
             inkscape:connector-curvature="0" /></g><g
           id="g210"
           transform="translate(1466.0039,386.2305)"><path
             d="m 0,0 c 16.232,2.18 24.076,-7.354 24.076,-7.354 0,0 -5.051,-11.267 -21.283,-13.448 -16.231,-2.178 -37.498,5.553 -37.498,5.553 0,0 18.473,13.068 34.705,15.249"
             style="fill:#19381f;fill-opacity:1;fill-rule:nonzero;stroke:none"
             id="path212"
             inkscape:connector-curvature="0" /></g><g
           id="g214"
           transform="translate(1558.2852,367.2168)"><path
             d="m 0,0 c -13.461,2.131 -17.443,11.602 -17.443,11.602 0,0 6.714,7.779 20.175,5.648 C 16.192,15.119 31.305,3.886 31.305,3.886 31.305,3.886 13.461,-2.132 0,0"
             style="fill:#19381f;fill-opacity:1;fill-rule:nonzero;stroke:none"
             id="path216"
             inkscape:connector-curvature="0" /></g><g
           id="g218"
           transform="translate(1549.0576,417.7803)"><path
             d="m 0,0 c -8.97,-9.214 -18.434,-7.129 -18.434,-7.129 0,0 -2.343,9.407 6.624,18.62 8.968,9.216 25.848,14.748 25.848,14.748 C 14.038,26.239 8.968,9.215 0,0"
             style="fill:#19381f;fill-opacity:1;fill-rule:nonzero;stroke:none"
             id="path220"
             inkscape:connector-curvature="0" /></g><g
           id="g222"
           transform="translate(1487.0957,164.3184)"><path
             d="M 0,0 C -0.511,-2.32 -1.07,-4.54 -1.69,-6.65 -8.271,-2.48 -21.9,5.83 -28.94,7.68 -35.11,9.3 -45.011,0.39 -51.201,-6.061 c -0.119,2.04 -0.139,4.181 -0.08,6.431 6.091,2.94 14.22,7.43 11.97,9.43 -1.72,1.54 -6.62,1.809 -11.15,1.689 0.18,1.611 0.391,3.271 0.631,4.95 5.51,-0.109 12.459,0.331 19.769,2.241 9.741,2.549 24.1,8.65 34.401,13.299 C 4.09,28.96 3.83,26.01 3.539,23.149 -2.041,20.399 -7.851,17.6 -10.681,16.43 -16.681,13.96 -21.891,5.09 0,0"
             style="fill:#a50e40;fill-opacity:1;fill-rule:nonzero;stroke:none"
             id="path224"
             inkscape:connector-curvature="0" /></g><g
           id="g226"
           transform="translate(1447.5352,195.3779)"><path
             d="M 0,0 C -3.5,-7.5 15.25,1.24 24.75,4.311 30.689,6.22 39.23,11.021 44.79,14.33 44.68,12.37 44.561,10.43 44.439,8.53 35.5,4.271 20.23,-2.84 10.62,-6.38 4.09,-8.79 -3.32,-9.3 -9.45,-9.16 c 0.82,5.09 1.841,10.471 3,16.08 5.07,2.84 13.36,7.22 18.7,8.7 8.13,2.25 17.63,5.12 5,6.12 -8.141,0.64 -15.66,1.55 -19.971,2.111 0.591,2.579 1.201,5.199 1.83,7.859 10.901,-5.07 24.481,-7.34 33.771,-6.21 5.149,0.62 9.54,2.63 12.649,4.49 C 45.471,28.47 45.41,26.96 45.34,25.47 32.18,19.561 2.71,5.811 0,0"
             style="fill:#a50e40;fill-opacity:1;fill-rule:nonzero;stroke:none"
             id="path228"
             inkscape:connector-curvature="0" /></g><g
           id="g230"
           transform="translate(1493.4746,235.6182)"><path
             d="m 0,0 c -0.069,-1.68 -0.129,-3.351 -0.199,-5 -18.79,-6.34 -37.211,-0.86 -45.26,2.28 0.629,2.64 1.26,5.32 1.899,8.02 7.371,-2.321 22.761,-6.821 30.741,-6.54 C -7.89,-1.07 -3.41,-0.53 0,0"
             style="fill:#a50e40;fill-opacity:1;fill-rule:nonzero;stroke:none"
             id="path232"
             inkscape:connector-curvature="0" /></g><g
           id="g234"
           transform="translate(1494.3848,260.1279)"><path
             d="m 0,0 c -0.039,-0.8 -0.07,-1.62 -0.1,-2.43 -0.189,-4.99 -0.37,-9.91 -0.549,-14.759 -16.56,-3.591 -34.5,1.199 -42.421,3.819 0.381,1.63 0.77,3.28 1.16,4.931 8.961,-1.71 29.6,-5.54 34.56,-5.441 6.38,0.13 1.38,4.13 -9,6 -7.4,1.33 -18.72,2.731 -24.62,3.42 0.361,1.55 0.72,3.11 1.091,4.68 6.379,-1.21 18.43,-3.44 20.84,-3.35 3.31,0.12 5.569,2.5 -1.33,4.62 -4.711,1.45 -12.311,7.4 -16.651,11.02 0.7,2.96 1.42,5.89 2.13,8.77 C -27.66,8.29 -10.629,2.45 0,0"
             style="fill:#a50e40;fill-opacity:1;fill-rule:nonzero;stroke:none"
             id="path236"
             inkscape:connector-curvature="0" /></g><g
           id="g238"
           transform="translate(1497.9551,299.9785)"><path
             d="m 0,0 c -1.391,-10.351 -2.54,-21.551 -3.25,-33.551 -6.91,1.75 -18.41,4.891 -21.01,6.95 -3.78,3 -6.78,8 3.22,4.241 10,-3.741 16,-0.741 5.87,3.759 -8.79,3.911 -14,7.72 -19.971,12.991 0.631,2.389 1.271,4.759 1.901,7.089 1.32,-3.33 5.22,-8.479 16.44,-13.929 19.13,-9.28 11.5,0.349 9.76,2.59 -1.19,1.53 -14.84,13.179 -23.59,20.599 v 0.011 c 0.58,2.02 1.16,4.01 1.739,5.97 z"
             style="fill:#a50e40;fill-opacity:1;fill-rule:nonzero;stroke:none"
             id="path240"
             inkscape:connector-curvature="0" /></g><g
           id="g242"
           transform="translate(1480.0352,323.8779)"><path
             d="M 0,0 C 2.37,-2.66 14.7,-5.68 20.49,-6.979 20.2,-8.649 19.92,-10.35 19.65,-12.08 13.17,-11.38 0.83,-9.1 -9.311,-1.7 -8.71,0.23 -8.12,2.12 -7.52,3.98 -1.9,5.13 12.62,8.12 23.73,10.69 23.42,9.13 23.109,7.54 22.8,5.91 21.01,5.48 18.92,5.09 16.75,4.87 10.62,4.24 -3.12,3.5 0,0"
             style="fill:#a50e40;fill-opacity:1;fill-rule:nonzero;stroke:none"
             id="path244"
             inkscape:connector-curvature="0" /></g><g
           id="g246"
           transform="translate(1509.2354,361.2178)"><path
             d="m 0,0 c -0.521,-2.609 -1.091,-5.399 -1.71,-8.38 -4.5,-0.899 -11.381,-1.97 -17.58,-1.59 0,0 -6.471,-2.57 16.439,-3.87 -0.549,-2.639 -1.128,-5.41 -1.709,-8.309 -8.38,-1.21 -22.27,-3.051 -29.461,-3.021 0.461,1.37 0.92,2.72 1.391,4.04 4.58,0 13.5,0.18 18.81,1.53 5.091,1.3 -7.06,5.951 -15.06,8.701 l 1.89,4.769 c 5.05,-0.149 12.16,-0.13 16.54,0.91 5.971,1.42 -6.17,8.81 -11,11.571 0.769,1.569 1.529,3.049 2.3,4.449 2.27,0.03 6.299,0.16 11.95,0.6 3.84,0.3 6.96,0.911 9.29,1.51 C 1.92,11.271 1.67,9.48 1.36,7.54 -2.9,7.78 -9.11,8.13 -12.58,8.28 -18.2,8.53 -13.181,4.46 0,0"
             style="fill:#a50e40;fill-opacity:1;fill-rule:nonzero;stroke:none"
             id="path248"
             inkscape:connector-curvature="0" /></g><g
           id="g250"
           transform="translate(734.6499,241)"><path
             d="m 0,0 c -41.8,-16.89 -71.93,-12.05 -88.07,-6.47 0.13,8.72 0.51,17.91 1.04,27.53 60.38,7.46 44.51,11.94 44.51,11.94 -20.65,1.57 -36.27,0.34 -43.83,-0.55 0.15,2.2 0.3,4.41 0.45,6.65 7.55,0.88 20.38,2.02 31.5,1.31 17,-1.09 21.25,2.09 7.5,4.84 -9.17,1.83 -27.35,1.84 -38.44,1.65 0.2,2.72 0.41,5.46 0.62,8.23 27.13,-6.16 62.47,-3.73 80.54,-1.83 0.42,-4.05 0.82,-8.05 1.19,-11.99 C -17.45,32.14 -43.49,16.78 -60.48,13.5 -85.05,8.75 -65.65,-0.08 -65.65,-0.08 -50.066,-6.75 -14.75,6.18 -0.61,11.9 -0.36,7.85 -0.15,3.88 0,0"
             style="fill:#a50e40;fill-opacity:1;fill-rule:nonzero;stroke:none"
             id="path252"
             inkscape:connector-curvature="0" /></g><g
           id="g254"
           transform="translate(729.5,303.4297)"><path
             d="m 0,0 c -35.97,-4.939 -65.97,-0.21 -78.8,2.49 0.24,3.09 0.5,6.21 0.76,9.361 33.78,-9 70.67,-4.991 63.14,5.969 -6.45,9.401 -46.52,18.47 -60.94,21.47 0.26,3.17 0.51,6.37 0.76,9.58 C -53.6,37.63 -20.25,31.28 -3.25,28.601 -2.11,18.851 -1.02,9.301 0,0"
             style="fill:#a50e40;fill-opacity:1;fill-rule:nonzero;stroke:none"
             id="path256"
             inkscape:connector-curvature="0" /></g><g
           id="g258"
           transform="translate(725.2598,340.4697)"><path
             d="m 0,0 c -11.7,0.811 -31.88,2.99 -48.76,8.78 -25.5,8.75 1.34,4.571 12.29,3.16 10.96,-1.41 27.39,1.09 6.67,6.59 -13.31,3.531 -29.72,7.89 -39.76,10.55 0.43,5.62 0.87,11.191 1.34,16.681 l 28.42,1.529 c 0,0 42.29,1.74 -6.21,-6.51 0,0 -38.32,-2.75 16.21,-13 L -2.54,21.761 C -1.69,14.42 -0.84,7.16 0,0"
             style="fill:#a50e40;fill-opacity:1;fill-rule:nonzero;stroke:none"
             id="path260"
             inkscape:connector-curvature="0" /></g><g
           id="g262"
           transform="translate(719.3301,398.6699)"><path
             d="m 0,0 c -31.28,-7.81 -52.22,-5.65 -61.54,-3.81 1.02,11.31 2.13,22.3 3.33,32.94 3.66,0.22 8.1,0.53 13.38,0.95 18.75,1.5 26.75,8 14,9.47 -9.43,1.08 -20.63,2.221 -25.83,2.74 0.37,3.01 0.75,5.981 1.13,8.91 21.97,-7.77 42.04,-5.96 53.72,-3.62 L -1.59,33.9 V 33.89 C -25.34,28.811 -53.65,18.86 -36.08,19.08 -23.09,19.24 -9.47,23.93 -1.39,27.271 -1.3,24.44 -1.19,21.59 -1.06,18.7 -24.72,14.83 -54.83,4.23 -32.83,3.08 -19.35,2.38 -7.89,4.521 -0.43,6.54 -0.3,4.38 -0.16,2.2 0,0"
             style="fill:#a50e40;fill-opacity:1;fill-rule:nonzero;stroke:none"
             id="path264"
             inkscape:connector-curvature="0" /></g><g
           id="g266"
           transform="translate(717.5801,465.6201)"><path
             d="m 0,0 c -0.04,-2.5 -0.06,-5.03 -0.08,-7.59 -19.02,-5.42 -39.9,-3.221 -52.73,-0.86 1.12,8.13 2.29,15.98 3.51,23.52 6.34,-1.53 17.05,-3.79 22.49,-2.94 8.01,1.25 8.73,5.75 10.48,10.11 1.75,4.36 7.25,3.89 9.75,-2.36 2.5,-6.25 -4.25,-11.25 -17.37,-14.75 -13.12,-3.5 -15.38,-7.5 -1.38,-9.08 C -17.09,-4.87 -6.95,-2.28 0,0"
             style="fill:#a50e40;fill-opacity:1;fill-rule:nonzero;stroke:none"
             id="path268"
             inkscape:connector-curvature="0" /></g><g
           id="g270"
           transform="translate(695.3101,487.8604)"><path
             d="m 0,0 c -5.01,-7.03 -17.67,-5.19 -26.32,-2.87 0.42,2.5 0.84,4.95 1.27,7.37 5.27,-1.67 12.43,-2.78 17.54,0.89 6.75,4.849 -7.16,11.36 -14.67,14.36 0.69,3.42 1.39,6.75 2.1,9.979 C -11.94,23.68 6.22,8.729 0,0"
             style="fill:#a50e40;fill-opacity:1;fill-rule:nonzero;stroke:none"
             id="path272"
             inkscape:connector-curvature="0" /></g><g
           id="g274"
           transform="translate(695.3101,538.75)"><path
             d="m 0,0 c 6.75,-3.88 19.1,-14.54 24.29,-19.12 v -0.01 c -0.36,-6.8 -0.74,-14.09 -1.07,-21.83 -6.37,0.21 -14.31,1.47 -18.53,5.96 -5.64,6 -17.37,15.45 -23.34,20.14 0.44,1.9 0.89,3.76 1.34,5.58 5.47,-5.38 18.61,-17.42 26,-16.68 8.39,0.85 -16.75,23.57 -22.74,28.86 1.53,5.35 3.11,10.28 4.73,14.76 6.13,-0.48 20.75,-0.97 35.1,3.47 0.04,-2.77 0.01,-5.76 -0.06,-8.94 C 19.04,11.94 3.82,11.33 -1.68,10.75 -8.81,10 -8.69,5 0,0"
             style="fill:#a50e40;fill-opacity:1;fill-rule:nonzero;stroke:none"
             id="path276"
             inkscape:connector-curvature="0" /></g><g
           id="g278"
           transform="translate(691.2544,146.123)"><path
             d="m 0,0 c -0.03,-0.03 -0.06,-0.06 -0.09,-0.09 0.04,1.47 -0.02,2.98 -0.15,4.51 0.1,0.11 0.2,0.21 0.31,0.32 C 0.04,3.08 0.02,1.49 0,0 M 99.82,24.91 C 94.87,30.3 81.59,24.97 69.65,17.93 73.89,43.18 75.93,80.91 61.18,85.06 51.17,87.87 39.29,73.36 29.6,56.3 25.1,80.521 16.67,105.33 3.49,105.33 c -13.42,0 -22.47,-25.97 -27.31,-50.79 -13.91,19.9 -31.99,39.35 -43.83,33.85 -13.58,-6.31 -7.85,-40.76 -0.22,-66.45 -15.01,9.831 -34.75,19.52 -41.34,12.09 -9.34,-10.53 18.41,-44.25 29.61,-54.18 2.21,-1.96 4.52,-3.65 6.88,-5.03 18.14,7.451 73.36,25.15 143.74,0.36 1.23,0.91 2.44,1.92 3.62,3 9.59,8.81 33.46,37.71 25.18,46.73"
             style="fill:#ffd700;fill-opacity:1;fill-rule:nonzero;stroke:none"
             id="path280"
             inkscape:connector-curvature="0" /></g><g
           id="g282"
           transform="translate(696.4727,145.9434)"><path
             d="m 0,0 c 0,-4.246 -0.14,-7.906 -0.4,-10.97 -0.88,-0.07 -1.78,-0.104 -2.71,-0.104 -1.13,0 -2.24,0.043 -3.31,0.138 -0.17,3.253 -0.25,7.147 -0.25,11.652 0,2.055 0.03,4.98 0.07,8.528 0.02,1.286 0.04,2.659 0.07,4.092 0.4,24.737 1.68,69.629 3.19,69.629 1.39,0 2.59,-38.609 3.09,-64.14 0.02,-1.208 0.05,-2.391 0.07,-3.539 C -0.07,8.683 0,3.237 0,0"
             style="fill:#19381f;fill-opacity:1;fill-rule:nonzero;stroke:none"
             id="path284"
             inkscape:connector-curvature="0" /></g><g
           id="g286"
           transform="translate(724.1626,139.8379)"><path
             d="m 0,0 c -1.16,-3.38 -2.27,-6.3 -3.31,-8.767 -0.57,0.104 -1.15,0.235 -1.73,0.373 -1.23,0.304 -2.4,0.652 -3.51,1.06 0.8,2.703 1.81,5.856 3.04,9.437 4.64,13.538 25.64,70.781 27.22,70.373 C 23.29,72.067 4.64,13.538 0,0"
             style="fill:#19381f;fill-opacity:1;fill-rule:nonzero;stroke:none"
             id="path288"
             inkscape:connector-curvature="0" /></g><g
           id="g290"
           transform="translate(675.1826,129.8145)"><path
             d="m 0,0 c -0.47,-0.225 -0.96,-0.45 -1.46,-0.658 -0.91,-0.378 -1.82,-0.72 -2.73,-1.009 -2.05,3.244 -4.64,7.911 -7.71,13.93 -6.8,13.299 -34.49,70.385 -32.99,71.008 1.5,0.622 31.93,-56.07 38.73,-69.377 0.419,-0.82 0.819,-1.616 1.199,-2.388 C -2.634,6.783 -1.014,2.942 0,0"
             style="fill:#19381f;fill-opacity:1;fill-rule:nonzero;stroke:none"
             id="path292"
             inkscape:connector-curvature="0" /></g><g
           id="g294"
           transform="translate(951.0835,164.541)"><path
             d="m 0,0 c 0,0 3.375,-0.167 9.917,-3.666 9.378,-5.017 -8.125,-2.625 -8.125,-2.625 0,0 -0.375,-4.625 -3.75,-5 -3.375,-0.375 -6.875,3 -6.875,3 0,0 1.25,-9.875 -2.5,-10.875 -3.75,-1 -5.5,7.75 -5.5,7.75 0,0 -0.25,-10 -3.625,-10.5 -3.375,-0.5 -6.375,8 -6.375,8 0,0 -1.75,-6.422 -7.625,-6.211 -5.875,0.211 -6.125,1.711 -6.125,1.711 0,0 1.875,-8.25 -3.625,-8.75 -5.5,-0.5 -6.5,5 -6.5,5 0,0 -3.625,-4.689 -8.75,-5.032 -5.125,-0.343 -8.875,3.407 -8.875,3.407 0,0 2.5,-2.859 -4,-3.43 -6.5,-0.57 -8.125,1.68 -8.125,1.68 0,0 1.125,-5.75 -4.125,-6.5 -5.25,-0.75 -8.625,7.5 -8.625,7.5 0,0 -0.25,-10.625 -7.5,-10.5 -7.25,0.125 -8,3 -8,3 0,0 0.75,-8.75 -8.125,-8.375 -8.875,0.375 -6.25,11.75 -6.25,11.75 0,0 -2.875,-12.898 -7.5,-11.762 -4.625,1.137 -10.5,13.012 -10.5,13.012 0,0 4.375,-13.166 -2.875,-13.083 -7.25,0.083 -7.375,10.083 -7.375,10.083 0,0 -1.25,-11.375 -6.25,-11.375 -5,0 -6.375,7.625 -6.375,7.625 0,0 2,-6.875 -3.25,-7.625 -5.25,-0.75 -9.875,6 -9.875,6 0,0 -2.542,-13.585 -10.667,-12.17 -8.125,1.415 -8.174,7.103 -8.174,7.103 0,0 -5.034,-0.808 -9.409,-0.433 -4.375,0.375 -6.917,4.083 -6.917,4.083 0,0 -3.833,-8.583 -11.333,-8.333 -7.5,0.25 -9.875,12.623 -9.875,12.623 0,0 -1.75,-9.248 -9.125,-9.248 -7.375,0 -9.625,7.125 -9.625,7.125 0,0 -6,-12.965 -11.625,-12.92 -5.625,0.045 -6,11.67 -6,11.67 0,0 0.5,-2.875 -9.125,-2.625 -9.625,0.25 -13.375,4.75 -13.375,4.75 0,0 -3.625,-11 -9.375,-10.375 -5.75,0.625 -7.375,6.625 -7.375,6.625 0,0 -6.4,-12.5 -12.7,-11.875 -6.3,0.625 -6.925,9.25 -6.925,9.25 0,0 -3.375,-10.795 -12.875,-9.272 -9.5,1.522 -10.75,12.022 -10.75,12.022 0,0 -0.125,-10.875 -8.375,-9 -8.25,1.875 -12.875,11.125 -12.875,11.125 0,0 -0.625,-10.625 -11.375,-9.25 -10.75,1.375 -9.125,8.75 -9.125,8.75 0,0 -3.375,-10 -15.5,-8.375 -12.125,1.625 -11.875,9.875 -11.875,9.875 0,0 -2.75,-13.75 -12.5,-11.375 -9.75,2.375 -10.625,13.625 -10.625,13.625 0,0 -4.75,-16.125 -10.625,-14.5 -5.875,1.625 -12.75,14 -12.75,14 0,0 -1.25,-11 -11,-9.5 -9.75,1.5 -11.375,12.75 -11.375,12.75 0,0 -2.125,-11.75 -12.375,-10.75 -10.25,1 -8.75,11.375 -8.75,11.375 0,0 -5,-6.875 -15.25,-3.5 -10.25,3.375 -10.875,6.5 -10.875,6.5 0,0 -4.125,-13.25 -10.25,-11.25 -6.125,2 -11.625,12.75 -11.625,12.75 0,0 -0.875,-9.375 -12.625,-7.25 0,0 -7,1 -7.375,10.375 0,0 0.625,-15.625 -13.25,-11.625 -13.875,4 -7.375,14 -7.375,14 0,0 -6.375,-14.875 -19,-11.375 -12.625,3.5 -9,11.375 -9,11.375 0,0 -4.75,-12.75 -13.5,-11.625 -8.75,1.125 -4.375,12 -4.375,12 0,0 -6.25,-12.5 -12.625,-11.5 -6.375,1 -10.875,15.875 -10.875,15.875 0,0 1.625,-14.25 -3.75,-14.25 -5.375,0 -10.125,12.5 -10.125,12.5 0,0 -3.875,-14.875 -8.625,-14.375 -4.75,0.5 -4.875,17.375 -4.875,17.375 0,0 -2.75,-13 -6.125,-13.25 -3.375,-0.25 -0.75,12.125 -0.75,12.125 0,0 -6.25,-6.125 -14.25,-4.5 -8,1.625 5.91,14.625 24.205,15.125 0,0 35.295,-2.5 59.045,-5.625 23.75,-3.125 92.375,-8.625 109.25,-10.875 16.875,-2.25 90.125,-8.125 125.625,-9.125 35.5,-1 114.25,0 140.125,0.75 25.875,0.75 83.517,2.643 113.625,5.375 C -78.583,-16.916 -11.735,0.889 0,0"
             style="fill:#97e80a;fill-opacity:1;fill-rule:nonzero;stroke:none"
             id="path296"
             inkscape:connector-curvature="0" /></g><g
           id="g298"
           transform="translate(710.4165,571.458)"><path
             d="m 0,0 c 0,-2.416 -1.958,-4.375 -4.375,-4.375 -2.417,0 -4.375,1.959 -4.375,4.375 0,2.416 1.958,4.375 4.375,4.375 C -1.958,4.375 0,2.416 0,0"
             style="fill:#a50e40;fill-opacity:1;fill-rule:nonzero;stroke:none"
             id="path300"
             inkscape:connector-curvature="0" /></g><g
           id="g302"
           transform="translate(698.3335,544.958)"><path
             d="m 0,0 c 0,-1.45 -1.175,-2.625 -2.625,-2.625 -1.45,0 -2.625,1.175 -2.625,2.625 0,1.45 1.175,2.625 2.625,2.625 C -1.175,2.625 0,1.45 0,0"
             style="fill:#a50e40;fill-opacity:1;fill-rule:nonzero;stroke:none"
             id="path304"
             inkscape:connector-curvature="0" /></g><g
           id="g306"
           transform="translate(700.5,519.4375)"><path
             d="m 0,0 c 0,-1.323 -1.073,-2.396 -2.396,-2.396 -1.323,0 -2.396,1.073 -2.396,2.396 0,1.323 1.073,2.396 2.396,2.396 C -1.073,2.396 0,1.323 0,0"
             style="fill:#a50e40;fill-opacity:1;fill-rule:nonzero;stroke:none"
             id="path308"
             inkscape:connector-curvature="0" /></g><g
           id="g310"
           transform="translate(694.5835,465.334)"><path
             d="m 0,0 c 0,-0.967 -1.623,-1.75 -3.625,-1.75 -2.002,0 -3.625,0.783 -3.625,1.75 0,0.967 1.623,1.75 3.625,1.75 C -1.623,1.75 0,0.967 0,0"
             style="fill:#a50e40;fill-opacity:1;fill-rule:nonzero;stroke:none"
             id="path312"
             inkscape:connector-curvature="0" /></g><g
           id="g314"
           transform="translate(687,497.417)"><path
             d="m 0,0 c 0,-1.749 -1.362,-3.167 -3.042,-3.167 -1.68,0 -3.041,1.418 -3.041,3.167 0,1.749 1.361,3.167 3.041,3.167 C -1.362,3.167 0,1.749 0,0"
             style="fill:#a50e40;fill-opacity:1;fill-rule:nonzero;stroke:none"
             id="path316"
             inkscape:connector-curvature="0" /></g><g
           id="g318"
           transform="translate(690.7661,434.834)"><path
             d="m 0,0 c 0,-1.197 -1.44,-2.167 -3.216,-2.167 -1.777,0 -3.217,0.97 -3.217,2.167 0,1.196 1.44,2.166 3.217,2.166 C -1.44,2.166 0,1.196 0,0"
             style="fill:#a50e40;fill-opacity:1;fill-rule:nonzero;stroke:none"
             id="path320"
             inkscape:connector-curvature="0" /></g><g
           id="g322"
           transform="translate(696.3125,422.625)"><path
             d="m 0,0 c 0,-1.035 -0.863,-1.359 -2.813,-2.188 -0.953,-0.405 -7.75,-1.541 -7.75,-0.505 0,1.035 4.369,3.703 8,4.943 C 0,3.125 0,1.035 0,0"
             style="fill:#a50e40;fill-opacity:1;fill-rule:nonzero;stroke:none"
             id="path324"
             inkscape:connector-curvature="0" /></g><g
           id="g326"
           transform="translate(689.0835,404.959)"><path
             d="m 0,0 c 0,-0.852 -1.194,-1.542 -2.667,-1.542 -1.473,0 -2.666,0.69 -2.666,1.542 0,0.851 1.193,1.541 2.666,1.541 C -1.194,1.541 0,0.851 0,0"
             style="fill:#a50e40;fill-opacity:1;fill-rule:nonzero;stroke:none"
             id="path328"
             inkscape:connector-curvature="0" /></g><g
           id="g330"
           transform="translate(677.25,376.667)"><path
             d="m 0,0 c -0.469,-1.15 -1.007,-2.25 -2.25,-2.25 -1.243,0 -4.667,1.424 -4.667,2.666 0,1.242 3.341,2.417 4.584,2.417 C -1.09,2.833 0.917,2.25 0,0"
             style="fill:#a50e40;fill-opacity:1;fill-rule:nonzero;stroke:none"
             id="path332"
             inkscape:connector-curvature="0" /></g><g
           id="g334"
           transform="translate(709.167,319.333)"><path
             d="m 0,0 c 0,-4.303 -8.114,-5.875 -12.417,-5.875 -4.304,0 -10.75,-0.875 -10.25,8.375 0.593,10.963 6.176,8.597 10.25,7.209 C -6.418,7.666 0,4.304 0,0"
             style="fill:#a50e40;fill-opacity:1;fill-rule:nonzero;stroke:none"
             id="path336"
             inkscape:connector-curvature="0" /></g><g
           id="g338"
           transform="translate(1313,279)"><path
             d="M 0,0 C -14.41,4.42 -28.42,18.56 -39.28,32.42 -51.81,48.39 -60.16,64 -60.16,64 c 0,0 4.66,-37 -12.84,-38 -17.5,-1 -41,52.5 -41,52.5 0,0 -5.2,-51.45 -37.35,-56.23 -31.86,-4.73 -11.03,61.72 -10.66,62.9 -1.06,-1.47 -72.63,-100.59 -90.99,-89.67 -11.15,6.63 1.67,41.45 13.62,68.08 -11.72,-20.87 -28.47,-43.95 -44.12,-41.31 -27.37,4.62 7.36,56.78 8.94,59.15 -2,-2.62 -53.23,-69.67 -67.94,-72.77 -15,-3.15 -23.72,3.91 -23.72,3.91 45.51,57.93 102.75,109.36 143.22,129.26 100.75,49.52 164.8,11.92 206.49,-49.12 10.55,-15.46 19.67,-32.42 27.59,-49.85 0.01,-0.02 0.01,-0.03 0.02,-0.05 0,-0.01 0.01,-0.03 0.02,-0.06 0.01,-0.02 0.02,-0.05 0.03,-0.08 C 12.4,39.28 29.92,-9.17 0,0"
             style="fill:#97e80a;fill-opacity:1;fill-rule:nonzero;stroke:none"
             id="path340"
             inkscape:connector-curvature="0" /></g><g
           id="g342"
           transform="translate(1634.5,433.5)"><path
             d="m 0,0 c -12.31,-12.6 -49.39,87.49 -50.48,90.43 0.62,-2.18 15.38,-54.48 10.48,-80.25 -4.94,-25.99 -38.18,85.94 -38.99,88.66 0.32,-2.14 10.18,-67.89 -8.79,-70.87 -18.98,-2.98 -29.94,90.58 -30.27,93.46 0.26,-3 8.21,-95.4 -12.68,-93.43 -21.24,2 -25.77,85.5 -25.77,85.5 0,0 -32,-79 -42.22,-72 -10.11,6.92 2.02,63.72 2.29,64.98 -0.52,-1.24 -21.91,-52.03 -49.57,-55.98 -27.44,-3.92 -4.12,36.37 -3.18,37.98 0.02,0.03 0.03,0.05 0.03,0.05 37.82,45.87 79.92,76.94 120.87,76.94 50.28,0 93.45,-51.82 126.78,-121.21 0.02,-0.04 0.04,-0.08 0.06,-0.12 2.12,-4.2 3.99,-8.1 5.48,-11.76 C 9.15,19.76 9.66,9.89 0,0"
             style="fill:#97e80a;fill-opacity:1;fill-rule:nonzero;stroke:none"
             id="path344"
             inkscape:connector-curvature="0" /></g><g
           id="g346"
           transform="translate(1884,291.5596)"><path
             d="m 0,0 c -10.5,0.44 -32.42,75.2 -32.42,75.2 0,0 8.92,-54.16 -2.08,-54.96 -11,-0.8 -21.59,70.401 -21.59,70.401 0,0 -9.98,-44.601 -29.2,-46.151 -19.21,-1.55 -5.71,49.74 -5.71,49.74 0,0 -33,-52.44 -50,-47.12 -16.79,5.271 11.31,54.13 11.99,55.311 -1,-1.221 -52.64,-64.87 -68.49,-53.981 -15.64,10.75 4.44,38.8 5.36,40.071 0.02,0.019 0.03,0.04 0.03,0.04 38.9,38.51 80.94,63.83 116.64,57.949 C -37.79,140.28 -11.81,96.29 4.67,40.28 4.96,38.171 10.21,-0.43 0,0"
             style="fill:#97e80a;fill-opacity:1;fill-rule:nonzero;stroke:none"
             id="path348"
             inkscape:connector-curvature="0" /></g><g
           id="g350"
           transform="translate(1543.6699,822.7202)"><path
             d="m 0,0 c -30,-37.21 98.66,-51.24 204,-62.83 64.79,-7.13 130.98,-2.72 172.33,1.73 v -23.01 c -130.97,-17.73 -314.72,-2.5 -395,40.8 C -108,4.88 18,60.39 106.66,71.37 172.46,79.52 309.83,49.71 376.33,33.79 V 2.04 C 315.96,15.63 234.35,26.11 179.33,36.6 115.33,48.8 30,37.21 0,0"
             style="fill:#ffffff;fill-opacity:1;fill-rule:nonzero;stroke:none"
             id="path352"
             inkscape:connector-curvature="0" /></g><g
           id="g354"
           transform="translate(1710.5381,822.6064)"><path
             d="m 0,0 c 0,-2.899 -2.351,-5.25 -5.25,-5.25 -2.899,0 -5.25,2.351 -5.25,5.25 0,2.899 2.351,5.25 5.25,5.25 C -2.351,5.25 0,2.899 0,0"
             style="fill:#19381f;fill-opacity:1;fill-rule:nonzero;stroke:none"
             id="path356"
             inkscape:connector-curvature="0" /></g><g
           id="g358"
           transform="translate(1615.1211,829.8135)"><path
             d="m 0,0 c 0,-2.899 -2.351,-5.25 -5.25,-5.25 -2.899,0 -5.25,2.351 -5.25,5.25 0,2.899 2.351,5.25 5.25,5.25 C -2.351,5.25 0,2.899 0,0"
             style="fill:#19381f;fill-opacity:1;fill-rule:nonzero;stroke:none"
             id="path360"
             inkscape:connector-curvature="0" /></g><g
           id="g362"
           transform="translate(1634.8906,801.5356)"><path
             d="M 0,0 C 0,0 13.577,-6.879 36.833,-1.365"
             style="fill:#000000;fill-opacity:1;fill-rule:nonzero;stroke:#19381f;stroke-width:7;stroke-linecap:round;stroke-linejoin:round;stroke-miterlimit:10;stroke-dasharray:none;stroke-opacity:1"
             id="path364"
             inkscape:connector-curvature="0" /></g><g
           id="g366"
           transform="translate(860.0801,25.5)"><path
             d="M 0,0 C -6.64,-0.81 -13.16,-1.6 -19.58,-2.33 -35.64,4.43 -57.41,16.5 -59.08,32.79 -61.75,58.83 -88.41,17.58 -95.75,8.21 -99.43,3.5 -106.9,-2.38 -113.43,-7.07 c -18.76,1.3 -36.93,4.27 -55.8,7.95 9.12,11.22 20.83,28.02 5.46,23.95 -11.18,-2.96 -21.95,-11.29 -29.99,-18.96 -3.23,0.68 -6.5,1.36 -9.81,2.05 12.75,12.39 29.92,32.21 35.41,53.34 8.24,-0.12 16.21,-0.21 23.81,-0.28 -2.87,-12.26 -3.3,-29.98 18.92,-28.19 18.49,1.49 34.2,16.02 44.61,28.83 2.55,0.13 4.77,0.28 6.62,0.45 8.15,0.75 17.98,1.87 28.52,3.19 C -41.19,46.28 -29.54,15.48 0,0"
             style="fill:#e1ce7a;fill-opacity:1;fill-rule:nonzero;stroke:none"
             id="path368"
             inkscape:connector-curvature="0" /></g><g
           id="g370"
           transform="translate(552.2202,90.75)"><path
             d="m 0,0 c -29.3,-13.84 -49.61,-4.84 -60.19,3.09 -16.31,1.04 -29.74,2.15 -38.91,3.27 -1.36,0.17 -2.75,0.34 -4.17,0.51 -12.33,-4.37 -29.86,-9.01 -44.45,-6.86 -13.62,2.01 -16.26,8.39 -15.75,13.91 -10.87,1.24 -21.8,2.48 -32.3,3.66 -11.13,-5.48 -25.58,-11.61 -33.95,-11.33 -9.92,0.33 -1.25,8.79 5.76,14.49 -5.01,0.55 -9.77,1.08 -14.18,1.57 -6.96,-11.5 -37.33,-32.82 -57.67,-46.28 5.92,0.59 10.98,0.76 15.07,0.22 4.04,-0.54 8.04,-1.84 12.12,-3.7 28.71,11.24 68.64,25.22 80.4,21.2 13.67,-4.68 -31.68,-24.11 -58.19,-34.64 2.72,-1.84 5.52,-3.75 8.43,-5.68 23.96,13.42 64.51,34.85 77.26,33.82 14.55,-1.18 6.21,-42.28 1.99,-59.76 4.43,0.43 9.42,1.07 14.87,1.86 -2.3,19.85 -1.14,62.63 54.64,51.4 34.2,-6.89 49.79,-19.76 56.73,-31.37 15.68,2.68 30.16,4.86 41.89,5.95 4.38,14.09 10.43,29.47 15.88,28.92 5.55,-0.56 12.65,-16.37 17.86,-30.33 3.09,-0.46 6.12,-0.94 9.12,-1.42 -7.22,15.34 -13.72,34.9 -17.24,46.15 z"
             style="fill:#e1ce7a;fill-opacity:1;fill-rule:nonzero;stroke:none"
             id="path372"
             inkscape:connector-curvature="0" /></g><g
           id="g374"
           transform="translate(1121.0303,89.1396)"><path
             d="m 0,0 -9.7,-52.14 h -15.33 c 0,0 -19.33,43.33 -35,39 -15.67,-4.33 5,-38.33 5,-38.33 l -10.33,0.66 c 0,0 -34,37 -49,31.67 -15,-5.33 0,-33.67 0,-33.67 l -7.34,-4.66 c 0,0 -10.33,47 -45.19,49.66 -34.87,2.67 4.53,-54 4.53,-54 l -13.34,-2.66 c -8.83,38.111 -34.1,66.67 -45.85,78.29 9.61,1.491 15.61,2.451 15.61,2.451 0,0 19.72,-8.371 58.089,-14.09 5.191,-7.991 12.561,-16.931 19.821,-17.651 6.37,-0.639 16.69,6.021 25.74,13.16 3.37,-0.179 6.819,-0.32 10.35,-0.44 14.52,-0.479 34.44,-0.06 57.12,0.931 6.07,-8.701 13.69,-18.971 16.969,-20.651 3.491,-1.79 6.201,11.17 7.811,21.89 C -6.721,-0.399 -3.38,-0.21 0,0"
             style="fill:#e1ce7a;fill-opacity:1;fill-rule:nonzero;stroke:none"
             id="path376"
             inkscape:connector-curvature="0" /></g><g
           id="g378"
           transform="translate(1186.0898,93.5801)"><path
             d="m 0,0 c 7.66,-4.95 15.55,-10.11 18.91,-12.58 7.5,-5.5 6.5,-20.09 -34.5,-47.29 h 21.5 c 0,0 34.18,34.79 60.84,39.29 26.66,4.5 46.66,-43 46.66,-43 h 13.611 c 0,0 1.889,19.69 11.889,24.59 10,4.91 9.5,-1.51 17.5,3.7 8,5.21 17,20.71 27.5,19.21 10.5,-1.5 13.5,-52.83 13.5,-52.83 l 16,-2.17 c 0,0 -3.5,59 13,59.5 16.5,0.5 17.56,-29.31 23.28,-27.41 5.72,1.91 0.22,15.41 8.72,22.41 8.5,7 45.58,-68 45.58,-68 l 13.69,2.5 c 0,0 -8.55,55.13 6.57,85.1 -2.41,-0.01 -4.81,-0.01 -7.21,-0.01 -4.83,-13.531 -11.86,-29.781 -17.01,-27.09 -5.67,2.96 -18.219,17.58 -26.139,27.22 -11.04,0.08 -20.951,0.21 -28.911,0.39 -20.85,0.48 -42.709,1.96 -61.27,3.53 -7.97,-5.29 -17.569,-12.15 -22.8,-17.64 -10,-10.5 -19.5,-9.5 -29,-8 -5.96,0.94 -17.43,16.269 -25.139,27.57 C 97.79,8.16 87.16,7.2 75.36,6.17 82.26,0.82 87.601,-4.94 80.41,-6 72.521,-7.17 49.84,-2.5 31.21,2.45 Z"
             style="fill:#e1ce7a;fill-opacity:1;fill-rule:nonzero;stroke:none"
             id="path380"
             inkscape:connector-curvature="0" /></g><g
           id="g382"
           transform="translate(1745.5,40)"><path
             d="m 0,0 -14.5,-6.29 c 0,0 -19,36.29 -30.5,33.71 C -56.5,24.83 -55,-16 -55,-16 l -14.75,-1.5 c 0,0 -26.75,47 -29.75,35.79 -3,-11.21 8.5,-38.79 8.5,-38.79 l -12.36,-6 c 0,0 -11.14,66.5 -24.14,53.92 C -140.5,14.83 -132,-22 -132,-22 l -14,0.5 c 0,0 -9,28 -18.5,19.5 -9.5,-8.5 -15.78,-29 -15.78,-29 l -34.87,4.5 c 31.4,6.06 45.13,62.09 49.24,83.36 4.67,0.04 8.98,0.07 12.83,0.09 -2.84,-13.42 -5.26,-32.43 4.58,-29.53 9.06,2.66 15.93,18 19.94,29.73 5.65,0.04 16.41,0.09 30.35,0 C -89.67,38.56 -75.9,11 -69.75,12 c 6.27,1.02 -0.67,27.78 -5.8,44.91 5.44,-0.08 11.12,-0.19 16.97,-0.32 4.22,-9.48 10.07,-19.35 16.08,-19.09 7.46,0.32 13.45,10.77 16.73,18.08 3.98,-0.16 7.97,-0.33 11.96,-0.52 C -20.27,29.52 0,0 0,0"
             style="fill:#e1ce7a;fill-opacity:1;fill-rule:nonzero;stroke:none"
             id="path384"
             inkscape:connector-curvature="0" /></g><g
           id="g386"
           transform="translate(204.5,46)"><path
             d="m 0,0 h -12 c 0,0 -10,27 -23,31 -13,4 -75,-31 -75,-31 h -15.5 c 0,0 62,31 66.5,39 4.5,8 -67.5,8.5 -83,1 -15.5,-7.5 -27,-40 -27,-40 h -9.5 c 0,0 23.5,42.02 3,44.76 C -196,47.5 -198.5,0 -198.5,0 l -6,-1.07 v 65.51 c 7.03,-0.92 14.21,-1.85 21.46,-2.76 4.44,-6.92 11.69,-12.58 23.54,-12.18 11.76,0.4 19.46,3.27 24.48,6.58 32.73,-3.48 63.19,-5.9 83.59,-5.75 2.24,-7.13 9.29,-13.14 27.93,-10.29 18.45,2.81 28.83,10.63 34.65,18.15 5.8,0.97 11.46,1.95 16.87,2.91 C 15.56,47.04 -4.94,20.13 0,0"
             style="fill:#e1ce7a;fill-opacity:1;fill-rule:nonzero;stroke:none"
             id="path388"
             inkscape:connector-curvature="0" /></g><g
           id="g390"
           transform="translate(1920,56.9199)"><path
             d="m 0,0 v -10.05 c -33.4,-4.99 -32.5,-31.87 -32.5,-31.87 H -50 c 0,0 -14,50 -42.09,49 -28.1,-1 -10.94,-36.5 -10.94,-36.5 l -15.47,4 c 2.25,25.54 -13.26,49.77 -21.13,60.26 5.6,-0.529 11.03,-1.11 16.2,-1.74 6.09,-8.18 14.08,-17.3 19.24,-17.02 4.96,0.27 4.96,7.12 3.88,13.46 0.46,-0.08 0.91,-0.17 1.36,-0.26 4.25,-0.86 8.58,-1.67 12.94,-2.41 13.24,-21.91 34.24,-40 38.63,-39.29 8.17,1.32 -0.59,21.36 -7.49,34.84 5.61,-0.67 11.17,-1.25 16.62,-1.77 C -33.94,-0.27 -12.27,-1.229 0,0"
             style="fill:#e1ce7a;fill-opacity:1;fill-rule:nonzero;stroke:none"
             id="path392"
             inkscape:connector-curvature="0" /></g><g
           id="g394"
           transform="translate(1920,12.2305)"><path
             d="m 0,0 v -12.23 h -1920 v 54.74 c 23.5,4.26 46.5,8.109 68.14,11.309 39.49,5.84 69.59,-8.939 94.86,-9.049 39.02,-0.17 71.89,7.61 93.41,9.78 5.92,0.59 10.98,0.76 15.07,0.22 4.04,-0.541 8.04,-1.84 12.12,-3.701 7.03,-3.2 14.26,-8.049 22.21,-13.439 2.72,-1.841 5.52,-3.75 8.43,-5.681 16.38,-10.83 36.06,-22.229 62.76,-26.26 3.66,-0.549 9.33,-0.379 16.49,0.321 4.43,0.429 9.42,1.069 14.87,1.859 30.18,4.41 74.16,13.66 111.37,20.03 15.68,2.68 30.16,4.861 41.89,5.951 8.89,0.82 16.2,1.019 21.27,0.349 4.24,-0.559 8.39,-1.149 12.47,-1.76 3.09,-0.46 6.12,-0.939 9.12,-1.419 18.73,-3.031 35.85,-6.481 52.03,-9.831 3.31,-0.689 6.58,-1.37 9.81,-2.049 8.37,-1.741 16.51,-3.43 24.53,-4.991 18.87,-3.679 37.04,-6.649 55.8,-7.95 9.89,-0.679 19.94,-0.899 30.35,-0.51 20.4,0.771 41.35,2.72 63.5,5.25 6.42,0.731 12.94,1.521 19.58,2.331 73.06,8.99 160.18,22.089 282.2,19.5 171.33,-3.64 228.46,4.15 338.05,-18 109.59,-22.161 248.95,29.65 310.44,20 C -74.21,26.149 -75.07,14.18 0,0"
             style="fill:#7c220d;fill-opacity:1;fill-rule:nonzero;stroke:none"
             id="path396"
             inkscape:connector-curvature="0" /></g><g
           id="g398"
           transform="translate(1692,28.5)"><path
             d="M 0,0 C 0,0 45,12.5 63,11.5 81,10.5 109.99,15 147.745,0 185.5,-15 136.932,-7.5 124.966,-4.5 113,-1.5 75.59,5.012 56.295,1.256 37,-2.5 -33.104,-15.402 0,0"
             style="fill:#ff5703;fill-opacity:1;fill-rule:nonzero;stroke:none"
             id="path400"
             inkscape:connector-curvature="0" /></g><g
           id="g402"
           transform="translate(1427.7119,24.6699)"><path
             d="m 0,0 c 0,0 -50.712,6.411 -70.712,9.037 -20,2.626 -91.5,3.543 -121,3.793 -29.5,0.25 -20.75,-13.41 29,-12.83 49.75,0.58 81.75,0.83 104,-2.92 C -36.462,-6.67 53.462,-12.33 0,0"
             style="fill:#ff5703;fill-opacity:1;fill-rule:nonzero;stroke:none"
             id="path404"
             inkscape:connector-curvature="0" /></g><g
           id="g406"
           transform="translate(1203.5,34.75)"><path
             d="m 0,0 c 0,0 -7.25,1.758 -18.75,2.754 -11.5,0.996 -46.102,1.754 -58.051,0 C -88.75,1 -88.25,-7.609 -56.25,-7.43 -24.25,-7.25 13.5,-7.25 0,0"
             style="fill:#ff5703;fill-opacity:1;fill-rule:nonzero;stroke:none"
             id="path408"
             inkscape:connector-curvature="0" /></g><g
           id="g410"
           transform="translate(1008,36.5)"><path
             d="m 0,0 c -1.339,0.073 -71.25,-3.5 -87.25,-7.25 -16,-3.75 -23.25,-9.75 8,-7.25 31.25,2.5 53,3.635 68.25,5.317 C 4.25,-7.5 23,-1.25 0,0"
             style="fill:#ff5703;fill-opacity:1;fill-rule:nonzero;stroke:none"
             id="path412"
             inkscape:connector-curvature="0" /></g><g
           id="g414"
           transform="translate(622.5,31.25)"><path
             d="m 0,0 c 0,0 -33.25,11.25 -55.75,10.5 -22.5,-0.75 -54.29,-10.59 -67.77,-12.795 -13.48,-2.205 -1.23,-7.545 28.77,0 30,7.545 48,6.545 60,3.295 12,-3.25 30.75,-11.889 36.5,-7.194 C 7.5,-1.5 3.253,-1.045 0,0"
             style="fill:#ff5703;fill-opacity:1;fill-rule:nonzero;stroke:none"
             id="path416"
             inkscape:connector-curvature="0" /></g><g
           id="g418"
           transform="translate(298.25,48)"><path
             d="M 0,0 C 0,0 -19.02,17.5 -37.76,14.75 -56.5,12 -73.75,9.25 -73.75,9.25 c 0,0 -12,-8 10.5,-5.5 22.5,2.5 31.5,3 40.25,-1.25 C -14.25,-1.75 0.25,-13 2.25,-9.25 4.25,-5.5 5.718,-4.5 0,0"
             style="fill:#ff5703;fill-opacity:1;fill-rule:nonzero;stroke:none"
             id="path420"
             inkscape:connector-curvature="0" /></g><g
           id="g422"
           transform="translate(109.5,59.75)"><path
             d="M 0,0 C 0,0 -20.5,7.086 -39.25,3.293 -58,-0.5 -90.75,-6.75 -90.75,-6.75 c 0,0 -15.75,-8.75 12,-4.5 27.75,4.25 36,9.746 51.5,7.248 C -11.75,-6.5 -0.2,-7.144 1.75,-7.25 8.625,-7.625 14.75,-6.125 0,0"
             style="fill:#ff5703;fill-opacity:1;fill-rule:nonzero;stroke:none"
             id="path424"
             inkscape:connector-curvature="0" /></g></g></g></g></svg>