<?xml version="1.0" encoding="UTF-8" standalone="no"?>
<!-- Created with Inkscape (http://www.inkscape.org/) -->

<svg
   xmlns:dc="http://purl.org/dc/elements/1.1/"
   xmlns:cc="http://creativecommons.org/ns#"
   xmlns:rdf="http://www.w3.org/1999/02/22-rdf-syntax-ns#"
   xmlns:svg="http://www.w3.org/2000/svg"
   xmlns="http://www.w3.org/2000/svg"
   xmlns:sodipodi="http://sodipodi.sourceforge.net/DTD/sodipodi-0.dtd"
   xmlns:inkscape="http://www.inkscape.org/namespaces/inkscape"
   version="1.1"
   id="svg2"
   xml:space="preserve"
   width="2560"
   height="1440"
   viewBox="0 0 2560 1440"
   sodipodi:docname="Lines.svg"
   inkscape:version="0.92.3 (2405546, 2018-03-11)"><metadata
     id="metadata8"><rdf:RDF><cc:Work
         rdf:about=""><dc:format>image/svg+xml</dc:format><dc:type
           rdf:resource="http://purl.org/dc/dcmitype/StillImage" /><dc:title></dc:title></cc:Work></rdf:RDF></metadata><defs
     id="defs6"><clipPath
       clipPathUnits="userSpaceOnUse"
       id="clipPath24"><path
         d="M 0,1080 H 1920 V 0 H 0 Z"
         id="path22"
         inkscape:connector-curvature="0" /></clipPath><pattern
       patternTransform="translate(-88.1138,302.0337)"
       patternUnits="userSpaceOnUse"
       x="0"
       y="0"
       width="114.417"
       height="114.418"
       id="pattern46"><path
         d="M 114.417,0 0,0 l 0,114.418 114.417,0 0,-114.418 z"
         style="fill:#f60261;fill-opacity:1;fill-rule:nonzero;stroke:none"
         id="path44" /></pattern><pattern
       patternTransform="translate(-88.1138,302.0337)"
       patternUnits="userSpaceOnUse"
       x="0"
       y="0"
       width="114.417"
       height="114.418"
       id="pattern54"><path
         d="M 114.417,0 0,0 l 0,114.418 114.417,0 0,-114.418 z"
         style="fill:#f60261;fill-opacity:1;fill-rule:nonzero;stroke:none"
         id="path52" /></pattern><pattern
       patternTransform="translate(-88.1138,302.0337)"
       patternUnits="userSpaceOnUse"
       x="0"
       y="0"
       width="114.417"
       height="114.418"
       id="pattern66"><path
         d="M 114.417,0 0,0 l 0,114.418 114.417,0 0,-114.418 z"
         style="fill:#00ebea;fill-opacity:1;fill-rule:nonzero;stroke:none"
         id="path64" /></pattern><pattern
       patternTransform="translate(-88.1138,302.0337)"
       patternUnits="userSpaceOnUse"
       x="0"
       y="0"
       width="114.417"
       height="114.418"
       id="pattern90"><path
         d="M 114.417,0 0,0 l 0,114.418 114.417,0 0,-114.418 z"
         style="fill:#00ebea;fill-opacity:1;fill-rule:nonzero;stroke:none"
         id="path88" /></pattern><pattern
       patternTransform="translate(-88.1138,302.0337)"
       patternUnits="userSpaceOnUse"
       x="0"
       y="0"
       width="114.417"
       height="114.418"
       id="pattern98"><path
         d="M 114.417,0 0,0 l 0,114.418 114.417,0 0,-114.418 z"
         style="fill:#00ebea;fill-opacity:1;fill-rule:nonzero;stroke:none"
         id="path96" /></pattern><pattern
       patternTransform="translate(-88.1138,302.0337)"
       patternUnits="userSpaceOnUse"
       x="0"
       y="0"
       width="114.417"
       height="114.418"
       id="pattern114"><path
         d="M 114.417,0 0,0 l 0,114.418 114.417,0 0,-114.418 z"
         style="fill:#00ebea;fill-opacity:1;fill-rule:nonzero;stroke:none"
         id="path112" /></pattern><pattern
       patternTransform="translate(-88.1138,302.0337)"
       patternUnits="userSpaceOnUse"
       x="0"
       y="0"
       width="114.417"
       height="114.418"
       id="pattern146"><path
         d="M 114.417,0 0,0 l 0,114.418 114.417,0 0,-114.418 z"
         style="fill:#00ebea;fill-opacity:1;fill-rule:nonzero;stroke:none"
         id="path144" /></pattern><pattern
       patternTransform="translate(-88.1138,302.0337)"
       patternUnits="userSpaceOnUse"
       x="0"
       y="0"
       width="114.417"
       height="114.418"
       id="pattern170"><path
         d="M 114.417,0 0,0 l 0,114.418 114.417,0 0,-114.418 z"
         style="fill:#f60261;fill-opacity:1;fill-rule:nonzero;stroke:none"
         id="path168" /></pattern><pattern
       patternTransform="translate(-88.1138,302.0337)"
       patternUnits="userSpaceOnUse"
       x="0"
       y="0"
       width="114.417"
       height="114.418"
       id="pattern182"><path
         d="M 114.417,0 0,0 l 0,114.418 114.417,0 0,-114.418 z"
         style="fill:#f60261;fill-opacity:1;fill-rule:nonzero;stroke:none"
         id="path180" /></pattern><pattern
       patternTransform="translate(-88.1138,302.0337)"
       patternUnits="userSpaceOnUse"
       x="0"
       y="0"
       width="114.417"
       height="114.418"
       id="pattern190"><path
         d="M 114.417,0 0,0 l 0,114.418 114.417,0 0,-114.418 z"
         style="fill:#f60261;fill-opacity:1;fill-rule:nonzero;stroke:none"
         id="path188" /></pattern><pattern
       patternTransform="translate(-88.1138,302.0337)"
       patternUnits="userSpaceOnUse"
       x="0"
       y="0"
       width="114.417"
       height="114.418"
       id="pattern202"><path
         d="M 114.417,0 0,0 l 0,114.418 114.417,0 0,-114.418 z"
         style="fill:#f60261;fill-opacity:1;fill-rule:nonzero;stroke:none"
         id="path200" /></pattern><pattern
       patternTransform="translate(-88.1138,302.0337)"
       patternUnits="userSpaceOnUse"
       x="0"
       y="0"
       width="114.417"
       height="114.418"
       id="pattern222"><path
         d="M 114.417,0 0,0 l 0,114.418 114.417,0 0,-114.418 z"
         style="fill:#00ebea;fill-opacity:1;fill-rule:nonzero;stroke:none"
         id="path220" /></pattern><pattern
       patternTransform="translate(-88.1138,302.0337)"
       patternUnits="userSpaceOnUse"
       x="0"
       y="0"
       width="114.417"
       height="114.418"
       id="pattern230"><path
         d="M 114.417,0 0,0 l 0,114.418 114.417,0 0,-114.418 z"
         style="fill:#00ebea;fill-opacity:1;fill-rule:nonzero;stroke:none"
         id="path228" /></pattern><pattern
       patternTransform="translate(-88.1138,302.0337)"
       patternUnits="userSpaceOnUse"
       x="0"
       y="0"
       width="114.417"
       height="114.418"
       id="pattern238"><path
         d="M 114.417,0 0,0 l 0,114.418 114.417,0 0,-114.418 z"
         style="fill:#00ebea;fill-opacity:1;fill-rule:nonzero;stroke:none"
         id="path236" /></pattern><pattern
       patternTransform="translate(-88.1138,302.0337)"
       patternUnits="userSpaceOnUse"
       x="0"
       y="0"
       width="114.417"
       height="114.418"
       id="pattern254"><path
         d="M 114.417,0 0,0 l 0,114.418 114.417,0 0,-114.418 z"
         style="fill:#f60261;fill-opacity:1;fill-rule:nonzero;stroke:none"
         id="path252" /></pattern><pattern
       patternTransform="translate(-88.1138,302.0337)"
       patternUnits="userSpaceOnUse"
       x="0"
       y="0"
       width="114.417"
       height="114.418"
       id="pattern266"><path
         d="M 114.417,0 0,0 l 0,114.418 114.417,0 0,-114.418 z"
         style="fill:#f60261;fill-opacity:1;fill-rule:nonzero;stroke:none"
         id="path264" /></pattern><pattern
       patternTransform="translate(-88.1138,302.0337)"
       patternUnits="userSpaceOnUse"
       x="0"
       y="0"
       width="114.417"
       height="114.418"
       id="pattern274"><path
         d="M 114.417,0 0,0 l 0,114.418 114.417,0 0,-114.418 z"
         style="fill:#00ebea;fill-opacity:1;fill-rule:nonzero;stroke:none"
         id="path272" /></pattern><pattern
       patternTransform="translate(-88.1138,302.0337)"
       patternUnits="userSpaceOnUse"
       x="0"
       y="0"
       width="114.417"
       height="114.418"
       id="pattern282"><path
         d="M 114.417,0 0,0 l 0,114.418 114.417,0 0,-114.418 z"
         style="fill:#00ebea;fill-opacity:1;fill-rule:nonzero;stroke:none"
         id="path280" /></pattern><pattern
       patternTransform="translate(-88.1138,302.0337)"
       patternUnits="userSpaceOnUse"
       x="0"
       y="0"
       width="114.417"
       height="114.418"
       id="pattern290"><path
         d="M 114.417,0 0,0 l 0,114.418 114.417,0 0,-114.418 z"
         style="fill:#00ebea;fill-opacity:1;fill-rule:nonzero;stroke:none"
         id="path288" /></pattern><pattern
       patternTransform="translate(-88.1138,302.0337)"
       patternUnits="userSpaceOnUse"
       x="0"
       y="0"
       width="114.417"
       height="114.418"
       id="pattern318"><path
         d="M 114.417,0 0,0 l 0,114.418 114.417,0 0,-114.418 z"
         style="fill:#f60261;fill-opacity:1;fill-rule:nonzero;stroke:none"
         id="path316" /></pattern><pattern
       patternTransform="translate(-88.1138,302.0337)"
       patternUnits="userSpaceOnUse"
       x="0"
       y="0"
       width="114.417"
       height="114.418"
       id="pattern326"><path
         d="M 114.417,0 0,0 l 0,114.418 114.417,0 0,-114.418 z"
         style="fill:#00ebea;fill-opacity:1;fill-rule:nonzero;stroke:none"
         id="path324" /></pattern><pattern
       patternTransform="translate(-88.1138,302.0337)"
       patternUnits="userSpaceOnUse"
       x="0"
       y="0"
       width="114.417"
       height="114.418"
       id="pattern334"><path
         d="M 114.417,0 0,0 l 0,114.418 114.417,0 0,-114.418 z"
         style="fill:#f60261;fill-opacity:1;fill-rule:nonzero;stroke:none"
         id="path332" /></pattern><pattern
       patternTransform="translate(-88.1138,302.0337)"
       patternUnits="userSpaceOnUse"
       x="0"
       y="0"
       width="114.417"
       height="114.418"
       id="pattern342"><path
         d="M 114.417,0 0,0 l 0,114.418 114.417,0 0,-114.418 z"
         style="fill:#f60261;fill-opacity:1;fill-rule:nonzero;stroke:none"
         id="path340" /></pattern><pattern
       patternTransform="translate(-88.1138,302.0337)"
       patternUnits="userSpaceOnUse"
       x="0"
       y="0"
       width="114.417"
       height="114.418"
       id="pattern350"><path
         d="M 114.417,0 0,0 l 0,114.418 114.417,0 0,-114.418 z"
         style="fill:#fdcb01;fill-opacity:1;fill-rule:nonzero;stroke:none"
         id="path348" /></pattern><pattern
       patternTransform="translate(-88.1138,302.0337)"
       patternUnits="userSpaceOnUse"
       x="0"
       y="0"
       width="114.417"
       height="114.418"
       id="pattern358"><path
         d="M 114.417,0 0,0 l 0,114.418 114.417,0 0,-114.418 z"
         style="fill:#f60261;fill-opacity:1;fill-rule:nonzero;stroke:none"
         id="path356" /></pattern><pattern
       patternTransform="translate(-88.1138,302.0337)"
       patternUnits="userSpaceOnUse"
       x="0"
       y="0"
       width="114.417"
       height="114.418"
       id="pattern366"><path
         d="M 114.417,0 0,0 l 0,114.418 114.417,0 0,-114.418 z"
         style="fill:#f60261;fill-opacity:1;fill-rule:nonzero;stroke:none"
         id="path364" /></pattern><pattern
       patternTransform="translate(-88.1138,302.0337)"
       patternUnits="userSpaceOnUse"
       x="0"
       y="0"
       width="114.417"
       height="114.418"
       id="pattern374"><path
         d="M 114.417,0 0,0 l 0,114.418 114.417,0 0,-114.418 z"
         style="fill:#f60261;fill-opacity:1;fill-rule:nonzero;stroke:none"
         id="path372" /></pattern><pattern
       patternTransform="translate(-88.1138,302.0337)"
       patternUnits="userSpaceOnUse"
       x="0"
       y="0"
       width="114.417"
       height="114.418"
       id="pattern394"><path
         d="M 114.417,0 0,0 l 0,114.418 114.417,0 0,-114.418 z"
         style="fill:#f60261;fill-opacity:1;fill-rule:nonzero;stroke:none"
         id="path392" /></pattern><pattern
       patternTransform="translate(-88.1138,302.0337)"
       patternUnits="userSpaceOnUse"
       x="0"
       y="0"
       width="114.417"
       height="114.418"
       id="pattern402"><path
         d="M 114.417,0 0,0 l 0,114.418 114.417,0 0,-114.418 z"
         style="fill:#f60261;fill-opacity:1;fill-rule:nonzero;stroke:none"
         id="path400" /></pattern><pattern
       patternTransform="translate(-88.1138,302.0337)"
       patternUnits="userSpaceOnUse"
       x="0"
       y="0"
       width="114.417"
       height="114.418"
       id="pattern410"><path
         d="M 114.417,0 0,0 l 0,114.418 114.417,0 0,-114.418 z"
         style="fill:#f60261;fill-opacity:1;fill-rule:nonzero;stroke:none"
         id="path408" /></pattern><pattern
       patternTransform="translate(-88.1138,302.0337)"
       patternUnits="userSpaceOnUse"
       x="0"
       y="0"
       width="114.417"
       height="114.418"
       id="pattern418"><path
         d="M 114.417,0 0,0 l 0,114.418 114.417,0 0,-114.418 z"
         style="fill:#00ebea;fill-opacity:1;fill-rule:nonzero;stroke:none"
         id="path416" /></pattern><pattern
       patternTransform="translate(-88.1138,302.0337)"
       patternUnits="userSpaceOnUse"
       x="0"
       y="0"
       width="114.417"
       height="114.418"
       id="pattern442"><path
         d="M 114.417,0 0,0 l 0,114.418 114.417,0 0,-114.418 z"
         style="fill:#f60261;fill-opacity:1;fill-rule:nonzero;stroke:none"
         id="path440" /></pattern><pattern
       patternTransform="translate(-88.1138,302.0337)"
       patternUnits="userSpaceOnUse"
       x="0"
       y="0"
       width="114.417"
       height="114.418"
       id="pattern450"><path
         d="M 114.417,0 0,0 l 0,114.418 114.417,0 0,-114.418 z"
         style="fill:#f60261;fill-opacity:1;fill-rule:nonzero;stroke:none"
         id="path448" /></pattern><pattern
       patternTransform="translate(-88.1138,302.0337)"
       patternUnits="userSpaceOnUse"
       x="0"
       y="0"
       width="114.417"
       height="114.418"
       id="pattern458"><path
         d="M 114.417,0 0,0 l 0,114.418 114.417,0 0,-114.418 z"
         style="fill:#00ebea;fill-opacity:1;fill-rule:nonzero;stroke:none"
         id="path456" /></pattern><pattern
       patternTransform="translate(-88.1138,302.0337)"
       patternUnits="userSpaceOnUse"
       x="0"
       y="0"
       width="114.417"
       height="114.418"
       id="pattern466"><path
         d="M 114.417,0 0,0 l 0,114.418 114.417,0 0,-114.418 z"
         style="fill:#00ebea;fill-opacity:1;fill-rule:nonzero;stroke:none"
         id="path464" /></pattern><pattern
       patternTransform="translate(-88.1138,302.0337)"
       patternUnits="userSpaceOnUse"
       x="0"
       y="0"
       width="114.417"
       height="114.418"
       id="pattern474"><path
         d="M 114.417,0 0,0 l 0,114.418 114.417,0 0,-114.418 z"
         style="fill:#00ebea;fill-opacity:1;fill-rule:nonzero;stroke:none"
         id="path472" /></pattern><pattern
       patternTransform="translate(-88.1138,302.0337)"
       patternUnits="userSpaceOnUse"
       x="0"
       y="0"
       width="114.417"
       height="114.418"
       id="pattern482"><path
         d="M 114.417,0 0,0 l 0,114.418 114.417,0 0,-114.418 z"
         style="fill:#00ebea;fill-opacity:1;fill-rule:nonzero;stroke:none"
         id="path480" /></pattern><pattern
       patternTransform="translate(-88.1138,302.0337)"
       patternUnits="userSpaceOnUse"
       x="0"
       y="0"
       width="114.417"
       height="114.418"
       id="pattern546"><path
         d="M 114.417,0 0,0 l 0,114.418 114.417,0 0,-114.418 z"
         style="fill:#00ebea;fill-opacity:1;fill-rule:nonzero;stroke:none"
         id="path544" /></pattern></defs><sodipodi:namedview
     pagecolor="#ffffff"
     bordercolor="#666666"
     borderopacity="1"
     objecttolerance="10"
     gridtolerance="10"
     guidetolerance="10"
     inkscape:pageopacity="0"
     inkscape:pageshadow="2"
     inkscape:window-width="751"
     inkscape:window-height="480"
     id="namedview4"
     showgrid="false"
     inkscape:zoom="0.1296875"
     inkscape:cx="1280"
     inkscape:cy="720"
     inkscape:window-x="42"
     inkscape:window-y="0"
     inkscape:window-maximized="0"
     inkscape:current-layer="g10" /><g
     id="g10"
     inkscape:groupmode="layer"
     inkscape:label="background-1789175"
     transform="matrix(1.3333333,0,0,-1.3333333,0,1440)"><path
       d="M 0,0 H 1919.786 V 1080 H 0 Z"
       style="fill:#250448;fill-opacity:1;fill-rule:nonzero;stroke:none"
       id="path12"
       inkscape:connector-curvature="0" /><g
       id="g14"
       transform="translate(188.314,887.1831)"><path
         d="M 0,0 -100.2,-102.217"
         style="fill:#f5f5f5;fill-opacity:1;fill-rule:nonzero;stroke:none"
         id="path16"
         inkscape:connector-curvature="0" /></g><g
       id="g18"><g
         id="g20"
         clip-path="url(#clipPath24)"><g
           id="g26"
           transform="translate(88.1138,777.9663)"><path
             d="M 0,0 C -1.768,0 -3.537,0.666 -4.9,2.001 -7.661,4.708 -7.705,9.139 -4.999,11.9 l 100.2,102.217 c 2.706,2.761 7.137,2.805 9.9,0.099 2.76,-2.707 2.804,-7.138 0.098,-9.9 L 5,2.1 C 3.628,0.701 1.815,0 0,0"
             style="fill:#00ebea;fill-opacity:1;fill-rule:nonzero;stroke:none"
             id="path28"
             inkscape:connector-curvature="0" /></g><g
           id="g30"
           transform="translate(311.603,1012.9551)"><path
             d="M 0,0 -72.548,-74.009"
             style="fill:#f5f5f5;fill-opacity:1;fill-rule:nonzero;stroke:none"
             id="path32"
             inkscape:connector-curvature="0" /></g><g
           id="g34"
           transform="translate(239.0547,931.9463)"><path
             d="M 0,0 C -1.768,0 -3.537,0.666 -4.9,2.001 -7.661,4.708 -7.705,9.139 -4.999,11.9 l 72.548,74.009 c 2.707,2.76 7.138,2.805 9.9,0.099 2.76,-2.707 2.804,-7.138 0.098,-9.9 L 5,2.1 C 3.628,0.702 1.815,0 0,0"
             style="fill:#00ebea;fill-opacity:1;fill-rule:nonzero;stroke:none"
             id="path36"
             inkscape:connector-curvature="0" /></g><g
           id="g38"
           transform="translate(214.1284,431.2598)"><path
             d="m 0,0 c -2.021,0 -4.043,0.761 -5.6,2.287 -3.155,3.093 -3.205,8.158 -0.112,11.314 l 136.426,139.172 c 3.093,3.155 8.159,3.206 11.313,0.113 3.155,-3.093 3.205,-8.158 0.113,-11.313 L 5.713,2.399 C 4.147,0.802 2.074,0 0,0"
             style="fill:#fdcb01;fill-opacity:1;fill-rule:nonzero;stroke:none"
             id="path40"
             inkscape:connector-curvature="0" /></g><g
           id="g42"
           transform="translate(1799.6182,271.2402)"><path
             d="m 0,0 c -2.021,0 -4.042,0.761 -5.6,2.287 -3.154,3.093 -3.205,8.158 -0.112,11.314 l 40.865,41.688 c 3.093,3.154 8.159,3.205 11.314,0.112 3.154,-3.092 3.205,-8.158 0.112,-11.313 L 5.714,2.399 C 4.147,0.802 2.074,0 0,0"
             style="fill:url(#pattern46);fill-opacity:1;fill-rule:nonzero;stroke:none"
             id="path48"
             inkscape:connector-curvature="0" /></g><g
           id="g50"
           transform="translate(1214.1035,790.8975)"><path
             d="M 0,0 C -2.021,0 -4.042,0.761 -5.6,2.287 -8.755,5.38 -8.805,10.445 -5.712,13.6 l 98.089,100.064 c 3.093,3.154 8.158,3.206 11.313,0.112 3.156,-3.092 3.206,-8.157 0.113,-11.313 L 5.714,2.4 C 4.147,0.802 2.074,0 0,0"
             style="fill:url(#pattern54);fill-opacity:1;fill-rule:nonzero;stroke:none"
             id="path56"
             inkscape:connector-curvature="0" /></g><g
           id="g58"
           transform="translate(1170.7031,890.9604)"><path
             d="M 0,0 C -2.021,0 -4.042,0.761 -5.6,2.287 -8.755,5.38 -8.805,10.445 -5.712,13.6 l 128.387,130.97 c 3.093,3.155 8.158,3.206 11.313,0.113 3.156,-3.093 3.205,-8.158 0.113,-11.313 L 5.714,2.4 C 4.147,0.802 2.074,0 0,0"
             style="fill:#fdcb01;fill-opacity:1;fill-rule:nonzero;stroke:none"
             id="path60"
             inkscape:connector-curvature="0" /></g><g
           id="g62"
           transform="translate(1356.9609,766.7866)"><path
             d="M 0,0 C -2.021,0 -4.042,0.761 -5.6,2.287 -8.755,5.38 -8.805,10.445 -5.712,13.6 l 119.927,122.342 c 3.093,3.154 8.157,3.205 11.313,0.113 3.155,-3.093 3.205,-8.158 0.113,-11.313 L 5.714,2.4 C 4.147,0.802 2.074,0 0,0"
             style="fill:url(#pattern66);fill-opacity:1;fill-rule:nonzero;stroke:none"
             id="path68"
             inkscape:connector-curvature="0" /></g><g
           id="g70"
           transform="translate(1611.5313,793.4893)"><path
             d="M 0,0 C -2.021,0 -4.042,0.761 -5.6,2.287 -8.755,5.38 -8.805,10.445 -5.712,13.6 l 223.489,227.989 c 3.093,3.155 8.158,3.206 11.314,0.113 3.154,-3.093 3.205,-8.158 0.112,-11.313 L 5.714,2.4 C 4.147,0.802 2.074,0 0,0"
             style="fill:#fdcb01;fill-opacity:1;fill-rule:nonzero;stroke:none"
             id="path72"
             inkscape:connector-curvature="0" /></g><g
           id="g74"
           transform="translate(26.4692,563.4946)"><path
             d="M 0,0 C -2.021,0 -4.042,0.761 -5.6,2.287 -8.755,5.38 -8.805,10.445 -5.712,13.6 l 95.066,96.98 c 3.093,3.156 8.158,3.205 11.313,0.113 3.155,-3.093 3.206,-8.158 0.113,-11.313 L 5.713,2.4 C 4.147,0.802 2.074,0 0,0"
             style="fill:#fdcb01;fill-opacity:1;fill-rule:nonzero;stroke:none"
             id="path76"
             inkscape:connector-curvature="0" /></g><g
           id="g78"
           transform="translate(178.2983,718.3809)"><path
             d="M 0,0 C -2.021,0 -4.042,0.761 -5.6,2.287 -8.755,5.38 -8.805,10.445 -5.712,13.6 l 71.66,73.103 c 3.093,3.154 8.157,3.206 11.313,0.113 3.155,-3.093 3.205,-8.158 0.113,-11.313 L 5.713,2.4 C 4.147,0.802 2.074,0 0,0"
             style="fill:#fdcb01;fill-opacity:1;fill-rule:nonzero;stroke:none"
             id="path80"
             inkscape:connector-curvature="0" /></g><g
           id="g82"
           transform="translate(989.5215,217.1719)"><path
             d="M 0,0 C -2.021,0 -4.042,0.761 -5.6,2.287 -8.754,5.38 -8.805,10.445 -5.712,13.601 L 89,110.219 c 3.093,3.153 8.158,3.205 11.313,0.112 3.156,-3.093 3.206,-8.158 0.113,-11.313 L 5.714,2.399 C 4.147,0.802 2.074,0 0,0"
             style="fill:#fdcb01;fill-opacity:1;fill-rule:nonzero;stroke:none"
             id="path84"
             inkscape:connector-curvature="0" /></g><g
           id="g86"
           transform="translate(1127.291,357.7139)"><path
             d="m 0,0 c -2.021,0 -4.043,0.761 -5.601,2.287 -3.154,3.093 -3.205,8.158 -0.112,11.314 l 85.721,87.446 c 3.094,3.155 8.159,3.203 11.313,0.112 3.155,-3.093 3.205,-8.158 0.113,-11.313 L 5.713,2.399 C 4.146,0.802 2.073,0 0,0"
             style="fill:url(#pattern90);fill-opacity:1;fill-rule:nonzero;stroke:none"
             id="path92"
             inkscape:connector-curvature="0" /></g><g
           id="g94"
           transform="translate(1565.998,138.1699)"><path
             d="m 0,0 c -2.021,0 -4.042,0.761 -5.6,2.287 -3.155,3.093 -3.205,8.158 -0.112,11.314 l 223.489,227.988 c 3.093,3.154 8.159,3.205 11.314,0.112 3.154,-3.093 3.205,-8.158 0.112,-11.313 L 5.714,2.399 C 4.147,0.802 2.074,0 0,0"
             style="fill:url(#pattern98);fill-opacity:1;fill-rule:nonzero;stroke:none"
             id="path100"
             inkscape:connector-curvature="0" /></g><g
           id="g102"
           transform="translate(1214.1143,56.5605)"><path
             d="M 0,0 C -2.021,0 -4.042,0.761 -5.6,2.287 -8.754,5.38 -8.805,10.445 -5.712,13.601 L 104.929,126.47 c 3.092,3.153 8.157,3.205 11.313,0.112 3.154,-3.093 3.205,-8.158 0.112,-11.313 L 5.714,2.399 C 4.147,0.802 2.074,0 0,0"
             style="fill:#fdcb01;fill-opacity:1;fill-rule:nonzero;stroke:none"
             id="path104"
             inkscape:connector-curvature="0" /></g><g
           id="g106"
           transform="translate(1534.8057,406.5059)"><path
             d="m 0,0 c -2.021,0 -4.042,0.761 -5.6,2.287 -3.154,3.093 -3.205,8.158 -0.112,11.314 l 223.489,227.987 c 3.093,3.155 8.159,3.206 11.314,0.113 3.155,-3.093 3.205,-8.158 0.112,-11.313 L 5.714,2.399 C 4.147,0.802 2.074,0 0,0"
             style="fill:#fdcb01;fill-opacity:1;fill-rule:nonzero;stroke:none"
             id="path108"
             inkscape:connector-curvature="0" /></g><g
           id="g110"
           transform="translate(529.2383,604.3867)"><path
             d="M 0,0 C -2.021,0 -4.043,0.761 -5.6,2.287 -8.755,5.38 -8.805,10.445 -5.712,13.6 l 223.489,227.988 c 3.093,3.155 8.159,3.206 11.313,0.113 3.155,-3.093 3.205,-8.158 0.113,-11.313 L 5.713,2.4 C 4.147,0.802 2.074,0 0,0"
             style="fill:url(#pattern114);fill-opacity:1;fill-rule:nonzero;stroke:none"
             id="path116"
             inkscape:connector-curvature="0" /></g><g
           id="g118"
           transform="translate(486.5669,64.0986)"><path
             d="m 0,0 c -2.021,0 -4.043,0.761 -5.6,2.287 -3.155,3.093 -3.205,8.158 -0.112,11.314 l 223.489,227.988 c 3.093,3.153 8.159,3.205 11.313,0.112 3.155,-3.093 3.205,-8.158 0.113,-11.313 L 5.713,2.399 C 4.147,0.802 2.074,0 0,0"
             style="fill:#fdcb01;fill-opacity:1;fill-rule:nonzero;stroke:none"
             id="path120"
             inkscape:connector-curvature="0" /></g><g
           id="g122"
           transform="translate(421.8452,570.4326)"><path
             d="M 0,0 C -2.021,0 -4.042,0.761 -5.6,2.287 -8.755,5.38 -8.805,10.445 -5.712,13.6 l 90.7,92.526 c 3.093,3.156 8.158,3.206 11.313,0.113 3.155,-3.093 3.205,-8.158 0.113,-11.313 L 5.713,2.4 C 4.147,0.802 2.074,0 0,0"
             style="fill:#fdcb01;fill-opacity:1;fill-rule:nonzero;stroke:none"
             id="path124"
             inkscape:connector-curvature="0" /></g><g
           id="g126"
           transform="translate(694.0415,700.4927)"><path
             d="M 0,0 C -2.021,0 -4.042,0.761 -5.6,2.287 -8.755,5.38 -8.805,10.445 -5.712,13.6 l 86.272,88.009 c 3.093,3.155 8.158,3.205 11.313,0.113 3.155,-3.093 3.206,-8.158 0.113,-11.313 L 5.713,2.4 C 4.147,0.802 2.074,0 0,0"
             style="fill:#fdcb01;fill-opacity:1;fill-rule:nonzero;stroke:none"
             id="path128"
             inkscape:connector-curvature="0" /></g><g
           id="g130"
           transform="translate(1773.7139,776.9663)"><path
             d="M 0,0 C -2.021,0 -4.042,0.761 -5.6,2.287 -8.755,5.38 -8.805,10.445 -5.712,13.6 l 127.889,130.463 c 3.093,3.154 8.157,3.205 11.313,0.112 3.156,-3.092 3.205,-8.157 0.113,-11.313 L 5.714,2.4 C 4.147,0.802 2.074,0 0,0"
             style="fill:#fdcb01;fill-opacity:1;fill-rule:nonzero;stroke:none"
             id="path132"
             inkscape:connector-curvature="0" /></g><g
           id="g134"
           transform="translate(1820.0508,138.1699)"><path
             d="m 0,0 c -2.021,0 -4.042,0.761 -5.6,2.287 -3.155,3.093 -3.205,8.158 -0.112,11.314 l 72.665,74.128 c 3.093,3.153 8.157,3.205 11.314,0.112 3.155,-3.093 3.205,-8.158 0.112,-11.314 L 5.714,2.399 C 4.147,0.802 2.074,0 0,0"
             style="fill:#fdcb01;fill-opacity:1;fill-rule:nonzero;stroke:none"
             id="path136"
             inkscape:connector-curvature="0" /></g><g
           id="g138"
           transform="translate(1404.7871,504.208)"><path
             d="m 0,0 c -2.021,0 -4.042,0.761 -5.6,2.287 -3.155,3.093 -3.205,8.158 -0.112,11.314 l 119.148,121.544 c 3.092,3.154 8.157,3.206 11.313,0.113 3.155,-3.093 3.205,-8.158 0.112,-11.313 L 5.714,2.399 C 4.147,0.802 2.074,0 0,0"
             style="fill:#fdcb01;fill-opacity:1;fill-rule:nonzero;stroke:none"
             id="path140"
             inkscape:connector-curvature="0" /></g><g
           id="g142"
           transform="translate(766.0317,194.9551)"><path
             d="m 0,0 c -2.021,0 -4.042,0.761 -5.6,2.287 -3.155,3.093 -3.205,8.158 -0.112,11.314 l 38.624,39.401 c 3.093,3.155 8.158,3.205 11.313,0.112 3.155,-3.093 3.205,-8.158 0.112,-11.313 L 5.713,2.399 C 4.147,0.802 2.074,0 0,0"
             style="fill:url(#pattern146);fill-opacity:1;fill-rule:nonzero;stroke:none"
             id="path148"
             inkscape:connector-curvature="0" /></g><g
           id="g150"
           transform="translate(848.2129,278.791)"><path
             d="m 0,0 c -2.021,0 -4.042,0.761 -5.6,2.287 -3.155,3.093 -3.205,8.158 -0.112,11.314 l 141.309,144.152 c 3.094,3.155 8.158,3.204 11.313,0.112 3.155,-3.093 3.205,-8.158 0.112,-11.313 L 5.713,2.399 C 4.147,0.802 2.074,0 0,0"
             style="fill:#fdcb01;fill-opacity:1;fill-rule:nonzero;stroke:none"
             id="path152"
             inkscape:connector-curvature="0" /></g><g
           id="g154"
           transform="translate(294.3716,761.4336)"><path
             d="M 0,0 C -2.021,0 -4.042,0.761 -5.6,2.287 -8.755,5.38 -8.805,10.445 -5.712,13.6 l 223.49,227.988 c 3.093,3.156 8.158,3.205 11.313,0.113 3.155,-3.093 3.205,-8.158 0.113,-11.313 L 5.713,2.4 C 4.147,0.802 2.074,0 0,0"
             style="fill:#fdcb01;fill-opacity:1;fill-rule:nonzero;stroke:none"
             id="path156"
             inkscape:connector-curvature="0" /></g><g
           id="g158"
           transform="translate(232.8501,8.1563)"><path
             d="m 0,0 c -2.021,0 -4.042,0.761 -5.6,2.287 -3.155,3.093 -3.205,8.158 -0.112,11.314 l 127.448,130.013 c 3.093,3.155 8.158,3.205 11.313,0.113 3.155,-3.093 3.205,-8.159 0.113,-11.314 L 5.713,2.399 C 4.147,0.802 2.074,0 0,0"
             style="fill:#fdcb01;fill-opacity:1;fill-rule:nonzero;stroke:none"
             id="path160"
             inkscape:connector-curvature="0" /></g><g
           id="g162"
           transform="translate(18.7822,897.2422)"><path
             d="M 0,0 C -1.768,0 -3.537,0.666 -4.9,2.001 -7.661,4.708 -7.705,9.14 -4.999,11.9 l 142.724,145.596 c 2.706,2.76 7.137,2.805 9.899,0.099 2.761,-2.707 2.805,-7.139 0.099,-9.9 L 5,2.1 C 3.628,0.702 1.815,0 0,0"
             style="fill:#f60261;fill-opacity:1;fill-rule:nonzero;stroke:none"
             id="path164"
             inkscape:connector-curvature="0" /></g><g
           id="g166"
           transform="translate(793.5933,380.1162)"><path
             d="m 0,0 c -2.021,0 -4.042,0.761 -5.6,2.287 -3.155,3.093 -3.205,8.158 -0.112,11.314 l 223.49,227.987 c 3.093,3.155 8.157,3.206 11.313,0.113 3.156,-3.093 3.205,-8.158 0.113,-11.313 L 5.713,2.399 C 4.147,0.802 2.074,0 0,0"
             style="fill:url(#pattern170);fill-opacity:1;fill-rule:nonzero;stroke:none"
             id="path172"
             inkscape:connector-curvature="0" /></g><g
           id="g174"
           transform="translate(1151.126,463.291)"><path
             d="m 0,0 c -2.021,0 -4.042,0.761 -5.6,2.287 -3.155,3.093 -3.205,8.158 -0.112,11.314 l 223.49,227.987 c 3.093,3.155 8.158,3.206 11.314,0.113 3.155,-3.093 3.205,-8.158 0.112,-11.313 L 5.714,2.399 C 4.147,0.802 2.074,0 0,0"
             style="fill:#fdcb01;fill-opacity:1;fill-rule:nonzero;stroke:none"
             id="path176"
             inkscape:connector-curvature="0" /></g><g
           id="g178"
           transform="translate(1374.6152,64.0986)"><path
             d="m 0,0 c -2.021,0 -4.042,0.761 -5.6,2.287 -3.155,3.093 -3.205,8.158 -0.112,11.314 l 223.49,227.988 c 3.093,3.153 8.158,3.205 11.314,0.112 3.155,-3.093 3.205,-8.158 0.112,-11.313 L 5.714,2.399 C 4.147,0.802 2.074,0 0,0"
             style="fill:url(#pattern182);fill-opacity:1;fill-rule:nonzero;stroke:none"
             id="path184"
             inkscape:connector-curvature="0" /></g><g
           id="g186"
           transform="translate(1789.4863,511.7578)"><path
             d="M 0,0 C -2.021,0 -4.042,0.761 -5.6,2.287 -8.754,5.38 -8.805,10.445 -5.712,13.601 L 96.65,118.022 c 3.093,3.155 8.158,3.207 11.314,0.113 3.155,-3.093 3.205,-8.157 0.112,-11.313 L 5.714,2.399 C 4.147,0.802 2.074,0 0,0"
             style="fill:url(#pattern190);fill-opacity:1;fill-rule:nonzero;stroke:none"
             id="path192"
             inkscape:connector-curvature="0" /></g><g
           id="g194"
           transform="translate(62.6309,178.0918)"><path
             d="m 0,0 c -2.021,0 -4.042,0.761 -5.6,2.287 -3.155,3.093 -3.205,8.158 -0.112,11.314 l 223.49,227.988 c 3.093,3.154 8.158,3.205 11.313,0.112 3.155,-3.093 3.205,-8.158 0.113,-11.313 L 5.713,2.399 C 4.147,0.802 2.074,0 0,0"
             style="fill:#fdcb01;fill-opacity:1;fill-rule:nonzero;stroke:none"
             id="path196"
             inkscape:connector-curvature="0" /></g><g
           id="g198"
           transform="translate(987.9883,28.6826)"><path
             d="m 0,0 c -2.021,0 -4.042,0.761 -5.6,2.287 -3.154,3.093 -3.205,8.158 -0.112,11.314 l 131.867,134.52 c 3.093,3.153 8.158,3.205 11.314,0.112 3.154,-3.092 3.205,-8.158 0.112,-11.313 L 5.714,2.399 C 4.147,0.802 2.074,0 0,0"
             style="fill:url(#pattern202);fill-opacity:1;fill-rule:nonzero;stroke:none"
             id="path204"
             inkscape:connector-curvature="0" /></g><g
           id="g206"
           transform="translate(23.085,655.6382)"><path
             d="M 0,0 C -2.021,0 -4.042,0.761 -5.6,2.287 -8.755,5.38 -8.805,10.445 -5.712,13.6 l 223.49,227.988 c 3.093,3.156 8.158,3.206 11.313,0.113 3.155,-3.093 3.205,-8.158 0.113,-11.313 L 5.713,2.4 C 4.147,0.802 2.074,0 0,0"
             style="fill:#fdcb01;fill-opacity:1;fill-rule:nonzero;stroke:none"
             id="path208"
             inkscape:connector-curvature="0" /></g><g
           id="g210"
           transform="translate(1352.6162,816.9521)"><path
             d="M 0,0 C -2.021,0 -4.042,0.761 -5.6,2.287 -8.755,5.38 -8.805,10.445 -5.712,13.6 l 223.49,227.988 c 3.093,3.155 8.158,3.206 11.314,0.113 3.155,-3.093 3.205,-8.158 0.112,-11.313 L 5.714,2.4 C 4.147,0.802 2.074,0 0,0"
             style="fill:#fdcb01;fill-opacity:1;fill-rule:nonzero;stroke:none"
             id="path212"
             inkscape:connector-curvature="0" /></g><g
           id="g214"
           transform="translate(1454.2529,994.7739)"><path
             d="M 0,0 C -2.021,0 -4.042,0.761 -5.6,2.287 -8.755,5.38 -8.805,10.445 -5.712,13.6 l 51.965,53.01 c 3.093,3.155 8.157,3.206 11.313,0.113 3.156,-3.093 3.205,-8.158 0.113,-11.313 L 5.714,2.4 C 4.147,0.802 2.074,0 0,0"
             style="fill:#fdcb01;fill-opacity:1;fill-rule:nonzero;stroke:none"
             id="path216"
             inkscape:connector-curvature="0" /></g><g
           id="g218"
           transform="translate(557.8516,894.6377)"><path
             d="M 0,0 C -2.021,0 -4.042,0.761 -5.6,2.287 -8.755,5.38 -8.805,10.445 -5.712,13.6 l 87.993,89.764 c 3.093,3.156 8.158,3.206 11.313,0.113 3.155,-3.093 3.205,-8.158 0.113,-11.313 L 5.713,2.4 C 4.147,0.802 2.074,0 0,0"
             style="fill:url(#pattern222);fill-opacity:1;fill-rule:nonzero;stroke:none"
             id="path224"
             inkscape:connector-curvature="0" /></g><g
           id="g226"
           transform="translate(1368.501,136.9932)"><path
             d="m 0,0 c -2.021,0 -4.042,0.761 -5.6,2.287 -3.155,3.093 -3.205,8.158 -0.112,11.314 l 51.384,52.418 c 3.092,3.154 8.157,3.205 11.313,0.112 3.156,-3.093 3.205,-8.158 0.113,-11.314 L 5.714,2.399 C 4.147,0.802 2.074,0 0,0"
             style="fill:url(#pattern230);fill-opacity:1;fill-rule:nonzero;stroke:none"
             id="path232"
             inkscape:connector-curvature="0" /></g><g
           id="g234"
           transform="translate(557.8516,782.2764)"><path
             d="M 0,0 C -2.021,0 -4.042,0.761 -5.6,2.287 -8.755,5.38 -8.805,10.445 -5.712,13.6 l 111.717,113.966 c 3.093,3.156 8.158,3.205 11.313,0.113 3.155,-3.093 3.205,-8.158 0.113,-11.313 L 5.713,2.4 C 4.147,0.802 2.074,0 0,0"
             style="fill:url(#pattern238);fill-opacity:1;fill-rule:nonzero;stroke:none"
             id="path240"
             inkscape:connector-curvature="0" /></g><g
           id="g242"
           transform="translate(529.2378,456.4385)"><path
             d="m 0,0 c -2.021,0 -4.042,0.761 -5.6,2.287 -3.155,3.093 -3.205,8.158 -0.112,11.314 l 223.49,227.987 c 3.093,3.156 8.158,3.206 11.313,0.113 3.155,-3.093 3.205,-8.158 0.113,-11.313 L 5.713,2.399 C 4.147,0.802 2.074,0 0,0"
             style="fill:#fdcb01;fill-opacity:1;fill-rule:nonzero;stroke:none"
             id="path244"
             inkscape:connector-curvature="0" /></g><g
           id="g246"
           transform="translate(738.5659,36.0781)"><path
             d="m 0,0 c -2.021,0 -4.042,0.761 -5.6,2.287 -3.155,3.093 -3.205,8.158 -0.112,11.314 l 139.211,142.013 c 3.093,3.156 8.158,3.205 11.313,0.113 3.155,-3.093 3.206,-8.159 0.113,-11.314 L 5.713,2.399 C 4.147,0.802 2.074,0 0,0"
             style="fill:#fdcb01;fill-opacity:1;fill-rule:nonzero;stroke:none"
             id="path248"
             inkscape:connector-curvature="0" /></g><g
           id="g250"
           transform="translate(1630.1533,18.5352)"><path
             d="M 0,0 C -2.021,0 -4.042,0.761 -5.6,2.287 -8.754,5.38 -8.805,10.445 -5.712,13.601 L 111.56,133.234 c 3.092,3.154 8.158,3.205 11.313,0.113 3.154,-3.093 3.205,-8.159 0.112,-11.314 L 5.714,2.399 C 4.147,0.802 2.074,0 0,0"
             style="fill:url(#pattern254);fill-opacity:1;fill-rule:nonzero;stroke:none"
             id="path256"
             inkscape:connector-curvature="0" /></g><g
           id="g258"
           transform="translate(30.2036,422.3975)"><path
             d="m 0,0 c -2.021,0 -4.042,0.761 -5.6,2.287 -3.155,3.093 -3.205,8.158 -0.112,11.314 l 87.597,89.36 c 3.094,3.154 8.158,3.204 11.313,0.112 3.156,-3.093 3.206,-8.158 0.113,-11.313 L 5.713,2.399 C 4.147,0.802 2.074,0 0,0"
             style="fill:#fdcb01;fill-opacity:1;fill-rule:nonzero;stroke:none"
             id="path260"
             inkscape:connector-curvature="0" /></g><g
           id="g262"
           transform="translate(294.3711,308.9492)"><path
             d="m 0,0 c -2.021,0 -4.042,0.761 -5.6,2.287 -3.155,3.093 -3.205,8.158 -0.112,11.314 l 223.49,227.986 c 3.093,3.156 8.158,3.205 11.313,0.113 3.155,-3.093 3.205,-8.158 0.113,-11.313 L 5.713,2.399 C 4.147,0.802 2.074,0 0,0"
             style="fill:url(#pattern266);fill-opacity:1;fill-rule:nonzero;stroke:none"
             id="path268"
             inkscape:connector-curvature="0" /></g><g
           id="g270"
           transform="translate(989.5205,808.2266)"><path
             d="M 0,0 C -2.021,0 -4.042,0.761 -5.6,2.287 -8.755,5.38 -8.805,10.445 -5.712,13.6 l 223.49,227.988 c 3.093,3.154 8.158,3.206 11.314,0.113 3.155,-3.093 3.205,-8.158 0.112,-11.313 L 5.714,2.4 C 4.147,0.802 2.074,0 0,0"
             style="fill:url(#pattern274);fill-opacity:1;fill-rule:nonzero;stroke:none"
             id="path276"
             inkscape:connector-curvature="0" /></g><g
           id="g278"
           transform="translate(1188.7002,138.1699)"><path
             d="m 0,0 c -2.021,0 -4.042,0.761 -5.6,2.287 -3.155,3.093 -3.205,8.158 -0.112,11.314 l 223.49,227.988 c 3.093,3.154 8.158,3.205 11.314,0.112 3.155,-3.093 3.205,-8.158 0.112,-11.313 L 5.714,2.399 C 4.147,0.802 2.074,0 0,0"
             style="fill:url(#pattern282);fill-opacity:1;fill-rule:nonzero;stroke:none"
             id="path284"
             inkscape:connector-curvature="0" /></g><g
           id="g286"
           transform="translate(1431.9434,691.2773)"><path
             d="M 0,0 C -2.021,0 -4.042,0.761 -5.6,2.287 -8.755,5.38 -8.805,10.445 -5.712,13.6 l 223.49,227.988 c 3.093,3.155 8.158,3.206 11.314,0.113 3.155,-3.093 3.205,-8.158 0.112,-11.313 L 5.714,2.4 C 4.147,0.802 2.074,0 0,0"
             style="fill:url(#pattern290);fill-opacity:1;fill-rule:nonzero;stroke:none"
             id="path292"
             inkscape:connector-curvature="0" /></g><g
           id="g294"
           transform="translate(397.1636,947.5195)"><path
             d="M 0,0 -62.829,-64.093"
             style="fill:#f5f5f5;fill-opacity:1;fill-rule:nonzero;stroke:none"
             id="path296"
             inkscape:connector-curvature="0" /></g><g
           id="g298"
           transform="translate(334.3345,876.4263)"><path
             d="M 0,0 C -1.768,0 -3.537,0.666 -4.9,2.001 -7.661,4.708 -7.705,9.14 -4.999,11.9 L 57.83,75.994 c 2.706,2.761 7.137,2.805 9.899,0.098 2.761,-2.706 2.805,-7.138 0.099,-9.899 L 5,2.1 C 3.628,0.702 1.815,0 0,0"
             style="fill:#00ebea;fill-opacity:1;fill-rule:nonzero;stroke:none"
             id="path300"
             inkscape:connector-curvature="0" /></g><g
           id="g302"
           transform="translate(250.4824,581.5176)"><path
             d="m 0,0 c -1.779,0 -3.558,0.674 -4.923,2.023 -2.748,2.719 -2.772,7.151 -0.054,9.9 l 262.064,264.936 c 2.719,2.749 7.151,2.772 9.899,0.054 2.749,-2.719 2.773,-7.151 0.054,-9.899 L 4.977,2.077 C 3.607,0.693 1.804,0 0,0"
             style="fill:#f60261;fill-opacity:1;fill-rule:nonzero;stroke:none"
             id="path304"
             inkscape:connector-curvature="0" /></g><g
           id="g306"
           transform="translate(346.1689,752.4971)"><path
             d="M 0,0 -184.663,-186.124"
             style="fill:#f5f5f5;fill-opacity:1;fill-rule:nonzero;stroke:none"
             id="path308"
             inkscape:connector-curvature="0" /></g><g
           id="g310"
           transform="translate(161.5059,559.373)"><path
             d="m 0,0 c -1.782,0 -3.565,0.676 -4.93,2.031 -2.745,2.723 -2.762,7.155 -0.039,9.899 l 184.663,186.124 c 2.724,2.745 7.156,2.761 9.899,0.039 2.745,-2.723 2.762,-7.155 0.039,-9.899 L 4.969,2.07 C 3.601,0.69 1.8,0 0,0"
             style="fill:#00ebea;fill-opacity:1;fill-rule:nonzero;stroke:none"
             id="path312"
             inkscape:connector-curvature="0" /></g><g
           id="g314"
           transform="translate(365.749,989.4209)"><path
             d="M 0,0 C -2.021,0 -4.042,0.761 -5.6,2.287 -8.755,5.38 -8.805,10.445 -5.712,13.6 l 40.865,41.689 c 3.093,3.154 8.159,3.205 11.313,0.112 3.156,-3.092 3.206,-8.157 0.113,-11.313 L 5.713,2.4 C 4.147,0.802 2.074,0 0,0"
             style="fill:url(#pattern318);fill-opacity:1;fill-rule:nonzero;stroke:none"
             id="path320"
             inkscape:connector-curvature="0" /></g><g
           id="g322"
           transform="translate(516.9858,257.9463)"><path
             d="m 0,0 c -2.021,0 -4.042,0.761 -5.6,2.287 -3.155,3.093 -3.205,8.158 -0.112,11.314 l 40.865,41.688 c 3.093,3.155 8.159,3.205 11.313,0.112 3.156,-3.092 3.206,-8.158 0.113,-11.313 L 5.713,2.399 C 4.147,0.802 2.074,0 0,0"
             style="fill:url(#pattern326);fill-opacity:1;fill-rule:nonzero;stroke:none"
             id="path328"
             inkscape:connector-curvature="0" /></g><g
           id="g330"
           transform="translate(117.7808,910.1021)"><path
             d="M 0,0 C -2.021,0 -4.043,0.761 -5.6,2.287 -8.755,5.38 -8.805,10.445 -5.712,13.6 l 40.865,41.689 c 3.093,3.154 8.158,3.206 11.313,0.112 3.156,-3.092 3.206,-8.157 0.113,-11.313 L 5.713,2.4 C 4.147,0.802 2.074,0 0,0"
             style="fill:url(#pattern334);fill-opacity:1;fill-rule:nonzero;stroke:none"
             id="path336"
             inkscape:connector-curvature="0" /></g><g
           id="g338"
           transform="translate(218.6216,1000.6338)"><path
             d="M 0,0 C -2.021,0 -4.043,0.761 -5.6,2.287 -8.755,5.38 -8.805,10.445 -5.712,13.6 l 40.865,41.689 c 3.093,3.154 8.158,3.205 11.313,0.112 3.156,-3.092 3.206,-8.157 0.113,-11.313 L 5.713,2.4 C 4.147,0.802 2.074,0 0,0"
             style="fill:url(#pattern342);fill-opacity:1;fill-rule:nonzero;stroke:none"
             id="path344"
             inkscape:connector-curvature="0" /></g><g
           id="g346"
           transform="translate(732.2944,886.6284)"><path
             d="M 0,0 C -2.021,0 -4.043,0.761 -5.6,2.287 -8.755,5.38 -8.805,10.445 -5.712,13.6 l 40.865,41.689 c 3.093,3.154 8.159,3.205 11.313,0.112 3.156,-3.092 3.206,-8.157 0.113,-11.313 L 5.713,2.4 C 4.147,0.802 2.074,0 0,0"
             style="fill:url(#pattern350);fill-opacity:1;fill-rule:nonzero;stroke:none"
             id="path352"
             inkscape:connector-curvature="0" /></g><g
           id="g354"
           transform="translate(905.3384,630.5908)"><path
             d="M 0,0 C -2.021,0 -4.043,0.761 -5.6,2.287 -8.755,5.38 -8.805,10.445 -5.712,13.6 l 40.865,41.689 c 3.093,3.154 8.159,3.205 11.313,0.112 3.156,-3.092 3.206,-8.157 0.113,-11.313 L 5.713,2.4 C 4.147,0.802 2.074,0 0,0"
             style="fill:url(#pattern358);fill-opacity:1;fill-rule:nonzero;stroke:none"
             id="path360"
             inkscape:connector-curvature="0" /></g><g
           id="g362"
           transform="translate(905.3384,854.582)"><path
             d="M 0,0 C -2.021,0 -4.043,0.761 -5.6,2.287 -8.755,5.38 -8.805,10.445 -5.712,13.6 l 40.865,41.689 c 3.093,3.154 8.159,3.205 11.313,0.112 3.156,-3.092 3.206,-8.157 0.113,-11.313 L 5.713,2.4 C 4.147,0.802 2.074,0 0,0"
             style="fill:url(#pattern366);fill-opacity:1;fill-rule:nonzero;stroke:none"
             id="path368"
             inkscape:connector-curvature="0" /></g><g
           id="g370"
           transform="translate(905.3384,984.1108)"><path
             d="M 0,0 C -2.021,0 -4.043,0.761 -5.6,2.287 -8.755,5.38 -8.805,10.445 -5.712,13.6 l 40.865,41.689 c 3.093,3.154 8.159,3.205 11.313,0.112 3.156,-3.092 3.206,-8.157 0.113,-11.313 L 5.713,2.4 C 4.147,0.802 2.074,0 0,0"
             style="fill:url(#pattern374);fill-opacity:1;fill-rule:nonzero;stroke:none"
             id="path376"
             inkscape:connector-curvature="0" /></g><g
           id="g378"
           transform="translate(869.2993,754.9326)"><path
             d="M 0,0 C -2.021,0 -4.042,0.761 -5.6,2.287 -8.755,5.38 -8.805,10.445 -5.712,13.6 l 90.7,92.526 c 3.093,3.156 8.157,3.206 11.313,0.113 3.156,-3.093 3.205,-8.157 0.113,-11.313 L 5.713,2.4 C 4.147,0.802 2.074,0 0,0"
             style="fill:#fdcb01;fill-opacity:1;fill-rule:nonzero;stroke:none"
             id="path380"
             inkscape:connector-curvature="0" /></g><g
           id="g382"
           transform="translate(673.2993,410.9326)"><path
             d="m 0,0 c -2.021,0 -4.042,0.761 -5.6,2.287 -3.155,3.093 -3.205,8.158 -0.112,11.314 l 90.7,92.526 c 3.093,3.153 8.158,3.205 11.313,0.112 3.155,-3.093 3.205,-8.158 0.113,-11.313 L 5.713,2.399 C 4.147,0.802 2.074,0 0,0"
             style="fill:#fdcb01;fill-opacity:1;fill-rule:nonzero;stroke:none"
             id="path384"
             inkscape:connector-curvature="0" /></g><g
           id="g386"
           transform="translate(266.2524,148.6914)"><path
             d="m 0,0 c -2.021,0 -4.042,0.761 -5.6,2.287 -3.155,3.093 -3.205,8.158 -0.112,11.314 l 90.7,92.526 c 3.092,3.153 8.158,3.205 11.313,0.112 3.155,-3.093 3.205,-8.158 0.113,-11.313 L 5.713,2.399 C 4.147,0.802 2.074,0 0,0"
             style="fill:#fdcb01;fill-opacity:1;fill-rule:nonzero;stroke:none"
             id="path388"
             inkscape:connector-curvature="0" /></g><g
           id="g390"
           transform="translate(600.4946,36.4961)"><path
             d="m 0,0 c -2.021,0 -4.042,0.761 -5.6,2.287 -3.155,3.093 -3.205,8.158 -0.112,11.314 l 90.7,92.526 c 3.093,3.153 8.158,3.205 11.313,0.112 3.155,-3.093 3.205,-8.158 0.113,-11.313 L 5.713,2.399 C 4.147,0.802 2.074,0 0,0"
             style="fill:url(#pattern394);fill-opacity:1;fill-rule:nonzero;stroke:none"
             id="path396"
             inkscape:connector-curvature="0" /></g><g
           id="g398"
           transform="translate(1545.5654,889.2578)"><path
             d="M 0,0 C -2.021,0 -4.042,0.761 -5.6,2.287 -8.755,5.38 -8.805,10.445 -5.712,13.6 l 40.866,41.689 c 3.093,3.154 8.158,3.205 11.314,0.112 3.155,-3.092 3.205,-8.158 0.112,-11.313 L 5.714,2.4 C 4.147,0.802 2.074,0 0,0"
             style="fill:url(#pattern402);fill-opacity:1;fill-rule:nonzero;stroke:none"
             id="path404"
             inkscape:connector-curvature="0" /></g><g
           id="g406"
           transform="translate(1503.502,490.9121)"><path
             d="m 0,0 c -2.021,0 -4.042,0.761 -5.6,2.287 -3.155,3.093 -3.205,8.158 -0.112,11.314 l 40.866,41.688 c 3.093,3.153 8.158,3.206 11.314,0.112 3.155,-3.092 3.205,-8.158 0.112,-11.313 L 5.714,2.399 C 4.147,0.802 2.074,0 0,0"
             style="fill:url(#pattern410);fill-opacity:1;fill-rule:nonzero;stroke:none"
             id="path412"
             inkscape:connector-curvature="0" /></g><g
           id="g414"
           transform="translate(1139.083,575.0083)"><path
             d="M 0,0 C -2.021,0 -4.042,0.761 -5.6,2.287 -8.755,5.38 -8.805,10.445 -5.712,13.6 l 40.866,41.688 c 3.093,3.154 8.158,3.206 11.314,0.112 3.155,-3.092 3.205,-8.158 0.112,-11.313 L 5.714,2.4 C 4.147,0.802 2.074,0 0,0"
             style="fill:url(#pattern418);fill-opacity:1;fill-rule:nonzero;stroke:none"
             id="path420"
             inkscape:connector-curvature="0" /></g><g
           id="g422"
           transform="translate(839.9302,863.8389)"><path
             d="M 0,0 C -2.021,0 -4.042,0.761 -5.6,2.287 -8.755,5.38 -8.805,10.445 -5.712,13.6 l 90.7,92.526 c 3.093,3.156 8.158,3.206 11.313,0.113 3.155,-3.093 3.205,-8.157 0.113,-11.313 L 5.713,2.4 C 4.147,0.802 2.074,0 0,0"
             style="fill:#fdcb01;fill-opacity:1;fill-rule:nonzero;stroke:none"
             id="path424"
             inkscape:connector-curvature="0" /></g><g
           id="g426"
           transform="translate(1076.957,586.4985)"><path
             d="M 0,0 C -2.021,0 -4.042,0.761 -5.6,2.287 -8.755,5.38 -8.805,10.445 -5.712,13.6 l 223.49,227.988 c 3.093,3.154 8.158,3.205 11.314,0.113 3.155,-3.093 3.205,-8.158 0.112,-11.313 L 5.714,2.4 C 4.147,0.802 2.074,0 0,0"
             style="fill:#fdcb01;fill-opacity:1;fill-rule:nonzero;stroke:none"
             id="path428"
             inkscape:connector-curvature="0" /></g><g
           id="g430"
           transform="translate(1447.5352,601.9092)"><path
             d="M 0,0 -184.663,-186.125"
             style="fill:#f5f5f5;fill-opacity:1;fill-rule:nonzero;stroke:none"
             id="path432"
             inkscape:connector-curvature="0" /></g><g
           id="g434"
           transform="translate(1262.8721,408.7842)"><path
             d="m 0,0 c -1.782,0 -3.565,0.677 -4.931,2.031 -2.744,2.723 -2.761,7.155 -0.038,9.9 l 184.662,186.124 c 2.724,2.745 7.156,2.763 9.901,0.039 2.744,-2.723 2.761,-7.155 0.038,-9.899 L 4.969,2.069 C 3.601,0.69 1.801,0 0,0"
             style="fill:#00ebea;fill-opacity:1;fill-rule:nonzero;stroke:none"
             id="path436"
             inkscape:connector-curvature="0" /></g><g
           id="g438"
           transform="translate(1118.6494,310.3213)"><path
             d="m 0,0 c -2.021,0 -4.042,0.761 -5.6,2.287 -3.155,3.093 -3.205,8.158 -0.112,11.314 l 40.866,41.688 c 3.093,3.154 8.158,3.205 11.314,0.112 3.155,-3.092 3.205,-8.158 0.112,-11.313 L 5.714,2.399 C 4.147,0.802 2.074,0 0,0"
             style="fill:url(#pattern442);fill-opacity:1;fill-rule:nonzero;stroke:none"
             id="path444"
             inkscape:connector-curvature="0" /></g><g
           id="g446"
           transform="translate(537.4185,331.165)"><path
             d="m 0,0 c -2.021,0 -4.042,0.761 -5.6,2.287 -3.155,3.093 -3.205,8.158 -0.112,11.314 l 40.866,41.688 c 3.093,3.154 8.158,3.205 11.313,0.112 3.155,-3.092 3.205,-8.158 0.113,-11.313 L 5.713,2.399 C 4.147,0.802 2.074,0 0,0"
             style="fill:url(#pattern450);fill-opacity:1;fill-rule:nonzero;stroke:none"
             id="path452"
             inkscape:connector-curvature="0" /></g><g
           id="g454"
           transform="translate(1615.2471,745.9424)"><path
             d="M 0,0 C -2.021,0 -4.042,0.761 -5.6,2.287 -8.754,5.38 -8.805,10.445 -5.712,13.6 l 40.865,41.689 c 3.093,3.154 8.158,3.205 11.314,0.112 3.154,-3.092 3.205,-8.157 0.112,-11.313 L 5.714,2.4 C 4.147,0.802 2.074,0 0,0"
             style="fill:url(#pattern458);fill-opacity:1;fill-rule:nonzero;stroke:none"
             id="path460"
             inkscape:connector-curvature="0" /></g><g
           id="g462"
           transform="translate(764.9111,1000.6338)"><path
             d="M 0,0 C -2.021,0 -4.042,0.761 -5.6,2.287 -8.755,5.38 -8.805,10.445 -5.712,13.6 l 40.865,41.689 c 3.093,3.154 8.158,3.205 11.313,0.112 3.155,-3.092 3.205,-8.157 0.113,-11.313 L 5.713,2.4 C 4.147,0.802 2.074,0 0,0"
             style="fill:url(#pattern466);fill-opacity:1;fill-rule:nonzero;stroke:none"
             id="path468"
             inkscape:connector-curvature="0" /></g><g
           id="g470"
           transform="translate(117.7808,61.915)"><path
             d="m 0,0 c -2.021,0 -4.042,0.761 -5.6,2.287 -3.155,3.093 -3.205,8.158 -0.112,11.314 l 40.865,41.688 c 3.094,3.154 8.159,3.205 11.313,0.112 3.156,-3.092 3.206,-8.158 0.113,-11.313 L 5.713,2.399 C 4.147,0.802 2.074,0 0,0"
             style="fill:url(#pattern474);fill-opacity:1;fill-rule:nonzero;stroke:none"
             id="path476"
             inkscape:connector-curvature="0" /></g><g
           id="g478"
           transform="translate(1110.2607,55.4355)"><path
             d="m 0,0 c -2.021,0 -4.042,0.761 -5.6,2.287 -3.154,3.093 -3.205,8.158 -0.112,11.314 l 40.865,41.688 c 3.093,3.153 8.158,3.205 11.314,0.112 3.154,-3.092 3.205,-8.158 0.112,-11.313 L 5.714,2.399 C 4.147,0.802 2.074,0 0,0"
             style="fill:url(#pattern482);fill-opacity:1;fill-rule:nonzero;stroke:none"
             id="path484"
             inkscape:connector-curvature="0" /></g><g
           id="g486"
           transform="translate(970.832,630.2949)"><path
             d="M 0,0 C -2.021,0 -4.042,0.761 -5.6,2.287 -8.755,5.38 -8.805,10.445 -5.712,13.6 l 171.525,174.978 c 3.093,3.154 8.158,3.206 11.314,0.113 3.155,-3.093 3.205,-8.158 0.112,-11.313 L 5.714,2.4 C 4.147,0.802 2.074,0 0,0"
             style="fill:#fdcb01;fill-opacity:1;fill-rule:nonzero;stroke:none"
             id="path488"
             inkscape:connector-curvature="0" /></g><g
           id="g490"
           transform="translate(842.0518,661.1846)"><path
             d="M 0,0 -72.549,-74.009"
             style="fill:#f5f5f5;fill-opacity:1;fill-rule:nonzero;stroke:none"
             id="path492"
             inkscape:connector-curvature="0" /></g><g
           id="g494"
           transform="translate(769.5024,580.1758)"><path
             d="M 0,0 C -1.768,0 -3.537,0.666 -4.9,2.001 -7.661,4.708 -7.705,9.14 -4.999,11.9 L 67.55,85.909 c 2.706,2.76 7.138,2.805 9.9,0.099 2.76,-2.707 2.804,-7.139 0.098,-9.9 L 5,2.1 C 3.628,0.702 1.815,0 0,0"
             style="fill:#00ebea;fill-opacity:1;fill-rule:nonzero;stroke:none"
             id="path496"
             inkscape:connector-curvature="0" /></g><g
           id="g498"
           transform="translate(1584.8037,49.6797)"><path
             d="m 0,0 c -2.021,0 -4.042,0.761 -5.6,2.287 -3.154,3.093 -3.205,8.158 -0.112,11.314 l 90.7,92.526 c 3.093,3.153 8.158,3.206 11.314,0.112 3.155,-3.093 3.205,-8.158 0.112,-11.313 L 5.714,2.399 C 4.147,0.802 2.074,0 0,0"
             style="fill:#fdcb01;fill-opacity:1;fill-rule:nonzero;stroke:none"
             id="path500"
             inkscape:connector-curvature="0" /></g><g
           id="g502"
           transform="translate(1622.3896,964.002)"><path
             d="M 0,0 C -2.021,0 -4.043,0.761 -5.601,2.287 -8.756,5.38 -8.806,10.445 -5.713,13.6 l 90.7,92.526 c 3.093,3.155 8.158,3.206 11.314,0.113 3.154,-3.093 3.205,-8.157 0.112,-11.313 L 5.713,2.4 C 4.146,0.802 2.073,0 0,0"
             style="fill:#fdcb01;fill-opacity:1;fill-rule:nonzero;stroke:none"
             id="path504"
             inkscape:connector-curvature="0" /></g><g
           id="g506"
           transform="translate(136.832,380.8535)"><path
             d="M 0,0 -62.829,-64.093"
             style="fill:#f5f5f5;fill-opacity:1;fill-rule:nonzero;stroke:none"
             id="path508"
             inkscape:connector-curvature="0" /></g><g
           id="g510"
           transform="translate(74.0024,309.7607)"><path
             d="M 0,0 C -1.768,0 -3.537,0.666 -4.9,2.001 -7.661,4.708 -7.705,9.14 -4.998,11.9 l 62.829,64.093 c 2.706,2.762 7.137,2.805 9.899,0.099 2.761,-2.707 2.805,-7.139 0.098,-9.9 L 4.999,2.1 C 3.628,0.701 1.815,0 0,0"
             style="fill:#00ebea;fill-opacity:1;fill-rule:nonzero;stroke:none"
             id="path512"
             inkscape:connector-curvature="0" /></g><g
           id="g514"
           transform="translate(1597.4131,374.1582)"><path
             d="M 0,0 -62.829,-64.092"
             style="fill:#f5f5f5;fill-opacity:1;fill-rule:nonzero;stroke:none"
             id="path516"
             inkscape:connector-curvature="0" /></g><g
           id="g518"
           transform="translate(1534.584,303.0664)"><path
             d="M 0,0 C -1.769,0 -3.538,0.666 -4.9,2.001 -7.661,4.708 -7.705,9.14 -4.999,11.9 L 57.83,75.992 c 2.708,2.762 7.14,2.804 9.899,0.099 2.761,-2.707 2.805,-7.139 0.099,-9.9 L 4.999,2.1 C 3.628,0.701 1.814,0 0,0"
             style="fill:#00ebea;fill-opacity:1;fill-rule:nonzero;stroke:none"
             id="path520"
             inkscape:connector-curvature="0" /></g><g
           id="g522"
           transform="translate(1085.3379,1029.4668)"><path
             d="M 0,0 -62.829,-64.092"
             style="fill:#f5f5f5;fill-opacity:1;fill-rule:nonzero;stroke:none"
             id="path524"
             inkscape:connector-curvature="0" /></g><g
           id="g526"
           transform="translate(1022.5088,958.375)"><path
             d="M 0,0 C -1.769,0 -3.538,0.666 -4.9,2.001 -7.661,4.708 -7.705,9.14 -4.999,11.9 L 57.83,75.992 c 2.707,2.761 7.14,2.805 9.899,0.098 2.761,-2.706 2.805,-7.138 0.099,-9.899 L 4.999,2.1 C 3.628,0.702 1.814,0 0,0"
             style="fill:#00ebea;fill-opacity:1;fill-rule:nonzero;stroke:none"
             id="path528"
             inkscape:connector-curvature="0" /></g><g
           id="g530"
           transform="translate(795.4146,441.4834)"><path
             d="M 0,0 -62.829,-64.093"
             style="fill:#f5f5f5;fill-opacity:1;fill-rule:nonzero;stroke:none"
             id="path532"
             inkscape:connector-curvature="0" /></g><g
           id="g534"
           transform="translate(732.585,370.3906)"><path
             d="M 0,0 C -1.768,0 -3.537,0.666 -4.9,2.001 -7.661,4.708 -7.705,9.14 -4.998,11.9 l 62.829,64.093 c 2.706,2.762 7.137,2.804 9.899,0.099 2.761,-2.707 2.805,-7.139 0.098,-9.9 L 4.999,2.1 C 3.628,0.701 1.815,0 0,0"
             style="fill:#00ebea;fill-opacity:1;fill-rule:nonzero;stroke:none"
             id="path536"
             inkscape:connector-curvature="0" /></g><g
           id="g538"
           transform="translate(1652.959,640.938)"><path
             d="M 0,0 C -2.021,0 -4.042,0.761 -5.6,2.287 -8.754,5.38 -8.805,10.445 -5.712,13.6 l 71.66,73.103 c 3.093,3.155 8.157,3.206 11.314,0.113 3.154,-3.093 3.205,-8.158 0.112,-11.313 L 5.714,2.4 C 4.147,0.802 2.074,0 0,0"
             style="fill:#fdcb01;fill-opacity:1;fill-rule:nonzero;stroke:none"
             id="path540"
             inkscape:connector-curvature="0" /></g><g
           id="g542"
           transform="translate(1799.6182,41.0703)"><path
             d="m 0,0 c -2.021,0 -4.042,0.761 -5.6,2.287 -3.154,3.093 -3.205,8.158 -0.112,11.314 l 40.865,41.688 c 3.093,3.153 8.159,3.205 11.314,0.112 3.154,-3.092 3.205,-8.158 0.112,-11.313 L 5.714,2.399 C 4.147,0.802 2.074,0 0,0"
             style="fill:url(#pattern546);fill-opacity:1;fill-rule:nonzero;stroke:none"
             id="path548"
             inkscape:connector-curvature="0" /></g></g></g></g></svg>