<?xml version="1.0" encoding="UTF-8" standalone="no"?>
<!-- Generator: Adobe Illustrator 19.0.0, SVG Export Plug-In . SVG Version: 6.00 Build 0)  -->

<svg
   xmlns:dc="http://purl.org/dc/elements/1.1/"
   xmlns:cc="http://creativecommons.org/ns#"
   xmlns:rdf="http://www.w3.org/1999/02/22-rdf-syntax-ns#"
   xmlns:svg="http://www.w3.org/2000/svg"
   xmlns="http://www.w3.org/2000/svg"
   xmlns:sodipodi="http://sodipodi.sourceforge.net/DTD/sodipodi-0.dtd"
   xmlns:inkscape="http://www.inkscape.org/namespaces/inkscape"
   version="1.1"
   id="Capa_1"
   x="0px"
   y="0px"
   viewBox="0 0 512 512"
   style="enable-background:new 0 0 512 512;"
   xml:space="preserve"
   sodipodi:docname="bookmark.svg"
   inkscape:version="0.92.5 (2060ec1f9f, 2020-04-08)"><metadata
   id="metadata45"><rdf:RDF><cc:Work
       rdf:about=""><dc:format>image/svg+xml</dc:format><dc:type
         rdf:resource="http://purl.org/dc/dcmitype/StillImage" /></cc:Work></rdf:RDF></metadata><defs
   id="defs43" /><sodipodi:namedview
   pagecolor="#ffffff"
   bordercolor="#666666"
   borderopacity="1"
   objecttolerance="10"
   gridtolerance="10"
   guidetolerance="10"
   inkscape:pageopacity="0"
   inkscape:pageshadow="2"
   inkscape:window-width="1245"
   inkscape:window-height="805"
   id="namedview41"
   showgrid="false"
   inkscape:zoom="0.4609375"
   inkscape:cx="256"
   inkscape:cy="256"
   inkscape:window-x="223"
   inkscape:window-y="68"
   inkscape:window-maximized="0"
   inkscape:current-layer="Capa_1" />
<path
   style="fill:#2196F3;"
   d="M373.333,0H138.667C97.429,0,64,33.429,64,74.667v426.667c0.001,4.316,2.603,8.207,6.592,9.856  c1.291,0.538,2.676,0.813,4.075,0.811c2.831,0.005,5.548-1.115,7.552-3.115l120.448-120.619  c47.147,46.528,112.107,110.933,119.083,118.869c3.261,4.906,9.882,6.24,14.788,2.979c1.775-1.18,3.155-2.864,3.964-4.835  c0.687-1.195,0.978-2.576,0.832-3.947v-448c0-17.673,14.327-32,32-32c5.891,0,10.667-4.776,10.667-10.667S379.224,0,373.333,0z"
   id="path2" />
<path
   style="fill:#1976D2;"
   d="M384,0L384,0c23.564,0,42.667,19.103,42.667,42.667v32c0,5.891-4.776,10.667-10.667,10.667h-74.667  l0,0V42.667C341.333,19.103,360.436,0,384,0z"
   id="path4" />


<g
   id="g10">
</g>
<g
   id="g12">
</g>
<g
   id="g14">
</g>
<g
   id="g16">
</g>
<g
   id="g18">
</g>
<g
   id="g20">
</g>
<g
   id="g22">
</g>
<g
   id="g24">
</g>
<g
   id="g26">
</g>
<g
   id="g28">
</g>
<g
   id="g30">
</g>
<g
   id="g32">
</g>
<g
   id="g34">
</g>
<g
   id="g36">
</g>
<g
   id="g38">
</g>
<circle
   style="opacity:1;fill:#ffffff;fill-opacity:1;stroke:#ffffff;stroke-width:4.62599993;stroke-miterlimit:4;stroke-dasharray:none;stroke-dashoffset:99.99999237;stroke-opacity:1"
   id="path909"
   cx="321.08472"
   cy="227.79662"
   r="110.64407" /><g
   id="g907"
   transform="matrix(0.55525359,0,0,0.55525359,193.24383,102.12519)"><path
     id="path852"
     d="M 234.146,0 C 104.898,0 0,104.898 0,234.146 0,363.394 104.898,468.292 234.146,468.292 363.394,468.292 468.292,363.394 468.292,234.146 468.292,104.898 363.395,0 234.146,0 Z M 66.185,234.146 c 0,-93.034 75.551,-168.585 167.961,-168.585 34.966,0 68.059,10.615 94.907,29.346 L 95.532,329.054 C 76.8,302.205 66.185,269.112 66.185,234.146 Z m 167.961,167.961 c -34.966,0 -68.059,-10.615 -94.907,-29.346 L 372.761,139.239 c 18.732,26.849 29.346,59.941 29.346,94.907 0,93.034 -74.927,167.961 -167.961,167.961 z"
     style="fill:#d15241"
     inkscape:connector-curvature="0" /><g
     id="g854">
</g><g
     id="g856">
</g><g
     id="g858">
</g><g
     id="g860">
</g><g
     id="g862">
</g><g
     id="g864">
</g><g
     id="g866">
</g><g
     id="g868">
</g><g
     id="g870">
</g><g
     id="g872">
</g><g
     id="g874">
</g><g
     id="g876">
</g><g
     id="g878">
</g><g
     id="g880">
</g><g
     id="g882">
</g></g></svg>