<?xml version="1.0" encoding="UTF-8" standalone="no"?>
<!-- Generator: Adobe Illustrator 19.0.0, SVG Export Plug-In . SVG Version: 6.00 Build 0)  -->

<svg
   xmlns:dc="http://purl.org/dc/elements/1.1/"
   xmlns:cc="http://creativecommons.org/ns#"
   xmlns:rdf="http://www.w3.org/1999/02/22-rdf-syntax-ns#"
   xmlns:svg="http://www.w3.org/2000/svg"
   xmlns="http://www.w3.org/2000/svg"
   xmlns:sodipodi="http://sodipodi.sourceforge.net/DTD/sodipodi-0.dtd"
   xmlns:inkscape="http://www.inkscape.org/namespaces/inkscape"
   version="1.1"
   id="Layer_1"
   x="0px"
   y="0px"
   viewBox="0 0 256.64652 256.65399"
   xml:space="preserve"
   sodipodi:docname="close.svg"
   inkscape:version="0.92.5 (2060ec1f9f, 2020-04-08)"
   width="256.64651"
   height="256.65399"><metadata
   id="metadata47"><rdf:RDF><cc:Work
       rdf:about=""><dc:format>image/svg+xml</dc:format><dc:type
         rdf:resource="http://purl.org/dc/dcmitype/StillImage" /><dc:title /></cc:Work></rdf:RDF></metadata><defs
   id="defs45">
	
	
</defs><sodipodi:namedview
   pagecolor="#ffffff"
   bordercolor="#666666"
   borderopacity="1"
   objecttolerance="10"
   gridtolerance="10"
   guidetolerance="10"
   inkscape:pageopacity="0"
   inkscape:pageshadow="2"
   inkscape:window-width="1207"
   inkscape:window-height="817"
   id="namedview43"
   showgrid="false"
   width="400"
   height="400"
   inkscape:zoom="0.4609375"
   inkscape:cx="-637.50725"
   inkscape:cy="128.32601"
   inkscape:window-x="40"
   inkscape:window-y="0"
   inkscape:window-maximized="0"
   inkscape:current-layer="Layer_1" />

<polygon
   style="fill:#f4b2b0"
   points="142.176,190.372 207.803,255.999 142.176,321.628 190.371,369.824 255.999,304.195 321.628,369.824 369.824,321.628 304.195,255.999 369.824,190.372 321.628,142.175 255.999,207.803 190.371,142.175 "
   id="polygon8"
   transform="translate(-127.67675,-127.672)" />
<path
   style="fill:#b3404a"
   d="m 193.95125,256.654 c -3.846,0 -7.534,-1.529 -10.254,-4.248 l -55.374,-55.374 -55.374,55.374 c -2.721,2.719 -6.408,4.248 -10.254,4.248 -3.846,0 -7.534,-1.529 -10.254,-4.248 L 4.24725,204.21 c -5.663,-5.663 -5.663,-14.846 0,-20.509 l 55.374,-55.374 -55.374,-55.374 c -5.663,-5.663 -5.663,-14.844 0,-20.509 L 52.44125,4.248 C 55.16225,1.529 58.84925,0 62.69525,0 c 3.846,0 7.534,1.529 10.254,4.248 l 55.374,55.374 55.374,-55.374 c 2.721,-2.719 6.408,-4.248 10.254,-4.248 3.846,0 7.534,1.529 10.254,4.248 l 48.194,48.196 c 5.663,5.663 5.663,14.846 0,20.509 l -55.374,55.374 55.374,55.374 c 5.663,5.663 5.663,14.844 0,20.509 l -48.194,48.196 c -2.719,2.719 -6.407,4.248 -10.254,4.248 z m -65.629,-94.633 c 3.712,0 7.422,1.417 10.254,4.248 l 55.374,55.374 27.687,-27.687 -55.374,-55.374 c -5.663,-5.663 -5.663,-14.846 0,-20.509 l 55.374,-55.374 -27.687,-27.687 -55.374,55.374 c -5.664,5.663 -14.844,5.663 -20.51,0 l -55.374,-55.374 -27.687,27.687 55.374,55.374 c 5.663,5.663 5.663,14.846 0,20.509 l -55.374,55.374 27.687,27.687 55.374,-55.374 c 2.834,-2.831 6.545,-4.248 10.256,-4.248 z"
   id="path10"
   inkscape:connector-curvature="0" />
<g
   id="g12"
   transform="translate(-127.67675,-127.672)">
</g>
<g
   id="g14"
   transform="translate(-127.67675,-127.672)">
</g>
<g
   id="g16"
   transform="translate(-127.67675,-127.672)">
</g>
<g
   id="g18"
   transform="translate(-127.67675,-127.672)">
</g>
<g
   id="g20"
   transform="translate(-127.67675,-127.672)">
</g>
<g
   id="g22"
   transform="translate(-127.67675,-127.672)">
</g>
<g
   id="g24"
   transform="translate(-127.67675,-127.672)">
</g>
<g
   id="g26"
   transform="translate(-127.67675,-127.672)">
</g>
<g
   id="g28"
   transform="translate(-127.67675,-127.672)">
</g>
<g
   id="g30"
   transform="translate(-127.67675,-127.672)">
</g>
<g
   id="g32"
   transform="translate(-127.67675,-127.672)">
</g>
<g
   id="g34"
   transform="translate(-127.67675,-127.672)">
</g>
<g
   id="g36"
   transform="translate(-127.67675,-127.672)">
</g>
<g
   id="g38"
   transform="translate(-127.67675,-127.672)">
</g>
<g
   id="g40"
   transform="translate(-127.67675,-127.672)">
</g>
</svg>