<?xml version="1.0" encoding="UTF-8" standalone="no"?>
<svg
   xmlns:dc="http://purl.org/dc/elements/1.1/"
   xmlns:cc="http://creativecommons.org/ns#"
   xmlns:rdf="http://www.w3.org/1999/02/22-rdf-syntax-ns#"
   xmlns:svg="http://www.w3.org/2000/svg"
   xmlns="http://www.w3.org/2000/svg"
   xmlns:sodipodi="http://sodipodi.sourceforge.net/DTD/sodipodi-0.dtd"
   xmlns:inkscape="http://www.inkscape.org/namespaces/inkscape"
   id="Capa_1"
   enable-background="new 0 0 512 512"
   height="512"
   viewBox="0 0 512 512"
   width="512"
   version="1.1"
   sodipodi:docname="layers (1).svg"
   inkscape:version="0.92.5 (2060ec1f9f, 2020-04-08)">
  <metadata
     id="metadata33">
    <rdf:RDF>
      <cc:Work
         rdf:about="">
        <dc:format>image/svg+xml</dc:format>
        <dc:type
           rdf:resource="http://purl.org/dc/dcmitype/StillImage" />
      </cc:Work>
    </rdf:RDF>
  </metadata>
  <defs
     id="defs31" />
  <sodipodi:namedview
     pagecolor="#ffffff"
     bordercolor="#666666"
     borderopacity="1"
     objecttolerance="10"
     gridtolerance="10"
     guidetolerance="10"
     inkscape:pageopacity="0"
     inkscape:pageshadow="2"
     inkscape:window-width="1392"
     inkscape:window-height="819"
     id="namedview29"
     showgrid="false"
     inkscape:zoom="0.65186406"
     inkscape:cx="32.062776"
     inkscape:cy="315.1517"
     inkscape:window-x="813"
     inkscape:window-y="117"
     inkscape:window-maximized="0"
     inkscape:current-layer="g26" />
  <g
     id="g26">
    <path
       d="m362 437v75h-106l-75-150z"
       id="path2"
       fill="#28abfa"
       style="fill:#ff0000;fill-opacity:0.64705884" />
    <path
       d="m0 150h256v362h-256z"
       id="path4"
       fill="#14cfff"
       style="fill:#ff0000;fill-opacity:1" />
    <path
       d="m256 0 60 105h-166v-105z"
       id="path6"
       fill="#ffe7b5" />
    <path
       d="m512 0v362h-75-181v-362z"
       id="path8"
       fill="#ffd06a" />
    <path
       d="m437 362v75h-75l-30-105z"
       id="path10"
       fill="#373e9f" />
    <path
       d="m362 332v105h-106l-30-105z"
       id="path12"
       fill="#3a6fd8" />
    <path
       d="m150 75 60 135-135-60v-75z"
       id="path14"
       fill="#6241ea" />
    <path
       d="m75 150h181v287h-181z"
       id="path16"
       fill="#3b88f5" />
    <path
       d="m437 75v287h-75l-166-106 60-181z"
       id="path18"
       fill="#2db94d" />
    <path
       d="m256 75v181l-106-106v-75z"
       id="path20"
       fill="#61ce5a" />
    <path
       d="m362 150v212h-106l-60-106 60-106z"
       fill="#61ce5a"
       id="path22" />
    <path
       d="m150 150h106v212h-106z"
       fill="#94e368"
       id="path24" />
  </g>
</svg>
